<?xml version="1.0" encoding="us-ascii" standalone="no"?><svg xmlns="http://www.w3.org/2000/svg" xmlns:xlink="http://www.w3.org/1999/xlink" contentStyleType="text/css" height="476px" preserveAspectRatio="none" style="width:567px;height:476px;background:#FFFFFF;" version="1.1" viewBox="0 0 567 476" width="567px" zoomAndPan="magnify"><defs/><g><text fill="#000000" font-family="sans-serif" font-size="14" font-weight="bold" lengthAdjust="spacing" textLength="128" x="218.25" y="32.9951">Create Alloy Sig</text><ellipse cx="239.75" cy="57.2969" fill="#222222" rx="10" ry="10" style="stroke:#222222;stroke-width:1.0;"/><polygon fill="#F1F1F1" points="193.75,87.2969,285.75,87.2969,297.75,99.2969,285.75,111.2969,193.75,111.2969,181.75,99.2969,193.75,87.2969" style="stroke:#181818;stroke-width:0.5;"/><text fill="#000000" font-family="sans-serif" font-size="11" lengthAdjust="spacing" textLength="92" x="193.75" y="103.105">Signature Exists</text><text fill="#000000" font-family="sans-serif" font-size="11" lengthAdjust="spacing" textLength="21" x="160.75" y="96.7026">yes</text><text fill="#000000" font-family="sans-serif" font-size="11" lengthAdjust="spacing" textLength="14" x="297.75" y="96.7026">no</text><rect fill="#F1F1F1" height="33.9688" rx="12.5" ry="12.5" style="stroke:#181818;stroke-width:0.5;" width="175" x="11" y="121.2969"/><text fill="#000000" font-family="sans-serif" font-size="12" lengthAdjust="spacing" textLength="155" x="21" y="142.4355">Return Signature from List</text><ellipse cx="98.5" cy="186.2656" fill="none" rx="11" ry="11" style="stroke:#222222;stroke-width:1.0;"/><ellipse cx="98.5" cy="186.2656" fill="#222222" rx="6" ry="6" style="stroke:#222222;stroke-width:1.0;"/><rect fill="#F1F1F1" height="33.9688" rx="12.5" ry="12.5" style="stroke:#181818;stroke-width:0.5;" width="121" x="320.5" y="121.2969"/><text fill="#000000" font-family="sans-serif" font-size="12" lengthAdjust="spacing" textLength="101" x="330.5" y="142.4355">Create Signature</text><polygon fill="#F1F1F1" points="308,175.2656,454,175.2656,466,187.2656,454,199.2656,308,199.2656,296,187.2656,308,175.2656" style="stroke:#181818;stroke-width:0.5;"/><text fill="#000000" font-family="sans-serif" font-size="11" lengthAdjust="spacing" textLength="146" x="308" y="191.0737">Parent Sig Does Not Exist</text><text fill="#000000" font-family="sans-serif" font-size="11" lengthAdjust="spacing" textLength="21" x="275" y="184.6714">yes</text><text fill="#000000" font-family="sans-serif" font-size="11" lengthAdjust="spacing" textLength="14" x="466" y="184.6714">no</text><rect fill="#F1F1F1" height="47.9375" rx="12.5" ry="12.5" style="stroke:#181818;stroke-width:0.5;" width="140" x="216" y="209.2656"/><text fill="#000000" font-family="sans-serif" font-size="12" lengthAdjust="spacing" textLength="81" x="226" y="230.4043">Create Sig as</text><text fill="#000000" font-family="sans-serif" font-size="12" lengthAdjust="spacing" textLength="120" x="226" y="244.373">Child of Occurrence</text><rect fill="#F1F1F1" height="33.9688" rx="12.5" ry="12.5" style="stroke:#181818;stroke-width:0.5;" width="161" x="395.5" y="209.2656"/><text fill="#000000" font-family="sans-serif" font-size="12" lengthAdjust="spacing" textLength="141" x="405.5" y="230.4043">Get Parent Sig from List</text><rect fill="#F1F1F1" height="47.9375" rx="12.5" ry="12.5" style="stroke:#181818;stroke-width:0.5;" width="106" x="423" y="277.2031"/><text fill="#000000" font-family="sans-serif" font-size="12" lengthAdjust="spacing" textLength="81" x="433" y="298.3418">Create Sig as</text><text fill="#000000" font-family="sans-serif" font-size="12" lengthAdjust="spacing" textLength="86" x="433" y="312.3105">Child of Parent</text><polygon fill="#F1F1F1" points="381,331.1406,393,343.1406,381,355.1406,369,343.1406,381,331.1406" style="stroke:#181818;stroke-width:0.5;"/><rect fill="#F1F1F1" height="47.9375" rx="12.5" ry="12.5" style="stroke:#181818;stroke-width:0.5;" width="145" x="308.5" y="375.1406"/><text fill="#000000" font-family="sans-serif" font-size="12" lengthAdjust="spacing" textLength="125" x="318.5" y="396.2793">Add Signature to List</text><text fill="#000000" font-family="sans-serif" font-size="12" lengthAdjust="spacing" textLength="103" x="318.5" y="410.248">:Return Signature</text><ellipse cx="381" cy="454.0781" fill="none" rx="11" ry="11" style="stroke:#222222;stroke-width:1.0;"/><ellipse cx="381" cy="454.0781" fill="#222222" rx="6" ry="6" style="stroke:#222222;stroke-width:1.0;"/><line style="stroke:#181818;stroke-width:1.0;" x1="98.5" x2="98.5" y1="155.2656" y2="175.2656"/><polygon fill="#181818" points="94.5,165.2656,98.5,175.2656,102.5,165.2656,98.5,169.2656" style="stroke:#181818;stroke-width:1.0;"/><line style="stroke:#181818;stroke-width:1.0;" x1="476" x2="476" y1="243.2344" y2="277.2031"/><polygon fill="#181818" points="472,267.2031,476,277.2031,480,267.2031,476,271.2031" style="stroke:#181818;stroke-width:1.0;"/><line style="stroke:#181818;stroke-width:1.0;" x1="296" x2="286" y1="187.2656" y2="187.2656"/><line style="stroke:#181818;stroke-width:1.0;" x1="286" x2="286" y1="187.2656" y2="209.2656"/><polygon fill="#181818" points="282,199.2656,286,209.2656,290,199.2656,286,203.2656" style="stroke:#181818;stroke-width:1.0;"/><line style="stroke:#181818;stroke-width:1.0;" x1="466" x2="476" y1="187.2656" y2="187.2656"/><line style="stroke:#181818;stroke-width:1.0;" x1="476" x2="476" y1="187.2656" y2="209.2656"/><polygon fill="#181818" points="472,199.2656,476,209.2656,480,199.2656,476,203.2656" style="stroke:#181818;stroke-width:1.0;"/><line style="stroke:#181818;stroke-width:1.0;" x1="286" x2="286" y1="257.2031" y2="343.1406"/><line style="stroke:#181818;stroke-width:1.0;" x1="286" x2="369" y1="343.1406" y2="343.1406"/><polygon fill="#181818" points="359,339.1406,369,343.1406,359,347.1406,363,343.1406" style="stroke:#181818;stroke-width:1.0;"/><line style="stroke:#181818;stroke-width:1.0;" x1="476" x2="476" y1="325.1406" y2="343.1406"/><line style="stroke:#181818;stroke-width:1.0;" x1="476" x2="393" y1="343.1406" y2="343.1406"/><polygon fill="#181818" points="403,339.1406,393,343.1406,403,347.1406,399,343.1406" style="stroke:#181818;stroke-width:1.0;"/><line style="stroke:#181818;stroke-width:1.0;" x1="381" x2="381" y1="155.2656" y2="175.2656"/><polygon fill="#181818" points="377,165.2656,381,175.2656,385,165.2656,381,169.2656" style="stroke:#181818;stroke-width:1.0;"/><line style="stroke:#181818;stroke-width:1.0;" x1="381" x2="381" y1="355.1406" y2="375.1406"/><polygon fill="#181818" points="377,365.1406,381,375.1406,385,365.1406,381,369.1406" style="stroke:#181818;stroke-width:1.0;"/><line style="stroke:#181818;stroke-width:1.0;" x1="381" x2="381" y1="423.0781" y2="443.0781"/><polygon fill="#181818" points="377,433.0781,381,443.0781,385,433.0781,381,437.0781" style="stroke:#181818;stroke-width:1.0;"/><line style="stroke:#181818;stroke-width:1.0;" x1="181.75" x2="98.5" y1="99.2969" y2="99.2969"/><line style="stroke:#181818;stroke-width:1.0;" x1="98.5" x2="98.5" y1="99.2969" y2="121.2969"/><polygon fill="#181818" points="94.5,111.2969,98.5,121.2969,102.5,111.2969,98.5,115.2969" style="stroke:#181818;stroke-width:1.0;"/><line style="stroke:#181818;stroke-width:1.0;" x1="297.75" x2="381" y1="99.2969" y2="99.2969"/><line style="stroke:#181818;stroke-width:1.0;" x1="381" x2="381" y1="99.2969" y2="121.2969"/><polygon fill="#181818" points="377,111.2969,381,121.2969,385,111.2969,381,115.2969" style="stroke:#181818;stroke-width:1.0;"/><line style="stroke:#181818;stroke-width:1.0;" x1="239.75" x2="239.75" y1="67.2969" y2="87.2969"/><polygon fill="#181818" points="235.75,77.2969,239.75,87.2969,243.75,77.2969,239.75,81.2969" style="stroke:#181818;stroke-width:1.0;"/><!--SRC=[TOz12i8m44NtESLVfbTeLwMA6r7H4uHcee6OI385Utj7AxOYBYVpvlryzXm8NIR3X3Q4DEBapwgmoQoyqp94mqCchE- -SAd05uhG8vLArKUILSGCkPoks0hOY2BT58L2EYP1tn4Vj14xzC5aYlnynIfHmIxn5FITCn_35AZkueD5SjZt_P35q8jkZjeGOo5U_EclQC954grtgcwjNPJYz3h_hJkLV000]--></g></svg>