<?xml version="1.0" encoding="us-ascii" standalone="no"?><svg xmlns="http://www.w3.org/2000/svg" xmlns:xlink="http://www.w3.org/1999/xlink" contentStyleType="text/css" height="229px" preserveAspectRatio="none" style="width:2137px;height:229px;" version="1.1" viewBox="0 0 2137 229" width="2137px" zoomAndPan="magnify"><defs/><g><!--class edu.gatech.gtri.obm.translator.alloy--><a href="edu/gatech/gtri/obm/translator/alloy/package-summary.html" target="_top" title="edu/gatech/gtri/obm/translator/alloy/package-summary.html" xlink:actuate="onRequest" xlink:href="edu/gatech/gtri/obm/translator/alloy/package-summary.html" xlink:show="new" xlink:title="edu/gatech/gtri/obm/translator/alloy/package-summary.html" xlink:type="simple"><g id="elem_edu.gatech.gtri.obm.translator.alloy"><rect codeLine="28" fill="#F1F1F1" height="26.2969" id="edu.gatech.gtri.obm.translator.alloy" rx="2.5" ry="2.5" style="stroke:#181818;stroke-width:0.5;" width="249" x="380" y="93"/><text fill="#000000" font-family="sans-serif" font-size="14" lengthAdjust="spacing" textLength="243" x="383" y="110.9951">edu.gatech.gtri.obm.translator.alloy</text></g></a><!--class edu.mit.csail.sdg.ast--><g id="elem_edu.mit.csail.sdg.ast"><rect fill="#F1F1F1" height="26.2969" id="edu.mit.csail.sdg.ast" rx="2.5" ry="2.5" style="stroke:#181818;stroke-width:0.5;" width="147" x="1026" y="179"/><text fill="#000000" font-family="sans-serif" font-size="14" lengthAdjust="spacing" textLength="141" x="1029" y="196.9951">edu.mit.csail.sdg.ast</text></g><!--class edu.mit.csail.sdg.parser--><g id="elem_edu.mit.csail.sdg.parser"><rect fill="#F1F1F1" height="26.2969" id="edu.mit.csail.sdg.parser" rx="2.5" ry="2.5" style="stroke:#181818;stroke-width:0.5;" width="170" x="820.5" y="179"/><text fill="#000000" font-family="sans-serif" font-size="14" lengthAdjust="spacing" textLength="164" x="823.5" y="196.9951">edu.mit.csail.sdg.parser</text></g><!--class org.eclipse.uml2.uml--><g id="elem_org.eclipse.uml2.uml"><rect fill="#F1F1F1" height="26.2969" id="org.eclipse.uml2.uml" rx="2.5" ry="2.5" style="stroke:#181818;stroke-width:0.5;" width="149" x="7" y="179"/><text fill="#000000" font-family="sans-serif" font-size="14" lengthAdjust="spacing" textLength="143" x="10" y="196.9951">org.eclipse.uml2.uml</text></g><!--class edu.mit.csail.sdg.alloy4viz--><g id="elem_edu.mit.csail.sdg.alloy4viz"><rect fill="#F1F1F1" height="26.2969" id="edu.mit.csail.sdg.alloy4viz" rx="2.5" ry="2.5" style="stroke:#181818;stroke-width:0.5;" width="183" x="191" y="179"/><text fill="#000000" font-family="sans-serif" font-size="14" lengthAdjust="spacing" textLength="177" x="194" y="196.9951">edu.mit.csail.sdg.alloy4viz</text></g><!--class edu.mit.csail.sdg.translator--><g id="elem_edu.mit.csail.sdg.translator"><rect fill="#F1F1F1" height="26.2969" id="edu.mit.csail.sdg.translator" rx="2.5" ry="2.5" style="stroke:#181818;stroke-width:0.5;" width="191" x="409" y="179"/><text fill="#000000" font-family="sans-serif" font-size="14" lengthAdjust="spacing" textLength="185" x="412" y="196.9951">edu.mit.csail.sdg.translator</text></g><!--class edu.mit.csail.sdg.alloy4--><g id="elem_edu.mit.csail.sdg.alloy4"><rect fill="#F1F1F1" height="26.2969" id="edu.mit.csail.sdg.alloy4" rx="2.5" ry="2.5" style="stroke:#181818;stroke-width:0.5;" width="165" x="1236" y="179"/><text fill="#000000" font-family="sans-serif" font-size="14" lengthAdjust="spacing" textLength="159" x="1239" y="196.9951">edu.mit.csail.sdg.alloy4</text></g><!--class edu.mit.csail.sdg.sim--><g id="elem_edu.mit.csail.sdg.sim"><rect fill="#F1F1F1" height="26.2969" id="edu.mit.csail.sdg.sim" rx="2.5" ry="2.5" style="stroke:#181818;stroke-width:0.5;" width="150" x="635.5" y="179"/><text fill="#000000" font-family="sans-serif" font-size="14" lengthAdjust="spacing" textLength="144" x="638.5" y="196.9951">edu.mit.csail.sdg.sim</text></g><!--class edu.gatech.gtri.obm.translator.alloy.fromxmi--><a href="edu/gatech/gtri/obm/translator/alloy/fromxmi/package-summary.html" target="_top" title="edu/gatech/gtri/obm/translator/alloy/fromxmi/package-summary.html" xlink:actuate="onRequest" xlink:href="edu/gatech/gtri/obm/translator/alloy/fromxmi/package-summary.html" xlink:show="new" xlink:title="edu/gatech/gtri/obm/translator/alloy/fromxmi/package-summary.html" xlink:type="simple"><g id="elem_edu.gatech.gtri.obm.translator.alloy.fromxmi"><rect codeLine="30" fill="#F1F1F1" height="26.2969" id="edu.gatech.gtri.obm.translator.alloy.fromxmi" rx="2.5" ry="2.5" style="stroke:#181818;stroke-width:0.5;" width="307" x="801" y="7"/><text fill="#000000" font-family="sans-serif" font-size="14" lengthAdjust="spacing" textLength="301" x="804" y="24.9951">edu.gatech.gtri.obm.translator.alloy.fromxmi</text></g></a><!--class edu.umd.omgutil.sysml.sysml1--><g id="elem_edu.umd.omgutil.sysml.sysml1"><rect fill="#F1F1F1" height="26.2969" id="edu.umd.omgutil.sysml.sysml1" rx="2.5" ry="2.5" style="stroke:#181818;stroke-width:0.5;" width="218" x="735.5" y="93"/><text fill="#000000" font-family="sans-serif" font-size="14" lengthAdjust="spacing" textLength="212" x="738.5" y="110.9951">edu.umd.omgutil.sysml.sysml1</text></g><!--class edu.umd.omgutil--><g id="elem_edu.umd.omgutil"><rect fill="#F1F1F1" height="26.2969" id="edu.umd.omgutil" rx="2.5" ry="2.5" style="stroke:#181818;stroke-width:0.5;" width="123" x="1568" y="93"/><text fill="#000000" font-family="sans-serif" font-size="14" lengthAdjust="spacing" textLength="117" x="1571" y="110.9951">edu.umd.omgutil</text></g><!--class edu.umd.omgutil.uml--><g id="elem_edu.umd.omgutil.uml"><rect fill="#F1F1F1" height="26.2969" id="edu.umd.omgutil.uml" rx="2.5" ry="2.5" style="stroke:#181818;stroke-width:0.5;" width="152" x="988.5" y="93"/><text fill="#000000" font-family="sans-serif" font-size="14" lengthAdjust="spacing" textLength="146" x="991.5" y="110.9951">edu.umd.omgutil.uml</text></g><!--class edu.gatech.gtri.obm.translator.alloy.tofile--><a href="edu/gatech/gtri/obm/translator/alloy/tofile/package-summary.html" target="_top" title="edu/gatech/gtri/obm/translator/alloy/tofile/package-summary.html" xlink:actuate="onRequest" xlink:href="edu/gatech/gtri/obm/translator/alloy/tofile/package-summary.html" xlink:show="new" xlink:title="edu/gatech/gtri/obm/translator/alloy/tofile/package-summary.html" xlink:type="simple"><g id="elem_edu.gatech.gtri.obm.translator.alloy.tofile"><rect codeLine="32" fill="#F1F1F1" height="26.2969" id="edu.gatech.gtri.obm.translator.alloy.tofile" rx="2.5" ry="2.5" style="stroke:#181818;stroke-width:0.5;" width="286" x="1175.5" y="93"/><text fill="#000000" font-family="sans-serif" font-size="14" lengthAdjust="spacing" textLength="280" x="1178.5" y="110.9951">edu.gatech.gtri.obm.translator.alloy.tofile</text></g></a><!--class edu.gatech.gtri.obm.translator.alloy.graph--><a href="edu/gatech/gtri/obm/translator/alloy/graph/package-summary.html" target="_top" title="edu/gatech/gtri/obm/translator/alloy/graph/package-summary.html" xlink:actuate="onRequest" xlink:href="edu/gatech/gtri/obm/translator/alloy/graph/package-summary.html" xlink:show="new" xlink:title="edu/gatech/gtri/obm/translator/alloy/graph/package-summary.html" xlink:type="simple"><g id="elem_edu.gatech.gtri.obm.translator.alloy.graph"><rect codeLine="34" fill="#F1F1F1" height="26.2969" id="edu.gatech.gtri.obm.translator.alloy.graph" rx="2.5" ry="2.5" style="stroke:#181818;stroke-width:0.5;" width="293" x="1837" y="7"/><text fill="#000000" font-family="sans-serif" font-size="14" lengthAdjust="spacing" textLength="287" x="1840" y="24.9951">edu.gatech.gtri.obm.translator.alloy.graph</text></g></a><!--class org.graphstream.graph--><g id="elem_org.graphstream.graph"><rect fill="#F1F1F1" height="26.2969" id="org.graphstream.graph" rx="2.5" ry="2.5" style="stroke:#181818;stroke-width:0.5;" width="165" x="1901" y="93"/><text fill="#000000" font-family="sans-serif" font-size="14" lengthAdjust="spacing" textLength="159" x="1904" y="110.9951">org.graphstream.graph</text></g><!--class edu.gatech.gtri.obm.translator.alloy.userinterface--><a href="edu/gatech/gtri/obm/translator/alloy/userinterface/package-summary.html" target="_top" title="edu/gatech/gtri/obm/translator/alloy/userinterface/package-summary.html" xlink:actuate="onRequest" xlink:href="edu/gatech/gtri/obm/translator/alloy/userinterface/package-summary.html" xlink:show="new" xlink:title="edu/gatech/gtri/obm/translator/alloy/userinterface/package-summary.html" xlink:type="simple"><g id="elem_edu.gatech.gtri.obm.translator.alloy.userinterface"><rect codeLine="36" fill="#F1F1F1" height="26.2969" id="edu.gatech.gtri.obm.translator.alloy.userinterface" rx="2.5" ry="2.5" style="stroke:#181818;stroke-width:0.5;" width="344" x="1457.5" y="7"/><text fill="#000000" font-family="sans-serif" font-size="14" lengthAdjust="spacing" textLength="338" x="1460.5" y="24.9951">edu.gatech.gtri.obm.translator.alloy.userinterface</text></g></a><!--link edu.gatech.gtri.obm.translator.alloy to edu.mit.csail.sdg.ast--><g id="link_edu.gatech.gtri.obm.translator.alloy_edu.mit.csail.sdg.ast"><path codeLine="7" d="M589.75,119.04 C706.71,135.55 909.069,164.1108 1019.719,179.7408 " fill="none" id="edu.gatech.gtri.obm.translator.alloy-to-edu.mit.csail.sdg.ast" style="stroke:#181818;stroke-width:1.0;"/><polygon fill="#181818" points="1025.66,180.58,1017.3079,175.3605,1020.7091,179.8807,1016.189,183.2819,1025.66,180.58" style="stroke:#181818;stroke-width:1.0;"/></g><!--link edu.gatech.gtri.obm.translator.alloy to edu.mit.csail.sdg.parser--><g id="link_edu.gatech.gtri.obm.translator.alloy_edu.mit.csail.sdg.parser"><path codeLine="8" d="M561.95,119.04 C638.18,135 766.1075,161.7995 842.2775,177.7595 " fill="none" id="edu.gatech.gtri.obm.translator.alloy-to-edu.mit.csail.sdg.parser" style="stroke:#181818;stroke-width:1.0;"/><polygon fill="#181818" points="848.15,178.99,840.1616,173.2293,843.2563,177.9646,838.521,181.0593,848.15,178.99" style="stroke:#181818;stroke-width:1.0;"/></g><!--link edu.gatech.gtri.obm.translator.alloy to org.eclipse.uml2.uml--><g id="link_edu.gatech.gtri.obm.translator.alloy_org.eclipse.uml2.uml"><path codeLine="9" d="M443.89,119.04 C363.48,135 228.2351,161.8612 147.8751,177.8212 " fill="none" id="edu.gatech.gtri.obm.translator.alloy-to-org.eclipse.uml2.uml" style="stroke:#181818;stroke-width:1.0;"/><polygon fill="#181818" points="141.99,178.99,151.5968,181.1602,146.8942,178.016,150.0384,173.3134,141.99,178.99" style="stroke:#181818;stroke-width:1.0;"/></g><!--link edu.gatech.gtri.obm.translator.alloy to edu.mit.csail.sdg.alloy4viz--><g id="link_edu.gatech.gtri.obm.translator.alloy_edu.mit.csail.sdg.alloy4viz"><path codeLine="10" d="M472.69,119.04 C430.49,135 362.0316,160.9062 319.8616,176.8662 " fill="none" id="edu.gatech.gtri.obm.translator.alloy-to-edu.mit.csail.sdg.alloy4viz" style="stroke:#181818;stroke-width:1.0;"/><polygon fill="#181818" points="314.25,178.99,324.0832,179.5453,318.9263,177.2202,321.2515,172.0633,314.25,178.99" style="stroke:#181818;stroke-width:1.0;"/></g><!--link edu.gatech.gtri.obm.translator.alloy to edu.mit.csail.sdg.translator--><g id="link_edu.gatech.gtri.obm.translator.alloy_edu.mit.csail.sdg.translator"><path codeLine="11" d="M504.5,119.04 C504.5,135 504.5,157.03 504.5,172.99 " fill="none" id="edu.gatech.gtri.obm.translator.alloy-to-edu.mit.csail.sdg.translator" style="stroke:#181818;stroke-width:1.0;"/><polygon fill="#181818" points="504.5,178.99,508.5,169.99,504.5,173.99,500.5,169.99,504.5,178.99" style="stroke:#181818;stroke-width:1.0;"/></g><!--link edu.gatech.gtri.obm.translator.alloy to edu.mit.csail.sdg.alloy4--><g id="link_edu.gatech.gtri.obm.translator.alloy_edu.mit.csail.sdg.alloy4"><path codeLine="12" d="M621.13,119.04 C787.85,136.24 1084.2417,166.8242 1229.8217,181.8442 " fill="none" id="edu.gatech.gtri.obm.translator.alloy-to-edu.mit.csail.sdg.alloy4" style="stroke:#181818;stroke-width:1.0;"/><polygon fill="#181818" points="1235.79,182.46,1227.248,177.5575,1230.8164,181.9469,1226.427,185.5152,1235.79,182.46" style="stroke:#181818;stroke-width:1.0;"/></g><!--link edu.gatech.gtri.obm.translator.alloy to edu.mit.csail.sdg.sim--><g id="link_edu.gatech.gtri.obm.translator.alloy_edu.mit.csail.sdg.sim"><path codeLine="13" d="M534.01,119.04 C573.18,135 636.3543,160.764 675.4843,176.724 " fill="none" id="edu.gatech.gtri.obm.translator.alloy-to-edu.mit.csail.sdg.sim" style="stroke:#181818;stroke-width:1.0;"/><polygon fill="#181818" points="681.04,178.99,674.2172,171.8872,676.4103,177.1017,671.1959,179.2948,681.04,178.99" style="stroke:#181818;stroke-width:1.0;"/></g><!--link edu.gatech.gtri.obm.translator.alloy.fromxmi to edu.umd.omgutil.sysml.sysml1--><g id="link_edu.gatech.gtri.obm.translator.alloy.fromxmi_edu.umd.omgutil.sysml.sysml1"><path codeLine="14" d="M938.74,33.04 C917.83,49 885.8986,73.3885 864.9986,89.3485 " fill="none" id="edu.gatech.gtri.obm.translator.alloy.fromxmi-to-edu.umd.omgutil.sysml.sysml1" style="stroke:#181818;stroke-width:1.0;"/><polygon fill="#181818" points="860.23,92.99,869.8106,90.7068,864.2038,89.9554,864.9553,84.3487,860.23,92.99" style="stroke:#181818;stroke-width:1.0;"/></g><!--link edu.gatech.gtri.obm.translator.alloy.fromxmi to edu.umd.omgutil--><g id="link_edu.gatech.gtri.obm.translator.alloy.fromxmi_edu.umd.omgutil"><path codeLine="15" d="M1055.39,33.03 C1172.19,47.04 1370.35,71.08 1540.5,93 C1549.31,94.14 1552.6729,94.5653 1561.8029,95.7853 " fill="none" id="edu.gatech.gtri.obm.translator.alloy.fromxmi-to-edu.umd.omgutil" style="stroke:#181818;stroke-width:1.0;"/><polygon fill="#181818" points="1567.75,96.58,1559.3591,91.4232,1562.7941,95.9178,1558.2995,99.3527,1567.75,96.58" style="stroke:#181818;stroke-width:1.0;"/></g><!--link edu.gatech.gtri.obm.translator.alloy.fromxmi to org.eclipse.uml2.uml--><g id="link_edu.gatech.gtri.obm.translator.alloy.fromxmi_org.eclipse.uml2.uml"><path codeLine="16" d="M800.84,30.61 C680.41,40.31 509.23,58.91 362.5,93 C267.38,115.1 165.0831,155.6595 115.1531,176.5995 " fill="none" id="edu.gatech.gtri.obm.translator.alloy.fromxmi-to-org.eclipse.uml2.uml" style="stroke:#181818;stroke-width:1.0;"/><polygon fill="#181818" points="109.62,178.92,119.4667,179.128,114.2309,176.9862,116.3726,171.7505,109.62,178.92" style="stroke:#181818;stroke-width:1.0;"/></g><!--link edu.gatech.gtri.obm.translator.alloy.fromxmi to edu.mit.csail.sdg.ast--><g id="link_edu.gatech.gtri.obm.translator.alloy.fromxmi_edu.mit.csail.sdg.ast"><path codeLine="17" d="M831.36,33.04 C754.48,45.5 677.15,70.33 717.5,119 C727.34,130.87 911.8737,161.5422 1020.0637,178.6622 " fill="none" id="edu.gatech.gtri.obm.translator.alloy.fromxmi-to-edu.mit.csail.sdg.ast" style="stroke:#181818;stroke-width:1.0;"/><polygon fill="#181818" points="1025.99,179.6,1017.7258,174.2425,1021.0514,178.8185,1016.4754,182.1442,1025.99,179.6" style="stroke:#181818;stroke-width:1.0;"/></g><!--link edu.gatech.gtri.obm.translator.alloy.fromxmi to edu.umd.omgutil.uml--><g id="link_edu.gatech.gtri.obm.translator.alloy.fromxmi_edu.umd.omgutil.uml"><path codeLine="18" d="M970.26,33.04 C991.17,49 1023.1014,73.3885 1044.0014,89.3485 " fill="none" id="edu.gatech.gtri.obm.translator.alloy.fromxmi-to-edu.umd.omgutil.uml" style="stroke:#181818;stroke-width:1.0;"/><polygon fill="#181818" points="1048.77,92.99,1044.0447,84.3487,1044.7962,89.9554,1039.1894,90.7068,1048.77,92.99" style="stroke:#181818;stroke-width:1.0;"/></g><!--link edu.gatech.gtri.obm.translator.alloy.fromxmi to edu.mit.csail.sdg.alloy4--><g id="link_edu.gatech.gtri.obm.translator.alloy.fromxmi_edu.mit.csail.sdg.alloy4"><path codeLine="19" d="M1108.07,31.93 C1253.84,43.91 1454.25,65.19 1478.5,93 C1514.57,134.37 1439.6518,162.2489 1380.2518,177.4889 " fill="none" id="edu.gatech.gtri.obm.translator.alloy.fromxmi-to-edu.mit.csail.sdg.alloy4" style="stroke:#181818;stroke-width:1.0;"/><polygon fill="#181818" points="1374.44,178.98,1384.1517,180.6179,1379.2831,177.7374,1382.1636,172.8688,1374.44,178.98" style="stroke:#181818;stroke-width:1.0;"/></g><!--link edu.gatech.gtri.obm.translator.alloy.fromxmi to edu.gatech.gtri.obm.translator.alloy.tofile--><g id="link_edu.gatech.gtri.obm.translator.alloy.fromxmi_edu.gatech.gtri.obm.translator.alloy.tofile"><path codeLine="20" d="M1006.65,33.04 C1075.85,49 1191.4537,75.6805 1260.5937,91.6405 " fill="none" id="edu.gatech.gtri.obm.translator.alloy.fromxmi-to-edu.gatech.gtri.obm.translator.alloy.tofile" style="stroke:#181818;stroke-width:1.0;"/><polygon fill="#181818" points="1266.44,92.99,1258.5703,87.0682,1261.5681,91.8654,1256.7709,94.8632,1266.44,92.99" style="stroke:#181818;stroke-width:1.0;"/></g><!--link edu.gatech.gtri.obm.translator.alloy.fromxmi to edu.gatech.gtri.obm.translator.alloy--><g id="link_edu.gatech.gtri.obm.translator.alloy.fromxmi_edu.gatech.gtri.obm.translator.alloy"><path codeLine="21" d="M890.03,33.04 C804.48,49 660.2381,75.9289 574.7481,91.8889 " fill="none" id="edu.gatech.gtri.obm.translator.alloy.fromxmi-to-edu.gatech.gtri.obm.translator.alloy" style="stroke:#181818;stroke-width:1.0;"/><polygon fill="#181818" points="568.85,92.99,578.4312,95.2704,573.7651,92.0724,576.9631,87.4063,568.85,92.99" style="stroke:#181818;stroke-width:1.0;"/></g><!--link edu.gatech.gtri.obm.translator.alloy.tofile to edu.mit.csail.sdg.ast--><g id="link_edu.gatech.gtri.obm.translator.alloy.tofile_edu.mit.csail.sdg.ast"><path codeLine="22" d="M1287.12,119.04 C1245.49,135 1178.0219,160.8808 1136.4219,176.8408 " fill="none" id="edu.gatech.gtri.obm.translator.alloy.tofile-to-edu.mit.csail.sdg.ast" style="stroke:#181818;stroke-width:1.0;"/><polygon fill="#181818" points="1130.82,178.99,1140.6556,179.5008,1135.4882,177.199,1137.79,172.0316,1130.82,178.99" style="stroke:#181818;stroke-width:1.0;"/></g><!--link edu.gatech.gtri.obm.translator.alloy.tofile to edu.mit.csail.sdg.alloy4--><g id="link_edu.gatech.gtri.obm.translator.alloy.tofile_edu.mit.csail.sdg.alloy4"><path codeLine="23" d="M1318.5,119.04 C1318.5,135 1318.5,157.03 1318.5,172.99 " fill="none" id="edu.gatech.gtri.obm.translator.alloy.tofile-to-edu.mit.csail.sdg.alloy4" style="stroke:#181818;stroke-width:1.0;"/><polygon fill="#181818" points="1318.5,178.99,1322.5,169.99,1318.5,173.99,1314.5,169.99,1318.5,178.99" style="stroke:#181818;stroke-width:1.0;"/></g><!--link edu.gatech.gtri.obm.translator.alloy.graph to org.graphstream.graph--><g id="link_edu.gatech.gtri.obm.translator.alloy.graph_org.graphstream.graph"><path codeLine="24" d="M1983.5,33.04 C1983.5,49 1983.5,71.03 1983.5,86.99 " fill="none" id="edu.gatech.gtri.obm.translator.alloy.graph-to-org.graphstream.graph" style="stroke:#181818;stroke-width:1.0;"/><polygon fill="#181818" points="1983.5,92.99,1987.5,83.99,1983.5,87.99,1979.5,83.99,1983.5,92.99" style="stroke:#181818;stroke-width:1.0;"/></g><!--link edu.gatech.gtri.obm.translator.alloy.userinterface to edu.umd.omgutil--><g id="link_edu.gatech.gtri.obm.translator.alloy.userinterface_edu.umd.omgutil"><path codeLine="25" d="M1629.5,33.04 C1629.5,49 1629.5,71.03 1629.5,86.99 " fill="none" id="edu.gatech.gtri.obm.translator.alloy.userinterface-to-edu.umd.omgutil" style="stroke:#181818;stroke-width:1.0;"/><polygon fill="#181818" points="1629.5,92.99,1633.5,83.99,1629.5,87.99,1625.5,83.99,1629.5,92.99" style="stroke:#181818;stroke-width:1.0;"/></g><text fill="#888888" font-family="sans-serif" font-size="10" lengthAdjust="spacing" textLength="186" x="968.5" y="219.5791">UMLDoclet 2.1.1, PlantUML 1.2023.12</text><!--SRC=[jLR1RjmW4BtdAqQHgZPI5cjNFVUKOoEjLFMqsWEBnpPQ1YmOhxgj-ky1l4cQfahOjNl1PdYyzu1XR020iDUsbruIxAJQjzuDjbREE0_ifGrn22rVGK8YWvM4CQRm6wP9767MMSpZdQuHbFRA_D57wla8ZKPJXx-ZXDov6Cvnh0VHIaRLYPQz5cv78ZimIKL8OzmH5eil6KYQXGfI6n7gLiZ0KodYOWBwyrYSRmKge_k0OY2pIitafQInpmVzSohHCsmUIrDPWgPY2j5uHpz8Fr4DL0j7xS29x1Zer2vdORoCPDBXlx9pUJw_kLTpUZel2rwnlJk1NQDFXUE_29GpZqxcE9ktcSxSqTRBldlAlTmBx57I-5vEDCHAfosZRs8T_-UDo5mVOHq_2B95CDhkn-AjZ0m1hajahc6pYRXgn5K9LqLSzOohCgxgHvL568YaFugEoMoty2iB_ZvNzZ4lYkLF-BbjZ4TVx6A4psqY9qQnXuoUsyABP2ksyc9MaILCQ6YSIu_lzr_lNFmDOLY9fLZUmjf8op4A7mxeWtRsqyq3]--></g></svg>