<?xml version="1.0" encoding="us-ascii" standalone="no"?><svg xmlns="http://www.w3.org/2000/svg" xmlns:xlink="http://www.w3.org/1999/xlink" contentStyleType="text/css" height="229px" preserveAspectRatio="none" style="width:1817px;height:229px;" version="1.1" viewBox="0 0 1817 229" width="1817px" zoomAndPan="magnify"><defs/><g><!--class edu.gatech.gtri.obm.translator.alloy--><a href="edu/gatech/gtri/obm/translator/alloy/package-summary.html" target="_top" title="edu/gatech/gtri/obm/translator/alloy/package-summary.html" xlink:actuate="onRequest" xlink:href="edu/gatech/gtri/obm/translator/alloy/package-summary.html" xlink:show="new" xlink:title="edu/gatech/gtri/obm/translator/alloy/package-summary.html" xlink:type="simple"><g id="elem_edu.gatech.gtri.obm.translator.alloy"><rect codeLine="28" fill="#F1F1F1" height="26.2969" id="edu.gatech.gtri.obm.translator.alloy" rx="2.5" ry="2.5" style="stroke:#181818;stroke-width:0.5;" width="249" x="964.26" y="93"/><text fill="#000000" font-family="sans-serif" font-size="14" lengthAdjust="spacing" textLength="243" x="967.26" y="110.9951">edu.gatech.gtri.obm.translator.alloy</text></g></a><!--class edu.mit.csail.sdg.alloy4viz--><g id="elem_edu.mit.csail.sdg.alloy4viz"><rect fill="#F1F1F1" height="26.2969" id="edu.mit.csail.sdg.alloy4viz" rx="2.5" ry="2.5" style="stroke:#181818;stroke-width:0.5;" width="183" x="1103.26" y="179"/><text fill="#000000" font-family="sans-serif" font-size="14" lengthAdjust="spacing" textLength="177" x="1106.26" y="196.9951">edu.mit.csail.sdg.alloy4viz</text></g><!--class edu.mit.csail.sdg.translator--><g id="elem_edu.mit.csail.sdg.translator"><rect fill="#F1F1F1" height="26.2969" id="edu.mit.csail.sdg.translator" rx="2.5" ry="2.5" style="stroke:#181818;stroke-width:0.5;" width="191" x="1321.26" y="179"/><text fill="#000000" font-family="sans-serif" font-size="14" lengthAdjust="spacing" textLength="185" x="1324.26" y="196.9951">edu.mit.csail.sdg.translator</text></g><!--class edu.mit.csail.sdg.alloy4--><g id="elem_edu.mit.csail.sdg.alloy4"><rect fill="#F1F1F1" height="26.2969" id="edu.mit.csail.sdg.alloy4" rx="2.5" ry="2.5" style="stroke:#181818;stroke-width:0.5;" width="165" x="317.26" y="179"/><text fill="#000000" font-family="sans-serif" font-size="14" lengthAdjust="spacing" textLength="159" x="320.26" y="196.9951">edu.mit.csail.sdg.alloy4</text></g><!--class edu.mit.csail.sdg.ast--><g id="elem_edu.mit.csail.sdg.ast"><rect fill="#F1F1F1" height="26.2969" id="edu.mit.csail.sdg.ast" rx="2.5" ry="2.5" style="stroke:#181818;stroke-width:0.5;" width="147" x="130.26" y="179"/><text fill="#000000" font-family="sans-serif" font-size="14" lengthAdjust="spacing" textLength="141" x="133.26" y="196.9951">edu.mit.csail.sdg.ast</text></g><!--class edu.mit.csail.sdg.sim--><g id="elem_edu.mit.csail.sdg.sim"><rect fill="#F1F1F1" height="26.2969" id="edu.mit.csail.sdg.sim" rx="2.5" ry="2.5" style="stroke:#181818;stroke-width:0.5;" width="150" x="1547.76" y="179"/><text fill="#000000" font-family="sans-serif" font-size="14" lengthAdjust="spacing" textLength="144" x="1550.76" y="196.9951">edu.mit.csail.sdg.sim</text></g><!--class edu.mit.csail.sdg.parser--><g id="elem_edu.mit.csail.sdg.parser"><rect fill="#F1F1F1" height="26.2969" id="edu.mit.csail.sdg.parser" rx="2.5" ry="2.5" style="stroke:#181818;stroke-width:0.5;" width="170" x="897.76" y="179"/><text fill="#000000" font-family="sans-serif" font-size="14" lengthAdjust="spacing" textLength="164" x="900.76" y="196.9951">edu.mit.csail.sdg.parser</text></g><!--class org.eclipse.uml2.uml--><g id="elem_org.eclipse.uml2.uml"><rect fill="#F1F1F1" height="26.2969" id="org.eclipse.uml2.uml" rx="2.5" ry="2.5" style="stroke:#181818;stroke-width:0.5;" width="149" x="713.26" y="179"/><text fill="#000000" font-family="sans-serif" font-size="14" lengthAdjust="spacing" textLength="143" x="716.26" y="196.9951">org.eclipse.uml2.uml</text></g><!--class edu.gatech.gtri.obm.translator.alloy.fromxmi--><a href="edu/gatech/gtri/obm/translator/alloy/fromxmi/package-summary.html" target="_top" title="edu/gatech/gtri/obm/translator/alloy/fromxmi/package-summary.html" xlink:actuate="onRequest" xlink:href="edu/gatech/gtri/obm/translator/alloy/fromxmi/package-summary.html" xlink:show="new" xlink:title="edu/gatech/gtri/obm/translator/alloy/fromxmi/package-summary.html" xlink:type="simple"><g id="elem_edu.gatech.gtri.obm.translator.alloy.fromxmi"><rect codeLine="30" fill="#F1F1F1" height="26.2969" id="edu.gatech.gtri.obm.translator.alloy.fromxmi" rx="2.5" ry="2.5" style="stroke:#181818;stroke-width:0.5;" width="307" x="518.26" y="7"/><text fill="#000000" font-family="sans-serif" font-size="14" lengthAdjust="spacing" textLength="301" x="521.26" y="24.9951">edu.gatech.gtri.obm.translator.alloy.fromxmi</text></g></a><!--class edu.gatech.gtri.obm.translator.alloy.tofile--><a href="edu/gatech/gtri/obm/translator/alloy/tofile/package-summary.html" target="_top" title="edu/gatech/gtri/obm/translator/alloy/tofile/package-summary.html" xlink:actuate="onRequest" xlink:href="edu/gatech/gtri/obm/translator/alloy/tofile/package-summary.html" xlink:show="new" xlink:title="edu/gatech/gtri/obm/translator/alloy/tofile/package-summary.html" xlink:type="simple"><g id="elem_edu.gatech.gtri.obm.translator.alloy.tofile"><rect codeLine="32" fill="#F1F1F1" height="26.2969" id="edu.gatech.gtri.obm.translator.alloy.tofile" rx="2.5" ry="2.5" style="stroke:#181818;stroke-width:0.5;" width="286" x="60.76" y="93"/><text fill="#000000" font-family="sans-serif" font-size="14" lengthAdjust="spacing" textLength="280" x="63.76" y="110.9951">edu.gatech.gtri.obm.translator.alloy.tofile</text></g></a><!--class edu.umd.omgutil.sysml.sysml1--><g id="elem_edu.umd.omgutil.sysml.sysml1"><rect fill="#F1F1F1" height="26.2969" id="edu.umd.omgutil.sysml.sysml1" rx="2.5" ry="2.5" style="stroke:#181818;stroke-width:0.5;" width="218" x="452.76" y="93"/><text fill="#000000" font-family="sans-serif" font-size="14" lengthAdjust="spacing" textLength="212" x="455.76" y="110.9951">edu.umd.omgutil.sysml.sysml1</text></g><!--class edu.umd.omgutil--><g id="elem_edu.umd.omgutil"><rect fill="#F1F1F1" height="26.2969" id="edu.umd.omgutil" rx="2.5" ry="2.5" style="stroke:#181818;stroke-width:0.5;" width="123" x="1248.26" y="93"/><text fill="#000000" font-family="sans-serif" font-size="14" lengthAdjust="spacing" textLength="117" x="1251.26" y="110.9951">edu.umd.omgutil</text></g><!--class edu.umd.omgutil.uml--><g id="elem_edu.umd.omgutil.uml"><rect fill="#F1F1F1" height="26.2969" id="edu.umd.omgutil.uml" rx="2.5" ry="2.5" style="stroke:#181818;stroke-width:0.5;" width="152" x="705.76" y="93"/><text fill="#000000" font-family="sans-serif" font-size="14" lengthAdjust="spacing" textLength="146" x="708.76" y="110.9951">edu.umd.omgutil.uml</text></g><!--class edu.gatech.gtri.obm.translator.alloy.graph--><a href="edu/gatech/gtri/obm/translator/alloy/graph/package-summary.html" target="_top" title="edu/gatech/gtri/obm/translator/alloy/graph/package-summary.html" xlink:actuate="onRequest" xlink:href="edu/gatech/gtri/obm/translator/alloy/graph/package-summary.html" xlink:show="new" xlink:title="edu/gatech/gtri/obm/translator/alloy/graph/package-summary.html" xlink:type="simple"><g id="elem_edu.gatech.gtri.obm.translator.alloy.graph"><rect codeLine="34" fill="#F1F1F1" height="26.2969" id="edu.gatech.gtri.obm.translator.alloy.graph" rx="2.5" ry="2.5" style="stroke:#181818;stroke-width:0.5;" width="293" x="1517.26" y="7"/><text fill="#000000" font-family="sans-serif" font-size="14" lengthAdjust="spacing" textLength="287" x="1520.26" y="24.9951">edu.gatech.gtri.obm.translator.alloy.graph</text></g></a><!--class org.graphstream.graph--><g id="elem_org.graphstream.graph"><rect fill="#F1F1F1" height="26.2969" id="org.graphstream.graph" rx="2.5" ry="2.5" style="stroke:#181818;stroke-width:0.5;" width="165" x="1581.26" y="93"/><text fill="#000000" font-family="sans-serif" font-size="14" lengthAdjust="spacing" textLength="159" x="1584.26" y="110.9951">org.graphstream.graph</text></g><!--class edu.gatech.gtri.obm.translator.alloy.userinterface--><a href="edu/gatech/gtri/obm/translator/alloy/userinterface/package-summary.html" target="_top" title="edu/gatech/gtri/obm/translator/alloy/userinterface/package-summary.html" xlink:actuate="onRequest" xlink:href="edu/gatech/gtri/obm/translator/alloy/userinterface/package-summary.html" xlink:show="new" xlink:title="edu/gatech/gtri/obm/translator/alloy/userinterface/package-summary.html" xlink:type="simple"><g id="elem_edu.gatech.gtri.obm.translator.alloy.userinterface"><rect codeLine="36" fill="#F1F1F1" height="26.2969" id="edu.gatech.gtri.obm.translator.alloy.userinterface" rx="2.5" ry="2.5" style="stroke:#181818;stroke-width:0.5;" width="344" x="1137.76" y="7"/><text fill="#000000" font-family="sans-serif" font-size="14" lengthAdjust="spacing" textLength="338" x="1140.76" y="24.9951">edu.gatech.gtri.obm.translator.alloy.userinterface</text></g></a><!--link edu.gatech.gtri.obm.translator.alloy to edu.mit.csail.sdg.alloy4viz--><g id="link_edu.gatech.gtri.obm.translator.alloy_edu.mit.csail.sdg.alloy4viz"><path codeLine="7" d="M1103.94,119.04 C1124.09,135 1154.7575,159.3035 1174.8975,175.2635 " fill="none" id="edu.gatech.gtri.obm.translator.alloy-to-edu.mit.csail.sdg.alloy4viz" style="stroke:#181818;stroke-width:1.0;"/><polygon fill="#181818" points="1179.6,178.99,1175.0306,170.2653,1175.6813,175.8846,1170.062,176.5352,1179.6,178.99" style="stroke:#181818;stroke-width:1.0;"/></g><!--link edu.gatech.gtri.obm.translator.alloy to edu.mit.csail.sdg.translator--><g id="link_edu.gatech.gtri.obm.translator.alloy_edu.mit.csail.sdg.translator"><path codeLine="8" d="M1135.75,119.04 C1198.1,135 1301.7276,161.5412 1364.0376,177.5012 " fill="none" id="edu.gatech.gtri.obm.translator.alloy-to-edu.mit.csail.sdg.translator" style="stroke:#181818;stroke-width:1.0;"/><polygon fill="#181818" points="1369.85,178.99,1362.124,172.8819,1365.0064,177.7494,1360.1389,180.6318,1369.85,178.99" style="stroke:#181818;stroke-width:1.0;"/></g><!--link edu.gatech.gtri.obm.translator.alloy to edu.mit.csail.sdg.alloy4--><g id="link_edu.gatech.gtri.obm.translator.alloy_edu.mit.csail.sdg.alloy4"><path codeLine="9" d="M990.04,119.04 C853.57,135.67 615.6959,164.6738 488.3259,180.2038 " fill="none" id="edu.gatech.gtri.obm.translator.alloy-to-edu.mit.csail.sdg.alloy4" style="stroke:#181818;stroke-width:1.0;"/><polygon fill="#181818" points="482.37,180.93,491.788,183.8113,487.3332,180.3248,490.8197,175.8701,482.37,180.93" style="stroke:#181818;stroke-width:1.0;"/></g><!--link edu.gatech.gtri.obm.translator.alloy to edu.mit.csail.sdg.ast--><g id="link_edu.gatech.gtri.obm.translator.alloy_edu.mit.csail.sdg.ast"><path codeLine="10" d="M963.93,117.1 C808.28,129.99 534.11,153.67 299.76,179 C292.49,179.79 290.8787,179.9476 283.3287,180.8376 " fill="none" id="edu.gatech.gtri.obm.translator.alloy-to-edu.mit.csail.sdg.ast" style="stroke:#181818;stroke-width:1.0;"/><polygon fill="#181818" points="277.37,181.54,286.7764,184.4589,282.3356,180.9546,285.8398,176.5139,277.37,181.54" style="stroke:#181818;stroke-width:1.0;"/></g><!--link edu.gatech.gtri.obm.translator.alloy to edu.mit.csail.sdg.sim--><g id="link_edu.gatech.gtri.obm.translator.alloy_edu.mit.csail.sdg.sim"><path codeLine="11" d="M1165.26,119.04 C1267.21,135.07 1440.5429,162.3377 1541.7529,178.2577 " fill="none" id="edu.gatech.gtri.obm.translator.alloy-to-edu.mit.csail.sdg.sim" style="stroke:#181818;stroke-width:1.0;"/><polygon fill="#181818" points="1547.68,179.19,1539.4109,173.8401,1542.7407,178.4131,1538.1678,181.7429,1547.68,179.19" style="stroke:#181818;stroke-width:1.0;"/></g><!--link edu.gatech.gtri.obm.translator.alloy to edu.mit.csail.sdg.parser--><g id="link_edu.gatech.gtri.obm.translator.alloy_edu.mit.csail.sdg.parser"><path codeLine="12" d="M1073.57,119.04 C1053.42,135 1022.7525,159.3035 1002.6125,175.2635 " fill="none" id="edu.gatech.gtri.obm.translator.alloy-to-edu.mit.csail.sdg.parser" style="stroke:#181818;stroke-width:1.0;"/><polygon fill="#181818" points="997.91,178.99,1007.448,176.5352,1001.8287,175.8846,1002.4794,170.2653,997.91,178.99" style="stroke:#181818;stroke-width:1.0;"/></g><!--link edu.gatech.gtri.obm.translator.alloy to org.eclipse.uml2.uml--><g id="link_edu.gatech.gtri.obm.translator.alloy_org.eclipse.uml2.uml"><path codeLine="13" d="M1045.63,119.04 C988.41,135 893.7591,161.4169 836.5791,177.3769 " fill="none" id="edu.gatech.gtri.obm.translator.alloy-to-org.eclipse.uml2.uml" style="stroke:#181818;stroke-width:1.0;"/><polygon fill="#181818" points="830.8,178.99,840.544,180.4232,835.6159,177.6458,838.3933,172.7177,830.8,178.99" style="stroke:#181818;stroke-width:1.0;"/></g><!--link edu.gatech.gtri.obm.translator.alloy.fromxmi to edu.gatech.gtri.obm.translator.alloy.tofile--><g id="link_edu.gatech.gtri.obm.translator.alloy.fromxmi_edu.gatech.gtri.obm.translator.alloy.tofile"><path codeLine="14" d="M604.7,33.04 C515.74,49 365.4956,75.9699 276.5856,91.9299 " fill="none" id="edu.gatech.gtri.obm.translator.alloy.fromxmi-to-edu.gatech.gtri.obm.translator.alloy.tofile" style="stroke:#181818;stroke-width:1.0;"/><polygon fill="#181818" points="270.68,92.99,280.2451,95.3369,275.6013,92.1066,278.8317,87.4628,270.68,92.99" style="stroke:#181818;stroke-width:1.0;"/></g><!--link edu.gatech.gtri.obm.translator.alloy.fromxmi to edu.mit.csail.sdg.ast--><g id="link_edu.gatech.gtri.obm.translator.alloy.fromxmi_edu.mit.csail.sdg.ast"><path codeLine="15" d="M518.18,28.05 C342.2,37.74 73.92,58.06 42.76,93 C6,134.21 81.8465,162.1858 141.7765,177.4858 " fill="none" id="edu.gatech.gtri.obm.translator.alloy.fromxmi-to-edu.mit.csail.sdg.ast" style="stroke:#181818;stroke-width:1.0;"/><polygon fill="#181818" points="147.59,178.97,139.8592,172.868,142.7454,177.7332,137.8802,180.6194,147.59,178.97" style="stroke:#181818;stroke-width:1.0;"/></g><!--link edu.gatech.gtri.obm.translator.alloy.fromxmi to edu.mit.csail.sdg.alloy4--><g id="link_edu.gatech.gtri.obm.translator.alloy.fromxmi_edu.mit.csail.sdg.alloy4"><path codeLine="16" d="M560.33,33.04 C516.47,42.89 468.61,60.74 434.76,93 C410.17,116.43 403.4489,152.333 401.2789,172.923 " fill="none" id="edu.gatech.gtri.obm.translator.alloy.fromxmi-to-edu.mit.csail.sdg.alloy4" style="stroke:#181818;stroke-width:1.0;"/><polygon fill="#181818" points="400.65,178.89,405.5713,170.3588,401.1741,173.9175,397.6153,169.5203,400.65,178.89" style="stroke:#181818;stroke-width:1.0;"/></g><!--link edu.gatech.gtri.obm.translator.alloy.fromxmi to edu.gatech.gtri.obm.translator.alloy--><g id="link_edu.gatech.gtri.obm.translator.alloy.fromxmi_edu.gatech.gtri.obm.translator.alloy"><path codeLine="17" d="M731.5,33.04 C810.77,49 944.0182,75.845 1023.2382,91.805 " fill="none" id="edu.gatech.gtri.obm.translator.alloy.fromxmi-to-edu.gatech.gtri.obm.translator.alloy" style="stroke:#181818;stroke-width:1.0;"/><polygon fill="#181818" points="1029.12,92.99,1021.0873,87.2913,1024.2185,92.0025,1019.5073,95.1337,1029.12,92.99" style="stroke:#181818;stroke-width:1.0;"/></g><!--link edu.gatech.gtri.obm.translator.alloy.fromxmi to edu.umd.omgutil.sysml.sysml1--><g id="link_edu.gatech.gtri.obm.translator.alloy.fromxmi_edu.umd.omgutil.sysml.sysml1"><path codeLine="18" d="M655.99,33.04 C635.08,49 603.1478,73.3874 582.2578,89.3474 " fill="none" id="edu.gatech.gtri.obm.translator.alloy.fromxmi-to-edu.umd.omgutil.sysml.sysml1" style="stroke:#181818;stroke-width:1.0;"/><polygon fill="#181818" points="577.49,92.99,587.07,90.7046,581.4631,89.9545,582.2133,84.3476,577.49,92.99" style="stroke:#181818;stroke-width:1.0;"/></g><!--link edu.gatech.gtri.obm.translator.alloy.fromxmi to edu.umd.omgutil--><g id="link_edu.gatech.gtri.obm.translator.alloy.fromxmi_edu.umd.omgutil"><path codeLine="19" d="M770.3,33.01 C882.05,46.78 1069.66,70.39 1230.76,93 C1236.39,93.79 1236.3036,93.7688 1242.1636,94.6288 " fill="none" id="edu.gatech.gtri.obm.translator.alloy.fromxmi-to-edu.umd.omgutil" style="stroke:#181818;stroke-width:1.0;"/><polygon fill="#181818" points="1248.1,95.5,1239.7762,90.2356,1243.153,94.774,1238.6146,98.1508,1248.1,95.5" style="stroke:#181818;stroke-width:1.0;"/></g><!--link edu.gatech.gtri.obm.translator.alloy.fromxmi to org.eclipse.uml2.uml--><g id="link_edu.gatech.gtri.obm.translator.alloy.fromxmi_org.eclipse.uml2.uml"><path codeLine="20" d="M776.41,33.05 C813.7,42.97 852.05,60.85 874.76,93 C898.32,126.36 851.3532,158.2947 818.0232,176.0847 " fill="none" id="edu.gatech.gtri.obm.translator.alloy.fromxmi-to-org.eclipse.uml2.uml" style="stroke:#181818;stroke-width:1.0;"/><polygon fill="#181818" points="812.73,178.91,822.5533,178.2009,817.141,176.5556,818.7863,171.1433,812.73,178.91" style="stroke:#181818;stroke-width:1.0;"/></g><!--link edu.gatech.gtri.obm.translator.alloy.fromxmi to edu.umd.omgutil.uml--><g id="link_edu.gatech.gtri.obm.translator.alloy.fromxmi_edu.umd.omgutil.uml"><path codeLine="21" d="M687.52,33.04 C708.43,49 740.3622,73.3874 761.2522,89.3474 " fill="none" id="edu.gatech.gtri.obm.translator.alloy.fromxmi-to-edu.umd.omgutil.uml" style="stroke:#181818;stroke-width:1.0;"/><polygon fill="#181818" points="766.02,92.99,761.2967,84.3476,762.0469,89.9545,756.44,90.7046,766.02,92.99" style="stroke:#181818;stroke-width:1.0;"/></g><!--link edu.gatech.gtri.obm.translator.alloy.graph to org.graphstream.graph--><g id="link_edu.gatech.gtri.obm.translator.alloy.graph_org.graphstream.graph"><path codeLine="22" d="M1663.76,33.04 C1663.76,49 1663.76,71.03 1663.76,86.99 " fill="none" id="edu.gatech.gtri.obm.translator.alloy.graph-to-org.graphstream.graph" style="stroke:#181818;stroke-width:1.0;"/><polygon fill="#181818" points="1663.76,92.99,1667.76,83.99,1663.76,87.99,1659.76,83.99,1663.76,92.99" style="stroke:#181818;stroke-width:1.0;"/></g><!--link edu.gatech.gtri.obm.translator.alloy.userinterface to edu.umd.omgutil--><g id="link_edu.gatech.gtri.obm.translator.alloy.userinterface_edu.umd.omgutil"><path codeLine="23" d="M1309.76,33.04 C1309.76,49 1309.76,71.03 1309.76,86.99 " fill="none" id="edu.gatech.gtri.obm.translator.alloy.userinterface-to-edu.umd.omgutil" style="stroke:#181818;stroke-width:1.0;"/><polygon fill="#181818" points="1309.76,92.99,1313.76,83.99,1309.76,87.99,1305.76,83.99,1309.76,92.99" style="stroke:#181818;stroke-width:1.0;"/></g><!--link edu.gatech.gtri.obm.translator.alloy.tofile to edu.mit.csail.sdg.ast--><g id="link_edu.gatech.gtri.obm.translator.alloy.tofile_edu.mit.csail.sdg.ast"><path codeLine="24" d="M203.76,119.04 C203.76,135 203.76,157.03 203.76,172.99 " fill="none" id="edu.gatech.gtri.obm.translator.alloy.tofile-to-edu.mit.csail.sdg.ast" style="stroke:#181818;stroke-width:1.0;"/><polygon fill="#181818" points="203.76,178.99,207.76,169.99,203.76,173.99,199.76,169.99,203.76,178.99" style="stroke:#181818;stroke-width:1.0;"/></g><!--link edu.gatech.gtri.obm.translator.alloy.tofile to edu.mit.csail.sdg.alloy4--><g id="link_edu.gatech.gtri.obm.translator.alloy.tofile_edu.mit.csail.sdg.alloy4"><path codeLine="25" d="M231.84,119.04 C269.1,135 328.9751,160.6665 366.2151,176.6265 " fill="none" id="edu.gatech.gtri.obm.translator.alloy.tofile-to-edu.mit.csail.sdg.alloy4" style="stroke:#181818;stroke-width:1.0;"/><polygon fill="#181818" points="371.73,178.99,365.0334,171.7681,367.1343,177.0204,361.882,179.1213,371.73,178.99" style="stroke:#181818;stroke-width:1.0;"/></g><text fill="#888888" font-family="sans-serif" font-size="10" lengthAdjust="spacing" textLength="186" x="808.63" y="219.5791">UMLDoclet 2.1.1, PlantUML 1.2023.12</text><!--SRC=[hLPDJyGW4BtxAoOcHarScZMUFNdKP1FZoUo1fTEMB0CDJ8shyRzBOVqyQBljXPRXyUOnVK010C9MsrPwIR2HQbjxrzbIEUCyi9Ssn26qV0Gz4Xci98mnXVVOJ-88iyvY6czqYQ2qL-PR7wdb7LGQJHb-HmcvSJ6SubXsefQCgX4rUotSXaHIOFeiGXhZTh1ON2SWQHOgI6r4AEiyTlMaNwOIVS7caJIP9V1KYg1fAaNyq057LiJvMg0okWqeEZANVJEOGLJUqJFfJpt_Jc1NwRth3afmUDd_enhdWz4hFvover8ugZlkbUu2xTlbB8o7aSnhckyB74LKUzasdu9IBx17IVbzE54NjussZBwA1-QqCcM3p-7NlvcoNHFRAQpYXI1h1AFjDX_UoiWGu7X8ecDuV8ou8kEA7bT4NF65AnAkQ7EMHUY8fD-9Xicir_2Q4hwDJVjXWy7fz_YvPUGo3rQHuNEBI7uTh26XvvRmOmyCbl9ZrY19sAEXSgv_FDpTthZu6y9mAPPYUG4h8ot7A9myeG_QsRFpTm00]--></g></svg>