<?xml version="1.0" encoding="us-ascii" standalone="no"?><svg xmlns="http://www.w3.org/2000/svg" xmlns:xlink="http://www.w3.org/1999/xlink" contentStyleType="text/css" height="229px" preserveAspectRatio="none" style="width:1889px;height:229px;" version="1.1" viewBox="0 0 1889 229" width="1889px" zoomAndPan="magnify"><defs/><g><!--class edu.gatech.gtri.obm.translator.alloy--><a href="edu/gatech/gtri/obm/translator/alloy/package-summary.html" target="_top" title="edu/gatech/gtri/obm/translator/alloy/package-summary.html" xlink:actuate="onRequest" xlink:href="edu/gatech/gtri/obm/translator/alloy/package-summary.html" xlink:show="new" xlink:title="edu/gatech/gtri/obm/translator/alloy/package-summary.html" xlink:type="simple"><g id="elem_edu.gatech.gtri.obm.translator.alloy"><rect codeLine="28" fill="#F1F1F1" height="26.2969" id="edu.gatech.gtri.obm.translator.alloy" rx="2.5" ry="2.5" style="stroke:#181818;stroke-width:0.5;" width="249" x="524" y="93"/><text fill="#000000" font-family="sans-serif" font-size="14" lengthAdjust="spacing" textLength="243" x="527" y="110.9951">edu.gatech.gtri.obm.translator.alloy</text></g></a><!--class org.eclipse.uml2.uml--><g id="elem_org.eclipse.uml2.uml"><rect fill="#F1F1F1" height="26.2969" id="org.eclipse.uml2.uml" rx="2.5" ry="2.5" style="stroke:#181818;stroke-width:0.5;" width="149" x="1224" y="179"/><text fill="#000000" font-family="sans-serif" font-size="14" lengthAdjust="spacing" textLength="143" x="1227" y="196.9951">org.eclipse.uml2.uml</text></g><!--class edu.mit.csail.sdg.parser--><g id="elem_edu.mit.csail.sdg.parser"><rect fill="#F1F1F1" height="26.2969" id="edu.mit.csail.sdg.parser" rx="2.5" ry="2.5" style="stroke:#181818;stroke-width:0.5;" width="170" x="800.5" y="179"/><text fill="#000000" font-family="sans-serif" font-size="14" lengthAdjust="spacing" textLength="164" x="803.5" y="196.9951">edu.mit.csail.sdg.parser</text></g><!--class edu.mit.csail.sdg.ast--><g id="elem_edu.mit.csail.sdg.ast"><rect fill="#F1F1F1" height="26.2969" id="edu.mit.csail.sdg.ast" rx="2.5" ry="2.5" style="stroke:#181818;stroke-width:0.5;" width="147" x="7" y="179"/><text fill="#000000" font-family="sans-serif" font-size="14" lengthAdjust="spacing" textLength="141" x="10" y="196.9951">edu.mit.csail.sdg.ast</text></g><!--class edu.mit.csail.sdg.alloy4viz--><g id="elem_edu.mit.csail.sdg.alloy4viz"><rect fill="#F1F1F1" height="26.2969" id="edu.mit.csail.sdg.alloy4viz" rx="2.5" ry="2.5" style="stroke:#181818;stroke-width:0.5;" width="183" x="1006" y="179"/><text fill="#000000" font-family="sans-serif" font-size="14" lengthAdjust="spacing" textLength="177" x="1009" y="196.9951">edu.mit.csail.sdg.alloy4viz</text></g><!--class edu.mit.csail.sdg.translator--><g id="elem_edu.mit.csail.sdg.translator"><rect fill="#F1F1F1" height="26.2969" id="edu.mit.csail.sdg.translator" rx="2.5" ry="2.5" style="stroke:#181818;stroke-width:0.5;" width="191" x="389" y="179"/><text fill="#000000" font-family="sans-serif" font-size="14" lengthAdjust="spacing" textLength="185" x="392" y="196.9951">edu.mit.csail.sdg.translator</text></g><!--class edu.mit.csail.sdg.alloy4--><g id="elem_edu.mit.csail.sdg.alloy4"><rect fill="#F1F1F1" height="26.2969" id="edu.mit.csail.sdg.alloy4" rx="2.5" ry="2.5" style="stroke:#181818;stroke-width:0.5;" width="165" x="189" y="179"/><text fill="#000000" font-family="sans-serif" font-size="14" lengthAdjust="spacing" textLength="159" x="192" y="196.9951">edu.mit.csail.sdg.alloy4</text></g><!--class edu.mit.csail.sdg.sim--><g id="elem_edu.mit.csail.sdg.sim"><rect fill="#F1F1F1" height="26.2969" id="edu.mit.csail.sdg.sim" rx="2.5" ry="2.5" style="stroke:#181818;stroke-width:0.5;" width="150" x="615.5" y="179"/><text fill="#000000" font-family="sans-serif" font-size="14" lengthAdjust="spacing" textLength="144" x="618.5" y="196.9951">edu.mit.csail.sdg.sim</text></g><!--class edu.gatech.gtri.obm.translator.alloy.graph--><a href="edu/gatech/gtri/obm/translator/alloy/graph/package-summary.html" target="_top" title="edu/gatech/gtri/obm/translator/alloy/graph/package-summary.html" xlink:actuate="onRequest" xlink:href="edu/gatech/gtri/obm/translator/alloy/graph/package-summary.html" xlink:show="new" xlink:title="edu/gatech/gtri/obm/translator/alloy/graph/package-summary.html" xlink:type="simple"><g id="elem_edu.gatech.gtri.obm.translator.alloy.graph"><rect codeLine="30" fill="#F1F1F1" height="26.2969" id="edu.gatech.gtri.obm.translator.alloy.graph" rx="2.5" ry="2.5" style="stroke:#181818;stroke-width:0.5;" width="293" x="1589" y="7"/><text fill="#000000" font-family="sans-serif" font-size="14" lengthAdjust="spacing" textLength="287" x="1592" y="24.9951">edu.gatech.gtri.obm.translator.alloy.graph</text></g></a><!--class org.graphstream.graph--><g id="elem_org.graphstream.graph"><rect fill="#F1F1F1" height="26.2969" id="org.graphstream.graph" rx="2.5" ry="2.5" style="stroke:#181818;stroke-width:0.5;" width="165" x="1653" y="93"/><text fill="#000000" font-family="sans-serif" font-size="14" lengthAdjust="spacing" textLength="159" x="1656" y="110.9951">org.graphstream.graph</text></g><!--class edu.gatech.gtri.obm.translator.alloy.tofile--><a href="edu/gatech/gtri/obm/translator/alloy/tofile/package-summary.html" target="_top" title="edu/gatech/gtri/obm/translator/alloy/tofile/package-summary.html" xlink:actuate="onRequest" xlink:href="edu/gatech/gtri/obm/translator/alloy/tofile/package-summary.html" xlink:show="new" xlink:title="edu/gatech/gtri/obm/translator/alloy/tofile/package-summary.html" xlink:type="simple"><g id="elem_edu.gatech.gtri.obm.translator.alloy.tofile"><rect codeLine="32" fill="#F1F1F1" height="26.2969" id="edu.gatech.gtri.obm.translator.alloy.tofile" rx="2.5" ry="2.5" style="stroke:#181818;stroke-width:0.5;" width="286" x="131.5" y="93"/><text fill="#000000" font-family="sans-serif" font-size="14" lengthAdjust="spacing" textLength="280" x="134.5" y="110.9951">edu.gatech.gtri.obm.translator.alloy.tofile</text></g></a><!--class edu.gatech.gtri.obm.translator.alloy.fromxmi--><a href="edu/gatech/gtri/obm/translator/alloy/fromxmi/package-summary.html" target="_top" title="edu/gatech/gtri/obm/translator/alloy/fromxmi/package-summary.html" xlink:actuate="onRequest" xlink:href="edu/gatech/gtri/obm/translator/alloy/fromxmi/package-summary.html" xlink:show="new" xlink:title="edu/gatech/gtri/obm/translator/alloy/fromxmi/package-summary.html" xlink:type="simple"><g id="elem_edu.gatech.gtri.obm.translator.alloy.fromxmi"><rect codeLine="34" fill="#F1F1F1" height="26.2969" id="edu.gatech.gtri.obm.translator.alloy.fromxmi" rx="2.5" ry="2.5" style="stroke:#181818;stroke-width:0.5;" width="307" x="630" y="7"/><text fill="#000000" font-family="sans-serif" font-size="14" lengthAdjust="spacing" textLength="301" x="633" y="24.9951">edu.gatech.gtri.obm.translator.alloy.fromxmi</text></g></a><!--class edu.umd.omgutil.sysml.sysml1--><g id="elem_edu.umd.omgutil.sysml.sysml1"><rect fill="#F1F1F1" height="26.2969" id="edu.umd.omgutil.sysml.sysml1" rx="2.5" ry="2.5" style="stroke:#181818;stroke-width:0.5;" width="218" x="808.5" y="93"/><text fill="#000000" font-family="sans-serif" font-size="14" lengthAdjust="spacing" textLength="212" x="811.5" y="110.9951">edu.umd.omgutil.sysml.sysml1</text></g><!--class edu.umd.omgutil--><g id="elem_edu.umd.omgutil"><rect fill="#F1F1F1" height="26.2969" id="edu.umd.omgutil" rx="2.5" ry="2.5" style="stroke:#181818;stroke-width:0.5;" width="123" x="1320" y="93"/><text fill="#000000" font-family="sans-serif" font-size="14" lengthAdjust="spacing" textLength="117" x="1323" y="110.9951">edu.umd.omgutil</text></g><!--class edu.umd.omgutil.uml--><g id="elem_edu.umd.omgutil.uml"><rect fill="#F1F1F1" height="26.2969" id="edu.umd.omgutil.uml" rx="2.5" ry="2.5" style="stroke:#181818;stroke-width:0.5;" width="152" x="1061.5" y="93"/><text fill="#000000" font-family="sans-serif" font-size="14" lengthAdjust="spacing" textLength="146" x="1064.5" y="110.9951">edu.umd.omgutil.uml</text></g><!--class edu.gatech.gtri.obm.translator.alloy.userinterface--><a href="edu/gatech/gtri/obm/translator/alloy/userinterface/package-summary.html" target="_top" title="edu/gatech/gtri/obm/translator/alloy/userinterface/package-summary.html" xlink:actuate="onRequest" xlink:href="edu/gatech/gtri/obm/translator/alloy/userinterface/package-summary.html" xlink:show="new" xlink:title="edu/gatech/gtri/obm/translator/alloy/userinterface/package-summary.html" xlink:type="simple"><g id="elem_edu.gatech.gtri.obm.translator.alloy.userinterface"><rect codeLine="36" fill="#F1F1F1" height="26.2969" id="edu.gatech.gtri.obm.translator.alloy.userinterface" rx="2.5" ry="2.5" style="stroke:#181818;stroke-width:0.5;" width="344" x="1209.5" y="7"/><text fill="#000000" font-family="sans-serif" font-size="14" lengthAdjust="spacing" textLength="338" x="1212.5" y="24.9951">edu.gatech.gtri.obm.translator.alloy.userinterface</text></g></a><!--link edu.gatech.gtri.obm.translator.alloy to org.eclipse.uml2.uml--><g id="link_edu.gatech.gtri.obm.translator.alloy_org.eclipse.uml2.uml"><path codeLine="7" d="M742.3,119.06 C853.18,133.33 1043.28,157.82 1206.5,179 C1212.09,179.73 1211.9192,179.7131 1217.7392,180.4631 " fill="none" id="edu.gatech.gtri.obm.translator.alloy-to-org.eclipse.uml2.uml" style="stroke:#181818;stroke-width:1.0;"/><polygon fill="#181818" points="1223.69,181.23,1215.275,176.1125,1218.731,180.591,1214.2526,184.0469,1223.69,181.23" style="stroke:#181818;stroke-width:1.0;"/></g><!--link edu.gatech.gtri.obm.translator.alloy to edu.mit.csail.sdg.parser--><g id="link_edu.gatech.gtri.obm.translator.alloy_edu.mit.csail.sdg.parser"><path codeLine="8" d="M682.46,119.04 C727.51,135 800.9247,161.0256 845.9547,176.9856 " fill="none" id="edu.gatech.gtri.obm.translator.alloy-to-edu.mit.csail.sdg.parser" style="stroke:#181818;stroke-width:1.0;"/><polygon fill="#181818" points="851.61,178.99,844.4633,172.2132,846.8973,177.3197,841.7908,179.7536,851.61,178.99" style="stroke:#181818;stroke-width:1.0;"/></g><!--link edu.gatech.gtri.obm.translator.alloy to edu.mit.csail.sdg.ast--><g id="link_edu.gatech.gtri.obm.translator.alloy_edu.mit.csail.sdg.ast"><path codeLine="9" d="M567.12,119.04 C456.54,135.39 266.3655,163.5123 159.9955,179.2423 " fill="none" id="edu.gatech.gtri.obm.translator.alloy-to-edu.mit.csail.sdg.ast" style="stroke:#181818;stroke-width:1.0;"/><polygon fill="#181818" points="154.06,180.12,163.5483,182.7604,159.0062,179.3886,162.378,174.8464,154.06,180.12" style="stroke:#181818;stroke-width:1.0;"/></g><!--link edu.gatech.gtri.obm.translator.alloy to edu.mit.csail.sdg.alloy4viz--><g id="link_edu.gatech.gtri.obm.translator.alloy_edu.mit.csail.sdg.alloy4viz"><path codeLine="10" d="M712.83,119.04 C798.19,135 942.0923,161.9265 1027.3923,177.8865 " fill="none" id="edu.gatech.gtri.obm.translator.alloy-to-edu.mit.csail.sdg.alloy4viz" style="stroke:#181818;stroke-width:1.0;"/><polygon fill="#181818" points="1033.29,178.99,1025.1792,173.403,1028.3753,178.0704,1023.7079,181.2666,1033.29,178.99" style="stroke:#181818;stroke-width:1.0;"/></g><!--link edu.gatech.gtri.obm.translator.alloy to edu.mit.csail.sdg.translator--><g id="link_edu.gatech.gtri.obm.translator.alloy_edu.mit.csail.sdg.translator"><path codeLine="11" d="M625,119.04 C593.83,135 544.4503,160.2947 513.2903,176.2547 " fill="none" id="edu.gatech.gtri.obm.translator.alloy-to-edu.mit.csail.sdg.translator" style="stroke:#181818;stroke-width:1.0;"/><polygon fill="#181818" points="507.95,178.99,517.7839,178.4473,512.4002,176.7106,514.1369,171.3269,507.95,178.99" style="stroke:#181818;stroke-width:1.0;"/></g><!--link edu.gatech.gtri.obm.translator.alloy to edu.mit.csail.sdg.alloy4--><g id="link_edu.gatech.gtri.obm.translator.alloy_edu.mit.csail.sdg.alloy4"><path codeLine="12" d="M594.49,119.04 C522.82,135 402.8864,161.725 331.2664,177.685 " fill="none" id="edu.gatech.gtri.obm.translator.alloy-to-edu.mit.csail.sdg.alloy4" style="stroke:#181818;stroke-width:1.0;"/><polygon fill="#181818" points="325.41,178.99,335.0646,180.9367,330.2903,177.9025,333.3245,173.1282,325.41,178.99" style="stroke:#181818;stroke-width:1.0;"/></g><!--link edu.gatech.gtri.obm.translator.alloy to edu.mit.csail.sdg.sim--><g id="link_edu.gatech.gtri.obm.translator.alloy_edu.mit.csail.sdg.sim"><path codeLine="13" d="M654.52,119.04 C662.5,135 673.8394,157.6621 681.8094,173.6221 " fill="none" id="edu.gatech.gtri.obm.translator.alloy-to-edu.mit.csail.sdg.sim" style="stroke:#181818;stroke-width:1.0;"/><polygon fill="#181818" points="684.49,178.99,684.0477,169.1511,682.2562,174.5167,676.8905,172.7252,684.49,178.99" style="stroke:#181818;stroke-width:1.0;"/></g><!--link edu.gatech.gtri.obm.translator.alloy.graph to org.graphstream.graph--><g id="link_edu.gatech.gtri.obm.translator.alloy.graph_org.graphstream.graph"><path codeLine="14" d="M1735.5,33.04 C1735.5,49 1735.5,71.03 1735.5,86.99 " fill="none" id="edu.gatech.gtri.obm.translator.alloy.graph-to-org.graphstream.graph" style="stroke:#181818;stroke-width:1.0;"/><polygon fill="#181818" points="1735.5,92.99,1739.5,83.99,1735.5,87.99,1731.5,83.99,1735.5,92.99" style="stroke:#181818;stroke-width:1.0;"/></g><!--link edu.gatech.gtri.obm.translator.alloy.tofile to edu.mit.csail.sdg.ast--><g id="link_edu.gatech.gtri.obm.translator.alloy.tofile_edu.mit.csail.sdg.ast"><path codeLine="15" d="M246.7,119.04 C209.83,135 150.606,160.6459 113.746,176.6059 " fill="none" id="edu.gatech.gtri.obm.translator.alloy.tofile-to-edu.mit.csail.sdg.ast" style="stroke:#181818;stroke-width:1.0;"/><polygon fill="#181818" points="108.24,178.99,118.0884,179.0846,112.8284,177.0033,114.9097,171.7432,108.24,178.99" style="stroke:#181818;stroke-width:1.0;"/></g><!--link edu.gatech.gtri.obm.translator.alloy.tofile to edu.mit.csail.sdg.alloy4--><g id="link_edu.gatech.gtri.obm.translator.alloy.tofile_edu.mit.csail.sdg.alloy4"><path codeLine="16" d="M274.07,119.04 C273.5,135 272.7141,157.0338 272.1441,172.9938 " fill="none" id="edu.gatech.gtri.obm.translator.alloy.tofile-to-edu.mit.csail.sdg.alloy4" style="stroke:#181818;stroke-width:1.0;"/><polygon fill="#181818" points="271.93,178.99,276.2487,170.1385,272.1085,173.9932,268.2538,169.853,271.93,178.99" style="stroke:#181818;stroke-width:1.0;"/></g><!--link edu.gatech.gtri.obm.translator.alloy.fromxmi to edu.gatech.gtri.obm.translator.alloy.tofile--><g id="link_edu.gatech.gtri.obm.translator.alloy.fromxmi_edu.gatech.gtri.obm.translator.alloy.tofile"><path codeLine="17" d="M710.57,33.04 C613.81,49 449.8999,76.0528 353.2099,92.0128 " fill="none" id="edu.gatech.gtri.obm.translator.alloy.fromxmi-to-edu.gatech.gtri.obm.translator.alloy.tofile" style="stroke:#181818;stroke-width:1.0;"/><polygon fill="#181818" points="347.29,92.99,356.8213,95.4709,352.2232,92.1757,355.5184,87.5777,347.29,92.99" style="stroke:#181818;stroke-width:1.0;"/></g><!--link edu.gatech.gtri.obm.translator.alloy.fromxmi to edu.umd.omgutil.sysml.sysml1--><g id="link_edu.gatech.gtri.obm.translator.alloy.fromxmi_edu.umd.omgutil.sysml.sysml1"><path codeLine="18" d="M802.7,33.04 C828.17,49 867.7963,73.8432 893.2563,89.8032 " fill="none" id="edu.gatech.gtri.obm.translator.alloy.fromxmi-to-edu.umd.omgutil.sysml.sysml1" style="stroke:#181818;stroke-width:1.0;"/><polygon fill="#181818" points="898.34,92.99,892.839,84.8206,894.1036,90.3343,888.5899,91.5989,898.34,92.99" style="stroke:#181818;stroke-width:1.0;"/></g><!--link edu.gatech.gtri.obm.translator.alloy.fromxmi to edu.umd.omgutil--><g id="link_edu.gatech.gtri.obm.translator.alloy.fromxmi_edu.umd.omgutil"><path codeLine="19" d="M869.18,33.04 C991.26,50.18 1206.3783,80.4054 1313.7383,95.4854 " fill="none" id="edu.gatech.gtri.obm.translator.alloy.fromxmi-to-edu.umd.omgutil" style="stroke:#181818;stroke-width:1.0;"/><polygon fill="#181818" points="1319.68,96.32,1311.3239,91.107,1314.7286,95.6245,1310.2111,99.0292,1319.68,96.32" style="stroke:#181818;stroke-width:1.0;"/></g><!--link edu.gatech.gtri.obm.translator.alloy.fromxmi to org.eclipse.uml2.uml--><g id="link_edu.gatech.gtri.obm.translator.alloy.fromxmi_org.eclipse.uml2.uml"><path codeLine="20" d="M937.24,32.91 C1046.69,43.77 1182.52,62.79 1230.5,93 C1263.8,113.97 1282.8351,152.2462 1291.6151,173.4562 " fill="none" id="edu.gatech.gtri.obm.translator.alloy.fromxmi-to-org.eclipse.uml2.uml" style="stroke:#181818;stroke-width:1.0;"/><polygon fill="#181818" points="1293.91,179,1294.1635,169.1544,1291.9976,174.3802,1286.7718,172.2142,1293.91,179" style="stroke:#181818;stroke-width:1.0;"/></g><!--link edu.gatech.gtri.obm.translator.alloy.fromxmi to edu.mit.csail.sdg.ast--><g id="link_edu.gatech.gtri.obm.translator.alloy.fromxmi_edu.mit.csail.sdg.ast"><path codeLine="21" d="M629.92,28.83 C444.64,39.61 152.93,61.34 113.5,93 C87.04,114.24 81.9427,151.5467 80.9427,172.7467 " fill="none" id="edu.gatech.gtri.obm.translator.alloy.fromxmi-to-edu.mit.csail.sdg.ast" style="stroke:#181818;stroke-width:1.0;"/><polygon fill="#181818" points="80.66,178.74,85.0796,169.9385,80.8956,173.7456,77.0885,169.5615,80.66,178.74" style="stroke:#181818;stroke-width:1.0;"/></g><!--link edu.gatech.gtri.obm.translator.alloy.fromxmi to edu.umd.omgutil.uml--><g id="link_edu.gatech.gtri.obm.translator.alloy.fromxmi_edu.umd.omgutil.uml"><path codeLine="22" d="M834.22,33.04 C901.51,49 1013.7922,75.6443 1081.0322,91.6043 " fill="none" id="edu.gatech.gtri.obm.translator.alloy.fromxmi-to-edu.umd.omgutil.uml" style="stroke:#181818;stroke-width:1.0;"/><polygon fill="#181818" points="1086.87,92.99,1079.0371,87.0196,1082.0052,91.8353,1077.1895,94.8034,1086.87,92.99" style="stroke:#181818;stroke-width:1.0;"/></g><!--link edu.gatech.gtri.obm.translator.alloy.fromxmi to edu.gatech.gtri.obm.translator.alloy--><g id="link_edu.gatech.gtri.obm.translator.alloy.fromxmi_edu.gatech.gtri.obm.translator.alloy"><path codeLine="23" d="M764.16,33.04 C738.49,49 698.5438,73.8593 672.9038,89.8193 " fill="none" id="edu.gatech.gtri.obm.translator.alloy.fromxmi-to-edu.gatech.gtri.obm.translator.alloy" style="stroke:#181818;stroke-width:1.0;"/><polygon fill="#181818" points="667.81,92.99,677.5645,91.6298,672.0548,90.3477,673.3369,84.8381,667.81,92.99" style="stroke:#181818;stroke-width:1.0;"/></g><!--link edu.gatech.gtri.obm.translator.alloy.fromxmi to edu.mit.csail.sdg.alloy4--><g id="link_edu.gatech.gtri.obm.translator.alloy.fromxmi_edu.mit.csail.sdg.alloy4"><path codeLine="24" d="M727.91,33.02 C671.49,45.78 581.96,67.6 506.5,93 C428.58,119.23 345.272,156.5533 302.562,176.3833 " fill="none" id="edu.gatech.gtri.obm.translator.alloy.fromxmi-to-edu.mit.csail.sdg.alloy4" style="stroke:#181818;stroke-width:1.0;"/><polygon fill="#181818" points="297.12,178.91,306.9675,178.748,301.655,176.8044,303.5986,171.4919,297.12,178.91" style="stroke:#181818;stroke-width:1.0;"/></g><!--link edu.gatech.gtri.obm.translator.alloy.userinterface to edu.umd.omgutil--><g id="link_edu.gatech.gtri.obm.translator.alloy.userinterface_edu.umd.omgutil"><path codeLine="25" d="M1381.5,33.04 C1381.5,49 1381.5,71.03 1381.5,86.99 " fill="none" id="edu.gatech.gtri.obm.translator.alloy.userinterface-to-edu.umd.omgutil" style="stroke:#181818;stroke-width:1.0;"/><polygon fill="#181818" points="1381.5,92.99,1385.5,83.99,1381.5,87.99,1377.5,83.99,1381.5,92.99" style="stroke:#181818;stroke-width:1.0;"/></g><text fill="#888888" font-family="sans-serif" font-size="10" lengthAdjust="spacing" textLength="186" x="844.5" y="219.5791">UMLDoclet 2.1.1, PlantUML 1.2023.12</text><!--SRC=[hLPDIyGm4BtxAmP1L71JTl7ioQF2WdWI3p6Tjc4pIKccYwlutqtQnVKBpMvxIPl9otilcMHQ082mqhQLNX8yIRMglUjigPnn7jXB6-8GMZw2X4G6AmbZJE4TfaaSOTPPxCSRNI8exPNvr4TgUGELHbE6xr52RbmCzt4iEr5BHjM8chqMxeb4xy0a5I6DSHkOpQx0-LgWCheDA3eoYzJinv20f5ce8BKHeQn5N4j0FvP51XvDaSOkr_fbBD4EDesbiIn1KpQ5gBricuzazxt07YKDx_b4x2fjS89q_SEqtnQ9oZjw9lt1bgb-k417fN1KTvmCRm9js_aaZ8UHZBh6F-oCoEnVUpNAqtyJ9bljdgUlYwLEMqPVnJh-Qq9xhbDOnW-2h16CjgkXU2iZGu3Z79bZU7Y8k6B05GbNH5onmnKzhcW7bLdeYAJVY8R9F3x2Qo_ujg_iK26onNlqr1Q6svhjOO1FRM9xPh9TRF5Js_XosBBDV9cLPGaJ6YhdqkF-zkRQnTyGXeMOY_a5B8sq7ADmiaOVjBDdv-y0]--></g></svg>