<?xml version="1.0" encoding="us-ascii" standalone="no"?><svg xmlns="http://www.w3.org/2000/svg" xmlns:xlink="http://www.w3.org/1999/xlink" contentStyleType="text/css" height="974px" preserveAspectRatio="none" style="width:1000px;height:974px;background:#FFFFFF;" version="1.1" viewBox="0 0 1000 974" width="1000px" zoomAndPan="magnify"><defs/><g><!--cluster edu.gatech.gtri.obm.alloy.translator--><g id="cluster_edu.gatech.gtri.obm.alloy.translator"><path d="M8.5,129 L292.5,129 A3.75,3.75 0 0 1 295,131.5 L302,151.2969 L990.5,151.2969 A2.5,2.5 0 0 1 993,153.7969 L993,946.5 A2.5,2.5 0 0 1 990.5,949 L8.5,949 A2.5,2.5 0 0 1 6,946.5 L6,131.5 A2.5,2.5 0 0 1 8.5,129 " fill="none" style="stroke:#000000;stroke-width:1.5;"/><line style="stroke:#000000;stroke-width:1.5;" x1="6" x2="302" y1="151.2969" y2="151.2969"/><text fill="#000000" font-family="sans-serif" font-size="14" font-weight="bold" lengthAdjust="spacing" textLength="283" x="10" y="143.9951">edu.gatech.gtri.obm.alloy.translator</text></g><!--cluster edu.mit.csail.sdg.ast--><g id="cluster_edu.mit.csail.sdg.ast"><path d="M37.5,6 L200.5,6 A3.75,3.75 0 0 1 203,8.5 L210,28.2969 L210.5,28.2969 A2.5,2.5 0 0 1 213,30.7969 L213,102.5 A2.5,2.5 0 0 1 210.5,105 L37.5,105 A2.5,2.5 0 0 1 35,102.5 L35,8.5 A2.5,2.5 0 0 1 37.5,6 " fill="none" style="stroke:#000000;stroke-width:1.5;"/><line style="stroke:#000000;stroke-width:1.5;" x1="35" x2="210" y1="28.2969" y2="28.2969"/><text fill="#000000" font-family="sans-serif" font-size="14" font-weight="bold" lengthAdjust="spacing" textLength="162" x="39" y="20.9951">edu.mit.csail.sdg.ast</text></g><!--class Alloy--><a href="Alloy.html" target="_top" title="Alloy.html" xlink:actuate="onRequest" xlink:href="Alloy.html" xlink:show="new" xlink:title="Alloy.html" xlink:type="simple"><g id="elem_Alloy"><rect codeLine="5" fill="#F1F1F1" height="64.2969" id="Alloy" rx="2.5" ry="2.5" style="stroke:#181818;stroke-width:0.5;" width="127" x="261.5" y="229.5"/><ellipse cx="305.3" cy="245.5" fill="#ADD1B2" rx="11" ry="11" style="stroke:#181818;stroke-width:1.0;"/><path d="M308.2688,251.1406 Q307.6906,251.4375 307.05,251.5781 Q306.4094,251.7344 305.7063,251.7344 Q303.2063,251.7344 301.8781,250.0938 Q300.5656,248.4375 300.5656,245.3125 Q300.5656,242.1875 301.8781,240.5313 Q303.2063,238.875 305.7063,238.875 Q306.4094,238.875 307.05,239.0313 Q307.7063,239.1875 308.2688,239.4844 L308.2688,242.2031 Q307.6438,241.625 307.05,241.3594 Q306.4563,241.0781 305.8313,241.0781 Q304.4875,241.0781 303.8,242.1563 Q303.1125,243.2188 303.1125,245.3125 Q303.1125,247.4063 303.8,248.4844 Q304.4875,249.5469 305.8313,249.5469 Q306.4563,249.5469 307.05,249.2813 Q307.6438,249 308.2688,248.4219 L308.2688,251.1406 Z " fill="#000000"/><text fill="#000000" font-family="sans-serif" font-size="14" lengthAdjust="spacing" textLength="31" x="325.7" y="250.3467">Alloy</text><line style="stroke:#181818;stroke-width:0.5;" x1="262.5" x2="387.5" y1="261.5" y2="261.5"/><line style="stroke:#181818;stroke-width:0.5;" x1="262.5" x2="387.5" y1="269.5" y2="269.5"/><ellipse cx="272.5" cy="283.1484" fill="#84BE84" rx="3" ry="3" style="stroke:#038048;stroke-width:1.0;"/><text fill="#000000" font-family="sans-serif" font-size="14" lengthAdjust="spacing" textLength="101" x="281.5" y="286.4951">initialize(): void</text></g></a><!--class UML2Utils--><a href="UML2Utils.html" target="_top" title="UML2Utils.html" xlink:actuate="onRequest" xlink:href="UML2Utils.html" xlink:show="new" xlink:title="UML2Utils.html" xlink:type="simple"><g id="elem_UML2Utils"><rect codeLine="9" fill="#F1F1F1" height="48" id="UML2Utils" rx="2.5" ry="2.5" style="stroke:#181818;stroke-width:0.5;" width="99" x="423.5" y="237.5"/><ellipse cx="438.5" cy="253.5" fill="#ADD1B2" rx="11" ry="11" style="stroke:#181818;stroke-width:1.0;"/><path d="M441.4688,259.1406 Q440.8906,259.4375 440.25,259.5781 Q439.6094,259.7344 438.9063,259.7344 Q436.4063,259.7344 435.0781,258.0938 Q433.7656,256.4375 433.7656,253.3125 Q433.7656,250.1875 435.0781,248.5313 Q436.4063,246.875 438.9063,246.875 Q439.6094,246.875 440.25,247.0313 Q440.9063,247.1875 441.4688,247.4844 L441.4688,250.2031 Q440.8438,249.625 440.25,249.3594 Q439.6563,249.0781 439.0313,249.0781 Q437.6875,249.0781 437,250.1563 Q436.3125,251.2188 436.3125,253.3125 Q436.3125,255.4063 437,256.4844 Q437.6875,257.5469 439.0313,257.5469 Q439.6563,257.5469 440.25,257.2813 Q440.8438,257 441.4688,256.4219 L441.4688,259.1406 Z " fill="#000000"/><text fill="#000000" font-family="sans-serif" font-size="14" lengthAdjust="spacing" textLength="67" x="452.5" y="258.3467">UML2Utils</text><line style="stroke:#181818;stroke-width:0.5;" x1="424.5" x2="521.5" y1="269.5" y2="269.5"/><line style="stroke:#181818;stroke-width:0.5;" x1="424.5" x2="521.5" y1="277.5" y2="277.5"/></g></a><!--class ConnectorsHandler--><a href="ConnectorsHandler.html" target="_top" title="ConnectorsHandler.html" xlink:actuate="onRequest" xlink:href="ConnectorsHandler.html" xlink:show="new" xlink:title="ConnectorsHandler.html" xlink:type="simple"><g id="elem_ConnectorsHandler"><rect codeLine="12" fill="#F1F1F1" height="48" id="ConnectorsHandler" rx="2.5" ry="2.5" style="stroke:#181818;stroke-width:0.5;" width="166" x="558" y="237.5"/><ellipse cx="573" cy="253.5" fill="#ADD1B2" rx="11" ry="11" style="stroke:#181818;stroke-width:1.0;"/><path d="M575.9688,259.1406 Q575.3906,259.4375 574.75,259.5781 Q574.1094,259.7344 573.4063,259.7344 Q570.9063,259.7344 569.5781,258.0938 Q568.2656,256.4375 568.2656,253.3125 Q568.2656,250.1875 569.5781,248.5313 Q570.9063,246.875 573.4063,246.875 Q574.1094,246.875 574.75,247.0313 Q575.4063,247.1875 575.9688,247.4844 L575.9688,250.2031 Q575.3438,249.625 574.75,249.3594 Q574.1563,249.0781 573.5313,249.0781 Q572.1875,249.0781 571.5,250.1563 Q570.8125,251.2188 570.8125,253.3125 Q570.8125,255.4063 571.5,256.4844 Q572.1875,257.5469 573.5313,257.5469 Q574.1563,257.5469 574.75,257.2813 Q575.3438,257 575.9688,256.4219 L575.9688,259.1406 Z " fill="#000000"/><text fill="#000000" font-family="sans-serif" font-size="14" lengthAdjust="spacing" textLength="134" x="587" y="258.3467">ConnectorsHandler</text><line style="stroke:#181818;stroke-width:0.5;" x1="559" x2="723" y1="269.5" y2="269.5"/><line style="stroke:#181818;stroke-width:0.5;" x1="559" x2="723" y1="277.5" y2="277.5"/></g></a><!--class ExprVisitor--><a href="ExprVisitor.html" target="_top" title="ExprVisitor.html" xlink:actuate="onRequest" xlink:href="ExprVisitor.html" xlink:show="new" xlink:title="ExprVisitor.html" xlink:type="simple"><g id="elem_ExprVisitor"><rect codeLine="15" fill="#F1F1F1" height="194.6719" id="ExprVisitor" rx="2.5" ry="2.5" style="stroke:#181818;stroke-width:0.5;" width="204" x="22" y="164"/><ellipse cx="83.75" cy="180" fill="#ADD1B2" rx="11" ry="11" style="stroke:#181818;stroke-width:1.0;"/><path d="M86.7188,185.6406 Q86.1406,185.9375 85.5,186.0781 Q84.8594,186.2344 84.1563,186.2344 Q81.6563,186.2344 80.3281,184.5938 Q79.0156,182.9375 79.0156,179.8125 Q79.0156,176.6875 80.3281,175.0313 Q81.6563,173.375 84.1563,173.375 Q84.8594,173.375 85.5,173.5313 Q86.1563,173.6875 86.7188,173.9844 L86.7188,176.7031 Q86.0938,176.125 85.5,175.8594 Q84.9063,175.5781 84.2813,175.5781 Q82.9375,175.5781 82.25,176.6563 Q81.5625,177.7188 81.5625,179.8125 Q81.5625,181.9063 82.25,182.9844 Q82.9375,184.0469 84.2813,184.0469 Q84.9063,184.0469 85.5,183.7813 Q86.0938,183.5 86.7188,182.9219 L86.7188,185.6406 Z " fill="#000000"/><text fill="#000000" font-family="sans-serif" font-size="14" lengthAdjust="spacing" textLength="72" x="104.25" y="184.8467">ExprVisitor</text><line style="stroke:#181818;stroke-width:0.5;" x1="23" x2="225" y1="196" y2="196"/><line style="stroke:#181818;stroke-width:0.5;" x1="23" x2="225" y1="204" y2="204"/><ellipse cx="33" cy="217.6484" fill="#84BE84" rx="3" ry="3" style="stroke:#038048;stroke-width:1.0;"/><text fill="#000000" font-family="sans-serif" font-size="14" lengthAdjust="spacing" textLength="157" x="42" y="220.9951">visit(ExprBinary): String</text><ellipse cx="33" cy="233.9453" fill="#84BE84" rx="3" ry="3" style="stroke:#038048;stroke-width:1.0;"/><text fill="#000000" font-family="sans-serif" font-size="14" lengthAdjust="spacing" textLength="139" x="42" y="237.292">visit(ExprCall): String</text><ellipse cx="33" cy="250.2422" fill="#84BE84" rx="3" ry="3" style="stroke:#038048;stroke-width:1.0;"/><text fill="#000000" font-family="sans-serif" font-size="14" lengthAdjust="spacing" textLength="178" x="42" y="253.5889">visit(ExprConstant): String</text><ellipse cx="33" cy="266.5391" fill="#84BE84" rx="3" ry="3" style="stroke:#038048;stroke-width:1.0;"/><text fill="#000000" font-family="sans-serif" font-size="14" lengthAdjust="spacing" textLength="138" x="42" y="269.8857">visit(ExprList): String</text><ellipse cx="33" cy="282.8359" fill="#84BE84" rx="3" ry="3" style="stroke:#038048;stroke-width:1.0;"/><text fill="#000000" font-family="sans-serif" font-size="14" lengthAdjust="spacing" textLength="131" x="42" y="286.1826">visit(ExprQt): String</text><ellipse cx="33" cy="299.1328" fill="#84BE84" rx="3" ry="3" style="stroke:#038048;stroke-width:1.0;"/><text fill="#000000" font-family="sans-serif" font-size="14" lengthAdjust="spacing" textLength="154" x="42" y="302.4795">visit(ExprUnary): String</text><ellipse cx="33" cy="315.4297" fill="#84BE84" rx="3" ry="3" style="stroke:#038048;stroke-width:1.0;"/><text fill="#000000" font-family="sans-serif" font-size="14" lengthAdjust="spacing" textLength="137" x="42" y="318.7764">visit(ExprVar): String</text><ellipse cx="33" cy="331.7266" fill="#84BE84" rx="3" ry="3" style="stroke:#038048;stroke-width:1.0;"/><text fill="#000000" font-family="sans-serif" font-size="14" lengthAdjust="spacing" textLength="106" x="42" y="335.0732">visit(Sig): String</text><ellipse cx="33" cy="348.0234" fill="#84BE84" rx="3" ry="3" style="stroke:#038048;stroke-width:1.0;"/><text fill="#000000" font-family="sans-serif" font-size="14" lengthAdjust="spacing" textLength="117" x="42" y="351.3701">visit(Field): String</text></g></a><!--class AlloyExprFactory--><a href="AlloyExprFactory.html" target="_top" title="AlloyExprFactory.html" xlink:actuate="onRequest" xlink:href="AlloyExprFactory.html" xlink:show="new" xlink:title="AlloyExprFactory.html" xlink:type="simple"><g id="elem_AlloyExprFactory"><rect codeLine="27" fill="#F1F1F1" height="48" id="AlloyExprFactory" rx="2.5" ry="2.5" style="stroke:#181818;stroke-width:0.5;" width="143" x="759.5" y="237.5"/><ellipse cx="774.5" cy="253.5" fill="#ADD1B2" rx="11" ry="11" style="stroke:#181818;stroke-width:1.0;"/><path d="M777.4688,259.1406 Q776.8906,259.4375 776.25,259.5781 Q775.6094,259.7344 774.9063,259.7344 Q772.4063,259.7344 771.0781,258.0938 Q769.7656,256.4375 769.7656,253.3125 Q769.7656,250.1875 771.0781,248.5313 Q772.4063,246.875 774.9063,246.875 Q775.6094,246.875 776.25,247.0313 Q776.9063,247.1875 777.4688,247.4844 L777.4688,250.2031 Q776.8438,249.625 776.25,249.3594 Q775.6563,249.0781 775.0313,249.0781 Q773.6875,249.0781 773,250.1563 Q772.3125,251.2188 772.3125,253.3125 Q772.3125,255.4063 773,256.4844 Q773.6875,257.5469 775.0313,257.5469 Q775.6563,257.5469 776.25,257.2813 Q776.8438,257 777.4688,256.4219 L777.4688,259.1406 Z " fill="#000000"/><text fill="#000000" font-family="sans-serif" font-size="14" lengthAdjust="spacing" textLength="111" x="788.5" y="258.3467">AlloyExprFactory</text><line style="stroke:#181818;stroke-width:0.5;" x1="760.5" x2="901.5" y1="269.5" y2="269.5"/><line style="stroke:#181818;stroke-width:0.5;" x1="760.5" x2="901.5" y1="277.5" y2="277.5"/></g></a><!--class OBMXMI2Alloy--><a href="OBMXMI2Alloy.html" target="_top" title="OBMXMI2Alloy.html" xlink:actuate="onRequest" xlink:href="OBMXMI2Alloy.html" xlink:show="new" xlink:title="OBMXMI2Alloy.html" xlink:type="simple"><g id="elem_OBMXMI2Alloy"><rect codeLine="30" fill="#F1F1F1" height="129.4844" id="OBMXMI2Alloy" rx="2.5" ry="2.5" style="stroke:#181818;stroke-width:0.5;" width="270" x="22" y="419"/><ellipse cx="104.25" cy="435" fill="#ADD1B2" rx="11" ry="11" style="stroke:#181818;stroke-width:1.0;"/><path d="M107.2188,440.6406 Q106.6406,440.9375 106,441.0781 Q105.3594,441.2344 104.6563,441.2344 Q102.1563,441.2344 100.8281,439.5938 Q99.5156,437.9375 99.5156,434.8125 Q99.5156,431.6875 100.8281,430.0313 Q102.1563,428.375 104.6563,428.375 Q105.3594,428.375 106,428.5313 Q106.6563,428.6875 107.2188,428.9844 L107.2188,431.7031 Q106.5938,431.125 106,430.8594 Q105.4063,430.5781 104.7813,430.5781 Q103.4375,430.5781 102.75,431.6563 Q102.0625,432.7188 102.0625,434.8125 Q102.0625,436.9063 102.75,437.9844 Q103.4375,439.0469 104.7813,439.0469 Q105.4063,439.0469 106,438.7813 Q106.5938,438.5 107.2188,437.9219 L107.2188,440.6406 Z " fill="#000000"/><text fill="#000000" font-family="sans-serif" font-size="14" lengthAdjust="spacing" textLength="97" x="124.75" y="439.8467">OBMXMI2Alloy</text><line style="stroke:#181818;stroke-width:0.5;" x1="23" x2="291" y1="451" y2="451"/><line style="stroke:#181818;stroke-width:0.5;" x1="23" x2="291" y1="459" y2="459"/><ellipse cx="33" cy="472.6484" fill="#84BE84" rx="3" ry="3" style="stroke:#038048;stroke-width:1.0;"/><text fill="#000000" font-family="sans-serif" font-size="14" lengthAdjust="spacing" textLength="147" x="42" y="475.9951">OBMXMI2Alloy(String)</text><ellipse cx="33" cy="488.9453" fill="#84BE84" rx="3" ry="3" style="stroke:#038048;stroke-width:1.0;"/><text fill="#000000" font-family="sans-serif" font-size="14" lengthAdjust="spacing" textLength="175" x="42" y="492.292">loadXmiFile(File): boolean</text><ellipse cx="33" cy="505.2422" fill="#84BE84" rx="3" ry="3" style="stroke:#038048;stroke-width:1.0;"/><text fill="#000000" font-family="sans-serif" font-size="14" lengthAdjust="spacing" textLength="244" x="42" y="508.5889">createAlloyFile(String, File): boolean</text><ellipse cx="33" cy="521.5391" fill="#84BE84" rx="3" ry="3" style="stroke:#038048;stroke-width:1.0;"/><text fill="#000000" font-family="sans-serif" font-size="14" lengthAdjust="spacing" textLength="200" x="42" y="524.8857">getMessages(): List&lt;String&gt;</text><ellipse cx="33" cy="537.8359" fill="#84BE84" rx="3" ry="3" style="stroke:#038048;stroke-width:1.0;"/><text fill="#000000" font-family="sans-serif" font-size="14" lengthAdjust="spacing" textLength="233" x="42" y="541.1826">getErrorMessages(): List&lt;String&gt;</text></g></a><!--class ConnectorsHandler_OneOf--><a href="ConnectorsHandler_OneOf.html" target="_top" title="ConnectorsHandler_OneOf.html" xlink:actuate="onRequest" xlink:href="ConnectorsHandler_OneOf.html" xlink:show="new" xlink:title="ConnectorsHandler_OneOf.html" xlink:type="simple"><g id="elem_ConnectorsHandler_OneOf"><rect codeLine="38" fill="#F1F1F1" height="48" id="ConnectorsHandler_OneOf" rx="2.5" ry="2.5" style="stroke:#181818;stroke-width:0.5;" width="217" x="327.5" y="459.5"/><ellipse cx="342.5" cy="475.5" fill="#ADD1B2" rx="11" ry="11" style="stroke:#181818;stroke-width:1.0;"/><path d="M345.4688,481.1406 Q344.8906,481.4375 344.25,481.5781 Q343.6094,481.7344 342.9063,481.7344 Q340.4063,481.7344 339.0781,480.0938 Q337.7656,478.4375 337.7656,475.3125 Q337.7656,472.1875 339.0781,470.5313 Q340.4063,468.875 342.9063,468.875 Q343.6094,468.875 344.25,469.0313 Q344.9063,469.1875 345.4688,469.4844 L345.4688,472.2031 Q344.8438,471.625 344.25,471.3594 Q343.6563,471.0781 343.0313,471.0781 Q341.6875,471.0781 341,472.1563 Q340.3125,473.2188 340.3125,475.3125 Q340.3125,477.4063 341,478.4844 Q341.6875,479.5469 343.0313,479.5469 Q343.6563,479.5469 344.25,479.2813 Q344.8438,479 345.4688,478.4219 L345.4688,481.1406 Z " fill="#000000"/><text fill="#000000" font-family="sans-serif" font-size="14" lengthAdjust="spacing" textLength="185" x="356.5" y="480.3467">ConnectorsHandler_OneOf</text><line style="stroke:#181818;stroke-width:0.5;" x1="328.5" x2="543.5" y1="491.5" y2="491.5"/><line style="stroke:#181818;stroke-width:0.5;" x1="328.5" x2="543.5" y1="499.5" y2="499.5"/></g></a><!--class ConnectorHandler_Transfer--><a href="ConnectorHandler_Transfer.html" target="_top" title="ConnectorHandler_Transfer.html" xlink:actuate="onRequest" xlink:href="ConnectorHandler_Transfer.html" xlink:show="new" xlink:title="ConnectorHandler_Transfer.html" xlink:type="simple"><g id="elem_ConnectorHandler_Transfer"><rect codeLine="41" fill="#F1F1F1" height="48" id="ConnectorHandler_Transfer" rx="2.5" ry="2.5" style="stroke:#181818;stroke-width:0.5;" width="222" x="580" y="459.5"/><ellipse cx="595" cy="475.5" fill="#ADD1B2" rx="11" ry="11" style="stroke:#181818;stroke-width:1.0;"/><path d="M597.9688,481.1406 Q597.3906,481.4375 596.75,481.5781 Q596.1094,481.7344 595.4063,481.7344 Q592.9063,481.7344 591.5781,480.0938 Q590.2656,478.4375 590.2656,475.3125 Q590.2656,472.1875 591.5781,470.5313 Q592.9063,468.875 595.4063,468.875 Q596.1094,468.875 596.75,469.0313 Q597.4063,469.1875 597.9688,469.4844 L597.9688,472.2031 Q597.3438,471.625 596.75,471.3594 Q596.1563,471.0781 595.5313,471.0781 Q594.1875,471.0781 593.5,472.1563 Q592.8125,473.2188 592.8125,475.3125 Q592.8125,477.4063 593.5,478.4844 Q594.1875,479.5469 595.5313,479.5469 Q596.1563,479.5469 596.75,479.2813 Q597.3438,479 597.9688,478.4219 L597.9688,481.1406 Z " fill="#000000"/><text fill="#000000" font-family="sans-serif" font-size="14" lengthAdjust="spacing" textLength="190" x="609" y="480.3467">ConnectorHandler_Transfer</text><line style="stroke:#181818;stroke-width:0.5;" x1="581" x2="801" y1="491.5" y2="491.5"/><line style="stroke:#181818;stroke-width:0.5;" x1="581" x2="801" y1="499.5" y2="499.5"/></g></a><!--class ClassesHandler--><a href="ClassesHandler.html" target="_top" title="ClassesHandler.html" xlink:actuate="onRequest" xlink:href="ClassesHandler.html" xlink:show="new" xlink:title="ClassesHandler.html" xlink:type="simple"><g id="elem_ClassesHandler"><rect codeLine="44" fill="#F1F1F1" height="48" id="ClassesHandler" rx="2.5" ry="2.5" style="stroke:#181818;stroke-width:0.5;" width="139" x="837.5" y="459.5"/><ellipse cx="852.5" cy="475.5" fill="#ADD1B2" rx="11" ry="11" style="stroke:#181818;stroke-width:1.0;"/><path d="M855.4688,481.1406 Q854.8906,481.4375 854.25,481.5781 Q853.6094,481.7344 852.9063,481.7344 Q850.4063,481.7344 849.0781,480.0938 Q847.7656,478.4375 847.7656,475.3125 Q847.7656,472.1875 849.0781,470.5313 Q850.4063,468.875 852.9063,468.875 Q853.6094,468.875 854.25,469.0313 Q854.9063,469.1875 855.4688,469.4844 L855.4688,472.2031 Q854.8438,471.625 854.25,471.3594 Q853.6563,471.0781 853.0313,471.0781 Q851.6875,471.0781 851,472.1563 Q850.3125,473.2188 850.3125,475.3125 Q850.3125,477.4063 851,478.4844 Q851.6875,479.5469 853.0313,479.5469 Q853.6563,479.5469 854.25,479.2813 Q854.8438,479 855.4688,478.4219 L855.4688,481.1406 Z " fill="#000000"/><text fill="#000000" font-family="sans-serif" font-size="14" lengthAdjust="spacing" textLength="107" x="866.5" y="480.3467">ClassesHandler</text><line style="stroke:#181818;stroke-width:0.5;" x1="838.5" x2="975.5" y1="491.5" y2="491.5"/><line style="stroke:#181818;stroke-width:0.5;" x1="838.5" x2="975.5" y1="499.5" y2="499.5"/></g></a><!--class AlloyUtils--><a href="AlloyUtils.html" target="_top" title="AlloyUtils.html" xlink:actuate="onRequest" xlink:href="AlloyUtils.html" xlink:show="new" xlink:title="AlloyUtils.html" xlink:type="simple"><g id="elem_AlloyUtils"><rect codeLine="47" fill="#F1F1F1" height="325.0469" id="AlloyUtils" rx="2.5" ry="2.5" style="stroke:#181818;stroke-width:0.5;" width="417" x="21.5" y="608"/><ellipse cx="195.75" cy="624" fill="#ADD1B2" rx="11" ry="11" style="stroke:#181818;stroke-width:1.0;"/><path d="M198.7188,629.6406 Q198.1406,629.9375 197.5,630.0781 Q196.8594,630.2344 196.1563,630.2344 Q193.6563,630.2344 192.3281,628.5938 Q191.0156,626.9375 191.0156,623.8125 Q191.0156,620.6875 192.3281,619.0313 Q193.6563,617.375 196.1563,617.375 Q196.8594,617.375 197.5,617.5313 Q198.1563,617.6875 198.7188,617.9844 L198.7188,620.7031 Q198.0938,620.125 197.5,619.8594 Q196.9063,619.5781 196.2813,619.5781 Q194.9375,619.5781 194.25,620.6563 Q193.5625,621.7188 193.5625,623.8125 Q193.5625,625.9063 194.25,626.9844 Q194.9375,628.0469 196.2813,628.0469 Q196.9063,628.0469 197.5,627.7813 Q198.0938,627.5 198.7188,626.9219 L198.7188,629.6406 Z " fill="#000000"/><text fill="#000000" font-family="sans-serif" font-size="14" lengthAdjust="spacing" textLength="60" x="216.25" y="628.8467">AlloyUtils</text><line style="stroke:#181818;stroke-width:0.5;" x1="22.5" x2="437.5" y1="640" y2="640"/><line style="stroke:#181818;stroke-width:0.5;" x1="22.5" x2="437.5" y1="648" y2="648"/><ellipse cx="32.5" cy="661.6484" fill="#84BE84" rx="3" ry="3" style="stroke:#038048;stroke-width:1.0;"/><text fill="#000000" font-family="sans-serif" font-size="14" lengthAdjust="spacing" text-decoration="underline" textLength="260" x="41.5" y="664.9951">importAlloyModule(File): CompModule</text><ellipse cx="32.5" cy="677.9453" fill="#84BE84" rx="3" ry="3" style="stroke:#038048;stroke-width:1.0;"/><text fill="#000000" font-family="sans-serif" font-size="14" lengthAdjust="spacing" text-decoration="underline" textLength="277" x="41.5" y="681.292">importAlloyModule(String): CompModule</text><ellipse cx="32.5" cy="694.2422" fill="#84BE84" rx="3" ry="3" style="stroke:#038048;stroke-width:1.0;"/><text fill="#000000" font-family="sans-serif" font-size="14" lengthAdjust="spacing" text-decoration="underline" textLength="257" x="41.5" y="697.5889">selfOrAncestor(PrimSig, Sig): boolean</text><ellipse cx="32.5" cy="710.5391" fill="#84BE84" rx="3" ry="3" style="stroke:#038048;stroke-width:1.0;"/><text fill="#000000" font-family="sans-serif" font-size="14" lengthAdjust="spacing" text-decoration="underline" textLength="280" x="41.5" y="713.8857">isValidUserDefineParent(String): boolean</text><ellipse cx="32.5" cy="726.8359" fill="#84BE84" rx="3" ry="3" style="stroke:#038048;stroke-width:1.0;"/><text fill="#000000" font-family="sans-serif" font-size="14" lengthAdjust="spacing" text-decoration="underline" textLength="299" x="41.5" y="730.1826">hasOwnOrInheritedFields(PrimSig): boolean</text><ellipse cx="32.5" cy="743.1328" fill="#84BE84" rx="3" ry="3" style="stroke:#038048;stroke-width:1.0;"/><text fill="#000000" font-family="sans-serif" font-size="14" lengthAdjust="spacing" text-decoration="underline" textLength="259" x="41.5" y="746.4795">getFieldFromSig(String, PrimSig): Expr</text><ellipse cx="32.5" cy="759.4297" fill="#84BE84" rx="3" ry="3" style="stroke:#038048;stroke-width:1.0;"/><text fill="#000000" font-family="sans-serif" font-size="14" lengthAdjust="spacing" text-decoration="underline" textLength="304" x="41.5" y="762.7764">getFieldFromParentSig(String, PrimSig): Expr</text><ellipse cx="32.5" cy="775.7266" fill="#84BE84" rx="3" ry="3" style="stroke:#038048;stroke-width:1.0;"/><text fill="#000000" font-family="sans-serif" font-size="14" lengthAdjust="spacing" text-decoration="underline" textLength="391" x="41.5" y="779.0732">getFieldAsExprFromSigOrItsParents(String, PrimSig): Expr</text><ellipse cx="32.5" cy="792.0234" fill="#84BE84" rx="3" ry="3" style="stroke:#038048;stroke-width:1.0;"/><text fill="#000000" font-family="sans-serif" font-size="14" lengthAdjust="spacing" text-decoration="underline" textLength="346" x="41.5" y="795.3701">getFieldFromSigOrItsParents(String, PrimSig): Field</text><ellipse cx="32.5" cy="808.3203" fill="#84BE84" rx="3" ry="3" style="stroke:#038048;stroke-width:1.0;"/><text fill="#000000" font-family="sans-serif" font-size="14" lengthAdjust="spacing" text-decoration="underline" textLength="256" x="41.5" y="811.667">getReachableSig(String, Module): Sig</text><ellipse cx="32.5" cy="824.6172" fill="#84BE84" rx="3" ry="3" style="stroke:#038048;stroke-width:1.0;"/><text fill="#000000" font-family="sans-serif" font-size="14" lengthAdjust="spacing" text-decoration="underline" textLength="388" x="41.5" y="827.9639">getAllReachableModuleByName(String, Module): Module</text><ellipse cx="32.5" cy="840.9141" fill="#84BE84" rx="3" ry="3" style="stroke:#038048;stroke-width:1.0;"/><text fill="#000000" font-family="sans-serif" font-size="14" lengthAdjust="spacing" text-decoration="underline" textLength="235" x="41.5" y="844.2607">getFunction(String, Module): Func</text><ellipse cx="32.5" cy="857.2109" fill="#84BE84" rx="3" ry="3" style="stroke:#038048;stroke-width:1.0;"/><text fill="#000000" font-family="sans-serif" font-size="14" lengthAdjust="spacing" text-decoration="underline" textLength="244" x="41.5" y="860.5576">sortFields(Set&lt;Field&gt;): List&lt;Field&gt;</text><ellipse cx="32.5" cy="873.5078" fill="#84BE84" rx="3" ry="3" style="stroke:#038048;stroke-width:1.0;"/><text fill="#000000" font-family="sans-serif" font-size="14" lengthAdjust="spacing" text-decoration="underline" textLength="220" x="41.5" y="876.8545">sort(Set&lt;String&gt;): List&lt;String&gt;</text><ellipse cx="32.5" cy="889.8047" fill="#84BE84" rx="3" ry="3" style="stroke:#038048;stroke-width:1.0;"/><text fill="#000000" font-family="sans-serif" font-size="14" lengthAdjust="spacing" text-decoration="underline" textLength="265" x="41.5" y="893.1514">fieldsLabels(Set&lt;Field&gt;): Set&lt;String&gt;</text><ellipse cx="32.5" cy="906.1016" fill="#84BE84" rx="3" ry="3" style="stroke:#038048;stroke-width:1.0;"/><text fill="#000000" font-family="sans-serif" font-size="14" lengthAdjust="spacing" text-decoration="underline" textLength="289" x="41.5" y="909.4482">toSigAllFacts(Sig, Set&lt;Expr&gt;): Set&lt;Expr&gt;</text><ellipse cx="32.5" cy="922.3984" fill="#84BE84" rx="3" ry="3" style="stroke:#038048;stroke-width:1.0;"/><text fill="#000000" font-family="sans-serif" font-size="14" lengthAdjust="spacing" text-decoration="underline" textLength="188" x="41.5" y="925.7451">removeSlash(String): String</text></g></a><!--class ToAlloy--><a href="ToAlloy.html" target="_top" title="ToAlloy.html" xlink:actuate="onRequest" xlink:href="ToAlloy.html" xlink:show="new" xlink:title="ToAlloy.html" xlink:type="simple"><g id="elem_ToAlloy"><rect codeLine="67" fill="#F1F1F1" height="48" id="ToAlloy" rx="2.5" ry="2.5" style="stroke:#181818;stroke-width:0.5;" width="81" x="473.5" y="746.5"/><ellipse cx="488.5" cy="762.5" fill="#ADD1B2" rx="11" ry="11" style="stroke:#181818;stroke-width:1.0;"/><path d="M491.4688,768.1406 Q490.8906,768.4375 490.25,768.5781 Q489.6094,768.7344 488.9063,768.7344 Q486.4063,768.7344 485.0781,767.0938 Q483.7656,765.4375 483.7656,762.3125 Q483.7656,759.1875 485.0781,757.5313 Q486.4063,755.875 488.9063,755.875 Q489.6094,755.875 490.25,756.0313 Q490.9063,756.1875 491.4688,756.4844 L491.4688,759.2031 Q490.8438,758.625 490.25,758.3594 Q489.6563,758.0781 489.0313,758.0781 Q487.6875,758.0781 487,759.1563 Q486.3125,760.2188 486.3125,762.3125 Q486.3125,764.4063 487,765.4844 Q487.6875,766.5469 489.0313,766.5469 Q489.6563,766.5469 490.25,766.2813 Q490.8438,766 491.4688,765.4219 L491.4688,768.1406 Z " fill="#000000"/><text fill="#000000" font-family="sans-serif" font-size="14" lengthAdjust="spacing" textLength="49" x="502.5" y="767.3467">ToAlloy</text><line style="stroke:#181818;stroke-width:0.5;" x1="474.5" x2="553.5" y1="778.5" y2="778.5"/><line style="stroke:#181818;stroke-width:0.5;" x1="474.5" x2="553.5" y1="786.5" y2="786.5"/></g></a><!--class ConnectorHandler--><a href="ConnectorHandler.html" target="_top" title="ConnectorHandler.html" xlink:actuate="onRequest" xlink:href="ConnectorHandler.html" xlink:show="new" xlink:title="ConnectorHandler.html" xlink:type="simple"><g id="elem_ConnectorHandler"><rect codeLine="70" fill="#F1F1F1" height="48" id="ConnectorHandler" rx="2.5" ry="2.5" style="stroke:#181818;stroke-width:0.5;" width="158" x="590" y="746.5"/><ellipse cx="605" cy="762.5" fill="#ADD1B2" rx="11" ry="11" style="stroke:#181818;stroke-width:1.0;"/><path d="M607.9688,768.1406 Q607.3906,768.4375 606.75,768.5781 Q606.1094,768.7344 605.4063,768.7344 Q602.9063,768.7344 601.5781,767.0938 Q600.2656,765.4375 600.2656,762.3125 Q600.2656,759.1875 601.5781,757.5313 Q602.9063,755.875 605.4063,755.875 Q606.1094,755.875 606.75,756.0313 Q607.4063,756.1875 607.9688,756.4844 L607.9688,759.2031 Q607.3438,758.625 606.75,758.3594 Q606.1563,758.0781 605.5313,758.0781 Q604.1875,758.0781 603.5,759.1563 Q602.8125,760.2188 602.8125,762.3125 Q602.8125,764.4063 603.5,765.4844 Q604.1875,766.5469 605.5313,766.5469 Q606.1563,766.5469 606.75,766.2813 Q607.3438,766 607.9688,765.4219 L607.9688,768.1406 Z " fill="#000000"/><text fill="#000000" font-family="sans-serif" font-size="14" lengthAdjust="spacing" textLength="126" x="619" y="767.3467">ConnectorHandler</text><line style="stroke:#181818;stroke-width:0.5;" x1="591" x2="747" y1="778.5" y2="778.5"/><line style="stroke:#181818;stroke-width:0.5;" x1="591" x2="747" y1="786.5" y2="786.5"/></g></a><!--class VisitQuery--><g id="elem_VisitQuery"><rect codeLine="76" fill="#F1F1F1" height="48" id="VisitQuery" rx="2.5" ry="2.5" style="stroke:#181818;stroke-width:0.5;" width="113" x="67.5" y="41"/><ellipse cx="82.5" cy="57" fill="#A9DCDF" rx="11" ry="11" style="stroke:#181818;stroke-width:1.0;"/><path d="M82.6094,52.3438 L81.4531,57.4219 L83.7813,57.4219 L82.6094,52.3438 Z M81.125,50.1094 L84.1094,50.1094 L87.4688,62.5 L85.0156,62.5 L84.25,59.4375 L80.9688,59.4375 L80.2188,62.5 L77.7813,62.5 L81.125,50.1094 Z " fill="#000000"/><text fill="#000000" font-family="sans-serif" font-size="14" font-style="italic" lengthAdjust="spacing" textLength="70" x="96.5" y="61.8467">VisitQuery</text><rect fill="#FFFFFF" height="15.9688" style="stroke:#181818;stroke-width:1.0;stroke-dasharray:2.0,2.0;" width="9" x="174.5" y="38"/><text fill="#000000" font-family="sans-serif" font-size="12" font-style="italic" lengthAdjust="spacing" textLength="7" x="175.5" y="50.1387">T</text><line style="stroke:#181818;stroke-width:0.5;" x1="68.5" x2="179.5" y1="73" y2="73"/><line style="stroke:#181818;stroke-width:0.5;" x1="68.5" x2="179.5" y1="81" y2="81"/></g><!--reverse link VisitQuery to ExprVisitor--><g id="link_VisitQuery_ExprVisitor"><path codeLine="79" d="M124,107.08 C124,125.89 124,135.83 124,163.72 " fill="none" id="VisitQuery-backto-ExprVisitor" style="stroke:#181818;stroke-width:1.0;"/><polygon fill="none" points="124,89.08,118,107.08,130,107.08,124,89.08" style="stroke:#181818;stroke-width:1.0;"/></g><text fill="#888888" font-family="sans-serif" font-size="10" lengthAdjust="spacing" textLength="186" x="400" y="964.2822">UMLDoclet 2.1.1, PlantUML 1.2023.12</text><!--SRC=[dLPhRzem5FtUN-4lawZMHce_HgXIIujMgOnsbAeIgYQJN88rnqQsOMCT_xtNDY61aCSQ2UB7ESUlUsvC224Q3FuML54Z5Gd3anDi90iQ_Q8948YNGK8DHFCWCOe5Sfe6b7Ev3eoYGdD7UlSS-qISQaskBO9C9kuTp4tAtzuGHGhFLoQOOPIplz0v3SbAidZNlpdK6myUBiU6SOsQkt9PjyJhII4WmYdgRrJ471JoIsqjTEx-BDGBqymkTZ8fr2hMjhAz7OkxOOAgDIvmXBidaYfO3_Uq6II5DbIOHk03qysWfsR8kDNSNwYgnOnOKjlVPy3ZCc9pDAZiW7rgZsyNNuMc5aSvl1cy3kulimWjLYiEimZf-4cUxYEufF5holgCGyV-uMAcKdAWOXyNAK0hEI67zM9df8wJW1c0rkX5RNrYZxRhULSbu9rIKZMYcrtoSoXWE3lc5T_pFyxBYCysNSps7NZOrqRN_aFHpdiDBHJSzcV99AySF_ntD9nXqGRJLRgGoZZyGCRB_AHxCbtubjRCRH2ru6hWiw6w5X5etA_Ees8fskcCU4yT2vZ2kFe5qsiyrg1kOSO4F585mkIZrzFdL0z_Yw6w5tDGp43iVAgpEJJoCHuTew-anU-2FUTRuxOW-sb_Mk9QkmJXPu7BCTeBwi_Fg5d8GQkLVW2DvdJAeRWg7mWs4RAacefnj6DxnitwEqsXB5CRM7OvIn4P9aMPQNkg0X93UHi88p1TLxpACeslrJ0TPvkFwf9PpfgviHxe5FZ1Y0Mf2gwHk9EuN_RZe3lUDqYoXvm9k785NK4gLp32f37FFTFqaNgMsPTbM_f4hZoI8YjLDkNhMifC46dAUA3Z9A3Q55Xqgl7U5fdjoEuMyxG4jUu-NnNrZkg4OOudtN_dvwrkXs5Ok2yvyGXDWwkSIMbVU9-xbH77M-XbS15Se8iutd6mbNnPWT8sG4y_0000]--></g></svg>