<?xml version="1.0" encoding="us-ascii" standalone="no"?><svg xmlns="http://www.w3.org/2000/svg" xmlns:xlink="http://www.w3.org/1999/xlink" contentStyleType="text/css" height="893px" preserveAspectRatio="none" style="width:1144px;height:893px;background:#FFFFFF;" version="1.1" viewBox="0 0 1144 893" width="1144px" zoomAndPan="magnify"><defs/><g><!--cluster edu.gatech.gtri.obm.alloy.translator--><g id="cluster_edu.gatech.gtri.obm.alloy.translator"><path d="M8.5,129 L292.5,129 A3.75,3.75 0 0 1 295,131.5 L302,151.2969 L1134.5,151.2969 A2.5,2.5 0 0 1 1137,153.7969 L1137,865.5 A2.5,2.5 0 0 1 1134.5,868 L8.5,868 A2.5,2.5 0 0 1 6,865.5 L6,131.5 A2.5,2.5 0 0 1 8.5,129 " fill="none" style="stroke:#000000;stroke-width:1.5;"/><line style="stroke:#000000;stroke-width:1.5;" x1="6" x2="302" y1="151.2969" y2="151.2969"/><text fill="#000000" font-family="sans-serif" font-size="14" font-weight="bold" lengthAdjust="spacing" textLength="283" x="10" y="143.9951">edu.gatech.gtri.obm.alloy.translator</text></g><!--cluster edu.mit.csail.sdg.ast--><g id="cluster_edu.mit.csail.sdg.ast"><path d="M37.5,6 L200.5,6 A3.75,3.75 0 0 1 203,8.5 L210,28.2969 L210.5,28.2969 A2.5,2.5 0 0 1 213,30.7969 L213,102.5 A2.5,2.5 0 0 1 210.5,105 L37.5,105 A2.5,2.5 0 0 1 35,102.5 L35,8.5 A2.5,2.5 0 0 1 37.5,6 " fill="none" style="stroke:#000000;stroke-width:1.5;"/><line style="stroke:#000000;stroke-width:1.5;" x1="35" x2="210" y1="28.2969" y2="28.2969"/><text fill="#000000" font-family="sans-serif" font-size="14" font-weight="bold" lengthAdjust="spacing" textLength="162" x="39" y="20.9951">edu.mit.csail.sdg.ast</text></g><!--class Alloy--><a href="Alloy.html" target="_top" title="Alloy.html" xlink:actuate="onRequest" xlink:href="Alloy.html" xlink:show="new" xlink:title="Alloy.html" xlink:type="simple"><g id="elem_Alloy"><rect codeLine="5" fill="#F1F1F1" height="64.2969" id="Alloy" rx="2.5" ry="2.5" style="stroke:#181818;stroke-width:0.5;" width="127" x="261.5" y="229.5"/><ellipse cx="305.3" cy="245.5" fill="#ADD1B2" rx="11" ry="11" style="stroke:#181818;stroke-width:1.0;"/><path d="M308.2688,251.1406 Q307.6906,251.4375 307.05,251.5781 Q306.4094,251.7344 305.7063,251.7344 Q303.2063,251.7344 301.8781,250.0938 Q300.5656,248.4375 300.5656,245.3125 Q300.5656,242.1875 301.8781,240.5313 Q303.2063,238.875 305.7063,238.875 Q306.4094,238.875 307.05,239.0313 Q307.7063,239.1875 308.2688,239.4844 L308.2688,242.2031 Q307.6438,241.625 307.05,241.3594 Q306.4563,241.0781 305.8313,241.0781 Q304.4875,241.0781 303.8,242.1563 Q303.1125,243.2188 303.1125,245.3125 Q303.1125,247.4063 303.8,248.4844 Q304.4875,249.5469 305.8313,249.5469 Q306.4563,249.5469 307.05,249.2813 Q307.6438,249 308.2688,248.4219 L308.2688,251.1406 Z " fill="#000000"/><text fill="#000000" font-family="sans-serif" font-size="14" lengthAdjust="spacing" textLength="31" x="325.7" y="250.3467">Alloy</text><line style="stroke:#181818;stroke-width:0.5;" x1="262.5" x2="387.5" y1="261.5" y2="261.5"/><line style="stroke:#181818;stroke-width:0.5;" x1="262.5" x2="387.5" y1="269.5" y2="269.5"/><ellipse cx="272.5" cy="283.1484" fill="#84BE84" rx="3" ry="3" style="stroke:#038048;stroke-width:1.0;"/><text fill="#000000" font-family="sans-serif" font-size="14" lengthAdjust="spacing" textLength="101" x="281.5" y="286.4951">initialize(): void</text></g></a><!--class ConnectorHandler--><a href="ConnectorHandler.html" target="_top" title="ConnectorHandler.html" xlink:actuate="onRequest" xlink:href="ConnectorHandler.html" xlink:show="new" xlink:title="ConnectorHandler.html" xlink:type="simple"><g id="elem_ConnectorHandler"><rect codeLine="9" fill="#F1F1F1" height="48" id="ConnectorHandler" rx="2.5" ry="2.5" style="stroke:#181818;stroke-width:0.5;" width="158" x="424" y="237.5"/><ellipse cx="439" cy="253.5" fill="#ADD1B2" rx="11" ry="11" style="stroke:#181818;stroke-width:1.0;"/><path d="M441.9688,259.1406 Q441.3906,259.4375 440.75,259.5781 Q440.1094,259.7344 439.4063,259.7344 Q436.9063,259.7344 435.5781,258.0938 Q434.2656,256.4375 434.2656,253.3125 Q434.2656,250.1875 435.5781,248.5313 Q436.9063,246.875 439.4063,246.875 Q440.1094,246.875 440.75,247.0313 Q441.4063,247.1875 441.9688,247.4844 L441.9688,250.2031 Q441.3438,249.625 440.75,249.3594 Q440.1563,249.0781 439.5313,249.0781 Q438.1875,249.0781 437.5,250.1563 Q436.8125,251.2188 436.8125,253.3125 Q436.8125,255.4063 437.5,256.4844 Q438.1875,257.5469 439.5313,257.5469 Q440.1563,257.5469 440.75,257.2813 Q441.3438,257 441.9688,256.4219 L441.9688,259.1406 Z " fill="#000000"/><text fill="#000000" font-family="sans-serif" font-size="14" lengthAdjust="spacing" textLength="126" x="453" y="258.3467">ConnectorHandler</text><line style="stroke:#181818;stroke-width:0.5;" x1="425" x2="581" y1="269.5" y2="269.5"/><line style="stroke:#181818;stroke-width:0.5;" x1="425" x2="581" y1="277.5" y2="277.5"/></g></a><!--class ConnectorsHandler_OneOf--><a href="ConnectorsHandler_OneOf.html" target="_top" title="ConnectorsHandler_OneOf.html" xlink:actuate="onRequest" xlink:href="ConnectorsHandler_OneOf.html" xlink:show="new" xlink:title="ConnectorsHandler_OneOf.html" xlink:type="simple"><g id="elem_ConnectorsHandler_OneOf"><rect codeLine="12" fill="#F1F1F1" height="48" id="ConnectorsHandler_OneOf" rx="2.5" ry="2.5" style="stroke:#181818;stroke-width:0.5;" width="217" x="617.5" y="237.5"/><ellipse cx="632.5" cy="253.5" fill="#ADD1B2" rx="11" ry="11" style="stroke:#181818;stroke-width:1.0;"/><path d="M635.4688,259.1406 Q634.8906,259.4375 634.25,259.5781 Q633.6094,259.7344 632.9063,259.7344 Q630.4063,259.7344 629.0781,258.0938 Q627.7656,256.4375 627.7656,253.3125 Q627.7656,250.1875 629.0781,248.5313 Q630.4063,246.875 632.9063,246.875 Q633.6094,246.875 634.25,247.0313 Q634.9063,247.1875 635.4688,247.4844 L635.4688,250.2031 Q634.8438,249.625 634.25,249.3594 Q633.6563,249.0781 633.0313,249.0781 Q631.6875,249.0781 631,250.1563 Q630.3125,251.2188 630.3125,253.3125 Q630.3125,255.4063 631,256.4844 Q631.6875,257.5469 633.0313,257.5469 Q633.6563,257.5469 634.25,257.2813 Q634.8438,257 635.4688,256.4219 L635.4688,259.1406 Z " fill="#000000"/><text fill="#000000" font-family="sans-serif" font-size="14" lengthAdjust="spacing" textLength="185" x="646.5" y="258.3467">ConnectorsHandler_OneOf</text><line style="stroke:#181818;stroke-width:0.5;" x1="618.5" x2="833.5" y1="269.5" y2="269.5"/><line style="stroke:#181818;stroke-width:0.5;" x1="618.5" x2="833.5" y1="277.5" y2="277.5"/></g></a><!--class ExprVisitor--><a href="ExprVisitor.html" target="_top" title="ExprVisitor.html" xlink:actuate="onRequest" xlink:href="ExprVisitor.html" xlink:show="new" xlink:title="ExprVisitor.html" xlink:type="simple"><g id="elem_ExprVisitor"><rect codeLine="15" fill="#F1F1F1" height="194.6719" id="ExprVisitor" rx="2.5" ry="2.5" style="stroke:#181818;stroke-width:0.5;" width="204" x="22" y="164"/><ellipse cx="83.75" cy="180" fill="#ADD1B2" rx="11" ry="11" style="stroke:#181818;stroke-width:1.0;"/><path d="M86.7188,185.6406 Q86.1406,185.9375 85.5,186.0781 Q84.8594,186.2344 84.1563,186.2344 Q81.6563,186.2344 80.3281,184.5938 Q79.0156,182.9375 79.0156,179.8125 Q79.0156,176.6875 80.3281,175.0313 Q81.6563,173.375 84.1563,173.375 Q84.8594,173.375 85.5,173.5313 Q86.1563,173.6875 86.7188,173.9844 L86.7188,176.7031 Q86.0938,176.125 85.5,175.8594 Q84.9063,175.5781 84.2813,175.5781 Q82.9375,175.5781 82.25,176.6563 Q81.5625,177.7188 81.5625,179.8125 Q81.5625,181.9063 82.25,182.9844 Q82.9375,184.0469 84.2813,184.0469 Q84.9063,184.0469 85.5,183.7813 Q86.0938,183.5 86.7188,182.9219 L86.7188,185.6406 Z " fill="#000000"/><text fill="#000000" font-family="sans-serif" font-size="14" lengthAdjust="spacing" textLength="72" x="104.25" y="184.8467">ExprVisitor</text><line style="stroke:#181818;stroke-width:0.5;" x1="23" x2="225" y1="196" y2="196"/><line style="stroke:#181818;stroke-width:0.5;" x1="23" x2="225" y1="204" y2="204"/><ellipse cx="33" cy="217.6484" fill="#84BE84" rx="3" ry="3" style="stroke:#038048;stroke-width:1.0;"/><text fill="#000000" font-family="sans-serif" font-size="14" lengthAdjust="spacing" textLength="157" x="42" y="220.9951">visit(ExprBinary): String</text><ellipse cx="33" cy="233.9453" fill="#84BE84" rx="3" ry="3" style="stroke:#038048;stroke-width:1.0;"/><text fill="#000000" font-family="sans-serif" font-size="14" lengthAdjust="spacing" textLength="139" x="42" y="237.292">visit(ExprCall): String</text><ellipse cx="33" cy="250.2422" fill="#84BE84" rx="3" ry="3" style="stroke:#038048;stroke-width:1.0;"/><text fill="#000000" font-family="sans-serif" font-size="14" lengthAdjust="spacing" textLength="178" x="42" y="253.5889">visit(ExprConstant): String</text><ellipse cx="33" cy="266.5391" fill="#84BE84" rx="3" ry="3" style="stroke:#038048;stroke-width:1.0;"/><text fill="#000000" font-family="sans-serif" font-size="14" lengthAdjust="spacing" textLength="138" x="42" y="269.8857">visit(ExprList): String</text><ellipse cx="33" cy="282.8359" fill="#84BE84" rx="3" ry="3" style="stroke:#038048;stroke-width:1.0;"/><text fill="#000000" font-family="sans-serif" font-size="14" lengthAdjust="spacing" textLength="131" x="42" y="286.1826">visit(ExprQt): String</text><ellipse cx="33" cy="299.1328" fill="#84BE84" rx="3" ry="3" style="stroke:#038048;stroke-width:1.0;"/><text fill="#000000" font-family="sans-serif" font-size="14" lengthAdjust="spacing" textLength="154" x="42" y="302.4795">visit(ExprUnary): String</text><ellipse cx="33" cy="315.4297" fill="#84BE84" rx="3" ry="3" style="stroke:#038048;stroke-width:1.0;"/><text fill="#000000" font-family="sans-serif" font-size="14" lengthAdjust="spacing" textLength="137" x="42" y="318.7764">visit(ExprVar): String</text><ellipse cx="33" cy="331.7266" fill="#84BE84" rx="3" ry="3" style="stroke:#038048;stroke-width:1.0;"/><text fill="#000000" font-family="sans-serif" font-size="14" lengthAdjust="spacing" textLength="106" x="42" y="335.0732">visit(Sig): String</text><ellipse cx="33" cy="348.0234" fill="#84BE84" rx="3" ry="3" style="stroke:#038048;stroke-width:1.0;"/><text fill="#000000" font-family="sans-serif" font-size="14" lengthAdjust="spacing" textLength="117" x="42" y="351.3701">visit(Field): String</text></g></a><!--class ToAlloy--><a href="ToAlloy.html" target="_top" title="ToAlloy.html" xlink:actuate="onRequest" xlink:href="ToAlloy.html" xlink:show="new" xlink:title="ToAlloy.html" xlink:type="simple"><g id="elem_ToAlloy"><rect codeLine="27" fill="#F1F1F1" height="48" id="ToAlloy" rx="2.5" ry="2.5" style="stroke:#181818;stroke-width:0.5;" width="81" x="869.5" y="237.5"/><ellipse cx="884.5" cy="253.5" fill="#ADD1B2" rx="11" ry="11" style="stroke:#181818;stroke-width:1.0;"/><path d="M887.4688,259.1406 Q886.8906,259.4375 886.25,259.5781 Q885.6094,259.7344 884.9063,259.7344 Q882.4063,259.7344 881.0781,258.0938 Q879.7656,256.4375 879.7656,253.3125 Q879.7656,250.1875 881.0781,248.5313 Q882.4063,246.875 884.9063,246.875 Q885.6094,246.875 886.25,247.0313 Q886.9063,247.1875 887.4688,247.4844 L887.4688,250.2031 Q886.8438,249.625 886.25,249.3594 Q885.6563,249.0781 885.0313,249.0781 Q883.6875,249.0781 883,250.1563 Q882.3125,251.2188 882.3125,253.3125 Q882.3125,255.4063 883,256.4844 Q883.6875,257.5469 885.0313,257.5469 Q885.6563,257.5469 886.25,257.2813 Q886.8438,257 887.4688,256.4219 L887.4688,259.1406 Z " fill="#000000"/><text fill="#000000" font-family="sans-serif" font-size="14" lengthAdjust="spacing" textLength="49" x="898.5" y="258.3467">ToAlloy</text><line style="stroke:#181818;stroke-width:0.5;" x1="870.5" x2="949.5" y1="269.5" y2="269.5"/><line style="stroke:#181818;stroke-width:0.5;" x1="870.5" x2="949.5" y1="277.5" y2="277.5"/></g></a><!--class AlloyUtils--><a href="AlloyUtils.html" target="_top" title="AlloyUtils.html" xlink:actuate="onRequest" xlink:href="AlloyUtils.html" xlink:show="new" xlink:title="AlloyUtils.html" xlink:type="simple"><g id="elem_AlloyUtils"><rect codeLine="30" fill="#F1F1F1" height="325.0469" id="AlloyUtils" rx="2.5" ry="2.5" style="stroke:#181818;stroke-width:0.5;" width="414" x="22" y="419"/><ellipse cx="194.75" cy="435" fill="#ADD1B2" rx="11" ry="11" style="stroke:#181818;stroke-width:1.0;"/><path d="M197.7188,440.6406 Q197.1406,440.9375 196.5,441.0781 Q195.8594,441.2344 195.1563,441.2344 Q192.6563,441.2344 191.3281,439.5938 Q190.0156,437.9375 190.0156,434.8125 Q190.0156,431.6875 191.3281,430.0313 Q192.6563,428.375 195.1563,428.375 Q195.8594,428.375 196.5,428.5313 Q197.1563,428.6875 197.7188,428.9844 L197.7188,431.7031 Q197.0938,431.125 196.5,430.8594 Q195.9063,430.5781 195.2813,430.5781 Q193.9375,430.5781 193.25,431.6563 Q192.5625,432.7188 192.5625,434.8125 Q192.5625,436.9063 193.25,437.9844 Q193.9375,439.0469 195.2813,439.0469 Q195.9063,439.0469 196.5,438.7813 Q197.0938,438.5 197.7188,437.9219 L197.7188,440.6406 Z " fill="#000000"/><text fill="#000000" font-family="sans-serif" font-size="14" lengthAdjust="spacing" textLength="60" x="215.25" y="439.8467">AlloyUtils</text><line style="stroke:#181818;stroke-width:0.5;" x1="23" x2="435" y1="451" y2="451"/><line style="stroke:#181818;stroke-width:0.5;" x1="23" x2="435" y1="459" y2="459"/><ellipse cx="33" cy="472.6484" fill="#84BE84" rx="3" ry="3" style="stroke:#038048;stroke-width:1.0;"/><text fill="#000000" font-family="sans-serif" font-size="14" lengthAdjust="spacing" text-decoration="underline" textLength="260" x="42" y="475.9951">importAlloyModule(File): CompModule</text><ellipse cx="33" cy="488.9453" fill="#84BE84" rx="3" ry="3" style="stroke:#038048;stroke-width:1.0;"/><text fill="#000000" font-family="sans-serif" font-size="14" lengthAdjust="spacing" text-decoration="underline" textLength="277" x="42" y="492.292">importAlloyModule(String): CompModule</text><ellipse cx="33" cy="505.2422" fill="#84BE84" rx="3" ry="3" style="stroke:#038048;stroke-width:1.0;"/><text fill="#000000" font-family="sans-serif" font-size="14" lengthAdjust="spacing" text-decoration="underline" textLength="188" x="42" y="508.5889">removeSlash(String): String</text><ellipse cx="33" cy="521.5391" fill="#84BE84" rx="3" ry="3" style="stroke:#038048;stroke-width:1.0;"/><text fill="#000000" font-family="sans-serif" font-size="14" lengthAdjust="spacing" text-decoration="underline" textLength="257" x="42" y="524.8857">selfOrAncestor(PrimSig, Sig): boolean</text><ellipse cx="33" cy="537.8359" fill="#84BE84" rx="3" ry="3" style="stroke:#038048;stroke-width:1.0;"/><text fill="#000000" font-family="sans-serif" font-size="14" lengthAdjust="spacing" text-decoration="underline" textLength="190" x="42" y="541.1826">validParent(String): boolean</text><ellipse cx="33" cy="554.1328" fill="#84BE84" rx="3" ry="3" style="stroke:#038048;stroke-width:1.0;"/><text fill="#000000" font-family="sans-serif" font-size="14" lengthAdjust="spacing" text-decoration="underline" textLength="299" x="42" y="557.4795">hasOwnOrInheritedFields(PrimSig): boolean</text><ellipse cx="33" cy="570.4297" fill="#84BE84" rx="3" ry="3" style="stroke:#038048;stroke-width:1.0;"/><text fill="#000000" font-family="sans-serif" font-size="14" lengthAdjust="spacing" text-decoration="underline" textLength="346" x="42" y="573.7764">getFieldFromSigOrItsParents(String, PrimSig): Field</text><ellipse cx="33" cy="586.7266" fill="#84BE84" rx="3" ry="3" style="stroke:#038048;stroke-width:1.0;"/><text fill="#000000" font-family="sans-serif" font-size="14" lengthAdjust="spacing" text-decoration="underline" textLength="306" x="42" y="590.0732">getFieldFromParentSig(String, PrimSig): Field</text><ellipse cx="33" cy="603.0234" fill="#84BE84" rx="3" ry="3" style="stroke:#038048;stroke-width:1.0;"/><text fill="#000000" font-family="sans-serif" font-size="14" lengthAdjust="spacing" text-decoration="underline" textLength="277" x="42" y="606.3701">getSigDomainField(String, PrimSig): Expr</text><ellipse cx="33" cy="619.3203" fill="#84BE84" rx="3" ry="3" style="stroke:#038048;stroke-width:1.0;"/><text fill="#000000" font-family="sans-serif" font-size="14" lengthAdjust="spacing" text-decoration="underline" textLength="255" x="42" y="622.667">getSigOwnField(String, PrimSig): Expr</text><ellipse cx="33" cy="635.6172" fill="#84BE84" rx="3" ry="3" style="stroke:#038048;stroke-width:1.0;"/><text fill="#000000" font-family="sans-serif" font-size="14" lengthAdjust="spacing" text-decoration="underline" textLength="256" x="42" y="638.9639">getReachableSig(Module, String): Sig</text><ellipse cx="33" cy="651.9141" fill="#84BE84" rx="3" ry="3" style="stroke:#038048;stroke-width:1.0;"/><text fill="#000000" font-family="sans-serif" font-size="14" lengthAdjust="spacing" text-decoration="underline" textLength="388" x="42" y="655.2607">getAllReachableModuleByName(Module, String): Module</text><ellipse cx="33" cy="668.2109" fill="#84BE84" rx="3" ry="3" style="stroke:#038048;stroke-width:1.0;"/><text fill="#000000" font-family="sans-serif" font-size="14" lengthAdjust="spacing" text-decoration="underline" textLength="235" x="42" y="671.5576">getFunction(Module, String): Func</text><ellipse cx="33" cy="684.5078" fill="#84BE84" rx="3" ry="3" style="stroke:#038048;stroke-width:1.0;"/><text fill="#000000" font-family="sans-serif" font-size="14" lengthAdjust="spacing" text-decoration="underline" textLength="244" x="42" y="687.8545">sortFields(Set&lt;Field&gt;): List&lt;Field&gt;</text><ellipse cx="33" cy="700.8047" fill="#84BE84" rx="3" ry="3" style="stroke:#038048;stroke-width:1.0;"/><text fill="#000000" font-family="sans-serif" font-size="14" lengthAdjust="spacing" text-decoration="underline" textLength="220" x="42" y="704.1514">sort(Set&lt;String&gt;): List&lt;String&gt;</text><ellipse cx="33" cy="717.1016" fill="#84BE84" rx="3" ry="3" style="stroke:#038048;stroke-width:1.0;"/><text fill="#000000" font-family="sans-serif" font-size="14" lengthAdjust="spacing" text-decoration="underline" textLength="265" x="42" y="720.4482">fieldsLabels(Set&lt;Field&gt;): Set&lt;String&gt;</text><ellipse cx="33" cy="733.3984" fill="#84BE84" rx="3" ry="3" style="stroke:#038048;stroke-width:1.0;"/><text fill="#000000" font-family="sans-serif" font-size="14" lengthAdjust="spacing" text-decoration="underline" textLength="289" x="42" y="736.7451">toSigAllFacts(Sig, Set&lt;Expr&gt;): Set&lt;Expr&gt;</text></g></a><!--class OBMXMI2Alloy--><a href="OBMXMI2Alloy.html" target="_top" title="OBMXMI2Alloy.html" xlink:actuate="onRequest" xlink:href="OBMXMI2Alloy.html" xlink:show="new" xlink:title="OBMXMI2Alloy.html" xlink:type="simple"><g id="elem_OBMXMI2Alloy"><rect codeLine="50" fill="#F1F1F1" height="129.4844" id="OBMXMI2Alloy" rx="2.5" ry="2.5" style="stroke:#181818;stroke-width:0.5;" width="270" x="471" y="517"/><ellipse cx="553.25" cy="533" fill="#ADD1B2" rx="11" ry="11" style="stroke:#181818;stroke-width:1.0;"/><path d="M556.2188,538.6406 Q555.6406,538.9375 555,539.0781 Q554.3594,539.2344 553.6563,539.2344 Q551.1563,539.2344 549.8281,537.5938 Q548.5156,535.9375 548.5156,532.8125 Q548.5156,529.6875 549.8281,528.0313 Q551.1563,526.375 553.6563,526.375 Q554.3594,526.375 555,526.5313 Q555.6563,526.6875 556.2188,526.9844 L556.2188,529.7031 Q555.5938,529.125 555,528.8594 Q554.4063,528.5781 553.7813,528.5781 Q552.4375,528.5781 551.75,529.6563 Q551.0625,530.7188 551.0625,532.8125 Q551.0625,534.9063 551.75,535.9844 Q552.4375,537.0469 553.7813,537.0469 Q554.4063,537.0469 555,536.7813 Q555.5938,536.5 556.2188,535.9219 L556.2188,538.6406 Z " fill="#000000"/><text fill="#000000" font-family="sans-serif" font-size="14" lengthAdjust="spacing" textLength="97" x="573.75" y="537.8467">OBMXMI2Alloy</text><line style="stroke:#181818;stroke-width:0.5;" x1="472" x2="740" y1="549" y2="549"/><line style="stroke:#181818;stroke-width:0.5;" x1="472" x2="740" y1="557" y2="557"/><ellipse cx="482" cy="570.6484" fill="#84BE84" rx="3" ry="3" style="stroke:#038048;stroke-width:1.0;"/><text fill="#000000" font-family="sans-serif" font-size="14" lengthAdjust="spacing" textLength="147" x="491" y="573.9951">OBMXMI2Alloy(String)</text><ellipse cx="482" cy="586.9453" fill="#84BE84" rx="3" ry="3" style="stroke:#038048;stroke-width:1.0;"/><text fill="#000000" font-family="sans-serif" font-size="14" lengthAdjust="spacing" textLength="175" x="491" y="590.292">loadXmiFile(File): boolean</text><ellipse cx="482" cy="603.2422" fill="#84BE84" rx="3" ry="3" style="stroke:#038048;stroke-width:1.0;"/><text fill="#000000" font-family="sans-serif" font-size="14" lengthAdjust="spacing" textLength="244" x="491" y="606.5889">createAlloyFile(String, File): boolean</text><ellipse cx="482" cy="619.5391" fill="#84BE84" rx="3" ry="3" style="stroke:#038048;stroke-width:1.0;"/><text fill="#000000" font-family="sans-serif" font-size="14" lengthAdjust="spacing" textLength="200" x="491" y="622.8857">getMessages(): List&lt;String&gt;</text><ellipse cx="482" cy="635.8359" fill="#84BE84" rx="3" ry="3" style="stroke:#038048;stroke-width:1.0;"/><text fill="#000000" font-family="sans-serif" font-size="14" lengthAdjust="spacing" textLength="233" x="491" y="639.1826">getErrorMessages(): List&lt;String&gt;</text></g></a><!--class AlloyExprFactory--><a href="AlloyExprFactory.html" target="_top" title="AlloyExprFactory.html" xlink:actuate="onRequest" xlink:href="AlloyExprFactory.html" xlink:show="new" xlink:title="AlloyExprFactory.html" xlink:type="simple"><g id="elem_AlloyExprFactory"><rect codeLine="58" fill="#F1F1F1" height="48" id="AlloyExprFactory" rx="2.5" ry="2.5" style="stroke:#181818;stroke-width:0.5;" width="143" x="776.5" y="557.5"/><ellipse cx="791.5" cy="573.5" fill="#ADD1B2" rx="11" ry="11" style="stroke:#181818;stroke-width:1.0;"/><path d="M794.4688,579.1406 Q793.8906,579.4375 793.25,579.5781 Q792.6094,579.7344 791.9063,579.7344 Q789.4063,579.7344 788.0781,578.0938 Q786.7656,576.4375 786.7656,573.3125 Q786.7656,570.1875 788.0781,568.5313 Q789.4063,566.875 791.9063,566.875 Q792.6094,566.875 793.25,567.0313 Q793.9063,567.1875 794.4688,567.4844 L794.4688,570.2031 Q793.8438,569.625 793.25,569.3594 Q792.6563,569.0781 792.0313,569.0781 Q790.6875,569.0781 790,570.1563 Q789.3125,571.2188 789.3125,573.3125 Q789.3125,575.4063 790,576.4844 Q790.6875,577.5469 792.0313,577.5469 Q792.6563,577.5469 793.25,577.2813 Q793.8438,577 794.4688,576.4219 L794.4688,579.1406 Z " fill="#000000"/><text fill="#000000" font-family="sans-serif" font-size="14" lengthAdjust="spacing" textLength="111" x="805.5" y="578.3467">AlloyExprFactory</text><line style="stroke:#181818;stroke-width:0.5;" x1="777.5" x2="918.5" y1="589.5" y2="589.5"/><line style="stroke:#181818;stroke-width:0.5;" x1="777.5" x2="918.5" y1="597.5" y2="597.5"/></g></a><!--class ConnectorsHandler--><a href="ConnectorsHandler.html" target="_top" title="ConnectorsHandler.html" xlink:actuate="onRequest" xlink:href="ConnectorsHandler.html" xlink:show="new" xlink:title="ConnectorsHandler.html" xlink:type="simple"><g id="elem_ConnectorsHandler"><rect codeLine="61" fill="#F1F1F1" height="48" id="ConnectorsHandler" rx="2.5" ry="2.5" style="stroke:#181818;stroke-width:0.5;" width="166" x="955" y="557.5"/><ellipse cx="970" cy="573.5" fill="#ADD1B2" rx="11" ry="11" style="stroke:#181818;stroke-width:1.0;"/><path d="M972.9688,579.1406 Q972.3906,579.4375 971.75,579.5781 Q971.1094,579.7344 970.4063,579.7344 Q967.9063,579.7344 966.5781,578.0938 Q965.2656,576.4375 965.2656,573.3125 Q965.2656,570.1875 966.5781,568.5313 Q967.9063,566.875 970.4063,566.875 Q971.1094,566.875 971.75,567.0313 Q972.4063,567.1875 972.9688,567.4844 L972.9688,570.2031 Q972.3438,569.625 971.75,569.3594 Q971.1563,569.0781 970.5313,569.0781 Q969.1875,569.0781 968.5,570.1563 Q967.8125,571.2188 967.8125,573.3125 Q967.8125,575.4063 968.5,576.4844 Q969.1875,577.5469 970.5313,577.5469 Q971.1563,577.5469 971.75,577.2813 Q972.3438,577 972.9688,576.4219 L972.9688,579.1406 Z " fill="#000000"/><text fill="#000000" font-family="sans-serif" font-size="14" lengthAdjust="spacing" textLength="134" x="984" y="578.3467">ConnectorsHandler</text><line style="stroke:#181818;stroke-width:0.5;" x1="956" x2="1120" y1="589.5" y2="589.5"/><line style="stroke:#181818;stroke-width:0.5;" x1="956" x2="1120" y1="597.5" y2="597.5"/></g></a><!--class ClassesHandler--><a href="ClassesHandler.html" target="_top" title="ClassesHandler.html" xlink:actuate="onRequest" xlink:href="ClassesHandler.html" xlink:show="new" xlink:title="ClassesHandler.html" xlink:type="simple"><g id="elem_ClassesHandler"><rect codeLine="64" fill="#F1F1F1" height="48" id="ClassesHandler" rx="2.5" ry="2.5" style="stroke:#181818;stroke-width:0.5;" width="139" x="159.5" y="804"/><ellipse cx="174.5" cy="820" fill="#ADD1B2" rx="11" ry="11" style="stroke:#181818;stroke-width:1.0;"/><path d="M177.4688,825.6406 Q176.8906,825.9375 176.25,826.0781 Q175.6094,826.2344 174.9063,826.2344 Q172.4063,826.2344 171.0781,824.5938 Q169.7656,822.9375 169.7656,819.8125 Q169.7656,816.6875 171.0781,815.0313 Q172.4063,813.375 174.9063,813.375 Q175.6094,813.375 176.25,813.5313 Q176.9063,813.6875 177.4688,813.9844 L177.4688,816.7031 Q176.8438,816.125 176.25,815.8594 Q175.6563,815.5781 175.0313,815.5781 Q173.6875,815.5781 173,816.6563 Q172.3125,817.7188 172.3125,819.8125 Q172.3125,821.9063 173,822.9844 Q173.6875,824.0469 175.0313,824.0469 Q175.6563,824.0469 176.25,823.7813 Q176.8438,823.5 177.4688,822.9219 L177.4688,825.6406 Z " fill="#000000"/><text fill="#000000" font-family="sans-serif" font-size="14" lengthAdjust="spacing" textLength="107" x="188.5" y="824.8467">ClassesHandler</text><line style="stroke:#181818;stroke-width:0.5;" x1="160.5" x2="297.5" y1="836" y2="836"/><line style="stroke:#181818;stroke-width:0.5;" x1="160.5" x2="297.5" y1="844" y2="844"/></g></a><!--class ConnectorHandler_Transfer--><a href="ConnectorHandler_Transfer.html" target="_top" title="ConnectorHandler_Transfer.html" xlink:actuate="onRequest" xlink:href="ConnectorHandler_Transfer.html" xlink:show="new" xlink:title="ConnectorHandler_Transfer.html" xlink:type="simple"><g id="elem_ConnectorHandler_Transfer"><rect codeLine="67" fill="#F1F1F1" height="48" id="ConnectorHandler_Transfer" rx="2.5" ry="2.5" style="stroke:#181818;stroke-width:0.5;" width="222" x="334" y="804"/><ellipse cx="349" cy="820" fill="#ADD1B2" rx="11" ry="11" style="stroke:#181818;stroke-width:1.0;"/><path d="M351.9688,825.6406 Q351.3906,825.9375 350.75,826.0781 Q350.1094,826.2344 349.4063,826.2344 Q346.9063,826.2344 345.5781,824.5938 Q344.2656,822.9375 344.2656,819.8125 Q344.2656,816.6875 345.5781,815.0313 Q346.9063,813.375 349.4063,813.375 Q350.1094,813.375 350.75,813.5313 Q351.4063,813.6875 351.9688,813.9844 L351.9688,816.7031 Q351.3438,816.125 350.75,815.8594 Q350.1563,815.5781 349.5313,815.5781 Q348.1875,815.5781 347.5,816.6563 Q346.8125,817.7188 346.8125,819.8125 Q346.8125,821.9063 347.5,822.9844 Q348.1875,824.0469 349.5313,824.0469 Q350.1563,824.0469 350.75,823.7813 Q351.3438,823.5 351.9688,822.9219 L351.9688,825.6406 Z " fill="#000000"/><text fill="#000000" font-family="sans-serif" font-size="14" lengthAdjust="spacing" textLength="190" x="363" y="824.8467">ConnectorHandler_Transfer</text><line style="stroke:#181818;stroke-width:0.5;" x1="335" x2="555" y1="836" y2="836"/><line style="stroke:#181818;stroke-width:0.5;" x1="335" x2="555" y1="844" y2="844"/></g></a><!--class UML2Utils--><a href="UML2Utils.html" target="_top" title="UML2Utils.html" xlink:actuate="onRequest" xlink:href="UML2Utils.html" xlink:show="new" xlink:title="UML2Utils.html" xlink:type="simple"><g id="elem_UML2Utils"><rect codeLine="70" fill="#F1F1F1" height="48" id="UML2Utils" rx="2.5" ry="2.5" style="stroke:#181818;stroke-width:0.5;" width="99" x="591.5" y="804"/><ellipse cx="606.5" cy="820" fill="#ADD1B2" rx="11" ry="11" style="stroke:#181818;stroke-width:1.0;"/><path d="M609.4688,825.6406 Q608.8906,825.9375 608.25,826.0781 Q607.6094,826.2344 606.9063,826.2344 Q604.4063,826.2344 603.0781,824.5938 Q601.7656,822.9375 601.7656,819.8125 Q601.7656,816.6875 603.0781,815.0313 Q604.4063,813.375 606.9063,813.375 Q607.6094,813.375 608.25,813.5313 Q608.9063,813.6875 609.4688,813.9844 L609.4688,816.7031 Q608.8438,816.125 608.25,815.8594 Q607.6563,815.5781 607.0313,815.5781 Q605.6875,815.5781 605,816.6563 Q604.3125,817.7188 604.3125,819.8125 Q604.3125,821.9063 605,822.9844 Q605.6875,824.0469 607.0313,824.0469 Q607.6563,824.0469 608.25,823.7813 Q608.8438,823.5 609.4688,822.9219 L609.4688,825.6406 Z " fill="#000000"/><text fill="#000000" font-family="sans-serif" font-size="14" lengthAdjust="spacing" textLength="67" x="620.5" y="824.8467">UML2Utils</text><line style="stroke:#181818;stroke-width:0.5;" x1="592.5" x2="689.5" y1="836" y2="836"/><line style="stroke:#181818;stroke-width:0.5;" x1="592.5" x2="689.5" y1="844" y2="844"/></g></a><!--class VisitQuery--><g id="elem_VisitQuery"><rect codeLine="76" fill="#F1F1F1" height="48" id="VisitQuery" rx="2.5" ry="2.5" style="stroke:#181818;stroke-width:0.5;" width="113" x="67.5" y="41"/><ellipse cx="82.5" cy="57" fill="#A9DCDF" rx="11" ry="11" style="stroke:#181818;stroke-width:1.0;"/><path d="M82.6094,52.3438 L81.4531,57.4219 L83.7813,57.4219 L82.6094,52.3438 Z M81.125,50.1094 L84.1094,50.1094 L87.4688,62.5 L85.0156,62.5 L84.25,59.4375 L80.9688,59.4375 L80.2188,62.5 L77.7813,62.5 L81.125,50.1094 Z " fill="#000000"/><text fill="#000000" font-family="sans-serif" font-size="14" font-style="italic" lengthAdjust="spacing" textLength="70" x="96.5" y="61.8467">VisitQuery</text><rect fill="#FFFFFF" height="15.9688" style="stroke:#181818;stroke-width:1.0;stroke-dasharray:2.0,2.0;" width="9" x="174.5" y="38"/><text fill="#000000" font-family="sans-serif" font-size="12" font-style="italic" lengthAdjust="spacing" textLength="7" x="175.5" y="50.1387">T</text><line style="stroke:#181818;stroke-width:0.5;" x1="68.5" x2="179.5" y1="73" y2="73"/><line style="stroke:#181818;stroke-width:0.5;" x1="68.5" x2="179.5" y1="81" y2="81"/></g><!--reverse link VisitQuery to ExprVisitor--><g id="link_VisitQuery_ExprVisitor"><path codeLine="79" d="M124,107.08 C124,125.89 124,135.83 124,163.72 " fill="none" id="VisitQuery-backto-ExprVisitor" style="stroke:#181818;stroke-width:1.0;"/><polygon fill="none" points="124,89.08,118,107.08,130,107.08,124,89.08" style="stroke:#181818;stroke-width:1.0;"/></g><text fill="#888888" font-family="sans-serif" font-size="10" lengthAdjust="spacing" textLength="186" x="472" y="883.2822">UMLDoclet 2.1.1, PlantUML 1.2023.12</text><!--SRC=[dLRRJkCm47tdA_ooKX4G2HuZXCHLYqIti0M4LA7Lr9ccrZfsPRlTxRByEsCdQGDDqa2aDhwSS-pCZCV366CM7VrcOC1fm-9uPuS6sGpuRqYHOJAFKd38fr7gZ8ZqE8j0IhsCd05bPI2zv1p_S0dMibEFOADHU4TJbyddPqAnohCdb702fFY7lTsOBRH8LlEl7_NEjLB8QQdle1A9XgG_3cskqgnY2ywlWSB1f2hsVgQ3vkNVcNaKLdWpZ4QLNiDNB_nip-FEX0Apf4yVabrLsWGx9sjl1sbb7IYt5NWZx7RGtNR8GwUzFu9fnGn5sZf_9L0ccuWD9zphCk2ALWV71To34zAMSHewzMvx8UiwmLyfQhEPDYxW-pgPIwHDIgGzdkjibezqPkQVrOLhCDCB7DB6fsjMZTtM38joCZ2dYgEbOEpT6f6HjVTPRlAnrX91DN0NT2gJMp2et7grTieKxE2F6fXhDKKZ72R1TRPSToi_HHSOLqPxF0avc-_05blOPskj0EsWb2iGv_CQ1BhG6GWLS3Ly7z-jTBB7rxW_4VWKnXBznlEms6ThhukqcKhHjMBdpBFb3yXmKwOrtBmDvuexeTKcqyyq1Hq5UE7u8RhZq3mXYiywHQ-56JZvCYjIqMrWJS9QDp16-M75YbG3rsco9Ddh2hYFiN0sYEHTKmg4TdC66Pprd_hNHsNggNORadyLKfwizmYf8NdAXCyfPMAfEpXxt21Toa4eOCiOQ-EGL_jeBTtgjjTcNm-yD4QRhUZwfEhDvgsgpQe4g0nzvPwkkw6xwFX_h8gy6_ZCJigouDuNFPFQ0cGrrq7teNzpLDuzgtOZxtMp9Ck4YxW58IERf15OLs71s59jnbsnLgX7xkPebiVt9rMzMfquNkFPyV-3WquLO1nNAfyWpYdnafacMliNVUE5vf8gpQFeC3gaN2YfMg5Hzcs1nleyi_i6]--></g></svg>