<?xml version="1.0" encoding="us-ascii" standalone="no"?><svg xmlns="http://www.w3.org/2000/svg" xmlns:xlink="http://www.w3.org/1999/xlink" contentStyleType="text/css" height="909px" preserveAspectRatio="none" style="width:1025px;height:909px;background:#FFFFFF;" version="1.1" viewBox="0 0 1025 909" width="1025px" zoomAndPan="magnify"><defs/><g><!--cluster edu.gatech.gtri.obm.alloy.translator--><g id="cluster_edu.gatech.gtri.obm.alloy.translator"><path d="M8.5,129 L292.5,129 A3.75,3.75 0 0 1 295,131.5 L302,151.2969 L1015.5,151.2969 A2.5,2.5 0 0 1 1018,153.7969 L1018,881.5 A2.5,2.5 0 0 1 1015.5,884 L8.5,884 A2.5,2.5 0 0 1 6,881.5 L6,131.5 A2.5,2.5 0 0 1 8.5,129 " fill="none" style="stroke:#000000;stroke-width:1.5;"/><line style="stroke:#000000;stroke-width:1.5;" x1="6" x2="302" y1="151.2969" y2="151.2969"/><text fill="#000000" font-family="sans-serif" font-size="14" font-weight="bold" lengthAdjust="spacing" textLength="283" x="10" y="143.9951">edu.gatech.gtri.obm.alloy.translator</text></g><!--cluster edu.mit.csail.sdg.ast--><g id="cluster_edu.mit.csail.sdg.ast"><path d="M37.5,6 L200.5,6 A3.75,3.75 0 0 1 203,8.5 L210,28.2969 L210.5,28.2969 A2.5,2.5 0 0 1 213,30.7969 L213,102.5 A2.5,2.5 0 0 1 210.5,105 L37.5,105 A2.5,2.5 0 0 1 35,102.5 L35,8.5 A2.5,2.5 0 0 1 37.5,6 " fill="none" style="stroke:#000000;stroke-width:1.5;"/><line style="stroke:#000000;stroke-width:1.5;" x1="35" x2="210" y1="28.2969" y2="28.2969"/><text fill="#000000" font-family="sans-serif" font-size="14" font-weight="bold" lengthAdjust="spacing" textLength="162" x="39" y="20.9951">edu.mit.csail.sdg.ast</text></g><!--class ClassesHandler--><a href="ClassesHandler.html" target="_top" title="ClassesHandler.html" xlink:actuate="onRequest" xlink:href="ClassesHandler.html" xlink:show="new" xlink:title="ClassesHandler.html" xlink:type="simple"><g id="elem_ClassesHandler"><rect codeLine="5" fill="#F1F1F1" height="48" id="ClassesHandler" rx="2.5" ry="2.5" style="stroke:#181818;stroke-width:0.5;" width="139" x="261.5" y="237.5"/><ellipse cx="276.5" cy="253.5" fill="#ADD1B2" rx="11" ry="11" style="stroke:#181818;stroke-width:1.0;"/><path d="M279.4688,259.1406 Q278.8906,259.4375 278.25,259.5781 Q277.6094,259.7344 276.9063,259.7344 Q274.4063,259.7344 273.0781,258.0938 Q271.7656,256.4375 271.7656,253.3125 Q271.7656,250.1875 273.0781,248.5313 Q274.4063,246.875 276.9063,246.875 Q277.6094,246.875 278.25,247.0313 Q278.9063,247.1875 279.4688,247.4844 L279.4688,250.2031 Q278.8438,249.625 278.25,249.3594 Q277.6563,249.0781 277.0313,249.0781 Q275.6875,249.0781 275,250.1563 Q274.3125,251.2188 274.3125,253.3125 Q274.3125,255.4063 275,256.4844 Q275.6875,257.5469 277.0313,257.5469 Q277.6563,257.5469 278.25,257.2813 Q278.8438,257 279.4688,256.4219 L279.4688,259.1406 Z " fill="#000000"/><text fill="#000000" font-family="sans-serif" font-size="14" lengthAdjust="spacing" textLength="107" x="290.5" y="258.3467">ClassesHandler</text><line style="stroke:#181818;stroke-width:0.5;" x1="262.5" x2="399.5" y1="269.5" y2="269.5"/><line style="stroke:#181818;stroke-width:0.5;" x1="262.5" x2="399.5" y1="277.5" y2="277.5"/></g></a><!--class ToAlloy--><a href="ToAlloy.html" target="_top" title="ToAlloy.html" xlink:actuate="onRequest" xlink:href="ToAlloy.html" xlink:show="new" xlink:title="ToAlloy.html" xlink:type="simple"><g id="elem_ToAlloy"><rect codeLine="8" fill="#F1F1F1" height="48" id="ToAlloy" rx="2.5" ry="2.5" style="stroke:#181818;stroke-width:0.5;" width="81" x="435.5" y="237.5"/><ellipse cx="450.5" cy="253.5" fill="#ADD1B2" rx="11" ry="11" style="stroke:#181818;stroke-width:1.0;"/><path d="M453.4688,259.1406 Q452.8906,259.4375 452.25,259.5781 Q451.6094,259.7344 450.9063,259.7344 Q448.4063,259.7344 447.0781,258.0938 Q445.7656,256.4375 445.7656,253.3125 Q445.7656,250.1875 447.0781,248.5313 Q448.4063,246.875 450.9063,246.875 Q451.6094,246.875 452.25,247.0313 Q452.9063,247.1875 453.4688,247.4844 L453.4688,250.2031 Q452.8438,249.625 452.25,249.3594 Q451.6563,249.0781 451.0313,249.0781 Q449.6875,249.0781 449,250.1563 Q448.3125,251.2188 448.3125,253.3125 Q448.3125,255.4063 449,256.4844 Q449.6875,257.5469 451.0313,257.5469 Q451.6563,257.5469 452.25,257.2813 Q452.8438,257 453.4688,256.4219 L453.4688,259.1406 Z " fill="#000000"/><text fill="#000000" font-family="sans-serif" font-size="14" lengthAdjust="spacing" textLength="49" x="464.5" y="258.3467">ToAlloy</text><line style="stroke:#181818;stroke-width:0.5;" x1="436.5" x2="515.5" y1="269.5" y2="269.5"/><line style="stroke:#181818;stroke-width:0.5;" x1="436.5" x2="515.5" y1="277.5" y2="277.5"/></g></a><!--class ConnectorsHandler--><a href="ConnectorsHandler.html" target="_top" title="ConnectorsHandler.html" xlink:actuate="onRequest" xlink:href="ConnectorsHandler.html" xlink:show="new" xlink:title="ConnectorsHandler.html" xlink:type="simple"><g id="elem_ConnectorsHandler"><rect codeLine="11" fill="#F1F1F1" height="48" id="ConnectorsHandler" rx="2.5" ry="2.5" style="stroke:#181818;stroke-width:0.5;" width="166" x="552" y="237.5"/><ellipse cx="567" cy="253.5" fill="#ADD1B2" rx="11" ry="11" style="stroke:#181818;stroke-width:1.0;"/><path d="M569.9688,259.1406 Q569.3906,259.4375 568.75,259.5781 Q568.1094,259.7344 567.4063,259.7344 Q564.9063,259.7344 563.5781,258.0938 Q562.2656,256.4375 562.2656,253.3125 Q562.2656,250.1875 563.5781,248.5313 Q564.9063,246.875 567.4063,246.875 Q568.1094,246.875 568.75,247.0313 Q569.4063,247.1875 569.9688,247.4844 L569.9688,250.2031 Q569.3438,249.625 568.75,249.3594 Q568.1563,249.0781 567.5313,249.0781 Q566.1875,249.0781 565.5,250.1563 Q564.8125,251.2188 564.8125,253.3125 Q564.8125,255.4063 565.5,256.4844 Q566.1875,257.5469 567.5313,257.5469 Q568.1563,257.5469 568.75,257.2813 Q569.3438,257 569.9688,256.4219 L569.9688,259.1406 Z " fill="#000000"/><text fill="#000000" font-family="sans-serif" font-size="14" lengthAdjust="spacing" textLength="134" x="581" y="258.3467">ConnectorsHandler</text><line style="stroke:#181818;stroke-width:0.5;" x1="553" x2="717" y1="269.5" y2="269.5"/><line style="stroke:#181818;stroke-width:0.5;" x1="553" x2="717" y1="277.5" y2="277.5"/></g></a><!--class ConnectorsHandler_OneOf--><a href="ConnectorsHandler_OneOf.html" target="_top" title="ConnectorsHandler_OneOf.html" xlink:actuate="onRequest" xlink:href="ConnectorsHandler_OneOf.html" xlink:show="new" xlink:title="ConnectorsHandler_OneOf.html" xlink:type="simple"><g id="elem_ConnectorsHandler_OneOf"><rect codeLine="14" fill="#F1F1F1" height="48" id="ConnectorsHandler_OneOf" rx="2.5" ry="2.5" style="stroke:#181818;stroke-width:0.5;" width="217" x="753.5" y="237.5"/><ellipse cx="768.5" cy="253.5" fill="#ADD1B2" rx="11" ry="11" style="stroke:#181818;stroke-width:1.0;"/><path d="M771.4688,259.1406 Q770.8906,259.4375 770.25,259.5781 Q769.6094,259.7344 768.9063,259.7344 Q766.4063,259.7344 765.0781,258.0938 Q763.7656,256.4375 763.7656,253.3125 Q763.7656,250.1875 765.0781,248.5313 Q766.4063,246.875 768.9063,246.875 Q769.6094,246.875 770.25,247.0313 Q770.9063,247.1875 771.4688,247.4844 L771.4688,250.2031 Q770.8438,249.625 770.25,249.3594 Q769.6563,249.0781 769.0313,249.0781 Q767.6875,249.0781 767,250.1563 Q766.3125,251.2188 766.3125,253.3125 Q766.3125,255.4063 767,256.4844 Q767.6875,257.5469 769.0313,257.5469 Q769.6563,257.5469 770.25,257.2813 Q770.8438,257 771.4688,256.4219 L771.4688,259.1406 Z " fill="#000000"/><text fill="#000000" font-family="sans-serif" font-size="14" lengthAdjust="spacing" textLength="185" x="782.5" y="258.3467">ConnectorsHandler_OneOf</text><line style="stroke:#181818;stroke-width:0.5;" x1="754.5" x2="969.5" y1="269.5" y2="269.5"/><line style="stroke:#181818;stroke-width:0.5;" x1="754.5" x2="969.5" y1="277.5" y2="277.5"/></g></a><!--class Alloy--><a href="Alloy.html" target="_top" title="Alloy.html" xlink:actuate="onRequest" xlink:href="Alloy.html" xlink:show="new" xlink:title="Alloy.html" xlink:type="simple"><g id="elem_Alloy"><rect codeLine="17" fill="#F1F1F1" height="64.2969" id="Alloy" rx="2.5" ry="2.5" style="stroke:#181818;stroke-width:0.5;" width="127" x="168.5" y="419"/><ellipse cx="212.3" cy="435" fill="#ADD1B2" rx="11" ry="11" style="stroke:#181818;stroke-width:1.0;"/><path d="M215.2688,440.6406 Q214.6906,440.9375 214.05,441.0781 Q213.4094,441.2344 212.7063,441.2344 Q210.2063,441.2344 208.8781,439.5938 Q207.5656,437.9375 207.5656,434.8125 Q207.5656,431.6875 208.8781,430.0313 Q210.2063,428.375 212.7063,428.375 Q213.4094,428.375 214.05,428.5313 Q214.7063,428.6875 215.2688,428.9844 L215.2688,431.7031 Q214.6438,431.125 214.05,430.8594 Q213.4563,430.5781 212.8313,430.5781 Q211.4875,430.5781 210.8,431.6563 Q210.1125,432.7188 210.1125,434.8125 Q210.1125,436.9063 210.8,437.9844 Q211.4875,439.0469 212.8313,439.0469 Q213.4563,439.0469 214.05,438.7813 Q214.6438,438.5 215.2688,437.9219 L215.2688,440.6406 Z " fill="#000000"/><text fill="#000000" font-family="sans-serif" font-size="14" lengthAdjust="spacing" textLength="31" x="232.7" y="439.8467">Alloy</text><line style="stroke:#181818;stroke-width:0.5;" x1="169.5" x2="294.5" y1="451" y2="451"/><line style="stroke:#181818;stroke-width:0.5;" x1="169.5" x2="294.5" y1="459" y2="459"/><ellipse cx="179.5" cy="472.6484" fill="#84BE84" rx="3" ry="3" style="stroke:#038048;stroke-width:1.0;"/><text fill="#000000" font-family="sans-serif" font-size="14" lengthAdjust="spacing" textLength="101" x="188.5" y="475.9951">initialize(): void</text></g></a><!--class ConnectorHandler--><a href="ConnectorHandler.html" target="_top" title="ConnectorHandler.html" xlink:actuate="onRequest" xlink:href="ConnectorHandler.html" xlink:show="new" xlink:title="ConnectorHandler.html" xlink:type="simple"><g id="elem_ConnectorHandler"><rect codeLine="21" fill="#F1F1F1" height="48" id="ConnectorHandler" rx="2.5" ry="2.5" style="stroke:#181818;stroke-width:0.5;" width="158" x="331" y="427"/><ellipse cx="346" cy="443" fill="#ADD1B2" rx="11" ry="11" style="stroke:#181818;stroke-width:1.0;"/><path d="M348.9688,448.6406 Q348.3906,448.9375 347.75,449.0781 Q347.1094,449.2344 346.4063,449.2344 Q343.9063,449.2344 342.5781,447.5938 Q341.2656,445.9375 341.2656,442.8125 Q341.2656,439.6875 342.5781,438.0313 Q343.9063,436.375 346.4063,436.375 Q347.1094,436.375 347.75,436.5313 Q348.4063,436.6875 348.9688,436.9844 L348.9688,439.7031 Q348.3438,439.125 347.75,438.8594 Q347.1563,438.5781 346.5313,438.5781 Q345.1875,438.5781 344.5,439.6563 Q343.8125,440.7188 343.8125,442.8125 Q343.8125,444.9063 344.5,445.9844 Q345.1875,447.0469 346.5313,447.0469 Q347.1563,447.0469 347.75,446.7813 Q348.3438,446.5 348.9688,445.9219 L348.9688,448.6406 Z " fill="#000000"/><text fill="#000000" font-family="sans-serif" font-size="14" lengthAdjust="spacing" textLength="126" x="360" y="447.8467">ConnectorHandler</text><line style="stroke:#181818;stroke-width:0.5;" x1="332" x2="488" y1="459" y2="459"/><line style="stroke:#181818;stroke-width:0.5;" x1="332" x2="488" y1="467" y2="467"/></g></a><!--class UML2Utils--><a href="UML2Utils.html" target="_top" title="UML2Utils.html" xlink:actuate="onRequest" xlink:href="UML2Utils.html" xlink:show="new" xlink:title="UML2Utils.html" xlink:type="simple"><g id="elem_UML2Utils"><rect codeLine="24" fill="#F1F1F1" height="48" id="UML2Utils" rx="2.5" ry="2.5" style="stroke:#181818;stroke-width:0.5;" width="99" x="524.5" y="427"/><ellipse cx="539.5" cy="443" fill="#ADD1B2" rx="11" ry="11" style="stroke:#181818;stroke-width:1.0;"/><path d="M542.4688,448.6406 Q541.8906,448.9375 541.25,449.0781 Q540.6094,449.2344 539.9063,449.2344 Q537.4063,449.2344 536.0781,447.5938 Q534.7656,445.9375 534.7656,442.8125 Q534.7656,439.6875 536.0781,438.0313 Q537.4063,436.375 539.9063,436.375 Q540.6094,436.375 541.25,436.5313 Q541.9063,436.6875 542.4688,436.9844 L542.4688,439.7031 Q541.8438,439.125 541.25,438.8594 Q540.6563,438.5781 540.0313,438.5781 Q538.6875,438.5781 538,439.6563 Q537.3125,440.7188 537.3125,442.8125 Q537.3125,444.9063 538,445.9844 Q538.6875,447.0469 540.0313,447.0469 Q540.6563,447.0469 541.25,446.7813 Q541.8438,446.5 542.4688,445.9219 L542.4688,448.6406 Z " fill="#000000"/><text fill="#000000" font-family="sans-serif" font-size="14" lengthAdjust="spacing" textLength="67" x="553.5" y="447.8467">UML2Utils</text><line style="stroke:#181818;stroke-width:0.5;" x1="525.5" x2="622.5" y1="459" y2="459"/><line style="stroke:#181818;stroke-width:0.5;" x1="525.5" x2="622.5" y1="467" y2="467"/></g></a><!--class AlloyExprFactory--><a href="AlloyExprFactory.html" target="_top" title="AlloyExprFactory.html" xlink:actuate="onRequest" xlink:href="AlloyExprFactory.html" xlink:show="new" xlink:title="AlloyExprFactory.html" xlink:type="simple"><g id="elem_AlloyExprFactory"><rect codeLine="27" fill="#F1F1F1" height="48" id="AlloyExprFactory" rx="2.5" ry="2.5" style="stroke:#181818;stroke-width:0.5;" width="143" x="658.5" y="427"/><ellipse cx="673.5" cy="443" fill="#ADD1B2" rx="11" ry="11" style="stroke:#181818;stroke-width:1.0;"/><path d="M676.4688,448.6406 Q675.8906,448.9375 675.25,449.0781 Q674.6094,449.2344 673.9063,449.2344 Q671.4063,449.2344 670.0781,447.5938 Q668.7656,445.9375 668.7656,442.8125 Q668.7656,439.6875 670.0781,438.0313 Q671.4063,436.375 673.9063,436.375 Q674.6094,436.375 675.25,436.5313 Q675.9063,436.6875 676.4688,436.9844 L676.4688,439.7031 Q675.8438,439.125 675.25,438.8594 Q674.6563,438.5781 674.0313,438.5781 Q672.6875,438.5781 672,439.6563 Q671.3125,440.7188 671.3125,442.8125 Q671.3125,444.9063 672,445.9844 Q672.6875,447.0469 674.0313,447.0469 Q674.6563,447.0469 675.25,446.7813 Q675.8438,446.5 676.4688,445.9219 L676.4688,448.6406 Z " fill="#000000"/><text fill="#000000" font-family="sans-serif" font-size="14" lengthAdjust="spacing" textLength="111" x="687.5" y="447.8467">AlloyExprFactory</text><line style="stroke:#181818;stroke-width:0.5;" x1="659.5" x2="800.5" y1="459" y2="459"/><line style="stroke:#181818;stroke-width:0.5;" x1="659.5" x2="800.5" y1="467" y2="467"/></g></a><!--class ExprVisitor--><a href="ExprVisitor.html" target="_top" title="ExprVisitor.html" xlink:actuate="onRequest" xlink:href="ExprVisitor.html" xlink:show="new" xlink:title="ExprVisitor.html" xlink:type="simple"><g id="elem_ExprVisitor"><rect codeLine="30" fill="#F1F1F1" height="194.6719" id="ExprVisitor" rx="2.5" ry="2.5" style="stroke:#181818;stroke-width:0.5;" width="204" x="22" y="164"/><ellipse cx="83.75" cy="180" fill="#ADD1B2" rx="11" ry="11" style="stroke:#181818;stroke-width:1.0;"/><path d="M86.7188,185.6406 Q86.1406,185.9375 85.5,186.0781 Q84.8594,186.2344 84.1563,186.2344 Q81.6563,186.2344 80.3281,184.5938 Q79.0156,182.9375 79.0156,179.8125 Q79.0156,176.6875 80.3281,175.0313 Q81.6563,173.375 84.1563,173.375 Q84.8594,173.375 85.5,173.5313 Q86.1563,173.6875 86.7188,173.9844 L86.7188,176.7031 Q86.0938,176.125 85.5,175.8594 Q84.9063,175.5781 84.2813,175.5781 Q82.9375,175.5781 82.25,176.6563 Q81.5625,177.7188 81.5625,179.8125 Q81.5625,181.9063 82.25,182.9844 Q82.9375,184.0469 84.2813,184.0469 Q84.9063,184.0469 85.5,183.7813 Q86.0938,183.5 86.7188,182.9219 L86.7188,185.6406 Z " fill="#000000"/><text fill="#000000" font-family="sans-serif" font-size="14" lengthAdjust="spacing" textLength="72" x="104.25" y="184.8467">ExprVisitor</text><line style="stroke:#181818;stroke-width:0.5;" x1="23" x2="225" y1="196" y2="196"/><line style="stroke:#181818;stroke-width:0.5;" x1="23" x2="225" y1="204" y2="204"/><ellipse cx="33" cy="217.6484" fill="#84BE84" rx="3" ry="3" style="stroke:#038048;stroke-width:1.0;"/><text fill="#000000" font-family="sans-serif" font-size="14" lengthAdjust="spacing" textLength="157" x="42" y="220.9951">visit(ExprBinary): String</text><ellipse cx="33" cy="233.9453" fill="#84BE84" rx="3" ry="3" style="stroke:#038048;stroke-width:1.0;"/><text fill="#000000" font-family="sans-serif" font-size="14" lengthAdjust="spacing" textLength="139" x="42" y="237.292">visit(ExprCall): String</text><ellipse cx="33" cy="250.2422" fill="#84BE84" rx="3" ry="3" style="stroke:#038048;stroke-width:1.0;"/><text fill="#000000" font-family="sans-serif" font-size="14" lengthAdjust="spacing" textLength="178" x="42" y="253.5889">visit(ExprConstant): String</text><ellipse cx="33" cy="266.5391" fill="#84BE84" rx="3" ry="3" style="stroke:#038048;stroke-width:1.0;"/><text fill="#000000" font-family="sans-serif" font-size="14" lengthAdjust="spacing" textLength="138" x="42" y="269.8857">visit(ExprList): String</text><ellipse cx="33" cy="282.8359" fill="#84BE84" rx="3" ry="3" style="stroke:#038048;stroke-width:1.0;"/><text fill="#000000" font-family="sans-serif" font-size="14" lengthAdjust="spacing" textLength="131" x="42" y="286.1826">visit(ExprQt): String</text><ellipse cx="33" cy="299.1328" fill="#84BE84" rx="3" ry="3" style="stroke:#038048;stroke-width:1.0;"/><text fill="#000000" font-family="sans-serif" font-size="14" lengthAdjust="spacing" textLength="154" x="42" y="302.4795">visit(ExprUnary): String</text><ellipse cx="33" cy="315.4297" fill="#84BE84" rx="3" ry="3" style="stroke:#038048;stroke-width:1.0;"/><text fill="#000000" font-family="sans-serif" font-size="14" lengthAdjust="spacing" textLength="137" x="42" y="318.7764">visit(ExprVar): String</text><ellipse cx="33" cy="331.7266" fill="#84BE84" rx="3" ry="3" style="stroke:#038048;stroke-width:1.0;"/><text fill="#000000" font-family="sans-serif" font-size="14" lengthAdjust="spacing" textLength="106" x="42" y="335.0732">visit(Sig): String</text><ellipse cx="33" cy="348.0234" fill="#84BE84" rx="3" ry="3" style="stroke:#038048;stroke-width:1.0;"/><text fill="#000000" font-family="sans-serif" font-size="14" lengthAdjust="spacing" textLength="117" x="42" y="351.3701">visit(Field): String</text></g></a><!--class ConnectorHandler_Transfer--><a href="ConnectorHandler_Transfer.html" target="_top" title="ConnectorHandler_Transfer.html" xlink:actuate="onRequest" xlink:href="ConnectorHandler_Transfer.html" xlink:show="new" xlink:title="ConnectorHandler_Transfer.html" xlink:type="simple"><g id="elem_ConnectorHandler_Transfer"><rect codeLine="42" fill="#F1F1F1" height="48" id="ConnectorHandler_Transfer" rx="2.5" ry="2.5" style="stroke:#181818;stroke-width:0.5;" width="222" x="22" y="681.5"/><ellipse cx="37" cy="697.5" fill="#ADD1B2" rx="11" ry="11" style="stroke:#181818;stroke-width:1.0;"/><path d="M39.9688,703.1406 Q39.3906,703.4375 38.75,703.5781 Q38.1094,703.7344 37.4063,703.7344 Q34.9063,703.7344 33.5781,702.0938 Q32.2656,700.4375 32.2656,697.3125 Q32.2656,694.1875 33.5781,692.5313 Q34.9063,690.875 37.4063,690.875 Q38.1094,690.875 38.75,691.0313 Q39.4063,691.1875 39.9688,691.4844 L39.9688,694.2031 Q39.3438,693.625 38.75,693.3594 Q38.1563,693.0781 37.5313,693.0781 Q36.1875,693.0781 35.5,694.1563 Q34.8125,695.2188 34.8125,697.3125 Q34.8125,699.4063 35.5,700.4844 Q36.1875,701.5469 37.5313,701.5469 Q38.1563,701.5469 38.75,701.2813 Q39.3438,701 39.9688,700.4219 L39.9688,703.1406 Z " fill="#000000"/><text fill="#000000" font-family="sans-serif" font-size="14" lengthAdjust="spacing" textLength="190" x="51" y="702.3467">ConnectorHandler_Transfer</text><line style="stroke:#181818;stroke-width:0.5;" x1="23" x2="243" y1="713.5" y2="713.5"/><line style="stroke:#181818;stroke-width:0.5;" x1="23" x2="243" y1="721.5" y2="721.5"/></g></a><!--class AlloyUtils--><a href="AlloyUtils.html" target="_top" title="AlloyUtils.html" xlink:actuate="onRequest" xlink:href="AlloyUtils.html" xlink:show="new" xlink:title="AlloyUtils.html" xlink:type="simple"><g id="elem_AlloyUtils"><rect codeLine="45" fill="#F1F1F1" height="325.0469" id="AlloyUtils" rx="2.5" ry="2.5" style="stroke:#181818;stroke-width:0.5;" width="417" x="279.5" y="543"/><ellipse cx="453.75" cy="559" fill="#ADD1B2" rx="11" ry="11" style="stroke:#181818;stroke-width:1.0;"/><path d="M456.7188,564.6406 Q456.1406,564.9375 455.5,565.0781 Q454.8594,565.2344 454.1563,565.2344 Q451.6563,565.2344 450.3281,563.5938 Q449.0156,561.9375 449.0156,558.8125 Q449.0156,555.6875 450.3281,554.0313 Q451.6563,552.375 454.1563,552.375 Q454.8594,552.375 455.5,552.5313 Q456.1563,552.6875 456.7188,552.9844 L456.7188,555.7031 Q456.0938,555.125 455.5,554.8594 Q454.9063,554.5781 454.2813,554.5781 Q452.9375,554.5781 452.25,555.6563 Q451.5625,556.7188 451.5625,558.8125 Q451.5625,560.9063 452.25,561.9844 Q452.9375,563.0469 454.2813,563.0469 Q454.9063,563.0469 455.5,562.7813 Q456.0938,562.5 456.7188,561.9219 L456.7188,564.6406 Z " fill="#000000"/><text fill="#000000" font-family="sans-serif" font-size="14" lengthAdjust="spacing" textLength="60" x="474.25" y="563.8467">AlloyUtils</text><line style="stroke:#181818;stroke-width:0.5;" x1="280.5" x2="695.5" y1="575" y2="575"/><line style="stroke:#181818;stroke-width:0.5;" x1="280.5" x2="695.5" y1="583" y2="583"/><ellipse cx="290.5" cy="596.6484" fill="#84BE84" rx="3" ry="3" style="stroke:#038048;stroke-width:1.0;"/><text fill="#000000" font-family="sans-serif" font-size="14" lengthAdjust="spacing" text-decoration="underline" textLength="260" x="299.5" y="599.9951">importAlloyModule(File): CompModule</text><ellipse cx="290.5" cy="612.9453" fill="#84BE84" rx="3" ry="3" style="stroke:#038048;stroke-width:1.0;"/><text fill="#000000" font-family="sans-serif" font-size="14" lengthAdjust="spacing" text-decoration="underline" textLength="277" x="299.5" y="616.292">importAlloyModule(String): CompModule</text><ellipse cx="290.5" cy="629.2422" fill="#84BE84" rx="3" ry="3" style="stroke:#038048;stroke-width:1.0;"/><text fill="#000000" font-family="sans-serif" font-size="14" lengthAdjust="spacing" text-decoration="underline" textLength="257" x="299.5" y="632.5889">selfOrAncestor(PrimSig, Sig): boolean</text><ellipse cx="290.5" cy="645.5391" fill="#84BE84" rx="3" ry="3" style="stroke:#038048;stroke-width:1.0;"/><text fill="#000000" font-family="sans-serif" font-size="14" lengthAdjust="spacing" text-decoration="underline" textLength="280" x="299.5" y="648.8857">isValidUserDefineParent(String): boolean</text><ellipse cx="290.5" cy="661.8359" fill="#84BE84" rx="3" ry="3" style="stroke:#038048;stroke-width:1.0;"/><text fill="#000000" font-family="sans-serif" font-size="14" lengthAdjust="spacing" text-decoration="underline" textLength="299" x="299.5" y="665.1826">hasOwnOrInheritedFields(PrimSig): boolean</text><ellipse cx="290.5" cy="678.1328" fill="#84BE84" rx="3" ry="3" style="stroke:#038048;stroke-width:1.0;"/><text fill="#000000" font-family="sans-serif" font-size="14" lengthAdjust="spacing" text-decoration="underline" textLength="259" x="299.5" y="681.4795">getFieldFromSig(String, PrimSig): Expr</text><ellipse cx="290.5" cy="694.4297" fill="#84BE84" rx="3" ry="3" style="stroke:#038048;stroke-width:1.0;"/><text fill="#000000" font-family="sans-serif" font-size="14" lengthAdjust="spacing" text-decoration="underline" textLength="304" x="299.5" y="697.7764">getFieldFromParentSig(String, PrimSig): Expr</text><ellipse cx="290.5" cy="710.7266" fill="#84BE84" rx="3" ry="3" style="stroke:#038048;stroke-width:1.0;"/><text fill="#000000" font-family="sans-serif" font-size="14" lengthAdjust="spacing" text-decoration="underline" textLength="391" x="299.5" y="714.0732">getFieldAsExprFromSigOrItsParents(String, PrimSig): Expr</text><ellipse cx="290.5" cy="727.0234" fill="#84BE84" rx="3" ry="3" style="stroke:#038048;stroke-width:1.0;"/><text fill="#000000" font-family="sans-serif" font-size="14" lengthAdjust="spacing" text-decoration="underline" textLength="346" x="299.5" y="730.3701">getFieldFromSigOrItsParents(String, PrimSig): Field</text><ellipse cx="290.5" cy="743.3203" fill="#84BE84" rx="3" ry="3" style="stroke:#038048;stroke-width:1.0;"/><text fill="#000000" font-family="sans-serif" font-size="14" lengthAdjust="spacing" text-decoration="underline" textLength="256" x="299.5" y="746.667">getReachableSig(String, Module): Sig</text><ellipse cx="290.5" cy="759.6172" fill="#84BE84" rx="3" ry="3" style="stroke:#038048;stroke-width:1.0;"/><text fill="#000000" font-family="sans-serif" font-size="14" lengthAdjust="spacing" text-decoration="underline" textLength="388" x="299.5" y="762.9639">getAllReachableModuleByName(String, Module): Module</text><ellipse cx="290.5" cy="775.9141" fill="#84BE84" rx="3" ry="3" style="stroke:#038048;stroke-width:1.0;"/><text fill="#000000" font-family="sans-serif" font-size="14" lengthAdjust="spacing" text-decoration="underline" textLength="235" x="299.5" y="779.2607">getFunction(String, Module): Func</text><ellipse cx="290.5" cy="792.2109" fill="#84BE84" rx="3" ry="3" style="stroke:#038048;stroke-width:1.0;"/><text fill="#000000" font-family="sans-serif" font-size="14" lengthAdjust="spacing" text-decoration="underline" textLength="244" x="299.5" y="795.5576">sortFields(Set&lt;Field&gt;): List&lt;Field&gt;</text><ellipse cx="290.5" cy="808.5078" fill="#84BE84" rx="3" ry="3" style="stroke:#038048;stroke-width:1.0;"/><text fill="#000000" font-family="sans-serif" font-size="14" lengthAdjust="spacing" text-decoration="underline" textLength="220" x="299.5" y="811.8545">sort(Set&lt;String&gt;): List&lt;String&gt;</text><ellipse cx="290.5" cy="824.8047" fill="#84BE84" rx="3" ry="3" style="stroke:#038048;stroke-width:1.0;"/><text fill="#000000" font-family="sans-serif" font-size="14" lengthAdjust="spacing" text-decoration="underline" textLength="265" x="299.5" y="828.1514">fieldsLabels(Set&lt;Field&gt;): Set&lt;String&gt;</text><ellipse cx="290.5" cy="841.1016" fill="#84BE84" rx="3" ry="3" style="stroke:#038048;stroke-width:1.0;"/><text fill="#000000" font-family="sans-serif" font-size="14" lengthAdjust="spacing" text-decoration="underline" textLength="289" x="299.5" y="844.4482">toSigAllFacts(Sig, Set&lt;Expr&gt;): Set&lt;Expr&gt;</text><ellipse cx="290.5" cy="857.3984" fill="#84BE84" rx="3" ry="3" style="stroke:#038048;stroke-width:1.0;"/><text fill="#000000" font-family="sans-serif" font-size="14" lengthAdjust="spacing" text-decoration="underline" textLength="188" x="299.5" y="860.7451">removeSlash(String): String</text></g></a><!--class OBMXMI2Alloy--><a href="OBMXMI2Alloy.html" target="_top" title="OBMXMI2Alloy.html" xlink:actuate="onRequest" xlink:href="OBMXMI2Alloy.html" xlink:show="new" xlink:title="OBMXMI2Alloy.html" xlink:type="simple"><g id="elem_OBMXMI2Alloy"><rect codeLine="65" fill="#F1F1F1" height="129.4844" id="OBMXMI2Alloy" rx="2.5" ry="2.5" style="stroke:#181818;stroke-width:0.5;" width="270" x="732" y="641"/><ellipse cx="814.25" cy="657" fill="#ADD1B2" rx="11" ry="11" style="stroke:#181818;stroke-width:1.0;"/><path d="M817.2188,662.6406 Q816.6406,662.9375 816,663.0781 Q815.3594,663.2344 814.6563,663.2344 Q812.1563,663.2344 810.8281,661.5938 Q809.5156,659.9375 809.5156,656.8125 Q809.5156,653.6875 810.8281,652.0313 Q812.1563,650.375 814.6563,650.375 Q815.3594,650.375 816,650.5313 Q816.6563,650.6875 817.2188,650.9844 L817.2188,653.7031 Q816.5938,653.125 816,652.8594 Q815.4063,652.5781 814.7813,652.5781 Q813.4375,652.5781 812.75,653.6563 Q812.0625,654.7188 812.0625,656.8125 Q812.0625,658.9063 812.75,659.9844 Q813.4375,661.0469 814.7813,661.0469 Q815.4063,661.0469 816,660.7813 Q816.5938,660.5 817.2188,659.9219 L817.2188,662.6406 Z " fill="#000000"/><text fill="#000000" font-family="sans-serif" font-size="14" lengthAdjust="spacing" textLength="97" x="834.75" y="661.8467">OBMXMI2Alloy</text><line style="stroke:#181818;stroke-width:0.5;" x1="733" x2="1001" y1="673" y2="673"/><line style="stroke:#181818;stroke-width:0.5;" x1="733" x2="1001" y1="681" y2="681"/><ellipse cx="743" cy="694.6484" fill="#84BE84" rx="3" ry="3" style="stroke:#038048;stroke-width:1.0;"/><text fill="#000000" font-family="sans-serif" font-size="14" lengthAdjust="spacing" textLength="147" x="752" y="697.9951">OBMXMI2Alloy(String)</text><ellipse cx="743" cy="710.9453" fill="#84BE84" rx="3" ry="3" style="stroke:#038048;stroke-width:1.0;"/><text fill="#000000" font-family="sans-serif" font-size="14" lengthAdjust="spacing" textLength="175" x="752" y="714.292">loadXmiFile(File): boolean</text><ellipse cx="743" cy="727.2422" fill="#84BE84" rx="3" ry="3" style="stroke:#038048;stroke-width:1.0;"/><text fill="#000000" font-family="sans-serif" font-size="14" lengthAdjust="spacing" textLength="244" x="752" y="730.5889">createAlloyFile(String, File): boolean</text><ellipse cx="743" cy="743.5391" fill="#84BE84" rx="3" ry="3" style="stroke:#038048;stroke-width:1.0;"/><text fill="#000000" font-family="sans-serif" font-size="14" lengthAdjust="spacing" textLength="200" x="752" y="746.8857">getMessages(): List&lt;String&gt;</text><ellipse cx="743" cy="759.8359" fill="#84BE84" rx="3" ry="3" style="stroke:#038048;stroke-width:1.0;"/><text fill="#000000" font-family="sans-serif" font-size="14" lengthAdjust="spacing" textLength="233" x="752" y="763.1826">getErrorMessages(): List&lt;String&gt;</text></g></a><!--class VisitQuery--><g id="elem_VisitQuery"><rect codeLine="76" fill="#F1F1F1" height="48" id="VisitQuery" rx="2.5" ry="2.5" style="stroke:#181818;stroke-width:0.5;" width="113" x="67.5" y="41"/><ellipse cx="82.5" cy="57" fill="#A9DCDF" rx="11" ry="11" style="stroke:#181818;stroke-width:1.0;"/><path d="M82.6094,52.3438 L81.4531,57.4219 L83.7813,57.4219 L82.6094,52.3438 Z M81.125,50.1094 L84.1094,50.1094 L87.4688,62.5 L85.0156,62.5 L84.25,59.4375 L80.9688,59.4375 L80.2188,62.5 L77.7813,62.5 L81.125,50.1094 Z " fill="#000000"/><text fill="#000000" font-family="sans-serif" font-size="14" font-style="italic" lengthAdjust="spacing" textLength="70" x="96.5" y="61.8467">VisitQuery</text><rect fill="#FFFFFF" height="15.9688" style="stroke:#181818;stroke-width:1.0;stroke-dasharray:2.0,2.0;" width="9" x="174.5" y="38"/><text fill="#000000" font-family="sans-serif" font-size="12" font-style="italic" lengthAdjust="spacing" textLength="7" x="175.5" y="50.1387">T</text><line style="stroke:#181818;stroke-width:0.5;" x1="68.5" x2="179.5" y1="73" y2="73"/><line style="stroke:#181818;stroke-width:0.5;" x1="68.5" x2="179.5" y1="81" y2="81"/></g><!--reverse link VisitQuery to ExprVisitor--><g id="link_VisitQuery_ExprVisitor"><path codeLine="79" d="M124,107.08 C124,125.89 124,135.83 124,163.72 " fill="none" id="VisitQuery-backto-ExprVisitor" style="stroke:#181818;stroke-width:1.0;"/><polygon fill="none" points="124,89.08,118,107.08,130,107.08,124,89.08" style="stroke:#181818;stroke-width:1.0;"/></g><text fill="#888888" font-family="sans-serif" font-size="10" lengthAdjust="spacing" textLength="186" x="412.5" y="899.2822">UMLDoclet 2.1.1, PlantUML 1.2023.12</text><!--SRC=[dLPjJo8n4Fxkh-YNIp3g9lfnOqmK9MS2XnvYJ8WnPNTOckksf5Euupp- -qsxkx0A-n99WBuyppETwKnRnXX3iFHTSCEjDYmCZuvea2ruz8idm21U1Wct4Cs3n1eHw6aQS2drEh26AvIUz9vnt2UI795rtI_WTwvY2OPD9Xy7WhbDvUihyGhQvhF2axvsLeYQjrfmkbefY6X1PSEVnxwYypPKC9mTKijcMcWMtbJuuZudGWahk1H_eNCSifKMSOir7d2rlQVZGVzYR8L4ec_RRRsv-xCmFUuCRXqh3RLGSUXdWSAbq6HIwbN4P-LcEmvt8nGtQmhIY79I9LMmBcLgCqWhj5pPHc1VO3FeiHaoRhNsPsvgCIEHrCxt1CXu7z6OI6zFhgvd1pDgEzSsHOhSsdKER-qxxO0LqOPg85reOpr-eEEb17940ldHrUaY6sdDp5nlmqMGiw6vLX4WUTjvC2Ab-9woBCXJhILmLMKNdwbcup62kOMPKF303IYxirvFdtCS_bP3Sw_cO8I5s6yS5cjev2TWFQDdjCFdPa_PZk-ogGKvM_QN9QxH5t-s2dB7OYQ8NrzHiv27LYlz11xD-LH2sQii4LnbYAIQIdcqPMUCc_KFdiA-J6rYENUMAh92gtsccwbAI4hbF156O2zzyueexWpAUpLCpydCRKbvju8ryxRwV0hoayMIL0NNQeeanSiT_DZ9weP8RfCB0T-ke1j8zGf6T6ZCTpNJT6eDRmOlW_kBubOjToikZpAaiFCH8JMFNrBXpflYq3bKUYUH0NeGUI6FBVQrZaDvC014Ub5Xfsv77F3E66qQqNb8DllFjLJO848kP81n4d2qfL3mATAxBR9v6Frz-xW4ixvykYhh7TG9mnsUNVuxEslrEWp3qitknIEgPhfVPbgxFtfttEf8qYlq8ZWFpgcy9Tt6DCg-hS2WgvpZ_m00]--></g></svg>