<?xml version="1.0" encoding="us-ascii" standalone="no"?><svg xmlns="http://www.w3.org/2000/svg" xmlns:xlink="http://www.w3.org/1999/xlink" contentStyleType="text/css" height="1428px" preserveAspectRatio="none" style="width:1497px;height:1428px;background:#FFFFFF;" version="1.1" viewBox="0 0 1497 1428" width="1497px" zoomAndPan="magnify"><defs/><g><!--cluster edu.gatech.gtri.obm.translator.alloy--><g id="cluster_edu.gatech.gtri.obm.translator.alloy"><path d="M8.5,6 L292.5,6 A3.75,3.75 0 0 1 295,8.5 L302,28.2969 L1487.5,28.2969 A2.5,2.5 0 0 1 1490,30.7969 L1490,1400.5 A2.5,2.5 0 0 1 1487.5,1403 L8.5,1403 A2.5,2.5 0 0 1 6,1400.5 L6,8.5 A2.5,2.5 0 0 1 8.5,6 " fill="none" style="stroke:#000000;stroke-width:1.5;"/><line style="stroke:#000000;stroke-width:1.5;" x1="6" x2="302" y1="28.2969" y2="28.2969"/><text fill="#000000" font-family="sans-serif" font-size="14" font-weight="bold" lengthAdjust="spacing" textLength="283" x="10" y="20.9951">edu.gatech.gtri.obm.translator.alloy</text></g><!--class AlloyUtils--><a href="AlloyUtils.html" target="_top" title="AlloyUtils.html" xlink:actuate="onRequest" xlink:href="AlloyUtils.html" xlink:show="new" xlink:title="AlloyUtils.html" xlink:type="simple"><g id="elem_AlloyUtils"><rect codeLine="5" fill="#F1F1F1" height="455.4219" id="AlloyUtils" rx="2.5" ry="2.5" style="stroke:#181818;stroke-width:0.5;" width="429" x="22.5" y="237"/><ellipse cx="202.75" cy="253" fill="#ADD1B2" rx="11" ry="11" style="stroke:#181818;stroke-width:1.0;"/><path d="M205.7188,258.6406 Q205.1406,258.9375 204.5,259.0781 Q203.8594,259.2344 203.1563,259.2344 Q200.6563,259.2344 199.3281,257.5938 Q198.0156,255.9375 198.0156,252.8125 Q198.0156,249.6875 199.3281,248.0313 Q200.6563,246.375 203.1563,246.375 Q203.8594,246.375 204.5,246.5313 Q205.1563,246.6875 205.7188,246.9844 L205.7188,249.7031 Q205.0938,249.125 204.5,248.8594 Q203.9063,248.5781 203.2813,248.5781 Q201.9375,248.5781 201.25,249.6563 Q200.5625,250.7188 200.5625,252.8125 Q200.5625,254.9063 201.25,255.9844 Q201.9375,257.0469 203.2813,257.0469 Q203.9063,257.0469 204.5,256.7813 Q205.0938,256.5 205.7188,255.9219 L205.7188,258.6406 Z " fill="#000000"/><text fill="#000000" font-family="sans-serif" font-size="14" lengthAdjust="spacing" textLength="60" x="223.25" y="257.8467">AlloyUtils</text><line style="stroke:#181818;stroke-width:0.5;" x1="23.5" x2="450.5" y1="269" y2="269"/><line style="stroke:#181818;stroke-width:0.5;" x1="23.5" x2="450.5" y1="277" y2="277"/><ellipse cx="33.5" cy="290.6484" fill="#84BE84" rx="3" ry="3" style="stroke:#038048;stroke-width:1.0;"/><text fill="#000000" font-family="sans-serif" font-size="14" lengthAdjust="spacing" text-decoration="underline" textLength="260" x="42.5" y="293.9951">importAlloyModule(File): CompModule</text><ellipse cx="33.5" cy="306.9453" fill="#84BE84" rx="3" ry="3" style="stroke:#038048;stroke-width:1.0;"/><text fill="#000000" font-family="sans-serif" font-size="14" lengthAdjust="spacing" text-decoration="underline" textLength="277" x="42.5" y="310.292">importAlloyModule(String): CompModule</text><ellipse cx="33.5" cy="323.2422" fill="#84BE84" rx="3" ry="3" style="stroke:#038048;stroke-width:1.0;"/><text fill="#000000" font-family="sans-serif" font-size="14" lengthAdjust="spacing" text-decoration="underline" textLength="188" x="42.5" y="326.5889">removeSlash(String): String</text><ellipse cx="33.5" cy="339.5391" fill="#84BE84" rx="3" ry="3" style="stroke:#038048;stroke-width:1.0;"/><text fill="#000000" font-family="sans-serif" font-size="14" lengthAdjust="spacing" text-decoration="underline" textLength="190" x="42.5" y="342.8857">validParent(String): boolean</text><ellipse cx="33.5" cy="355.8359" fill="#84BE84" rx="3" ry="3" style="stroke:#038048;stroke-width:1.0;"/><text fill="#000000" font-family="sans-serif" font-size="14" lengthAdjust="spacing" text-decoration="underline" textLength="261" x="42.5" y="359.1826">getFieldFromSig(String, PrimSig): Field</text><ellipse cx="33.5" cy="372.1328" fill="#84BE84" rx="3" ry="3" style="stroke:#038048;stroke-width:1.0;"/><text fill="#000000" font-family="sans-serif" font-size="14" lengthAdjust="spacing" text-decoration="underline" textLength="344" x="42.5" y="375.4795">getFieldFromSigByFieldType(String, PrimSig): Field</text><ellipse cx="33.5" cy="388.4297" fill="#84BE84" rx="3" ry="3" style="stroke:#038048;stroke-width:1.0;"/><text fill="#000000" font-family="sans-serif" font-size="14" lengthAdjust="spacing" text-decoration="underline" textLength="178" x="42.5" y="391.7764">printAllFunc(Module): void</text><ellipse cx="33.5" cy="404.7266" fill="#84BE84" rx="3" ry="3" style="stroke:#038048;stroke-width:1.0;"/><text fill="#000000" font-family="sans-serif" font-size="14" lengthAdjust="spacing" text-decoration="underline" textLength="173" x="42.5" y="408.0732">printAllFact(Module): void</text><ellipse cx="33.5" cy="421.0234" fill="#84BE84" rx="3" ry="3" style="stroke:#038048;stroke-width:1.0;"/><text fill="#000000" font-family="sans-serif" font-size="14" lengthAdjust="spacing" text-decoration="underline" textLength="215" x="42.5" y="424.3701">getAllCommands(Module): void</text><ellipse cx="33.5" cy="437.3203" fill="#84BE84" rx="3" ry="3" style="stroke:#038048;stroke-width:1.0;"/><text fill="#000000" font-family="sans-serif" font-size="14" lengthAdjust="spacing" text-decoration="underline" textLength="228" x="42.5" y="440.667">printExpr(Browsable, String): void</text><ellipse cx="33.5" cy="453.6172" fill="#84BE84" rx="3" ry="3" style="stroke:#038048;stroke-width:1.0;"/><text fill="#000000" font-family="sans-serif" font-size="14" lengthAdjust="spacing" text-decoration="underline" textLength="184" x="42.5" y="456.9639">printOnlyThisFn(Expr): void</text><ellipse cx="33.5" cy="469.9141" fill="#84BE84" rx="3" ry="3" style="stroke:#038048;stroke-width:1.0;"/><text fill="#000000" font-family="sans-serif" font-size="14" lengthAdjust="spacing" text-decoration="underline" textLength="234" x="42.5" y="473.2607">printOnlyThisSigs(List&lt;Sig&gt;): void</text><ellipse cx="33.5" cy="486.2109" fill="#84BE84" rx="3" ry="3" style="stroke:#038048;stroke-width:1.0;"/><text fill="#000000" font-family="sans-serif" font-size="14" lengthAdjust="spacing" text-decoration="underline" textLength="175" x="42.5" y="489.5576">printSigs(List&lt;Sig&gt;): void</text><ellipse cx="33.5" cy="502.5078" fill="#84BE84" rx="3" ry="3" style="stroke:#038048;stroke-width:1.0;"/><text fill="#000000" font-family="sans-serif" font-size="14" lengthAdjust="spacing" text-decoration="underline" textLength="309" x="42.5" y="505.8545">addAllReachableSig(Module, List&lt;Sig&gt;): void</text><ellipse cx="33.5" cy="518.8047" fill="#84BE84" rx="3" ry="3" style="stroke:#038048;stroke-width:1.0;"/><text fill="#000000" font-family="sans-serif" font-size="14" lengthAdjust="spacing" text-decoration="underline" textLength="328" x="42.5" y="522.1514">getReachableSigField(Module, Sig, String): Field</text><ellipse cx="33.5" cy="535.1016" fill="#84BE84" rx="3" ry="3" style="stroke:#038048;stroke-width:1.0;"/><text fill="#000000" font-family="sans-serif" font-size="14" lengthAdjust="spacing" text-decoration="underline" textLength="256" x="42.5" y="538.4482">getReachableSig(Module, String): Sig</text><ellipse cx="33.5" cy="551.3984" fill="#84BE84" rx="3" ry="3" style="stroke:#038048;stroke-width:1.0;"/><text fill="#000000" font-family="sans-serif" font-size="14" lengthAdjust="spacing" text-decoration="underline" textLength="231" x="42.5" y="554.7451">printReachableSigs(Module): void</text><ellipse cx="33.5" cy="567.6953" fill="#84BE84" rx="3" ry="3" style="stroke:#038048;stroke-width:1.0;"/><text fill="#000000" font-family="sans-serif" font-size="14" lengthAdjust="spacing" text-decoration="underline" textLength="403" x="42.5" y="571.042">addAllReachableUserDefinedSigs(Module, List&lt;Sig&gt;): void</text><ellipse cx="33.5" cy="583.9922" fill="#84BE84" rx="3" ry="3" style="stroke:#038048;stroke-width:1.0;"/><text fill="#000000" font-family="sans-serif" font-size="14" lengthAdjust="spacing" text-decoration="underline" textLength="332" x="42.5" y="587.3389">printAllReachableUserDefinedSigs(Module): void</text><ellipse cx="33.5" cy="600.2891" fill="#84BE84" rx="3" ry="3" style="stroke:#038048;stroke-width:1.0;"/><text fill="#000000" font-family="sans-serif" font-size="14" lengthAdjust="spacing" text-decoration="underline" textLength="261" x="42.5" y="603.6357">printReachableModules(Module): void</text><ellipse cx="33.5" cy="616.5859" fill="#84BE84" rx="3" ry="3" style="stroke:#038048;stroke-width:1.0;"/><text fill="#000000" font-family="sans-serif" font-size="14" lengthAdjust="spacing" text-decoration="underline" textLength="388" x="42.5" y="619.9326">getAllReachableModuleByName(Module, String): Module</text><ellipse cx="33.5" cy="632.8828" fill="#84BE84" rx="3" ry="3" style="stroke:#038048;stroke-width:1.0;"/><text fill="#000000" font-family="sans-serif" font-size="14" lengthAdjust="spacing" text-decoration="underline" textLength="235" x="42.5" y="636.2295">getFunction(Module, String): Func</text><ellipse cx="33.5" cy="649.1797" fill="#84BE84" rx="3" ry="3" style="stroke:#038048;stroke-width:1.0;"/><text fill="#000000" font-family="sans-serif" font-size="14" lengthAdjust="spacing" text-decoration="underline" textLength="203" x="42.5" y="652.5264">printAllFuctions(Module): void</text><ellipse cx="33.5" cy="665.4766" fill="#84BE84" rx="3" ry="3" style="stroke:#038048;stroke-width:1.0;"/><text fill="#000000" font-family="sans-serif" font-size="14" lengthAdjust="spacing" text-decoration="underline" textLength="254" x="42.5" y="668.8232">printAllReachableFacts(Module): void</text><ellipse cx="33.5" cy="681.7734" fill="#84BE84" rx="3" ry="3" style="stroke:#038048;stroke-width:1.0;"/><text fill="#000000" font-family="sans-serif" font-size="14" lengthAdjust="spacing" text-decoration="underline" textLength="249" x="42.5" y="685.1201">printExprAndItsFunctions(Expr): void</text></g></a><!--class MDUtils--><a href="MDUtils.html" target="_top" title="MDUtils.html" xlink:actuate="onRequest" xlink:href="MDUtils.html" xlink:show="new" xlink:title="MDUtils.html" xlink:type="simple"><g id="elem_MDUtils"><rect codeLine="33" fill="#F1F1F1" height="64.2969" id="MDUtils" rx="2.5" ry="2.5" style="stroke:#181818;stroke-width:0.5;" width="302" x="487" y="432.5"/><ellipse cx="607.75" cy="448.5" fill="#ADD1B2" rx="11" ry="11" style="stroke:#181818;stroke-width:1.0;"/><path d="M610.7188,454.1406 Q610.1406,454.4375 609.5,454.5781 Q608.8594,454.7344 608.1563,454.7344 Q605.6563,454.7344 604.3281,453.0938 Q603.0156,451.4375 603.0156,448.3125 Q603.0156,445.1875 604.3281,443.5313 Q605.6563,441.875 608.1563,441.875 Q608.8594,441.875 609.5,442.0313 Q610.1563,442.1875 610.7188,442.4844 L610.7188,445.2031 Q610.0938,444.625 609.5,444.3594 Q608.9063,444.0781 608.2813,444.0781 Q606.9375,444.0781 606.25,445.1563 Q605.5625,446.2188 605.5625,448.3125 Q605.5625,450.4063 606.25,451.4844 Q606.9375,452.5469 608.2813,452.5469 Q608.9063,452.5469 609.5,452.2813 Q610.0938,452 610.7188,451.4219 L610.7188,454.1406 Z " fill="#000000"/><text fill="#000000" font-family="sans-serif" font-size="14" lengthAdjust="spacing" textLength="52" x="628.25" y="453.3467">MDUtils</text><line style="stroke:#181818;stroke-width:0.5;" x1="488" x2="788" y1="464.5" y2="464.5"/><line style="stroke:#181818;stroke-width:0.5;" x1="488" x2="788" y1="472.5" y2="472.5"/><ellipse cx="498" cy="486.1484" fill="#84BE84" rx="3" ry="3" style="stroke:#038048;stroke-width:1.0;"/><text fill="#000000" font-family="sans-serif" font-size="14" lengthAdjust="spacing" text-decoration="underline" textLength="276" x="507" y="489.4951">getClassInHierarchy(Class): List&lt;Class&gt;</text></g></a><!--class Alloy--><a href="Alloy.html" target="_top" title="Alloy.html" xlink:actuate="onRequest" xlink:href="Alloy.html" xlink:show="new" xlink:title="Alloy.html" xlink:type="simple"><g id="elem_Alloy"><rect codeLine="37" fill="#F1F1F1" height="846.5469" id="Alloy" rx="2.5" ry="2.5" style="stroke:#181818;stroke-width:0.5;" width="650" x="824" y="41"/><ellipse cx="1129.25" cy="57" fill="#ADD1B2" rx="11" ry="11" style="stroke:#181818;stroke-width:1.0;"/><path d="M1132.2188,62.6406 Q1131.6406,62.9375 1131,63.0781 Q1130.3594,63.2344 1129.6563,63.2344 Q1127.1563,63.2344 1125.8281,61.5938 Q1124.5156,59.9375 1124.5156,56.8125 Q1124.5156,53.6875 1125.8281,52.0313 Q1127.1563,50.375 1129.6563,50.375 Q1130.3594,50.375 1131,50.5313 Q1131.6563,50.6875 1132.2188,50.9844 L1132.2188,53.7031 Q1131.5938,53.125 1131,52.8594 Q1130.4063,52.5781 1129.7813,52.5781 Q1128.4375,52.5781 1127.75,53.6563 Q1127.0625,54.7188 1127.0625,56.8125 Q1127.0625,58.9063 1127.75,59.9844 Q1128.4375,61.0469 1129.7813,61.0469 Q1130.4063,61.0469 1131,60.7813 Q1131.5938,60.5 1132.2188,59.9219 L1132.2188,62.6406 Z " fill="#000000"/><text fill="#000000" font-family="sans-serif" font-size="14" lengthAdjust="spacing" textLength="31" x="1149.75" y="61.8467">Alloy</text><line style="stroke:#181818;stroke-width:0.5;" x1="825" x2="1473" y1="73" y2="73"/><ellipse cx="835" cy="86.6484" fill="none" rx="3" ry="3" style="stroke:#038048;stroke-width:1.0;"/><text fill="#000000" font-family="sans-serif" font-size="14" lengthAdjust="spacing" text-decoration="underline" textLength="164" x="844" y="89.9951">transferModule: Module</text><ellipse cx="835" cy="102.9453" fill="none" rx="3" ry="3" style="stroke:#038048;stroke-width:1.0;"/><text fill="#000000" font-family="sans-serif" font-size="14" lengthAdjust="spacing" text-decoration="underline" textLength="150" x="844" y="106.292">happensBefore: Func</text><ellipse cx="835" cy="119.2422" fill="none" rx="3" ry="3" style="stroke:#038048;stroke-width:1.0;"/><text fill="#000000" font-family="sans-serif" font-size="14" lengthAdjust="spacing" text-decoration="underline" textLength="150" x="844" y="122.5889">happensDuring: Func</text><ellipse cx="835" cy="135.5391" fill="none" rx="3" ry="3" style="stroke:#038048;stroke-width:1.0;"/><text fill="#000000" font-family="sans-serif" font-size="14" lengthAdjust="spacing" text-decoration="underline" textLength="99" x="844" y="138.8857">sources: Func</text><ellipse cx="835" cy="151.8359" fill="none" rx="3" ry="3" style="stroke:#038048;stroke-width:1.0;"/><text fill="#000000" font-family="sans-serif" font-size="14" lengthAdjust="spacing" text-decoration="underline" textLength="92" x="844" y="155.1826">targets: Func</text><ellipse cx="835" cy="168.1328" fill="none" rx="3" ry="3" style="stroke:#038048;stroke-width:1.0;"/><text fill="#000000" font-family="sans-serif" font-size="14" lengthAdjust="spacing" text-decoration="underline" textLength="257" x="844" y="171.4795">subsettingItemRuleForSources: Func</text><ellipse cx="835" cy="184.4297" fill="none" rx="3" ry="3" style="stroke:#038048;stroke-width:1.0;"/><text fill="#000000" font-family="sans-serif" font-size="14" lengthAdjust="spacing" text-decoration="underline" textLength="253" x="844" y="187.7764">subsettingItemRuleForTargets: Func</text><ellipse cx="835" cy="200.7266" fill="none" rx="3" ry="3" style="stroke:#038048;stroke-width:1.0;"/><text fill="#000000" font-family="sans-serif" font-size="14" lengthAdjust="spacing" text-decoration="underline" textLength="135" x="844" y="204.0732">isAfterSource: Func</text><ellipse cx="835" cy="217.0234" fill="none" rx="3" ry="3" style="stroke:#038048;stroke-width:1.0;"/><text fill="#000000" font-family="sans-serif" font-size="14" lengthAdjust="spacing" text-decoration="underline" textLength="145" x="844" y="220.3701">isBeforeTarget: Func</text><ellipse cx="835" cy="233.3203" fill="none" rx="3" ry="3" style="stroke:#038048;stroke-width:1.0;"/><text fill="#000000" font-family="sans-serif" font-size="14" lengthAdjust="spacing" text-decoration="underline" textLength="104" x="844" y="236.667">transferSig: Sig</text><ellipse cx="835" cy="249.6172" fill="none" rx="3" ry="3" style="stroke:#038048;stroke-width:1.0;"/><text fill="#000000" font-family="sans-serif" font-size="14" lengthAdjust="spacing" text-decoration="underline" textLength="150" x="844" y="252.9639">transferBeforeSig: Sig</text><line style="stroke:#181818;stroke-width:0.5;" x1="825" x2="1473" y1="260.2656" y2="260.2656"/><ellipse cx="835" cy="273.9141" fill="#84BE84" rx="3" ry="3" style="stroke:#038048;stroke-width:1.0;"/><text fill="#000000" font-family="sans-serif" font-size="14" lengthAdjust="spacing" textLength="81" x="844" y="277.2607">Alloy(String)</text><ellipse cx="835" cy="290.2109" fill="#84BE84" rx="3" ry="3" style="stroke:#038048;stroke-width:1.0;"/><text fill="#000000" font-family="sans-serif" font-size="14" lengthAdjust="spacing" textLength="201" x="844" y="293.5576">getTransferModule(): Module</text><ellipse cx="835" cy="306.5078" fill="#84BE84" rx="3" ry="3" style="stroke:#038048;stroke-width:1.0;"/><text fill="#000000" font-family="sans-serif" font-size="14" lengthAdjust="spacing" textLength="209" x="844" y="309.8545">getTemplateModule(): Module</text><ellipse cx="835" cy="322.8047" fill="#84BE84" rx="3" ry="3" style="stroke:#038048;stroke-width:1.0;"/><text fill="#000000" font-family="sans-serif" font-size="14" lengthAdjust="spacing" textLength="141" x="844" y="326.1514">getOccSig(): PrimSig</text><ellipse cx="835" cy="339.1016" fill="#84BE84" rx="3" ry="3" style="stroke:#038048;stroke-width:1.0;"/><text fill="#000000" font-family="sans-serif" font-size="14" lengthAdjust="spacing" textLength="148" x="844" y="342.4482">getOverAllFact(): Expr</text><ellipse cx="835" cy="355.3984" fill="#84BE84" rx="3" ry="3" style="stroke:#038048;stroke-width:1.0;"/><text fill="#000000" font-family="sans-serif" font-size="14" lengthAdjust="spacing" textLength="154" x="844" y="358.7451">getAllSigs(): List&lt;Sig&gt;</text><ellipse cx="835" cy="371.6953" fill="#84BE84" rx="3" ry="3" style="stroke:#038048;stroke-width:1.0;"/><text fill="#000000" font-family="sans-serif" font-size="14" lengthAdjust="spacing" textLength="350" x="844" y="375.042">createSigAndAddToAllSigs(String, PrimSig): PrimSig</text><ellipse cx="835" cy="387.9922" fill="#84BE84" rx="3" ry="3" style="stroke:#038048;stroke-width:1.0;"/><text fill="#000000" font-family="sans-serif" font-size="14" lengthAdjust="spacing" textLength="405" x="844" y="391.3389">createSigAsChildOfOccSigAndAddToAllSigs(String): PrimSig</text><ellipse cx="835" cy="404.2891" fill="#84BE84" rx="3" ry="3" style="stroke:#038048;stroke-width:1.0;"/><text fill="#000000" font-family="sans-serif" font-size="14" lengthAdjust="spacing" textLength="455" x="844" y="407.6357">createSigAsChildOfParentSigAddToAllSigs(String, PrimSig): PrimSig</text><ellipse cx="835" cy="420.5859" fill="#84BE84" rx="3" ry="3" style="stroke:#038048;stroke-width:1.0;"/><text fill="#000000" font-family="sans-serif" font-size="14" lengthAdjust="spacing" textLength="196" x="844" y="423.9326">addToOverallFact(Expr): void</text><ellipse cx="835" cy="436.8828" fill="#84BE84" rx="3" ry="3" style="stroke:#038048;stroke-width:1.0;"/><text fill="#000000" font-family="sans-serif" font-size="14" lengthAdjust="spacing" textLength="192" x="844" y="440.2295">getIgnoredSigs(): Set&lt;Sig&gt;</text><ellipse cx="835" cy="453.1797" fill="#84BE84" rx="3" ry="3" style="stroke:#038048;stroke-width:1.0;"/><text fill="#000000" font-family="sans-serif" font-size="14" lengthAdjust="spacing" textLength="210" x="844" y="456.5264">getIgnoredExprs(): Set&lt;Expr&gt;</text><ellipse cx="835" cy="469.4766" fill="#84BE84" rx="3" ry="3" style="stroke:#038048;stroke-width:1.0;"/><text fill="#000000" font-family="sans-serif" font-size="14" lengthAdjust="spacing" textLength="218" x="844" y="472.8232">getIgnoredFuncs(): Set&lt;Func&gt;</text><ellipse cx="835" cy="485.7734" fill="#84BE84" rx="3" ry="3" style="stroke:#038048;stroke-width:1.0;"/><text fill="#000000" font-family="sans-serif" font-size="14" lengthAdjust="spacing" textLength="604" x="844" y="489.1201">createInverseFunctionFilteredHappensBeforeAndAddToOverallFact(Sig, Expr, Expr): void</text><ellipse cx="835" cy="502.0703" fill="#84BE84" rx="3" ry="3" style="stroke:#038048;stroke-width:1.0;"/><text fill="#000000" font-family="sans-serif" font-size="14" lengthAdjust="spacing" textLength="624" x="844" y="505.417">createInverseFunctionFilteredHappensBeforeAndAddToOverallFact(Sig, Expr[], Expr[]): void</text><ellipse cx="835" cy="518.3672" fill="#84BE84" rx="3" ry="3" style="stroke:#038048;stroke-width:1.0;"/><text fill="#000000" font-family="sans-serif" font-size="14" lengthAdjust="spacing" textLength="554" x="844" y="521.7139">createFunctionFilteredHappensBeforeAndAddToOverallFact(Sig, Expr, Expr): void</text><ellipse cx="835" cy="534.6641" fill="#84BE84" rx="3" ry="3" style="stroke:#038048;stroke-width:1.0;"/><text fill="#000000" font-family="sans-serif" font-size="14" lengthAdjust="spacing" textLength="574" x="844" y="538.0107">createFunctionFilteredHappensBeforeAndAddToOverallFact(Sig, Expr[], Expr[]): void</text><ellipse cx="835" cy="550.9609" fill="#84BE84" rx="3" ry="3" style="stroke:#038048;stroke-width:1.0;"/><text fill="#000000" font-family="sans-serif" font-size="14" lengthAdjust="spacing" textLength="553" x="844" y="554.3076">createBijectionFilteredHappensBeforeAndAddToOverallFact(Sig, Expr, Expr): void</text><ellipse cx="835" cy="567.2578" fill="#84BE84" rx="3" ry="3" style="stroke:#038048;stroke-width:1.0;"/><text fill="#000000" font-family="sans-serif" font-size="14" lengthAdjust="spacing" textLength="362" x="844" y="570.6045">createSubSettingItemRuleOverallFact(Sig, Expr): void</text><ellipse cx="835" cy="583.5547" fill="#84BE84" rx="3" ry="3" style="stroke:#038048;stroke-width:1.0;"/><text fill="#000000" font-family="sans-serif" font-size="14" lengthAdjust="spacing" textLength="419" x="844" y="586.9014">createIsAfterSourceIsBeforeTargetOverallFact(Sig, Expr): void</text><ellipse cx="835" cy="599.8516" fill="#84BE84" rx="3" ry="3" style="stroke:#038048;stroke-width:1.0;"/><text fill="#000000" font-family="sans-serif" font-size="14" lengthAdjust="spacing" textLength="317" x="844" y="603.1982">createIsAfterSourceOverallFact(Sig, Expr): void</text><ellipse cx="835" cy="616.1484" fill="#84BE84" rx="3" ry="3" style="stroke:#038048;stroke-width:1.0;"/><text fill="#000000" font-family="sans-serif" font-size="14" lengthAdjust="spacing" textLength="327" x="844" y="619.4951">createIsBeforeTargetOverallFact(Sig, Expr): void</text><ellipse cx="835" cy="632.4453" fill="#84BE84" rx="3" ry="3" style="stroke:#038048;stroke-width:1.0;"/><text fill="#000000" font-family="sans-serif" font-size="14" lengthAdjust="spacing" textLength="538" x="844" y="635.792">createInverseFunctionFilteredAndAddToOverallFact(Sig, Expr, Expr, Func): void</text><ellipse cx="835" cy="648.7422" fill="#84BE84" rx="3" ry="3" style="stroke:#038048;stroke-width:1.0;"/><text fill="#000000" font-family="sans-serif" font-size="14" lengthAdjust="spacing" textLength="488" x="844" y="652.0889">createFunctionFilteredAndAddToOverallFact(Sig, Expr, Expr, Func): void</text><ellipse cx="835" cy="665.0391" fill="#84BE84" rx="3" ry="3" style="stroke:#038048;stroke-width:1.0;"/><text fill="#000000" font-family="sans-serif" font-size="14" lengthAdjust="spacing" textLength="433" x="844" y="668.3857">createBijectionFilteredToOverallFact(Sig, Expr, Expr, Func): void</text><ellipse cx="835" cy="681.3359" fill="#84BE84" rx="3" ry="3" style="stroke:#038048;stroke-width:1.0;"/><text fill="#000000" font-family="sans-serif" font-size="14" lengthAdjust="spacing" textLength="613" x="844" y="684.6826">createBijectionFilteredHappensBeforeAndAddToOverallFact(ExprVar, Sig, Expr, Expr): void</text><ellipse cx="835" cy="697.6328" fill="#84BE84" rx="3" ry="3" style="stroke:#038048;stroke-width:1.0;"/><text fill="#000000" font-family="sans-serif" font-size="14" lengthAdjust="spacing" textLength="205" x="844" y="700.9795">getCommonCmdExprs(): Expr</text><ellipse cx="835" cy="713.9297" fill="#84BE84" rx="3" ry="3" style="stroke:#038048;stroke-width:1.0;"/><text fill="#000000" font-family="sans-serif" font-size="14" lengthAdjust="spacing" textLength="191" x="844" y="717.2764">addToNameExpr(Expr): void</text><ellipse cx="835" cy="730.2266" fill="#84BE84" rx="3" ry="3" style="stroke:#038048;stroke-width:1.0;"/><text fill="#000000" font-family="sans-serif" font-size="14" lengthAdjust="spacing" textLength="388" x="844" y="733.5732">addCardinalityEqualConstraintToField(Sig, Field, int): void</text><ellipse cx="835" cy="746.5234" fill="#84BE84" rx="3" ry="3" style="stroke:#038048;stroke-width:1.0;"/><text fill="#000000" font-family="sans-serif" font-size="14" lengthAdjust="spacing" textLength="475" x="844" y="749.8701">addCardinalityGreaterThanEqualConstraintToField(Sig, Field, int): void</text><ellipse cx="835" cy="762.8203" fill="#84BE84" rx="3" ry="3" style="stroke:#038048;stroke-width:1.0;"/><text fill="#000000" font-family="sans-serif" font-size="14" lengthAdjust="spacing" textLength="212" x="844" y="766.167">addEqual(Sig, Field, Field): void</text><ellipse cx="835" cy="779.1172" fill="#84BE84" rx="3" ry="3" style="stroke:#038048;stroke-width:1.0;"/><text fill="#000000" font-family="sans-serif" font-size="14" lengthAdjust="spacing" textLength="344" x="844" y="782.4639">addOneConstraintToField(ExprVar, Sig, Field): void</text><ellipse cx="835" cy="795.4141" fill="#84BE84" rx="3" ry="3" style="stroke:#038048;stroke-width:1.0;"/><text fill="#000000" font-family="sans-serif" font-size="14" lengthAdjust="spacing" textLength="129" x="844" y="798.7607">noInputs(Sig): void</text><ellipse cx="835" cy="811.7109" fill="#84BE84" rx="3" ry="3" style="stroke:#038048;stroke-width:1.0;"/><text fill="#000000" font-family="sans-serif" font-size="14" lengthAdjust="spacing" textLength="142" x="844" y="815.0576">noOutputs(Sig): void</text><ellipse cx="835" cy="828.0078" fill="#84BE84" rx="3" ry="3" style="stroke:#038048;stroke-width:1.0;"/><text fill="#000000" font-family="sans-serif" font-size="14" lengthAdjust="spacing" textLength="237" x="844" y="831.3545">addInputs(ExprVar, Sig, Field): void</text><ellipse cx="835" cy="844.3047" fill="#84BE84" rx="3" ry="3" style="stroke:#038048;stroke-width:1.0;"/><text fill="#000000" font-family="sans-serif" font-size="14" lengthAdjust="spacing" textLength="250" x="844" y="847.6514">addOutputs(ExprVar, Sig, Field): void</text><ellipse cx="835" cy="860.6016" fill="#84BE84" rx="3" ry="3" style="stroke:#038048;stroke-width:1.0;"/><text fill="#000000" font-family="sans-serif" font-size="14" lengthAdjust="spacing" textLength="229" x="844" y="863.9482">addSteps(Sig, Set&lt;String&gt;): void</text><ellipse cx="835" cy="876.8984" fill="#84BE84" rx="3" ry="3" style="stroke:#038048;stroke-width:1.0;"/><text fill="#000000" font-family="sans-serif" font-size="14" lengthAdjust="spacing" textLength="270" x="844" y="880.2451">createCommand(String, int): Command</text></g></a><!--class VisualizerHelper--><a href="VisualizerHelper.html" target="_top" title="VisualizerHelper.html" xlink:actuate="onRequest" xlink:href="VisualizerHelper.html" xlink:show="new" xlink:title="VisualizerHelper.html" xlink:type="simple"><g id="elem_VisualizerHelper"><rect codeLine="89" fill="#F1F1F1" height="162.0781" id="VisualizerHelper" rx="2.5" ry="2.5" style="stroke:#181818;stroke-width:0.5;" width="502" x="22" y="1086.5"/><ellipse cx="213.75" cy="1102.5" fill="#ADD1B2" rx="11" ry="11" style="stroke:#181818;stroke-width:1.0;"/><path d="M216.7188,1108.1406 Q216.1406,1108.4375 215.5,1108.5781 Q214.8594,1108.7344 214.1563,1108.7344 Q211.6563,1108.7344 210.3281,1107.0938 Q209.0156,1105.4375 209.0156,1102.3125 Q209.0156,1099.1875 210.3281,1097.5313 Q211.6563,1095.875 214.1563,1095.875 Q214.8594,1095.875 215.5,1096.0313 Q216.1563,1096.1875 216.7188,1096.4844 L216.7188,1099.2031 Q216.0938,1098.625 215.5,1098.3594 Q214.9063,1098.0781 214.2813,1098.0781 Q212.9375,1098.0781 212.25,1099.1563 Q211.5625,1100.2188 211.5625,1102.3125 Q211.5625,1104.4063 212.25,1105.4844 Q212.9375,1106.5469 214.2813,1106.5469 Q214.9063,1106.5469 215.5,1106.2813 Q216.0938,1106 216.7188,1105.4219 L216.7188,1108.1406 Z " fill="#000000"/><text fill="#000000" font-family="sans-serif" font-size="14" lengthAdjust="spacing" textLength="110" x="234.25" y="1107.3467">VisualizerHelper</text><line style="stroke:#181818;stroke-width:0.5;" x1="23" x2="523" y1="1118.5" y2="1118.5"/><line style="stroke:#181818;stroke-width:0.5;" x1="23" x2="523" y1="1126.5" y2="1126.5"/><ellipse cx="33" cy="1140.1484" fill="#84BE84" rx="3" ry="3" style="stroke:#038048;stroke-width:1.0;"/><text fill="#000000" font-family="sans-serif" font-size="14" lengthAdjust="spacing" text-decoration="underline" textLength="211" x="42" y="1143.4951">updateUpdated(boolean): void</text><ellipse cx="33" cy="1156.4453" fill="#84BE84" rx="3" ry="3" style="stroke:#038048;stroke-width:1.0;"/><text fill="#000000" font-family="sans-serif" font-size="14" lengthAdjust="spacing" text-decoration="underline" textLength="159" x="42" y="1159.792">hasUpdated(): boolean</text><ellipse cx="33" cy="1172.7422" fill="#84BE84" rx="3" ry="3" style="stroke:#038048;stroke-width:1.0;"/><text fill="#000000" font-family="sans-serif" font-size="14" lengthAdjust="spacing" text-decoration="underline" textLength="476" x="42" y="1176.0889">generateVisualizerWithNextCapability(Iterable&lt;Sig&gt;, Command): void</text><ellipse cx="33" cy="1189.0391" fill="#84BE84" rx="3" ry="3" style="stroke:#038048;stroke-width:1.0;"/><text fill="#000000" font-family="sans-serif" font-size="14" lengthAdjust="spacing" text-decoration="underline" textLength="116" x="42" y="1192.3857">updateVis(): void</text><ellipse cx="33" cy="1205.3359" fill="#84BE84" rx="3" ry="3" style="stroke:#038048;stroke-width:1.0;"/><text fill="#000000" font-family="sans-serif" font-size="14" lengthAdjust="spacing" text-decoration="underline" textLength="359" x="42" y="1208.6826">generateVisualizerX(Iterable&lt;Sig&gt;, Command): void</text><ellipse cx="33" cy="1221.6328" fill="#84BE84" rx="3" ry="3" style="stroke:#038048;stroke-width:1.0;"/><text fill="#000000" font-family="sans-serif" font-size="14" lengthAdjust="spacing" text-decoration="underline" textLength="350" x="42" y="1224.9795">generateVisualizer(Iterable&lt;Sig&gt;, Command): void</text><ellipse cx="33" cy="1237.9297" fill="#84BE84" rx="3" ry="3" style="stroke:#038048;stroke-width:1.0;"/><text fill="#000000" font-family="sans-serif" font-size="14" lengthAdjust="spacing" text-decoration="underline" textLength="226" x="42" y="1241.2764">generateVisualizer(Module): void</text></g></a><!--class AlloyRunUtils--><a href="AlloyRunUtils.html" target="_top" title="AlloyRunUtils.html" xlink:actuate="onRequest" xlink:href="AlloyRunUtils.html" xlink:show="new" xlink:title="AlloyRunUtils.html" xlink:type="simple"><g id="elem_AlloyRunUtils"><rect codeLine="99" fill="#F1F1F1" height="96.8906" id="AlloyRunUtils" rx="2.5" ry="2.5" style="stroke:#181818;stroke-width:0.5;" width="319" x="559.5" y="1119"/><ellipse cx="670.75" cy="1135" fill="#ADD1B2" rx="11" ry="11" style="stroke:#181818;stroke-width:1.0;"/><path d="M673.7188,1140.6406 Q673.1406,1140.9375 672.5,1141.0781 Q671.8594,1141.2344 671.1563,1141.2344 Q668.6563,1141.2344 667.3281,1139.5938 Q666.0156,1137.9375 666.0156,1134.8125 Q666.0156,1131.6875 667.3281,1130.0313 Q668.6563,1128.375 671.1563,1128.375 Q671.8594,1128.375 672.5,1128.5313 Q673.1563,1128.6875 673.7188,1128.9844 L673.7188,1131.7031 Q673.0938,1131.125 672.5,1130.8594 Q671.9063,1130.5781 671.2813,1130.5781 Q669.9375,1130.5781 669.25,1131.6563 Q668.5625,1132.7188 668.5625,1134.8125 Q668.5625,1136.9063 669.25,1137.9844 Q669.9375,1139.0469 671.2813,1139.0469 Q671.9063,1139.0469 672.5,1138.7813 Q673.0938,1138.5 673.7188,1137.9219 L673.7188,1140.6406 Z " fill="#000000"/><text fill="#000000" font-family="sans-serif" font-size="14" lengthAdjust="spacing" textLength="88" x="691.25" y="1139.8467">AlloyRunUtils</text><line style="stroke:#181818;stroke-width:0.5;" x1="560.5" x2="877.5" y1="1151" y2="1151"/><line style="stroke:#181818;stroke-width:0.5;" x1="560.5" x2="877.5" y1="1159" y2="1159"/><ellipse cx="570.5" cy="1172.6484" fill="#84BE84" rx="3" ry="3" style="stroke:#038048;stroke-width:1.0;"/><text fill="#000000" font-family="sans-serif" font-size="14" lengthAdjust="spacing" text-decoration="underline" textLength="230" x="579.5" y="1175.9951">run(Sig, int, List&lt;Sig&gt;, Expr): void</text><ellipse cx="570.5" cy="1188.9453" fill="#84BE84" rx="3" ry="3" style="stroke:#038048;stroke-width:1.0;"/><text fill="#000000" font-family="sans-serif" font-size="14" lengthAdjust="spacing" text-decoration="underline" textLength="293" x="579.5" y="1192.292">runX(Sig, List&lt;Sig&gt;, Expr, Command): void</text><ellipse cx="570.5" cy="1205.2422" fill="#84BE84" rx="3" ry="3" style="stroke:#038048;stroke-width:1.0;"/><text fill="#000000" font-family="sans-serif" font-size="14" lengthAdjust="spacing" text-decoration="underline" textLength="239" x="579.5" y="1208.5889">runX(Sig, int, List&lt;Sig&gt;, Expr): void</text></g></a><!--class FuncUtils--><a href="FuncUtils.html" target="_top" title="FuncUtils.html" xlink:actuate="onRequest" xlink:href="FuncUtils.html" xlink:show="new" xlink:title="FuncUtils.html" xlink:type="simple"><g id="elem_FuncUtils"><rect codeLine="105" fill="#F1F1F1" height="439.125" id="FuncUtils" rx="2.5" ry="2.5" style="stroke:#181818;stroke-width:0.5;" width="527" x="913.5" y="948"/><ellipse cx="1141.25" cy="964" fill="#ADD1B2" rx="11" ry="11" style="stroke:#181818;stroke-width:1.0;"/><path d="M1144.2188,969.6406 Q1143.6406,969.9375 1143,970.0781 Q1142.3594,970.2344 1141.6563,970.2344 Q1139.1563,970.2344 1137.8281,968.5938 Q1136.5156,966.9375 1136.5156,963.8125 Q1136.5156,960.6875 1137.8281,959.0313 Q1139.1563,957.375 1141.6563,957.375 Q1142.3594,957.375 1143,957.5313 Q1143.6563,957.6875 1144.2188,957.9844 L1144.2188,960.7031 Q1143.5938,960.125 1143,959.8594 Q1142.4063,959.5781 1141.7813,959.5781 Q1140.4375,959.5781 1139.75,960.6563 Q1139.0625,961.7188 1139.0625,963.8125 Q1139.0625,965.9063 1139.75,966.9844 Q1140.4375,968.0469 1141.7813,968.0469 Q1142.4063,968.0469 1143,967.7813 Q1143.5938,967.5 1144.2188,966.9219 L1144.2188,969.6406 Z " fill="#000000"/><text fill="#000000" font-family="sans-serif" font-size="14" lengthAdjust="spacing" textLength="63" x="1161.75" y="968.8467">FuncUtils</text><line style="stroke:#181818;stroke-width:0.5;" x1="914.5" x2="1439.5" y1="980" y2="980"/><line style="stroke:#181818;stroke-width:0.5;" x1="914.5" x2="1439.5" y1="988" y2="988"/><ellipse cx="924.5" cy="1001.6484" fill="#84BE84" rx="3" ry="3" style="stroke:#038048;stroke-width:1.0;"/><text fill="#000000" font-family="sans-serif" font-size="14" lengthAdjust="spacing" text-decoration="underline" textLength="344" x="933.5" y="1004.9951">getDuringExampleExpr(String, Sig, Field, Sig): Expr</text><ellipse cx="924.5" cy="1017.9453" fill="#84BE84" rx="3" ry="3" style="stroke:#038048;stroke-width:1.0;"/><text fill="#000000" font-family="sans-serif" font-size="14" lengthAdjust="spacing" text-decoration="underline" textLength="249" x="933.5" y="1021.292">exprToFunToExpr(String, Expr): Expr</text><ellipse cx="924.5" cy="1034.2422" fill="#84BE84" rx="3" ry="3" style="stroke:#038048;stroke-width:1.0;"/><text fill="#000000" font-family="sans-serif" font-size="14" lengthAdjust="spacing" text-decoration="underline" textLength="207" x="933.5" y="1037.5889">addField(String, Sig, Sig): Field</text><ellipse cx="924.5" cy="1050.5391" fill="#84BE84" rx="3" ry="3" style="stroke:#038048;stroke-width:1.0;"/><text fill="#000000" font-family="sans-serif" font-size="14" lengthAdjust="spacing" text-decoration="underline" textLength="236" x="933.5" y="1053.8857">addOneField(String, Sig, Sig): Field</text><ellipse cx="924.5" cy="1066.8359" fill="#84BE84" rx="3" ry="3" style="stroke:#038048;stroke-width:1.0;"/><text fill="#000000" font-family="sans-serif" font-size="14" lengthAdjust="spacing" text-decoration="underline" textLength="267" x="933.5" y="1070.1826">addTrickyField(String[], Sig, Sig): Field[]</text><ellipse cx="924.5" cy="1083.1328" fill="#84BE84" rx="3" ry="3" style="stroke:#038048;stroke-width:1.0;"/><text fill="#000000" font-family="sans-serif" font-size="14" lengthAdjust="spacing" text-decoration="underline" textLength="289" x="933.5" y="1086.4795">createExprEqualToNumber(Expr, int): Expr</text><ellipse cx="924.5" cy="1099.4297" fill="#84BE84" rx="3" ry="3" style="stroke:#038048;stroke-width:1.0;"/><text fill="#000000" font-family="sans-serif" font-size="14" lengthAdjust="spacing" text-decoration="underline" textLength="376" x="933.5" y="1102.7764">createExprGreaterThanEqualToNumber(Expr, int): Expr</text><ellipse cx="924.5" cy="1115.7266" fill="#84BE84" rx="3" ry="3" style="stroke:#038048;stroke-width:1.0;"/><text fill="#000000" font-family="sans-serif" font-size="14" lengthAdjust="spacing" text-decoration="underline" textLength="303" x="933.5" y="1119.0732">createExprGreaterToNumber(Expr, int): Expr</text><ellipse cx="924.5" cy="1132.0234" fill="#84BE84" rx="3" ry="3" style="stroke:#038048;stroke-width:1.0;"/><text fill="#000000" font-family="sans-serif" font-size="14" lengthAdjust="spacing" text-decoration="underline" textLength="450" x="933.5" y="1135.3701">addBijectionFilteredExprHappensBefore(Module, Expr, Expr): Expr</text><ellipse cx="924.5" cy="1148.3203" fill="#84BE84" rx="3" ry="3" style="stroke:#038048;stroke-width:1.0;"/><text fill="#000000" font-family="sans-serif" font-size="14" lengthAdjust="spacing" text-decoration="underline" textLength="451" x="933.5" y="1151.667">addFunctionFilteredExprHappensBefore(Module, Expr, Expr): Expr</text><ellipse cx="924.5" cy="1164.6172" fill="#84BE84" rx="3" ry="3" style="stroke:#038048;stroke-width:1.0;"/><text fill="#000000" font-family="sans-serif" font-size="14" lengthAdjust="spacing" text-decoration="underline" textLength="501" x="933.5" y="1167.9639">addInverseFunctionFilteredExprHappensBefore(Module, Expr, Expr): Expr</text><ellipse cx="924.5" cy="1180.9141" fill="#84BE84" rx="3" ry="3" style="stroke:#038048;stroke-width:1.0;"/><text fill="#000000" font-family="sans-serif" font-size="14" lengthAdjust="spacing" text-decoration="underline" textLength="190" x="933.5" y="1184.2607">addExprs(List&lt;Expr&gt;): Expr</text><ellipse cx="924.5" cy="1197.2109" fill="#84BE84" rx="3" ry="3" style="stroke:#038048;stroke-width:1.0;"/><text fill="#000000" font-family="sans-serif" font-size="14" lengthAdjust="spacing" text-decoration="underline" textLength="191" x="933.5" y="1200.5576">addToExpr(Expr, Expr): Expr</text><ellipse cx="924.5" cy="1213.5078" fill="#84BE84" rx="3" ry="3" style="stroke:#038048;stroke-width:1.0;"/><text fill="#000000" font-family="sans-serif" font-size="14" lengthAdjust="spacing" text-decoration="underline" textLength="276" x="933.5" y="1216.8545">addNonZeroDurationOnly(Module): Expr</text><ellipse cx="924.5" cy="1229.8047" fill="#84BE84" rx="3" ry="3" style="stroke:#038048;stroke-width:1.0;"/><text fill="#000000" font-family="sans-serif" font-size="14" lengthAdjust="spacing" text-decoration="underline" textLength="287" x="933.5" y="1233.1514">addSuppressTransfersExpr(Module): Expr</text><ellipse cx="924.5" cy="1246.1016" fill="#84BE84" rx="3" ry="3" style="stroke:#038048;stroke-width:1.0;"/><text fill="#000000" font-family="sans-serif" font-size="14" lengthAdjust="spacing" text-decoration="underline" textLength="236" x="933.5" y="1249.4482">addSuppressIOExpr(Module): Expr</text><ellipse cx="924.5" cy="1262.3984" fill="#84BE84" rx="3" ry="3" style="stroke:#038048;stroke-width:1.0;"/><text fill="#000000" font-family="sans-serif" font-size="14" lengthAdjust="spacing" text-decoration="underline" textLength="226" x="933.5" y="1265.7451">onlyOneSigExpr(String, Sig): Expr</text><ellipse cx="924.5" cy="1278.6953" fill="#84BE84" rx="3" ry="3" style="stroke:#038048;stroke-width:1.0;"/><text fill="#000000" font-family="sans-serif" font-size="14" lengthAdjust="spacing" text-decoration="underline" textLength="274" x="933.5" y="1282.042">addStep(Module, List&lt;Field&gt;, Sig): Expr</text><ellipse cx="924.5" cy="1294.9922" fill="#84BE84" rx="3" ry="3" style="stroke:#038048;stroke-width:1.0;"/><text fill="#000000" font-family="sans-serif" font-size="14" lengthAdjust="spacing" text-decoration="underline" textLength="326" x="933.5" y="1298.3389">addFieldsInStep(Module, List&lt;Field&gt;, Sig): Expr</text><ellipse cx="924.5" cy="1311.2891" fill="#84BE84" rx="3" ry="3" style="stroke:#038048;stroke-width:1.0;"/><text fill="#000000" font-family="sans-serif" font-size="14" lengthAdjust="spacing" text-decoration="underline" textLength="334" x="933.5" y="1314.6357">addStepsInFields(Module, List&lt;Field&gt;, Sig): Expr</text><ellipse cx="924.5" cy="1327.5859" fill="#84BE84" rx="3" ry="3" style="stroke:#038048;stroke-width:1.0;"/><text fill="#000000" font-family="sans-serif" font-size="14" lengthAdjust="spacing" text-decoration="underline" textLength="437" x="933.5" y="1330.9326">createConstraintExpr(Module, Sig, List&lt;Field&gt;, List&lt;Sig&gt;): Expr</text><ellipse cx="924.5" cy="1343.8828" fill="#84BE84" rx="3" ry="3" style="stroke:#038048;stroke-width:1.0;"/><text fill="#000000" font-family="sans-serif" font-size="14" lengthAdjust="spacing" text-decoration="underline" textLength="383" x="933.5" y="1347.2295">forkHappensBefore(Module, Sig, Field, Field, Field): Expr</text><ellipse cx="924.5" cy="1360.1797" fill="#84BE84" rx="3" ry="3" style="stroke:#038048;stroke-width:1.0;"/><text fill="#000000" font-family="sans-serif" font-size="14" lengthAdjust="spacing" text-decoration="underline" textLength="427" x="933.5" y="1363.5264">decisionHappensBefore(Module, Sig, Field, Field, Field...): Expr</text><ellipse cx="924.5" cy="1376.4766" fill="#84BE84" rx="3" ry="3" style="stroke:#038048;stroke-width:1.0;"/><text fill="#000000" font-family="sans-serif" font-size="14" lengthAdjust="spacing" text-decoration="underline" textLength="387" x="933.5" y="1379.8232">loopHappensBefore(Module, Sig, Field, Field, Field): Expr</text></g></a><text fill="#888888" font-family="sans-serif" font-size="10" lengthAdjust="spacing" textLength="186" x="648.5" y="1418.2822">UMLDoclet 2.1.1, PlantUML 1.2023.12</text><!--SRC=[jLXRJ-Cu57wVNv6NbJgQAjBi8reXqKANIWD5jCoE5l7W9gUDbyJEsWvBTyH_dsCxQPBcJWiIRUESx_FnyRdPZkCu4XJ-nqGGnOLpTlRf4muwCV6UoHOSy1DtInHuWRjLWhfy7RbA42P3BUwICEGxvwV5w3yl958w5thuGT5GEe-F-OCRg2XyUa9vf_3tKogYgFVcVA5Hp8KoyZVSJq8OpMW8dy-SAOzYEz8RkKHjsROFLa34Ns29YWSvolveGBoGaFftH01JEMBDUGY4DK2se6OKGdycUBIasnGsTku4rS-8Dw_xeISxyxJQnJ2GA4PXRQPPmhoHjGeYNZZj111FzGAWgYYEHey8ysN_EQvUOp6Q2FwV9EiGnixUhbt01Gjtgu3A6HjfZW48D9SSVQDI_O6_pdi0Xm28xwCTxe5uWLwGtdDhYx7Jam4jMOIRRTrpu431HXs-Kwj5xkfqsxRe8hZVVXui_K62k8GDPU0NA7gR8VF03huU97i6Yv03_Fa0EjdTaWYgfcpDCpg8CUmKvQoAr6ywOzPWvQ2utIkk0tXWE5umVwvafhEi3Q-tmzH_Svdb_VHNLz97iqmrSiwkAGWYl60tCWCubN4Hyt3UFAF9-bcTwPhDrAuD26k8ZXqBI1m3anFOS06jUvHANYPwErib9K-41x9LHX61LccNaSaQAxV2wUOAedjSn8oBPG_oMk2gnunKNcmKf7DqI5gJMTRsfQRxWP7SbeaoCSjRA_p5x7zMZyklK8jLQUD7zS5g126AiRc1Ji65v-byYW9fxQrAl838QYUAwVYfoE1xayKoRzS9iIpa2K1rS1pZySBtLpo3L4j_hI8vNau36lgBZTMydgu_Yss0zCWxb28Qe-r3KliqrMvje_cMuQxxcPsMK6UcN4vJxGNrGwEaTiozf7weDVsSePuIiaI8FIc60VZNnUoG6REu95EZzVpsitPr9vhXyIdxRfdb0nVmmPfFw3_mKQela_Mod0zhUTfshvWOvwNSTnJLSF1HKzVxO0_ZZas27-0Tf-2ikCI9wJezJDD-9o9jnJjSJJSvU2JYR1hbwQbQ3qnMrAsbEGqrig7Ob0YVCZo7gjtLlmd10nUJM2InSrjnUr8mQfcVOmU7Un3zQImXLW5Xnt4QT4dOV3M9BnXKfogRjndF-9p52RQsjjZK2ImIrIg1AgGSVIVLIgUa0o1B1R6qPZ4bp5JAynQdJ4_H-vfgJPwEDZV4twb4-zF_GLn368F0tlXmgAjDJc8Vvtymd_uelTfeFpO4H6RoFMv360QIWbojlwWARk5LJKbCrbHxumZJiT0d5rFhnzcosvMmUYFjgEjKTwZ0ZtVDL-Kv5KtzIQt-y7EViD9bM_RSjSiYOTOTqR4Av_7cF5Q2_h3O0rZF5UVuFdDNbgspURRa_UyU9qrxGBjw9TZZsoIRnLOnMzb4KKdFEHFWAqnK2Lln4acgUmiIqq2QIelpTb_SsJJvNkXAKEzvLqJhjkiG__ZKm62paLwLoUnOef9e3RP0PLcfPSqv_B327Cyqa01jKQdqMhnKxVUtCwMYth6f1otEIKWRMhAJSDiknCITEI9r0b9N7p35BMT_W-0OSqIhhwzTyxJM3bqcSIn0okpKBitS0y7pHMyKHzqmlZ0O3fD2zsnOrSjtcYQOplkXZQoSi-DOJ6SnPvRidJHPov4rOWNRfQcYn5UylMrXHVTyhlVLIdkOTqyjV3vuLA8p3UDqNRUTDkGyFaxDj4IzcKyF64Qgi-5SVptSVBlaNWZA-TtzwduTEtSXOGf7dTzqVElxuC-_0000]--></g></svg>