<?xml version="1.0" encoding="us-ascii" standalone="no"?><svg xmlns="http://www.w3.org/2000/svg" xmlns:xlink="http://www.w3.org/1999/xlink" contentStyleType="text/css" height="1444px" preserveAspectRatio="none" style="width:1595px;height:1444px;background:#FFFFFF;" version="1.1" viewBox="0 0 1595 1444" width="1595px" zoomAndPan="magnify"><defs/><g><!--cluster edu.gatech.gtri.obm.translator.alloy--><g id="cluster_edu.gatech.gtri.obm.translator.alloy"><path d="M8.5,6 L292.5,6 A3.75,3.75 0 0 1 295,8.5 L302,28.2969 L1585.5,28.2969 A2.5,2.5 0 0 1 1588,30.7969 L1588,1416.5 A2.5,2.5 0 0 1 1585.5,1419 L8.5,1419 A2.5,2.5 0 0 1 6,1416.5 L6,8.5 A2.5,2.5 0 0 1 8.5,6 " fill="none" style="stroke:#000000;stroke-width:1.5;"/><line style="stroke:#000000;stroke-width:1.5;" x1="6" x2="302" y1="28.2969" y2="28.2969"/><text fill="#000000" font-family="sans-serif" font-size="14" font-weight="bold" lengthAdjust="spacing" textLength="283" x="10" y="20.9951">edu.gatech.gtri.obm.translator.alloy</text></g><!--class VisualizerHelper--><a href="VisualizerHelper.html" target="_top" title="VisualizerHelper.html" xlink:actuate="onRequest" xlink:href="VisualizerHelper.html" xlink:show="new" xlink:title="VisualizerHelper.html" xlink:type="simple"><g id="elem_VisualizerHelper"><rect codeLine="5" fill="#F1F1F1" height="162.0781" id="VisualizerHelper" rx="2.5" ry="2.5" style="stroke:#181818;stroke-width:0.5;" width="502" x="22" y="187.5"/><ellipse cx="213.75" cy="203.5" fill="#ADD1B2" rx="11" ry="11" style="stroke:#181818;stroke-width:1.0;"/><path d="M216.7188,209.1406 Q216.1406,209.4375 215.5,209.5781 Q214.8594,209.7344 214.1563,209.7344 Q211.6563,209.7344 210.3281,208.0938 Q209.0156,206.4375 209.0156,203.3125 Q209.0156,200.1875 210.3281,198.5313 Q211.6563,196.875 214.1563,196.875 Q214.8594,196.875 215.5,197.0313 Q216.1563,197.1875 216.7188,197.4844 L216.7188,200.2031 Q216.0938,199.625 215.5,199.3594 Q214.9063,199.0781 214.2813,199.0781 Q212.9375,199.0781 212.25,200.1563 Q211.5625,201.2188 211.5625,203.3125 Q211.5625,205.4063 212.25,206.4844 Q212.9375,207.5469 214.2813,207.5469 Q214.9063,207.5469 215.5,207.2813 Q216.0938,207 216.7188,206.4219 L216.7188,209.1406 Z " fill="#000000"/><text fill="#000000" font-family="sans-serif" font-size="14" lengthAdjust="spacing" textLength="110" x="234.25" y="208.3467">VisualizerHelper</text><line style="stroke:#181818;stroke-width:0.5;" x1="23" x2="523" y1="219.5" y2="219.5"/><line style="stroke:#181818;stroke-width:0.5;" x1="23" x2="523" y1="227.5" y2="227.5"/><ellipse cx="33" cy="241.1484" fill="#84BE84" rx="3" ry="3" style="stroke:#038048;stroke-width:1.0;"/><text fill="#000000" font-family="sans-serif" font-size="14" lengthAdjust="spacing" text-decoration="underline" textLength="211" x="42" y="244.4951">updateUpdated(boolean): void</text><ellipse cx="33" cy="257.4453" fill="#84BE84" rx="3" ry="3" style="stroke:#038048;stroke-width:1.0;"/><text fill="#000000" font-family="sans-serif" font-size="14" lengthAdjust="spacing" text-decoration="underline" textLength="159" x="42" y="260.792">hasUpdated(): boolean</text><ellipse cx="33" cy="273.7422" fill="#84BE84" rx="3" ry="3" style="stroke:#038048;stroke-width:1.0;"/><text fill="#000000" font-family="sans-serif" font-size="14" lengthAdjust="spacing" text-decoration="underline" textLength="476" x="42" y="277.0889">generateVisualizerWithNextCapability(Iterable&lt;Sig&gt;, Command): void</text><ellipse cx="33" cy="290.0391" fill="#84BE84" rx="3" ry="3" style="stroke:#038048;stroke-width:1.0;"/><text fill="#000000" font-family="sans-serif" font-size="14" lengthAdjust="spacing" text-decoration="underline" textLength="116" x="42" y="293.3857">updateVis(): void</text><ellipse cx="33" cy="306.3359" fill="#84BE84" rx="3" ry="3" style="stroke:#038048;stroke-width:1.0;"/><text fill="#000000" font-family="sans-serif" font-size="14" lengthAdjust="spacing" text-decoration="underline" textLength="359" x="42" y="309.6826">generateVisualizerX(Iterable&lt;Sig&gt;, Command): void</text><ellipse cx="33" cy="322.6328" fill="#84BE84" rx="3" ry="3" style="stroke:#038048;stroke-width:1.0;"/><text fill="#000000" font-family="sans-serif" font-size="14" lengthAdjust="spacing" text-decoration="underline" textLength="350" x="42" y="325.9795">generateVisualizer(Iterable&lt;Sig&gt;, Command): void</text><ellipse cx="33" cy="338.9297" fill="#84BE84" rx="3" ry="3" style="stroke:#038048;stroke-width:1.0;"/><text fill="#000000" font-family="sans-serif" font-size="14" lengthAdjust="spacing" text-decoration="underline" textLength="226" x="42" y="342.2764">generateVisualizer(Module): void</text></g></a><!--class AlloyRunUtils--><a href="AlloyRunUtils.html" target="_top" title="AlloyRunUtils.html" xlink:actuate="onRequest" xlink:href="AlloyRunUtils.html" xlink:show="new" xlink:title="AlloyRunUtils.html" xlink:type="simple"><g id="elem_AlloyRunUtils"><rect codeLine="15" fill="#F1F1F1" height="96.8906" id="AlloyRunUtils" rx="2.5" ry="2.5" style="stroke:#181818;stroke-width:0.5;" width="319" x="559.5" y="220"/><ellipse cx="670.75" cy="236" fill="#ADD1B2" rx="11" ry="11" style="stroke:#181818;stroke-width:1.0;"/><path d="M673.7188,241.6406 Q673.1406,241.9375 672.5,242.0781 Q671.8594,242.2344 671.1563,242.2344 Q668.6563,242.2344 667.3281,240.5938 Q666.0156,238.9375 666.0156,235.8125 Q666.0156,232.6875 667.3281,231.0313 Q668.6563,229.375 671.1563,229.375 Q671.8594,229.375 672.5,229.5313 Q673.1563,229.6875 673.7188,229.9844 L673.7188,232.7031 Q673.0938,232.125 672.5,231.8594 Q671.9063,231.5781 671.2813,231.5781 Q669.9375,231.5781 669.25,232.6563 Q668.5625,233.7188 668.5625,235.8125 Q668.5625,237.9063 669.25,238.9844 Q669.9375,240.0469 671.2813,240.0469 Q671.9063,240.0469 672.5,239.7813 Q673.0938,239.5 673.7188,238.9219 L673.7188,241.6406 Z " fill="#000000"/><text fill="#000000" font-family="sans-serif" font-size="14" lengthAdjust="spacing" textLength="88" x="691.25" y="240.8467">AlloyRunUtils</text><line style="stroke:#181818;stroke-width:0.5;" x1="560.5" x2="877.5" y1="252" y2="252"/><line style="stroke:#181818;stroke-width:0.5;" x1="560.5" x2="877.5" y1="260" y2="260"/><ellipse cx="570.5" cy="273.6484" fill="#84BE84" rx="3" ry="3" style="stroke:#038048;stroke-width:1.0;"/><text fill="#000000" font-family="sans-serif" font-size="14" lengthAdjust="spacing" text-decoration="underline" textLength="230" x="579.5" y="276.9951">run(Sig, int, List&lt;Sig&gt;, Expr): void</text><ellipse cx="570.5" cy="289.9453" fill="#84BE84" rx="3" ry="3" style="stroke:#038048;stroke-width:1.0;"/><text fill="#000000" font-family="sans-serif" font-size="14" lengthAdjust="spacing" text-decoration="underline" textLength="293" x="579.5" y="293.292">runX(Sig, List&lt;Sig&gt;, Expr, Command): void</text><ellipse cx="570.5" cy="306.2422" fill="#84BE84" rx="3" ry="3" style="stroke:#038048;stroke-width:1.0;"/><text fill="#000000" font-family="sans-serif" font-size="14" lengthAdjust="spacing" text-decoration="underline" textLength="239" x="579.5" y="309.5889">runX(Sig, int, List&lt;Sig&gt;, Expr): void</text></g></a><!--class AlloyUtils--><a href="AlloyUtils.html" target="_top" title="AlloyUtils.html" xlink:actuate="onRequest" xlink:href="AlloyUtils.html" xlink:show="new" xlink:title="AlloyUtils.html" xlink:type="simple"><g id="elem_AlloyUtils"><rect codeLine="21" fill="#F1F1F1" height="455.4219" id="AlloyUtils" rx="2.5" ry="2.5" style="stroke:#181818;stroke-width:0.5;" width="429" x="913.5" y="41"/><ellipse cx="1093.75" cy="57" fill="#ADD1B2" rx="11" ry="11" style="stroke:#181818;stroke-width:1.0;"/><path d="M1096.7188,62.6406 Q1096.1406,62.9375 1095.5,63.0781 Q1094.8594,63.2344 1094.1563,63.2344 Q1091.6563,63.2344 1090.3281,61.5938 Q1089.0156,59.9375 1089.0156,56.8125 Q1089.0156,53.6875 1090.3281,52.0313 Q1091.6563,50.375 1094.1563,50.375 Q1094.8594,50.375 1095.5,50.5313 Q1096.1563,50.6875 1096.7188,50.9844 L1096.7188,53.7031 Q1096.0938,53.125 1095.5,52.8594 Q1094.9063,52.5781 1094.2813,52.5781 Q1092.9375,52.5781 1092.25,53.6563 Q1091.5625,54.7188 1091.5625,56.8125 Q1091.5625,58.9063 1092.25,59.9844 Q1092.9375,61.0469 1094.2813,61.0469 Q1094.9063,61.0469 1095.5,60.7813 Q1096.0938,60.5 1096.7188,59.9219 L1096.7188,62.6406 Z " fill="#000000"/><text fill="#000000" font-family="sans-serif" font-size="14" lengthAdjust="spacing" textLength="60" x="1114.25" y="61.8467">AlloyUtils</text><line style="stroke:#181818;stroke-width:0.5;" x1="914.5" x2="1341.5" y1="73" y2="73"/><line style="stroke:#181818;stroke-width:0.5;" x1="914.5" x2="1341.5" y1="81" y2="81"/><ellipse cx="924.5" cy="94.6484" fill="#84BE84" rx="3" ry="3" style="stroke:#038048;stroke-width:1.0;"/><text fill="#000000" font-family="sans-serif" font-size="14" lengthAdjust="spacing" text-decoration="underline" textLength="260" x="933.5" y="97.9951">importAlloyModule(File): CompModule</text><ellipse cx="924.5" cy="110.9453" fill="#84BE84" rx="3" ry="3" style="stroke:#038048;stroke-width:1.0;"/><text fill="#000000" font-family="sans-serif" font-size="14" lengthAdjust="spacing" text-decoration="underline" textLength="277" x="933.5" y="114.292">importAlloyModule(String): CompModule</text><ellipse cx="924.5" cy="127.2422" fill="#84BE84" rx="3" ry="3" style="stroke:#038048;stroke-width:1.0;"/><text fill="#000000" font-family="sans-serif" font-size="14" lengthAdjust="spacing" text-decoration="underline" textLength="188" x="933.5" y="130.5889">removeSlash(String): String</text><ellipse cx="924.5" cy="143.5391" fill="#84BE84" rx="3" ry="3" style="stroke:#038048;stroke-width:1.0;"/><text fill="#000000" font-family="sans-serif" font-size="14" lengthAdjust="spacing" text-decoration="underline" textLength="190" x="933.5" y="146.8857">validParent(String): boolean</text><ellipse cx="924.5" cy="159.8359" fill="#84BE84" rx="3" ry="3" style="stroke:#038048;stroke-width:1.0;"/><text fill="#000000" font-family="sans-serif" font-size="14" lengthAdjust="spacing" text-decoration="underline" textLength="261" x="933.5" y="163.1826">getFieldFromSig(String, PrimSig): Field</text><ellipse cx="924.5" cy="176.1328" fill="#84BE84" rx="3" ry="3" style="stroke:#038048;stroke-width:1.0;"/><text fill="#000000" font-family="sans-serif" font-size="14" lengthAdjust="spacing" text-decoration="underline" textLength="344" x="933.5" y="179.4795">getFieldFromSigByFieldType(String, PrimSig): Field</text><ellipse cx="924.5" cy="192.4297" fill="#84BE84" rx="3" ry="3" style="stroke:#038048;stroke-width:1.0;"/><text fill="#000000" font-family="sans-serif" font-size="14" lengthAdjust="spacing" text-decoration="underline" textLength="178" x="933.5" y="195.7764">printAllFunc(Module): void</text><ellipse cx="924.5" cy="208.7266" fill="#84BE84" rx="3" ry="3" style="stroke:#038048;stroke-width:1.0;"/><text fill="#000000" font-family="sans-serif" font-size="14" lengthAdjust="spacing" text-decoration="underline" textLength="173" x="933.5" y="212.0732">printAllFact(Module): void</text><ellipse cx="924.5" cy="225.0234" fill="#84BE84" rx="3" ry="3" style="stroke:#038048;stroke-width:1.0;"/><text fill="#000000" font-family="sans-serif" font-size="14" lengthAdjust="spacing" text-decoration="underline" textLength="215" x="933.5" y="228.3701">getAllCommands(Module): void</text><ellipse cx="924.5" cy="241.3203" fill="#84BE84" rx="3" ry="3" style="stroke:#038048;stroke-width:1.0;"/><text fill="#000000" font-family="sans-serif" font-size="14" lengthAdjust="spacing" text-decoration="underline" textLength="228" x="933.5" y="244.667">printExpr(Browsable, String): void</text><ellipse cx="924.5" cy="257.6172" fill="#84BE84" rx="3" ry="3" style="stroke:#038048;stroke-width:1.0;"/><text fill="#000000" font-family="sans-serif" font-size="14" lengthAdjust="spacing" text-decoration="underline" textLength="184" x="933.5" y="260.9639">printOnlyThisFn(Expr): void</text><ellipse cx="924.5" cy="273.9141" fill="#84BE84" rx="3" ry="3" style="stroke:#038048;stroke-width:1.0;"/><text fill="#000000" font-family="sans-serif" font-size="14" lengthAdjust="spacing" text-decoration="underline" textLength="234" x="933.5" y="277.2607">printOnlyThisSigs(List&lt;Sig&gt;): void</text><ellipse cx="924.5" cy="290.2109" fill="#84BE84" rx="3" ry="3" style="stroke:#038048;stroke-width:1.0;"/><text fill="#000000" font-family="sans-serif" font-size="14" lengthAdjust="spacing" text-decoration="underline" textLength="175" x="933.5" y="293.5576">printSigs(List&lt;Sig&gt;): void</text><ellipse cx="924.5" cy="306.5078" fill="#84BE84" rx="3" ry="3" style="stroke:#038048;stroke-width:1.0;"/><text fill="#000000" font-family="sans-serif" font-size="14" lengthAdjust="spacing" text-decoration="underline" textLength="309" x="933.5" y="309.8545">addAllReachableSig(Module, List&lt;Sig&gt;): void</text><ellipse cx="924.5" cy="322.8047" fill="#84BE84" rx="3" ry="3" style="stroke:#038048;stroke-width:1.0;"/><text fill="#000000" font-family="sans-serif" font-size="14" lengthAdjust="spacing" text-decoration="underline" textLength="328" x="933.5" y="326.1514">getReachableSigField(Module, Sig, String): Field</text><ellipse cx="924.5" cy="339.1016" fill="#84BE84" rx="3" ry="3" style="stroke:#038048;stroke-width:1.0;"/><text fill="#000000" font-family="sans-serif" font-size="14" lengthAdjust="spacing" text-decoration="underline" textLength="256" x="933.5" y="342.4482">getReachableSig(Module, String): Sig</text><ellipse cx="924.5" cy="355.3984" fill="#84BE84" rx="3" ry="3" style="stroke:#038048;stroke-width:1.0;"/><text fill="#000000" font-family="sans-serif" font-size="14" lengthAdjust="spacing" text-decoration="underline" textLength="231" x="933.5" y="358.7451">printReachableSigs(Module): void</text><ellipse cx="924.5" cy="371.6953" fill="#84BE84" rx="3" ry="3" style="stroke:#038048;stroke-width:1.0;"/><text fill="#000000" font-family="sans-serif" font-size="14" lengthAdjust="spacing" text-decoration="underline" textLength="403" x="933.5" y="375.042">addAllReachableUserDefinedSigs(Module, List&lt;Sig&gt;): void</text><ellipse cx="924.5" cy="387.9922" fill="#84BE84" rx="3" ry="3" style="stroke:#038048;stroke-width:1.0;"/><text fill="#000000" font-family="sans-serif" font-size="14" lengthAdjust="spacing" text-decoration="underline" textLength="332" x="933.5" y="391.3389">printAllReachableUserDefinedSigs(Module): void</text><ellipse cx="924.5" cy="404.2891" fill="#84BE84" rx="3" ry="3" style="stroke:#038048;stroke-width:1.0;"/><text fill="#000000" font-family="sans-serif" font-size="14" lengthAdjust="spacing" text-decoration="underline" textLength="261" x="933.5" y="407.6357">printReachableModules(Module): void</text><ellipse cx="924.5" cy="420.5859" fill="#84BE84" rx="3" ry="3" style="stroke:#038048;stroke-width:1.0;"/><text fill="#000000" font-family="sans-serif" font-size="14" lengthAdjust="spacing" text-decoration="underline" textLength="388" x="933.5" y="423.9326">getAllReachableModuleByName(Module, String): Module</text><ellipse cx="924.5" cy="436.8828" fill="#84BE84" rx="3" ry="3" style="stroke:#038048;stroke-width:1.0;"/><text fill="#000000" font-family="sans-serif" font-size="14" lengthAdjust="spacing" text-decoration="underline" textLength="235" x="933.5" y="440.2295">getFunction(Module, String): Func</text><ellipse cx="924.5" cy="453.1797" fill="#84BE84" rx="3" ry="3" style="stroke:#038048;stroke-width:1.0;"/><text fill="#000000" font-family="sans-serif" font-size="14" lengthAdjust="spacing" text-decoration="underline" textLength="203" x="933.5" y="456.5264">printAllFuctions(Module): void</text><ellipse cx="924.5" cy="469.4766" fill="#84BE84" rx="3" ry="3" style="stroke:#038048;stroke-width:1.0;"/><text fill="#000000" font-family="sans-serif" font-size="14" lengthAdjust="spacing" text-decoration="underline" textLength="254" x="933.5" y="472.8232">printAllReachableFacts(Module): void</text><ellipse cx="924.5" cy="485.7734" fill="#84BE84" rx="3" ry="3" style="stroke:#038048;stroke-width:1.0;"/><text fill="#000000" font-family="sans-serif" font-size="14" lengthAdjust="spacing" text-decoration="underline" textLength="249" x="933.5" y="489.1201">printExprAndItsFunctions(Expr): void</text></g></a><!--class MDUtils--><a href="MDUtils.html" target="_top" title="MDUtils.html" xlink:actuate="onRequest" xlink:href="MDUtils.html" xlink:show="new" xlink:title="MDUtils.html" xlink:type="simple"><g id="elem_MDUtils"><rect codeLine="49" fill="#F1F1F1" height="64.2969" id="MDUtils" rx="2.5" ry="2.5" style="stroke:#181818;stroke-width:0.5;" width="302" x="22" y="947.5"/><ellipse cx="142.75" cy="963.5" fill="#ADD1B2" rx="11" ry="11" style="stroke:#181818;stroke-width:1.0;"/><path d="M145.7188,969.1406 Q145.1406,969.4375 144.5,969.5781 Q143.8594,969.7344 143.1563,969.7344 Q140.6563,969.7344 139.3281,968.0938 Q138.0156,966.4375 138.0156,963.3125 Q138.0156,960.1875 139.3281,958.5313 Q140.6563,956.875 143.1563,956.875 Q143.8594,956.875 144.5,957.0313 Q145.1563,957.1875 145.7188,957.4844 L145.7188,960.2031 Q145.0938,959.625 144.5,959.3594 Q143.9063,959.0781 143.2813,959.0781 Q141.9375,959.0781 141.25,960.1563 Q140.5625,961.2188 140.5625,963.3125 Q140.5625,965.4063 141.25,966.4844 Q141.9375,967.5469 143.2813,967.5469 Q143.9063,967.5469 144.5,967.2813 Q145.0938,967 145.7188,966.4219 L145.7188,969.1406 Z " fill="#000000"/><text fill="#000000" font-family="sans-serif" font-size="14" lengthAdjust="spacing" textLength="52" x="163.25" y="968.3467">MDUtils</text><line style="stroke:#181818;stroke-width:0.5;" x1="23" x2="323" y1="979.5" y2="979.5"/><line style="stroke:#181818;stroke-width:0.5;" x1="23" x2="323" y1="987.5" y2="987.5"/><ellipse cx="33" cy="1001.1484" fill="#84BE84" rx="3" ry="3" style="stroke:#038048;stroke-width:1.0;"/><text fill="#000000" font-family="sans-serif" font-size="14" lengthAdjust="spacing" text-decoration="underline" textLength="276" x="42" y="1004.4951">getClassInHierarchy(Class): List&lt;Class&gt;</text></g></a><!--class Alloy--><a href="Alloy.html" target="_top" title="Alloy.html" xlink:actuate="onRequest" xlink:href="Alloy.html" xlink:show="new" xlink:title="Alloy.html" xlink:type="simple"><g id="elem_Alloy"><rect codeLine="53" fill="#F1F1F1" height="846.5469" id="Alloy" rx="2.5" ry="2.5" style="stroke:#181818;stroke-width:0.5;" width="650" x="359" y="556"/><ellipse cx="664.25" cy="572" fill="#ADD1B2" rx="11" ry="11" style="stroke:#181818;stroke-width:1.0;"/><path d="M667.2188,577.6406 Q666.6406,577.9375 666,578.0781 Q665.3594,578.2344 664.6563,578.2344 Q662.1563,578.2344 660.8281,576.5938 Q659.5156,574.9375 659.5156,571.8125 Q659.5156,568.6875 660.8281,567.0313 Q662.1563,565.375 664.6563,565.375 Q665.3594,565.375 666,565.5313 Q666.6563,565.6875 667.2188,565.9844 L667.2188,568.7031 Q666.5938,568.125 666,567.8594 Q665.4063,567.5781 664.7813,567.5781 Q663.4375,567.5781 662.75,568.6563 Q662.0625,569.7188 662.0625,571.8125 Q662.0625,573.9063 662.75,574.9844 Q663.4375,576.0469 664.7813,576.0469 Q665.4063,576.0469 666,575.7813 Q666.5938,575.5 667.2188,574.9219 L667.2188,577.6406 Z " fill="#000000"/><text fill="#000000" font-family="sans-serif" font-size="14" lengthAdjust="spacing" textLength="31" x="684.75" y="576.8467">Alloy</text><line style="stroke:#181818;stroke-width:0.5;" x1="360" x2="1008" y1="588" y2="588"/><ellipse cx="370" cy="601.6484" fill="none" rx="3" ry="3" style="stroke:#038048;stroke-width:1.0;"/><text fill="#000000" font-family="sans-serif" font-size="14" lengthAdjust="spacing" text-decoration="underline" textLength="164" x="379" y="604.9951">transferModule: Module</text><ellipse cx="370" cy="617.9453" fill="none" rx="3" ry="3" style="stroke:#038048;stroke-width:1.0;"/><text fill="#000000" font-family="sans-serif" font-size="14" lengthAdjust="spacing" text-decoration="underline" textLength="150" x="379" y="621.292">happensBefore: Func</text><ellipse cx="370" cy="634.2422" fill="none" rx="3" ry="3" style="stroke:#038048;stroke-width:1.0;"/><text fill="#000000" font-family="sans-serif" font-size="14" lengthAdjust="spacing" text-decoration="underline" textLength="150" x="379" y="637.5889">happensDuring: Func</text><ellipse cx="370" cy="650.5391" fill="none" rx="3" ry="3" style="stroke:#038048;stroke-width:1.0;"/><text fill="#000000" font-family="sans-serif" font-size="14" lengthAdjust="spacing" text-decoration="underline" textLength="99" x="379" y="653.8857">sources: Func</text><ellipse cx="370" cy="666.8359" fill="none" rx="3" ry="3" style="stroke:#038048;stroke-width:1.0;"/><text fill="#000000" font-family="sans-serif" font-size="14" lengthAdjust="spacing" text-decoration="underline" textLength="92" x="379" y="670.1826">targets: Func</text><ellipse cx="370" cy="683.1328" fill="none" rx="3" ry="3" style="stroke:#038048;stroke-width:1.0;"/><text fill="#000000" font-family="sans-serif" font-size="14" lengthAdjust="spacing" text-decoration="underline" textLength="257" x="379" y="686.4795">subsettingItemRuleForSources: Func</text><ellipse cx="370" cy="699.4297" fill="none" rx="3" ry="3" style="stroke:#038048;stroke-width:1.0;"/><text fill="#000000" font-family="sans-serif" font-size="14" lengthAdjust="spacing" text-decoration="underline" textLength="253" x="379" y="702.7764">subsettingItemRuleForTargets: Func</text><ellipse cx="370" cy="715.7266" fill="none" rx="3" ry="3" style="stroke:#038048;stroke-width:1.0;"/><text fill="#000000" font-family="sans-serif" font-size="14" lengthAdjust="spacing" text-decoration="underline" textLength="135" x="379" y="719.0732">isAfterSource: Func</text><ellipse cx="370" cy="732.0234" fill="none" rx="3" ry="3" style="stroke:#038048;stroke-width:1.0;"/><text fill="#000000" font-family="sans-serif" font-size="14" lengthAdjust="spacing" text-decoration="underline" textLength="145" x="379" y="735.3701">isBeforeTarget: Func</text><ellipse cx="370" cy="748.3203" fill="none" rx="3" ry="3" style="stroke:#038048;stroke-width:1.0;"/><text fill="#000000" font-family="sans-serif" font-size="14" lengthAdjust="spacing" text-decoration="underline" textLength="104" x="379" y="751.667">transferSig: Sig</text><ellipse cx="370" cy="764.6172" fill="none" rx="3" ry="3" style="stroke:#038048;stroke-width:1.0;"/><text fill="#000000" font-family="sans-serif" font-size="14" lengthAdjust="spacing" text-decoration="underline" textLength="150" x="379" y="767.9639">transferBeforeSig: Sig</text><line style="stroke:#181818;stroke-width:0.5;" x1="360" x2="1008" y1="775.2656" y2="775.2656"/><ellipse cx="370" cy="788.9141" fill="#84BE84" rx="3" ry="3" style="stroke:#038048;stroke-width:1.0;"/><text fill="#000000" font-family="sans-serif" font-size="14" lengthAdjust="spacing" textLength="81" x="379" y="792.2607">Alloy(String)</text><ellipse cx="370" cy="805.2109" fill="#84BE84" rx="3" ry="3" style="stroke:#038048;stroke-width:1.0;"/><text fill="#000000" font-family="sans-serif" font-size="14" lengthAdjust="spacing" textLength="201" x="379" y="808.5576">getTransferModule(): Module</text><ellipse cx="370" cy="821.5078" fill="#84BE84" rx="3" ry="3" style="stroke:#038048;stroke-width:1.0;"/><text fill="#000000" font-family="sans-serif" font-size="14" lengthAdjust="spacing" textLength="209" x="379" y="824.8545">getTemplateModule(): Module</text><ellipse cx="370" cy="837.8047" fill="#84BE84" rx="3" ry="3" style="stroke:#038048;stroke-width:1.0;"/><text fill="#000000" font-family="sans-serif" font-size="14" lengthAdjust="spacing" textLength="141" x="379" y="841.1514">getOccSig(): PrimSig</text><ellipse cx="370" cy="854.1016" fill="#84BE84" rx="3" ry="3" style="stroke:#038048;stroke-width:1.0;"/><text fill="#000000" font-family="sans-serif" font-size="14" lengthAdjust="spacing" textLength="148" x="379" y="857.4482">getOverAllFact(): Expr</text><ellipse cx="370" cy="870.3984" fill="#84BE84" rx="3" ry="3" style="stroke:#038048;stroke-width:1.0;"/><text fill="#000000" font-family="sans-serif" font-size="14" lengthAdjust="spacing" textLength="154" x="379" y="873.7451">getAllSigs(): List&lt;Sig&gt;</text><ellipse cx="370" cy="886.6953" fill="#84BE84" rx="3" ry="3" style="stroke:#038048;stroke-width:1.0;"/><text fill="#000000" font-family="sans-serif" font-size="14" lengthAdjust="spacing" textLength="350" x="379" y="890.042">createSigAndAddToAllSigs(String, PrimSig): PrimSig</text><ellipse cx="370" cy="902.9922" fill="#84BE84" rx="3" ry="3" style="stroke:#038048;stroke-width:1.0;"/><text fill="#000000" font-family="sans-serif" font-size="14" lengthAdjust="spacing" textLength="405" x="379" y="906.3389">createSigAsChildOfOccSigAndAddToAllSigs(String): PrimSig</text><ellipse cx="370" cy="919.2891" fill="#84BE84" rx="3" ry="3" style="stroke:#038048;stroke-width:1.0;"/><text fill="#000000" font-family="sans-serif" font-size="14" lengthAdjust="spacing" textLength="455" x="379" y="922.6357">createSigAsChildOfParentSigAddToAllSigs(String, PrimSig): PrimSig</text><ellipse cx="370" cy="935.5859" fill="#84BE84" rx="3" ry="3" style="stroke:#038048;stroke-width:1.0;"/><text fill="#000000" font-family="sans-serif" font-size="14" lengthAdjust="spacing" textLength="196" x="379" y="938.9326">addToOverallFact(Expr): void</text><ellipse cx="370" cy="951.8828" fill="#84BE84" rx="3" ry="3" style="stroke:#038048;stroke-width:1.0;"/><text fill="#000000" font-family="sans-serif" font-size="14" lengthAdjust="spacing" textLength="192" x="379" y="955.2295">getIgnoredSigs(): Set&lt;Sig&gt;</text><ellipse cx="370" cy="968.1797" fill="#84BE84" rx="3" ry="3" style="stroke:#038048;stroke-width:1.0;"/><text fill="#000000" font-family="sans-serif" font-size="14" lengthAdjust="spacing" textLength="210" x="379" y="971.5264">getIgnoredExprs(): Set&lt;Expr&gt;</text><ellipse cx="370" cy="984.4766" fill="#84BE84" rx="3" ry="3" style="stroke:#038048;stroke-width:1.0;"/><text fill="#000000" font-family="sans-serif" font-size="14" lengthAdjust="spacing" textLength="218" x="379" y="987.8232">getIgnoredFuncs(): Set&lt;Func&gt;</text><ellipse cx="370" cy="1000.7734" fill="#84BE84" rx="3" ry="3" style="stroke:#038048;stroke-width:1.0;"/><text fill="#000000" font-family="sans-serif" font-size="14" lengthAdjust="spacing" textLength="604" x="379" y="1004.1201">createInverseFunctionFilteredHappensBeforeAndAddToOverallFact(Sig, Expr, Expr): void</text><ellipse cx="370" cy="1017.0703" fill="#84BE84" rx="3" ry="3" style="stroke:#038048;stroke-width:1.0;"/><text fill="#000000" font-family="sans-serif" font-size="14" lengthAdjust="spacing" textLength="624" x="379" y="1020.417">createInverseFunctionFilteredHappensBeforeAndAddToOverallFact(Sig, Expr[], Expr[]): void</text><ellipse cx="370" cy="1033.3672" fill="#84BE84" rx="3" ry="3" style="stroke:#038048;stroke-width:1.0;"/><text fill="#000000" font-family="sans-serif" font-size="14" lengthAdjust="spacing" textLength="554" x="379" y="1036.7139">createFunctionFilteredHappensBeforeAndAddToOverallFact(Sig, Expr, Expr): void</text><ellipse cx="370" cy="1049.6641" fill="#84BE84" rx="3" ry="3" style="stroke:#038048;stroke-width:1.0;"/><text fill="#000000" font-family="sans-serif" font-size="14" lengthAdjust="spacing" textLength="574" x="379" y="1053.0107">createFunctionFilteredHappensBeforeAndAddToOverallFact(Sig, Expr[], Expr[]): void</text><ellipse cx="370" cy="1065.9609" fill="#84BE84" rx="3" ry="3" style="stroke:#038048;stroke-width:1.0;"/><text fill="#000000" font-family="sans-serif" font-size="14" lengthAdjust="spacing" textLength="553" x="379" y="1069.3076">createBijectionFilteredHappensBeforeAndAddToOverallFact(Sig, Expr, Expr): void</text><ellipse cx="370" cy="1082.2578" fill="#84BE84" rx="3" ry="3" style="stroke:#038048;stroke-width:1.0;"/><text fill="#000000" font-family="sans-serif" font-size="14" lengthAdjust="spacing" textLength="362" x="379" y="1085.6045">createSubSettingItemRuleOverallFact(Sig, Expr): void</text><ellipse cx="370" cy="1098.5547" fill="#84BE84" rx="3" ry="3" style="stroke:#038048;stroke-width:1.0;"/><text fill="#000000" font-family="sans-serif" font-size="14" lengthAdjust="spacing" textLength="419" x="379" y="1101.9014">createIsAfterSourceIsBeforeTargetOverallFact(Sig, Expr): void</text><ellipse cx="370" cy="1114.8516" fill="#84BE84" rx="3" ry="3" style="stroke:#038048;stroke-width:1.0;"/><text fill="#000000" font-family="sans-serif" font-size="14" lengthAdjust="spacing" textLength="317" x="379" y="1118.1982">createIsAfterSourceOverallFact(Sig, Expr): void</text><ellipse cx="370" cy="1131.1484" fill="#84BE84" rx="3" ry="3" style="stroke:#038048;stroke-width:1.0;"/><text fill="#000000" font-family="sans-serif" font-size="14" lengthAdjust="spacing" textLength="327" x="379" y="1134.4951">createIsBeforeTargetOverallFact(Sig, Expr): void</text><ellipse cx="370" cy="1147.4453" fill="#84BE84" rx="3" ry="3" style="stroke:#038048;stroke-width:1.0;"/><text fill="#000000" font-family="sans-serif" font-size="14" lengthAdjust="spacing" textLength="538" x="379" y="1150.792">createInverseFunctionFilteredAndAddToOverallFact(Sig, Expr, Expr, Func): void</text><ellipse cx="370" cy="1163.7422" fill="#84BE84" rx="3" ry="3" style="stroke:#038048;stroke-width:1.0;"/><text fill="#000000" font-family="sans-serif" font-size="14" lengthAdjust="spacing" textLength="488" x="379" y="1167.0889">createFunctionFilteredAndAddToOverallFact(Sig, Expr, Expr, Func): void</text><ellipse cx="370" cy="1180.0391" fill="#84BE84" rx="3" ry="3" style="stroke:#038048;stroke-width:1.0;"/><text fill="#000000" font-family="sans-serif" font-size="14" lengthAdjust="spacing" textLength="433" x="379" y="1183.3857">createBijectionFilteredToOverallFact(Sig, Expr, Expr, Func): void</text><ellipse cx="370" cy="1196.3359" fill="#84BE84" rx="3" ry="3" style="stroke:#038048;stroke-width:1.0;"/><text fill="#000000" font-family="sans-serif" font-size="14" lengthAdjust="spacing" textLength="613" x="379" y="1199.6826">createBijectionFilteredHappensBeforeAndAddToOverallFact(ExprVar, Sig, Expr, Expr): void</text><ellipse cx="370" cy="1212.6328" fill="#84BE84" rx="3" ry="3" style="stroke:#038048;stroke-width:1.0;"/><text fill="#000000" font-family="sans-serif" font-size="14" lengthAdjust="spacing" textLength="205" x="379" y="1215.9795">getCommonCmdExprs(): Expr</text><ellipse cx="370" cy="1228.9297" fill="#84BE84" rx="3" ry="3" style="stroke:#038048;stroke-width:1.0;"/><text fill="#000000" font-family="sans-serif" font-size="14" lengthAdjust="spacing" textLength="191" x="379" y="1232.2764">addToNameExpr(Expr): void</text><ellipse cx="370" cy="1245.2266" fill="#84BE84" rx="3" ry="3" style="stroke:#038048;stroke-width:1.0;"/><text fill="#000000" font-family="sans-serif" font-size="14" lengthAdjust="spacing" textLength="388" x="379" y="1248.5732">addCardinalityEqualConstraintToField(Sig, Field, int): void</text><ellipse cx="370" cy="1261.5234" fill="#84BE84" rx="3" ry="3" style="stroke:#038048;stroke-width:1.0;"/><text fill="#000000" font-family="sans-serif" font-size="14" lengthAdjust="spacing" textLength="475" x="379" y="1264.8701">addCardinalityGreaterThanEqualConstraintToField(Sig, Field, int): void</text><ellipse cx="370" cy="1277.8203" fill="#84BE84" rx="3" ry="3" style="stroke:#038048;stroke-width:1.0;"/><text fill="#000000" font-family="sans-serif" font-size="14" lengthAdjust="spacing" textLength="212" x="379" y="1281.167">addEqual(Sig, Field, Field): void</text><ellipse cx="370" cy="1294.1172" fill="#84BE84" rx="3" ry="3" style="stroke:#038048;stroke-width:1.0;"/><text fill="#000000" font-family="sans-serif" font-size="14" lengthAdjust="spacing" textLength="344" x="379" y="1297.4639">addOneConstraintToField(ExprVar, Sig, Field): void</text><ellipse cx="370" cy="1310.4141" fill="#84BE84" rx="3" ry="3" style="stroke:#038048;stroke-width:1.0;"/><text fill="#000000" font-family="sans-serif" font-size="14" lengthAdjust="spacing" textLength="129" x="379" y="1313.7607">noInputs(Sig): void</text><ellipse cx="370" cy="1326.7109" fill="#84BE84" rx="3" ry="3" style="stroke:#038048;stroke-width:1.0;"/><text fill="#000000" font-family="sans-serif" font-size="14" lengthAdjust="spacing" textLength="142" x="379" y="1330.0576">noOutputs(Sig): void</text><ellipse cx="370" cy="1343.0078" fill="#84BE84" rx="3" ry="3" style="stroke:#038048;stroke-width:1.0;"/><text fill="#000000" font-family="sans-serif" font-size="14" lengthAdjust="spacing" textLength="237" x="379" y="1346.3545">addInputs(ExprVar, Sig, Field): void</text><ellipse cx="370" cy="1359.3047" fill="#84BE84" rx="3" ry="3" style="stroke:#038048;stroke-width:1.0;"/><text fill="#000000" font-family="sans-serif" font-size="14" lengthAdjust="spacing" textLength="250" x="379" y="1362.6514">addOutputs(ExprVar, Sig, Field): void</text><ellipse cx="370" cy="1375.6016" fill="#84BE84" rx="3" ry="3" style="stroke:#038048;stroke-width:1.0;"/><text fill="#000000" font-family="sans-serif" font-size="14" lengthAdjust="spacing" textLength="229" x="379" y="1378.9482">addSteps(Sig, Set&lt;String&gt;): void</text><ellipse cx="370" cy="1391.8984" fill="#84BE84" rx="3" ry="3" style="stroke:#038048;stroke-width:1.0;"/><text fill="#000000" font-family="sans-serif" font-size="14" lengthAdjust="spacing" textLength="270" x="379" y="1395.2451">createCommand(String, int): Command</text></g></a><!--class FuncUtils--><a href="FuncUtils.html" target="_top" title="FuncUtils.html" xlink:actuate="onRequest" xlink:href="FuncUtils.html" xlink:show="new" xlink:title="FuncUtils.html" xlink:type="simple"><g id="elem_FuncUtils"><rect codeLine="105" fill="#F1F1F1" height="439.125" id="FuncUtils" rx="2.5" ry="2.5" style="stroke:#181818;stroke-width:0.5;" width="527" x="1044.5" y="760"/><ellipse cx="1272.25" cy="776" fill="#ADD1B2" rx="11" ry="11" style="stroke:#181818;stroke-width:1.0;"/><path d="M1275.2188,781.6406 Q1274.6406,781.9375 1274,782.0781 Q1273.3594,782.2344 1272.6563,782.2344 Q1270.1563,782.2344 1268.8281,780.5938 Q1267.5156,778.9375 1267.5156,775.8125 Q1267.5156,772.6875 1268.8281,771.0313 Q1270.1563,769.375 1272.6563,769.375 Q1273.3594,769.375 1274,769.5313 Q1274.6563,769.6875 1275.2188,769.9844 L1275.2188,772.7031 Q1274.5938,772.125 1274,771.8594 Q1273.4063,771.5781 1272.7813,771.5781 Q1271.4375,771.5781 1270.75,772.6563 Q1270.0625,773.7188 1270.0625,775.8125 Q1270.0625,777.9063 1270.75,778.9844 Q1271.4375,780.0469 1272.7813,780.0469 Q1273.4063,780.0469 1274,779.7813 Q1274.5938,779.5 1275.2188,778.9219 L1275.2188,781.6406 Z " fill="#000000"/><text fill="#000000" font-family="sans-serif" font-size="14" lengthAdjust="spacing" textLength="63" x="1292.75" y="780.8467">FuncUtils</text><line style="stroke:#181818;stroke-width:0.5;" x1="1045.5" x2="1570.5" y1="792" y2="792"/><line style="stroke:#181818;stroke-width:0.5;" x1="1045.5" x2="1570.5" y1="800" y2="800"/><ellipse cx="1055.5" cy="813.6484" fill="#84BE84" rx="3" ry="3" style="stroke:#038048;stroke-width:1.0;"/><text fill="#000000" font-family="sans-serif" font-size="14" lengthAdjust="spacing" text-decoration="underline" textLength="344" x="1064.5" y="816.9951">getDuringExampleExpr(String, Sig, Field, Sig): Expr</text><ellipse cx="1055.5" cy="829.9453" fill="#84BE84" rx="3" ry="3" style="stroke:#038048;stroke-width:1.0;"/><text fill="#000000" font-family="sans-serif" font-size="14" lengthAdjust="spacing" text-decoration="underline" textLength="249" x="1064.5" y="833.292">exprToFunToExpr(String, Expr): Expr</text><ellipse cx="1055.5" cy="846.2422" fill="#84BE84" rx="3" ry="3" style="stroke:#038048;stroke-width:1.0;"/><text fill="#000000" font-family="sans-serif" font-size="14" lengthAdjust="spacing" text-decoration="underline" textLength="207" x="1064.5" y="849.5889">addField(String, Sig, Sig): Field</text><ellipse cx="1055.5" cy="862.5391" fill="#84BE84" rx="3" ry="3" style="stroke:#038048;stroke-width:1.0;"/><text fill="#000000" font-family="sans-serif" font-size="14" lengthAdjust="spacing" text-decoration="underline" textLength="236" x="1064.5" y="865.8857">addOneField(String, Sig, Sig): Field</text><ellipse cx="1055.5" cy="878.8359" fill="#84BE84" rx="3" ry="3" style="stroke:#038048;stroke-width:1.0;"/><text fill="#000000" font-family="sans-serif" font-size="14" lengthAdjust="spacing" text-decoration="underline" textLength="267" x="1064.5" y="882.1826">addTrickyField(String[], Sig, Sig): Field[]</text><ellipse cx="1055.5" cy="895.1328" fill="#84BE84" rx="3" ry="3" style="stroke:#038048;stroke-width:1.0;"/><text fill="#000000" font-family="sans-serif" font-size="14" lengthAdjust="spacing" text-decoration="underline" textLength="289" x="1064.5" y="898.4795">createExprEqualToNumber(Expr, int): Expr</text><ellipse cx="1055.5" cy="911.4297" fill="#84BE84" rx="3" ry="3" style="stroke:#038048;stroke-width:1.0;"/><text fill="#000000" font-family="sans-serif" font-size="14" lengthAdjust="spacing" text-decoration="underline" textLength="376" x="1064.5" y="914.7764">createExprGreaterThanEqualToNumber(Expr, int): Expr</text><ellipse cx="1055.5" cy="927.7266" fill="#84BE84" rx="3" ry="3" style="stroke:#038048;stroke-width:1.0;"/><text fill="#000000" font-family="sans-serif" font-size="14" lengthAdjust="spacing" text-decoration="underline" textLength="303" x="1064.5" y="931.0732">createExprGreaterToNumber(Expr, int): Expr</text><ellipse cx="1055.5" cy="944.0234" fill="#84BE84" rx="3" ry="3" style="stroke:#038048;stroke-width:1.0;"/><text fill="#000000" font-family="sans-serif" font-size="14" lengthAdjust="spacing" text-decoration="underline" textLength="450" x="1064.5" y="947.3701">addBijectionFilteredExprHappensBefore(Module, Expr, Expr): Expr</text><ellipse cx="1055.5" cy="960.3203" fill="#84BE84" rx="3" ry="3" style="stroke:#038048;stroke-width:1.0;"/><text fill="#000000" font-family="sans-serif" font-size="14" lengthAdjust="spacing" text-decoration="underline" textLength="451" x="1064.5" y="963.667">addFunctionFilteredExprHappensBefore(Module, Expr, Expr): Expr</text><ellipse cx="1055.5" cy="976.6172" fill="#84BE84" rx="3" ry="3" style="stroke:#038048;stroke-width:1.0;"/><text fill="#000000" font-family="sans-serif" font-size="14" lengthAdjust="spacing" text-decoration="underline" textLength="501" x="1064.5" y="979.9639">addInverseFunctionFilteredExprHappensBefore(Module, Expr, Expr): Expr</text><ellipse cx="1055.5" cy="992.9141" fill="#84BE84" rx="3" ry="3" style="stroke:#038048;stroke-width:1.0;"/><text fill="#000000" font-family="sans-serif" font-size="14" lengthAdjust="spacing" text-decoration="underline" textLength="190" x="1064.5" y="996.2607">addExprs(List&lt;Expr&gt;): Expr</text><ellipse cx="1055.5" cy="1009.2109" fill="#84BE84" rx="3" ry="3" style="stroke:#038048;stroke-width:1.0;"/><text fill="#000000" font-family="sans-serif" font-size="14" lengthAdjust="spacing" text-decoration="underline" textLength="191" x="1064.5" y="1012.5576">addToExpr(Expr, Expr): Expr</text><ellipse cx="1055.5" cy="1025.5078" fill="#84BE84" rx="3" ry="3" style="stroke:#038048;stroke-width:1.0;"/><text fill="#000000" font-family="sans-serif" font-size="14" lengthAdjust="spacing" text-decoration="underline" textLength="276" x="1064.5" y="1028.8545">addNonZeroDurationOnly(Module): Expr</text><ellipse cx="1055.5" cy="1041.8047" fill="#84BE84" rx="3" ry="3" style="stroke:#038048;stroke-width:1.0;"/><text fill="#000000" font-family="sans-serif" font-size="14" lengthAdjust="spacing" text-decoration="underline" textLength="287" x="1064.5" y="1045.1514">addSuppressTransfersExpr(Module): Expr</text><ellipse cx="1055.5" cy="1058.1016" fill="#84BE84" rx="3" ry="3" style="stroke:#038048;stroke-width:1.0;"/><text fill="#000000" font-family="sans-serif" font-size="14" lengthAdjust="spacing" text-decoration="underline" textLength="236" x="1064.5" y="1061.4482">addSuppressIOExpr(Module): Expr</text><ellipse cx="1055.5" cy="1074.3984" fill="#84BE84" rx="3" ry="3" style="stroke:#038048;stroke-width:1.0;"/><text fill="#000000" font-family="sans-serif" font-size="14" lengthAdjust="spacing" text-decoration="underline" textLength="226" x="1064.5" y="1077.7451">onlyOneSigExpr(String, Sig): Expr</text><ellipse cx="1055.5" cy="1090.6953" fill="#84BE84" rx="3" ry="3" style="stroke:#038048;stroke-width:1.0;"/><text fill="#000000" font-family="sans-serif" font-size="14" lengthAdjust="spacing" text-decoration="underline" textLength="274" x="1064.5" y="1094.042">addStep(Module, List&lt;Field&gt;, Sig): Expr</text><ellipse cx="1055.5" cy="1106.9922" fill="#84BE84" rx="3" ry="3" style="stroke:#038048;stroke-width:1.0;"/><text fill="#000000" font-family="sans-serif" font-size="14" lengthAdjust="spacing" text-decoration="underline" textLength="326" x="1064.5" y="1110.3389">addFieldsInStep(Module, List&lt;Field&gt;, Sig): Expr</text><ellipse cx="1055.5" cy="1123.2891" fill="#84BE84" rx="3" ry="3" style="stroke:#038048;stroke-width:1.0;"/><text fill="#000000" font-family="sans-serif" font-size="14" lengthAdjust="spacing" text-decoration="underline" textLength="334" x="1064.5" y="1126.6357">addStepsInFields(Module, List&lt;Field&gt;, Sig): Expr</text><ellipse cx="1055.5" cy="1139.5859" fill="#84BE84" rx="3" ry="3" style="stroke:#038048;stroke-width:1.0;"/><text fill="#000000" font-family="sans-serif" font-size="14" lengthAdjust="spacing" text-decoration="underline" textLength="437" x="1064.5" y="1142.9326">createConstraintExpr(Module, Sig, List&lt;Field&gt;, List&lt;Sig&gt;): Expr</text><ellipse cx="1055.5" cy="1155.8828" fill="#84BE84" rx="3" ry="3" style="stroke:#038048;stroke-width:1.0;"/><text fill="#000000" font-family="sans-serif" font-size="14" lengthAdjust="spacing" text-decoration="underline" textLength="383" x="1064.5" y="1159.2295">forkHappensBefore(Module, Sig, Field, Field, Field): Expr</text><ellipse cx="1055.5" cy="1172.1797" fill="#84BE84" rx="3" ry="3" style="stroke:#038048;stroke-width:1.0;"/><text fill="#000000" font-family="sans-serif" font-size="14" lengthAdjust="spacing" text-decoration="underline" textLength="427" x="1064.5" y="1175.5264">decisionHappensBefore(Module, Sig, Field, Field, Field...): Expr</text><ellipse cx="1055.5" cy="1188.4766" fill="#84BE84" rx="3" ry="3" style="stroke:#038048;stroke-width:1.0;"/><text fill="#000000" font-family="sans-serif" font-size="14" lengthAdjust="spacing" text-decoration="underline" textLength="387" x="1064.5" y="1191.8232">loopHappensBefore(Module, Sig, Field, Field, Field): Expr</text></g></a><text fill="#888888" font-family="sans-serif" font-size="10" lengthAdjust="spacing" textLength="186" x="697.5" y="1434.2822">UMLDoclet 2.1.1, PlantUML 1.2023.12</text><!--SRC=[jLXRRzis57xlhz3B01Kr17IFmH0WSUB5G1CNiTCL2_90IySs5udKI2ghL-I_zv3KrRh7Ze74bdI-ZuVdJZcEuqXG-1SJGHGNpjdPXmzuquc9_qosu42GU5kYmDzvMoMenzUHfmHXCjJY7Wb3ldT-Mep- -26Hqlb6PK92-Z-86mXZ4CxZu-4jRwUYyEa9iKxfyrCgegZ_wdnAuW2NVJ3_0tVDUGY4VJnpNZWDMY0x8ZDv54mXBR9RO80xXaAjlwZQtS4FDIKnMTEGghqxLoYp3k6F9TsUJvmfZoB2WcubhDv8wtRBrHNu_gRrwZodehdbGHB28UprqDSNEWJk4_QWQ2ZHqPNhFY-BXBcevSIXJ4sSBrIgLEdh7x7erXYXtots03PmnmL-oDhDswxiUT26QHHpeOoyjQyxeyR8g7Dixmn6BZ4XsNO8La34Ns29YkyAbFtHWdZ180Y-4W5C5OY-b58p2c4m4pn2GwQmYVDLK7sDUFDu6FfoRwvM-nX64iKehCqqIvZV4iCj0EAhGG1K5SNJ89F3rz1nvLuA_f_KsJbnShls0HSitAzsLCwOsvyN5GIQIxfvQ0y0ZW6G840xt0FnTtf3skVM5gLiwhLa6MxScdEOtCnjr1CxZLeKeKwtNPikWuVvys3h3nB45MmeWw14CTWCMGJsy0qWoHaiGew8vmFevVwEH50tPMUTqKcCQQSePtMaVjARimOhH-LjhhXEu97fUC62kPAPpj8TLFflhxAwd_xgA_febgb6pjaDnIuh_DtUDJTmAHCYvkAyfzbaVQPlDJEURK1OG_HuR4VY69YyX0qNqEcZLF8gqUxib9Gy4Jx8JXb515gbMqOcQnnE5Iw74qrqZvkOSR4SGDu8N0rOaSgB3GvFTeqUIMioozgzrTGVcCbTbIWJixoDmf-C_xD-N7s4MgmgZdURazK8GXJZ_0wzWWlVr_KK1TBUMvTu0P7rJXJJ-LEJmUUcYcNHhWjYLSWNWEhWVSp7Yo1OyGnIR_sDYXHuETtHC5XihERDTCDPx02axxn1AQ8nsZuajKzRxzOsccyPUZt8xBI49ZCLSfeg5zGNhP8wC7D9VT5e-Zb3FILaXH1dKam326xArI4pPdbBfaVReRjrToTQuV4f- -vOvHqtyCwQNz9_uBrKNoRhPRKUDl9qUQzS6EULsdSKrNZmKKitn-00uqvCWHyH7QVWh8N4YUbw8qpJVYCY7SLxGaqFENWaucmQ5UMftWzCLTIZfJaDjRAXs9I8W3AYtyHS_viGF70nYKqI9xSLjoS5evRvQGxn0uZ-D9OGgnrXnt4QT4NOVBM9BnZKbwgQjntF-9p52Owsjjaq2ImIrIc1AgGSGnVLIgUa8o1B1R6qPZ4jp7JAyuwWJ4_HUK-r9a_ljW_4EjIp8Jp_FM0CjzFhzG-20v2Dm6pXiYkj5MknMp01Fa8l9cp5AoHfE7SWqKPfd9NNxN-hOMFehT2LeFxplepMFUaG__ZKmc1TfNTbmXxpDudMOBCtSrd7dWluOVeTppII06rHAuDQl58AywDhfUBrEFMW_f-4jALVdOJRbcWpZvlviHUGXlg89Uuu-ni4nvmZMdtzJgeudNT3bqaS2v0oEz98i_P8y7mn6CLHDymlJ8R3ej2_6fQywWiVaqpdmz16LixPSIocxCwP9NiZJLQFiovLibrQAYfyvLTR7QmOdi_DiLhhdKLhwU0BmASIWsaSf-TvtRGXv_5nQgOjwjNyz_7K2CBPSAw_7cw_N74_1ENyxdtsFkF1CIHCuLtdDvtV-cNPnry0]--></g></svg>