<?xml version="1.0" encoding="us-ascii" standalone="no"?><svg xmlns="http://www.w3.org/2000/svg" xmlns:xlink="http://www.w3.org/1999/xlink" contentStyleType="text/css" height="1428px" preserveAspectRatio="none" style="width:1514px;height:1428px;background:#FFFFFF;" version="1.1" viewBox="0 0 1514 1428" width="1514px" zoomAndPan="magnify"><defs/><g><!--cluster edu.gatech.gtri.obm.translator.alloy--><g id="cluster_edu.gatech.gtri.obm.translator.alloy"><path d="M8.5,6 L292.5,6 A3.75,3.75 0 0 1 295,8.5 L302,28.2969 L1504.5,28.2969 A2.5,2.5 0 0 1 1507,30.7969 L1507,1400.5 A2.5,2.5 0 0 1 1504.5,1403 L8.5,1403 A2.5,2.5 0 0 1 6,1400.5 L6,8.5 A2.5,2.5 0 0 1 8.5,6 " fill="none" style="stroke:#000000;stroke-width:1.5;"/><line style="stroke:#000000;stroke-width:1.5;" x1="6" x2="302" y1="28.2969" y2="28.2969"/><text fill="#000000" font-family="sans-serif" font-size="14" font-weight="bold" lengthAdjust="spacing" textLength="283" x="10" y="20.9951">edu.gatech.gtri.obm.translator.alloy</text></g><!--class Alloy--><a href="Alloy.html" target="_top" title="Alloy.html" xlink:actuate="onRequest" xlink:href="Alloy.html" xlink:show="new" xlink:title="Alloy.html" xlink:type="simple"><g id="elem_Alloy"><rect codeLine="5" fill="#F1F1F1" height="846.5469" id="Alloy" rx="2.5" ry="2.5" style="stroke:#181818;stroke-width:0.5;" width="650" x="22" y="41"/><ellipse cx="327.25" cy="57" fill="#ADD1B2" rx="11" ry="11" style="stroke:#181818;stroke-width:1.0;"/><path d="M330.2188,62.6406 Q329.6406,62.9375 329,63.0781 Q328.3594,63.2344 327.6563,63.2344 Q325.1563,63.2344 323.8281,61.5938 Q322.5156,59.9375 322.5156,56.8125 Q322.5156,53.6875 323.8281,52.0313 Q325.1563,50.375 327.6563,50.375 Q328.3594,50.375 329,50.5313 Q329.6563,50.6875 330.2188,50.9844 L330.2188,53.7031 Q329.5938,53.125 329,52.8594 Q328.4063,52.5781 327.7813,52.5781 Q326.4375,52.5781 325.75,53.6563 Q325.0625,54.7188 325.0625,56.8125 Q325.0625,58.9063 325.75,59.9844 Q326.4375,61.0469 327.7813,61.0469 Q328.4063,61.0469 329,60.7813 Q329.5938,60.5 330.2188,59.9219 L330.2188,62.6406 Z " fill="#000000"/><text fill="#000000" font-family="sans-serif" font-size="14" lengthAdjust="spacing" textLength="31" x="347.75" y="61.8467">Alloy</text><line style="stroke:#181818;stroke-width:0.5;" x1="23" x2="671" y1="73" y2="73"/><ellipse cx="33" cy="86.6484" fill="none" rx="3" ry="3" style="stroke:#038048;stroke-width:1.0;"/><text fill="#000000" font-family="sans-serif" font-size="14" lengthAdjust="spacing" text-decoration="underline" textLength="164" x="42" y="89.9951">transferModule: Module</text><ellipse cx="33" cy="102.9453" fill="none" rx="3" ry="3" style="stroke:#038048;stroke-width:1.0;"/><text fill="#000000" font-family="sans-serif" font-size="14" lengthAdjust="spacing" text-decoration="underline" textLength="150" x="42" y="106.292">happensBefore: Func</text><ellipse cx="33" cy="119.2422" fill="none" rx="3" ry="3" style="stroke:#038048;stroke-width:1.0;"/><text fill="#000000" font-family="sans-serif" font-size="14" lengthAdjust="spacing" text-decoration="underline" textLength="150" x="42" y="122.5889">happensDuring: Func</text><ellipse cx="33" cy="135.5391" fill="none" rx="3" ry="3" style="stroke:#038048;stroke-width:1.0;"/><text fill="#000000" font-family="sans-serif" font-size="14" lengthAdjust="spacing" text-decoration="underline" textLength="99" x="42" y="138.8857">sources: Func</text><ellipse cx="33" cy="151.8359" fill="none" rx="3" ry="3" style="stroke:#038048;stroke-width:1.0;"/><text fill="#000000" font-family="sans-serif" font-size="14" lengthAdjust="spacing" text-decoration="underline" textLength="92" x="42" y="155.1826">targets: Func</text><ellipse cx="33" cy="168.1328" fill="none" rx="3" ry="3" style="stroke:#038048;stroke-width:1.0;"/><text fill="#000000" font-family="sans-serif" font-size="14" lengthAdjust="spacing" text-decoration="underline" textLength="257" x="42" y="171.4795">subsettingItemRuleForSources: Func</text><ellipse cx="33" cy="184.4297" fill="none" rx="3" ry="3" style="stroke:#038048;stroke-width:1.0;"/><text fill="#000000" font-family="sans-serif" font-size="14" lengthAdjust="spacing" text-decoration="underline" textLength="253" x="42" y="187.7764">subsettingItemRuleForTargets: Func</text><ellipse cx="33" cy="200.7266" fill="none" rx="3" ry="3" style="stroke:#038048;stroke-width:1.0;"/><text fill="#000000" font-family="sans-serif" font-size="14" lengthAdjust="spacing" text-decoration="underline" textLength="135" x="42" y="204.0732">isAfterSource: Func</text><ellipse cx="33" cy="217.0234" fill="none" rx="3" ry="3" style="stroke:#038048;stroke-width:1.0;"/><text fill="#000000" font-family="sans-serif" font-size="14" lengthAdjust="spacing" text-decoration="underline" textLength="145" x="42" y="220.3701">isBeforeTarget: Func</text><ellipse cx="33" cy="233.3203" fill="none" rx="3" ry="3" style="stroke:#038048;stroke-width:1.0;"/><text fill="#000000" font-family="sans-serif" font-size="14" lengthAdjust="spacing" text-decoration="underline" textLength="104" x="42" y="236.667">transferSig: Sig</text><ellipse cx="33" cy="249.6172" fill="none" rx="3" ry="3" style="stroke:#038048;stroke-width:1.0;"/><text fill="#000000" font-family="sans-serif" font-size="14" lengthAdjust="spacing" text-decoration="underline" textLength="150" x="42" y="252.9639">transferBeforeSig: Sig</text><line style="stroke:#181818;stroke-width:0.5;" x1="23" x2="671" y1="260.2656" y2="260.2656"/><ellipse cx="33" cy="273.9141" fill="#84BE84" rx="3" ry="3" style="stroke:#038048;stroke-width:1.0;"/><text fill="#000000" font-family="sans-serif" font-size="14" lengthAdjust="spacing" textLength="81" x="42" y="277.2607">Alloy(String)</text><ellipse cx="33" cy="290.2109" fill="#84BE84" rx="3" ry="3" style="stroke:#038048;stroke-width:1.0;"/><text fill="#000000" font-family="sans-serif" font-size="14" lengthAdjust="spacing" textLength="201" x="42" y="293.5576">getTransferModule(): Module</text><ellipse cx="33" cy="306.5078" fill="#84BE84" rx="3" ry="3" style="stroke:#038048;stroke-width:1.0;"/><text fill="#000000" font-family="sans-serif" font-size="14" lengthAdjust="spacing" textLength="209" x="42" y="309.8545">getTemplateModule(): Module</text><ellipse cx="33" cy="322.8047" fill="#84BE84" rx="3" ry="3" style="stroke:#038048;stroke-width:1.0;"/><text fill="#000000" font-family="sans-serif" font-size="14" lengthAdjust="spacing" textLength="141" x="42" y="326.1514">getOccSig(): PrimSig</text><ellipse cx="33" cy="339.1016" fill="#84BE84" rx="3" ry="3" style="stroke:#038048;stroke-width:1.0;"/><text fill="#000000" font-family="sans-serif" font-size="14" lengthAdjust="spacing" textLength="148" x="42" y="342.4482">getOverAllFact(): Expr</text><ellipse cx="33" cy="355.3984" fill="#84BE84" rx="3" ry="3" style="stroke:#038048;stroke-width:1.0;"/><text fill="#000000" font-family="sans-serif" font-size="14" lengthAdjust="spacing" textLength="154" x="42" y="358.7451">getAllSigs(): List&lt;Sig&gt;</text><ellipse cx="33" cy="371.6953" fill="#84BE84" rx="3" ry="3" style="stroke:#038048;stroke-width:1.0;"/><text fill="#000000" font-family="sans-serif" font-size="14" lengthAdjust="spacing" textLength="350" x="42" y="375.042">createSigAndAddToAllSigs(String, PrimSig): PrimSig</text><ellipse cx="33" cy="387.9922" fill="#84BE84" rx="3" ry="3" style="stroke:#038048;stroke-width:1.0;"/><text fill="#000000" font-family="sans-serif" font-size="14" lengthAdjust="spacing" textLength="405" x="42" y="391.3389">createSigAsChildOfOccSigAndAddToAllSigs(String): PrimSig</text><ellipse cx="33" cy="404.2891" fill="#84BE84" rx="3" ry="3" style="stroke:#038048;stroke-width:1.0;"/><text fill="#000000" font-family="sans-serif" font-size="14" lengthAdjust="spacing" textLength="455" x="42" y="407.6357">createSigAsChildOfParentSigAddToAllSigs(String, PrimSig): PrimSig</text><ellipse cx="33" cy="420.5859" fill="#84BE84" rx="3" ry="3" style="stroke:#038048;stroke-width:1.0;"/><text fill="#000000" font-family="sans-serif" font-size="14" lengthAdjust="spacing" textLength="196" x="42" y="423.9326">addToOverallFact(Expr): void</text><ellipse cx="33" cy="436.8828" fill="#84BE84" rx="3" ry="3" style="stroke:#038048;stroke-width:1.0;"/><text fill="#000000" font-family="sans-serif" font-size="14" lengthAdjust="spacing" textLength="192" x="42" y="440.2295">getIgnoredSigs(): Set&lt;Sig&gt;</text><ellipse cx="33" cy="453.1797" fill="#84BE84" rx="3" ry="3" style="stroke:#038048;stroke-width:1.0;"/><text fill="#000000" font-family="sans-serif" font-size="14" lengthAdjust="spacing" textLength="210" x="42" y="456.5264">getIgnoredExprs(): Set&lt;Expr&gt;</text><ellipse cx="33" cy="469.4766" fill="#84BE84" rx="3" ry="3" style="stroke:#038048;stroke-width:1.0;"/><text fill="#000000" font-family="sans-serif" font-size="14" lengthAdjust="spacing" textLength="218" x="42" y="472.8232">getIgnoredFuncs(): Set&lt;Func&gt;</text><ellipse cx="33" cy="485.7734" fill="#84BE84" rx="3" ry="3" style="stroke:#038048;stroke-width:1.0;"/><text fill="#000000" font-family="sans-serif" font-size="14" lengthAdjust="spacing" textLength="604" x="42" y="489.1201">createInverseFunctionFilteredHappensBeforeAndAddToOverallFact(Sig, Expr, Expr): void</text><ellipse cx="33" cy="502.0703" fill="#84BE84" rx="3" ry="3" style="stroke:#038048;stroke-width:1.0;"/><text fill="#000000" font-family="sans-serif" font-size="14" lengthAdjust="spacing" textLength="624" x="42" y="505.417">createInverseFunctionFilteredHappensBeforeAndAddToOverallFact(Sig, Expr[], Expr[]): void</text><ellipse cx="33" cy="518.3672" fill="#84BE84" rx="3" ry="3" style="stroke:#038048;stroke-width:1.0;"/><text fill="#000000" font-family="sans-serif" font-size="14" lengthAdjust="spacing" textLength="554" x="42" y="521.7139">createFunctionFilteredHappensBeforeAndAddToOverallFact(Sig, Expr, Expr): void</text><ellipse cx="33" cy="534.6641" fill="#84BE84" rx="3" ry="3" style="stroke:#038048;stroke-width:1.0;"/><text fill="#000000" font-family="sans-serif" font-size="14" lengthAdjust="spacing" textLength="574" x="42" y="538.0107">createFunctionFilteredHappensBeforeAndAddToOverallFact(Sig, Expr[], Expr[]): void</text><ellipse cx="33" cy="550.9609" fill="#84BE84" rx="3" ry="3" style="stroke:#038048;stroke-width:1.0;"/><text fill="#000000" font-family="sans-serif" font-size="14" lengthAdjust="spacing" textLength="553" x="42" y="554.3076">createBijectionFilteredHappensBeforeAndAddToOverallFact(Sig, Expr, Expr): void</text><ellipse cx="33" cy="567.2578" fill="#84BE84" rx="3" ry="3" style="stroke:#038048;stroke-width:1.0;"/><text fill="#000000" font-family="sans-serif" font-size="14" lengthAdjust="spacing" textLength="362" x="42" y="570.6045">createSubSettingItemRuleOverallFact(Sig, Expr): void</text><ellipse cx="33" cy="583.5547" fill="#84BE84" rx="3" ry="3" style="stroke:#038048;stroke-width:1.0;"/><text fill="#000000" font-family="sans-serif" font-size="14" lengthAdjust="spacing" textLength="419" x="42" y="586.9014">createIsAfterSourceIsBeforeTargetOverallFact(Sig, Expr): void</text><ellipse cx="33" cy="599.8516" fill="#84BE84" rx="3" ry="3" style="stroke:#038048;stroke-width:1.0;"/><text fill="#000000" font-family="sans-serif" font-size="14" lengthAdjust="spacing" textLength="317" x="42" y="603.1982">createIsAfterSourceOverallFact(Sig, Expr): void</text><ellipse cx="33" cy="616.1484" fill="#84BE84" rx="3" ry="3" style="stroke:#038048;stroke-width:1.0;"/><text fill="#000000" font-family="sans-serif" font-size="14" lengthAdjust="spacing" textLength="327" x="42" y="619.4951">createIsBeforeTargetOverallFact(Sig, Expr): void</text><ellipse cx="33" cy="632.4453" fill="#84BE84" rx="3" ry="3" style="stroke:#038048;stroke-width:1.0;"/><text fill="#000000" font-family="sans-serif" font-size="14" lengthAdjust="spacing" textLength="538" x="42" y="635.792">createInverseFunctionFilteredAndAddToOverallFact(Sig, Expr, Expr, Func): void</text><ellipse cx="33" cy="648.7422" fill="#84BE84" rx="3" ry="3" style="stroke:#038048;stroke-width:1.0;"/><text fill="#000000" font-family="sans-serif" font-size="14" lengthAdjust="spacing" textLength="488" x="42" y="652.0889">createFunctionFilteredAndAddToOverallFact(Sig, Expr, Expr, Func): void</text><ellipse cx="33" cy="665.0391" fill="#84BE84" rx="3" ry="3" style="stroke:#038048;stroke-width:1.0;"/><text fill="#000000" font-family="sans-serif" font-size="14" lengthAdjust="spacing" textLength="433" x="42" y="668.3857">createBijectionFilteredToOverallFact(Sig, Expr, Expr, Func): void</text><ellipse cx="33" cy="681.3359" fill="#84BE84" rx="3" ry="3" style="stroke:#038048;stroke-width:1.0;"/><text fill="#000000" font-family="sans-serif" font-size="14" lengthAdjust="spacing" textLength="613" x="42" y="684.6826">createBijectionFilteredHappensBeforeAndAddToOverallFact(ExprVar, Sig, Expr, Expr): void</text><ellipse cx="33" cy="697.6328" fill="#84BE84" rx="3" ry="3" style="stroke:#038048;stroke-width:1.0;"/><text fill="#000000" font-family="sans-serif" font-size="14" lengthAdjust="spacing" textLength="205" x="42" y="700.9795">getCommonCmdExprs(): Expr</text><ellipse cx="33" cy="713.9297" fill="#84BE84" rx="3" ry="3" style="stroke:#038048;stroke-width:1.0;"/><text fill="#000000" font-family="sans-serif" font-size="14" lengthAdjust="spacing" textLength="191" x="42" y="717.2764">addToNameExpr(Expr): void</text><ellipse cx="33" cy="730.2266" fill="#84BE84" rx="3" ry="3" style="stroke:#038048;stroke-width:1.0;"/><text fill="#000000" font-family="sans-serif" font-size="14" lengthAdjust="spacing" textLength="388" x="42" y="733.5732">addCardinalityEqualConstraintToField(Sig, Field, int): void</text><ellipse cx="33" cy="746.5234" fill="#84BE84" rx="3" ry="3" style="stroke:#038048;stroke-width:1.0;"/><text fill="#000000" font-family="sans-serif" font-size="14" lengthAdjust="spacing" textLength="475" x="42" y="749.8701">addCardinalityGreaterThanEqualConstraintToField(Sig, Field, int): void</text><ellipse cx="33" cy="762.8203" fill="#84BE84" rx="3" ry="3" style="stroke:#038048;stroke-width:1.0;"/><text fill="#000000" font-family="sans-serif" font-size="14" lengthAdjust="spacing" textLength="212" x="42" y="766.167">addEqual(Sig, Field, Field): void</text><ellipse cx="33" cy="779.1172" fill="#84BE84" rx="3" ry="3" style="stroke:#038048;stroke-width:1.0;"/><text fill="#000000" font-family="sans-serif" font-size="14" lengthAdjust="spacing" textLength="344" x="42" y="782.4639">addOneConstraintToField(ExprVar, Sig, Field): void</text><ellipse cx="33" cy="795.4141" fill="#84BE84" rx="3" ry="3" style="stroke:#038048;stroke-width:1.0;"/><text fill="#000000" font-family="sans-serif" font-size="14" lengthAdjust="spacing" textLength="129" x="42" y="798.7607">noInputs(Sig): void</text><ellipse cx="33" cy="811.7109" fill="#84BE84" rx="3" ry="3" style="stroke:#038048;stroke-width:1.0;"/><text fill="#000000" font-family="sans-serif" font-size="14" lengthAdjust="spacing" textLength="142" x="42" y="815.0576">noOutputs(Sig): void</text><ellipse cx="33" cy="828.0078" fill="#84BE84" rx="3" ry="3" style="stroke:#038048;stroke-width:1.0;"/><text fill="#000000" font-family="sans-serif" font-size="14" lengthAdjust="spacing" textLength="237" x="42" y="831.3545">addInputs(ExprVar, Sig, Field): void</text><ellipse cx="33" cy="844.3047" fill="#84BE84" rx="3" ry="3" style="stroke:#038048;stroke-width:1.0;"/><text fill="#000000" font-family="sans-serif" font-size="14" lengthAdjust="spacing" textLength="250" x="42" y="847.6514">addOutputs(ExprVar, Sig, Field): void</text><ellipse cx="33" cy="860.6016" fill="#84BE84" rx="3" ry="3" style="stroke:#038048;stroke-width:1.0;"/><text fill="#000000" font-family="sans-serif" font-size="14" lengthAdjust="spacing" textLength="229" x="42" y="863.9482">addSteps(Sig, Set&lt;String&gt;): void</text><ellipse cx="33" cy="876.8984" fill="#84BE84" rx="3" ry="3" style="stroke:#038048;stroke-width:1.0;"/><text fill="#000000" font-family="sans-serif" font-size="14" lengthAdjust="spacing" textLength="270" x="42" y="880.2451">createCommand(String, int): Command</text></g></a><!--class AlloyUtils--><a href="AlloyUtils.html" target="_top" title="AlloyUtils.html" xlink:actuate="onRequest" xlink:href="AlloyUtils.html" xlink:show="new" xlink:title="AlloyUtils.html" xlink:type="simple"><g id="elem_AlloyUtils"><rect codeLine="57" fill="#F1F1F1" height="455.4219" id="AlloyUtils" rx="2.5" ry="2.5" style="stroke:#181818;stroke-width:0.5;" width="429" x="707.5" y="237"/><ellipse cx="887.75" cy="253" fill="#ADD1B2" rx="11" ry="11" style="stroke:#181818;stroke-width:1.0;"/><path d="M890.7188,258.6406 Q890.1406,258.9375 889.5,259.0781 Q888.8594,259.2344 888.1563,259.2344 Q885.6563,259.2344 884.3281,257.5938 Q883.0156,255.9375 883.0156,252.8125 Q883.0156,249.6875 884.3281,248.0313 Q885.6563,246.375 888.1563,246.375 Q888.8594,246.375 889.5,246.5313 Q890.1563,246.6875 890.7188,246.9844 L890.7188,249.7031 Q890.0938,249.125 889.5,248.8594 Q888.9063,248.5781 888.2813,248.5781 Q886.9375,248.5781 886.25,249.6563 Q885.5625,250.7188 885.5625,252.8125 Q885.5625,254.9063 886.25,255.9844 Q886.9375,257.0469 888.2813,257.0469 Q888.9063,257.0469 889.5,256.7813 Q890.0938,256.5 890.7188,255.9219 L890.7188,258.6406 Z " fill="#000000"/><text fill="#000000" font-family="sans-serif" font-size="14" lengthAdjust="spacing" textLength="60" x="908.25" y="257.8467">AlloyUtils</text><line style="stroke:#181818;stroke-width:0.5;" x1="708.5" x2="1135.5" y1="269" y2="269"/><line style="stroke:#181818;stroke-width:0.5;" x1="708.5" x2="1135.5" y1="277" y2="277"/><ellipse cx="718.5" cy="290.6484" fill="#84BE84" rx="3" ry="3" style="stroke:#038048;stroke-width:1.0;"/><text fill="#000000" font-family="sans-serif" font-size="14" lengthAdjust="spacing" text-decoration="underline" textLength="260" x="727.5" y="293.9951">importAlloyModule(File): CompModule</text><ellipse cx="718.5" cy="306.9453" fill="#84BE84" rx="3" ry="3" style="stroke:#038048;stroke-width:1.0;"/><text fill="#000000" font-family="sans-serif" font-size="14" lengthAdjust="spacing" text-decoration="underline" textLength="277" x="727.5" y="310.292">importAlloyModule(String): CompModule</text><ellipse cx="718.5" cy="323.2422" fill="#84BE84" rx="3" ry="3" style="stroke:#038048;stroke-width:1.0;"/><text fill="#000000" font-family="sans-serif" font-size="14" lengthAdjust="spacing" text-decoration="underline" textLength="188" x="727.5" y="326.5889">removeSlash(String): String</text><ellipse cx="718.5" cy="339.5391" fill="#84BE84" rx="3" ry="3" style="stroke:#038048;stroke-width:1.0;"/><text fill="#000000" font-family="sans-serif" font-size="14" lengthAdjust="spacing" text-decoration="underline" textLength="190" x="727.5" y="342.8857">validParent(String): boolean</text><ellipse cx="718.5" cy="355.8359" fill="#84BE84" rx="3" ry="3" style="stroke:#038048;stroke-width:1.0;"/><text fill="#000000" font-family="sans-serif" font-size="14" lengthAdjust="spacing" text-decoration="underline" textLength="261" x="727.5" y="359.1826">getFieldFromSig(String, PrimSig): Field</text><ellipse cx="718.5" cy="372.1328" fill="#84BE84" rx="3" ry="3" style="stroke:#038048;stroke-width:1.0;"/><text fill="#000000" font-family="sans-serif" font-size="14" lengthAdjust="spacing" text-decoration="underline" textLength="344" x="727.5" y="375.4795">getFieldFromSigByFieldType(String, PrimSig): Field</text><ellipse cx="718.5" cy="388.4297" fill="#84BE84" rx="3" ry="3" style="stroke:#038048;stroke-width:1.0;"/><text fill="#000000" font-family="sans-serif" font-size="14" lengthAdjust="spacing" text-decoration="underline" textLength="178" x="727.5" y="391.7764">printAllFunc(Module): void</text><ellipse cx="718.5" cy="404.7266" fill="#84BE84" rx="3" ry="3" style="stroke:#038048;stroke-width:1.0;"/><text fill="#000000" font-family="sans-serif" font-size="14" lengthAdjust="spacing" text-decoration="underline" textLength="173" x="727.5" y="408.0732">printAllFact(Module): void</text><ellipse cx="718.5" cy="421.0234" fill="#84BE84" rx="3" ry="3" style="stroke:#038048;stroke-width:1.0;"/><text fill="#000000" font-family="sans-serif" font-size="14" lengthAdjust="spacing" text-decoration="underline" textLength="215" x="727.5" y="424.3701">getAllCommands(Module): void</text><ellipse cx="718.5" cy="437.3203" fill="#84BE84" rx="3" ry="3" style="stroke:#038048;stroke-width:1.0;"/><text fill="#000000" font-family="sans-serif" font-size="14" lengthAdjust="spacing" text-decoration="underline" textLength="228" x="727.5" y="440.667">printExpr(Browsable, String): void</text><ellipse cx="718.5" cy="453.6172" fill="#84BE84" rx="3" ry="3" style="stroke:#038048;stroke-width:1.0;"/><text fill="#000000" font-family="sans-serif" font-size="14" lengthAdjust="spacing" text-decoration="underline" textLength="184" x="727.5" y="456.9639">printOnlyThisFn(Expr): void</text><ellipse cx="718.5" cy="469.9141" fill="#84BE84" rx="3" ry="3" style="stroke:#038048;stroke-width:1.0;"/><text fill="#000000" font-family="sans-serif" font-size="14" lengthAdjust="spacing" text-decoration="underline" textLength="234" x="727.5" y="473.2607">printOnlyThisSigs(List&lt;Sig&gt;): void</text><ellipse cx="718.5" cy="486.2109" fill="#84BE84" rx="3" ry="3" style="stroke:#038048;stroke-width:1.0;"/><text fill="#000000" font-family="sans-serif" font-size="14" lengthAdjust="spacing" text-decoration="underline" textLength="175" x="727.5" y="489.5576">printSigs(List&lt;Sig&gt;): void</text><ellipse cx="718.5" cy="502.5078" fill="#84BE84" rx="3" ry="3" style="stroke:#038048;stroke-width:1.0;"/><text fill="#000000" font-family="sans-serif" font-size="14" lengthAdjust="spacing" text-decoration="underline" textLength="309" x="727.5" y="505.8545">addAllReachableSig(Module, List&lt;Sig&gt;): void</text><ellipse cx="718.5" cy="518.8047" fill="#84BE84" rx="3" ry="3" style="stroke:#038048;stroke-width:1.0;"/><text fill="#000000" font-family="sans-serif" font-size="14" lengthAdjust="spacing" text-decoration="underline" textLength="328" x="727.5" y="522.1514">getReachableSigField(Module, Sig, String): Field</text><ellipse cx="718.5" cy="535.1016" fill="#84BE84" rx="3" ry="3" style="stroke:#038048;stroke-width:1.0;"/><text fill="#000000" font-family="sans-serif" font-size="14" lengthAdjust="spacing" text-decoration="underline" textLength="256" x="727.5" y="538.4482">getReachableSig(Module, String): Sig</text><ellipse cx="718.5" cy="551.3984" fill="#84BE84" rx="3" ry="3" style="stroke:#038048;stroke-width:1.0;"/><text fill="#000000" font-family="sans-serif" font-size="14" lengthAdjust="spacing" text-decoration="underline" textLength="231" x="727.5" y="554.7451">printReachableSigs(Module): void</text><ellipse cx="718.5" cy="567.6953" fill="#84BE84" rx="3" ry="3" style="stroke:#038048;stroke-width:1.0;"/><text fill="#000000" font-family="sans-serif" font-size="14" lengthAdjust="spacing" text-decoration="underline" textLength="403" x="727.5" y="571.042">addAllReachableUserDefinedSigs(Module, List&lt;Sig&gt;): void</text><ellipse cx="718.5" cy="583.9922" fill="#84BE84" rx="3" ry="3" style="stroke:#038048;stroke-width:1.0;"/><text fill="#000000" font-family="sans-serif" font-size="14" lengthAdjust="spacing" text-decoration="underline" textLength="332" x="727.5" y="587.3389">printAllReachableUserDefinedSigs(Module): void</text><ellipse cx="718.5" cy="600.2891" fill="#84BE84" rx="3" ry="3" style="stroke:#038048;stroke-width:1.0;"/><text fill="#000000" font-family="sans-serif" font-size="14" lengthAdjust="spacing" text-decoration="underline" textLength="261" x="727.5" y="603.6357">printReachableModules(Module): void</text><ellipse cx="718.5" cy="616.5859" fill="#84BE84" rx="3" ry="3" style="stroke:#038048;stroke-width:1.0;"/><text fill="#000000" font-family="sans-serif" font-size="14" lengthAdjust="spacing" text-decoration="underline" textLength="388" x="727.5" y="619.9326">getAllReachableModuleByName(Module, String): Module</text><ellipse cx="718.5" cy="632.8828" fill="#84BE84" rx="3" ry="3" style="stroke:#038048;stroke-width:1.0;"/><text fill="#000000" font-family="sans-serif" font-size="14" lengthAdjust="spacing" text-decoration="underline" textLength="235" x="727.5" y="636.2295">getFunction(Module, String): Func</text><ellipse cx="718.5" cy="649.1797" fill="#84BE84" rx="3" ry="3" style="stroke:#038048;stroke-width:1.0;"/><text fill="#000000" font-family="sans-serif" font-size="14" lengthAdjust="spacing" text-decoration="underline" textLength="203" x="727.5" y="652.5264">printAllFuctions(Module): void</text><ellipse cx="718.5" cy="665.4766" fill="#84BE84" rx="3" ry="3" style="stroke:#038048;stroke-width:1.0;"/><text fill="#000000" font-family="sans-serif" font-size="14" lengthAdjust="spacing" text-decoration="underline" textLength="254" x="727.5" y="668.8232">printAllReachableFacts(Module): void</text><ellipse cx="718.5" cy="681.7734" fill="#84BE84" rx="3" ry="3" style="stroke:#038048;stroke-width:1.0;"/><text fill="#000000" font-family="sans-serif" font-size="14" lengthAdjust="spacing" text-decoration="underline" textLength="249" x="727.5" y="685.1201">printExprAndItsFunctions(Expr): void</text></g></a><!--class AlloyRunUtils--><a href="AlloyRunUtils.html" target="_top" title="AlloyRunUtils.html" xlink:actuate="onRequest" xlink:href="AlloyRunUtils.html" xlink:show="new" xlink:title="AlloyRunUtils.html" xlink:type="simple"><g id="elem_AlloyRunUtils"><rect codeLine="85" fill="#F1F1F1" height="96.8906" id="AlloyRunUtils" rx="2.5" ry="2.5" style="stroke:#181818;stroke-width:0.5;" width="319" x="1171.5" y="416"/><ellipse cx="1282.75" cy="432" fill="#ADD1B2" rx="11" ry="11" style="stroke:#181818;stroke-width:1.0;"/><path d="M1285.7188,437.6406 Q1285.1406,437.9375 1284.5,438.0781 Q1283.8594,438.2344 1283.1563,438.2344 Q1280.6563,438.2344 1279.3281,436.5938 Q1278.0156,434.9375 1278.0156,431.8125 Q1278.0156,428.6875 1279.3281,427.0313 Q1280.6563,425.375 1283.1563,425.375 Q1283.8594,425.375 1284.5,425.5313 Q1285.1563,425.6875 1285.7188,425.9844 L1285.7188,428.7031 Q1285.0938,428.125 1284.5,427.8594 Q1283.9063,427.5781 1283.2813,427.5781 Q1281.9375,427.5781 1281.25,428.6563 Q1280.5625,429.7188 1280.5625,431.8125 Q1280.5625,433.9063 1281.25,434.9844 Q1281.9375,436.0469 1283.2813,436.0469 Q1283.9063,436.0469 1284.5,435.7813 Q1285.0938,435.5 1285.7188,434.9219 L1285.7188,437.6406 Z " fill="#000000"/><text fill="#000000" font-family="sans-serif" font-size="14" lengthAdjust="spacing" textLength="88" x="1303.25" y="436.8467">AlloyRunUtils</text><line style="stroke:#181818;stroke-width:0.5;" x1="1172.5" x2="1489.5" y1="448" y2="448"/><line style="stroke:#181818;stroke-width:0.5;" x1="1172.5" x2="1489.5" y1="456" y2="456"/><ellipse cx="1182.5" cy="469.6484" fill="#84BE84" rx="3" ry="3" style="stroke:#038048;stroke-width:1.0;"/><text fill="#000000" font-family="sans-serif" font-size="14" lengthAdjust="spacing" text-decoration="underline" textLength="230" x="1191.5" y="472.9951">run(Sig, int, List&lt;Sig&gt;, Expr): void</text><ellipse cx="1182.5" cy="485.9453" fill="#84BE84" rx="3" ry="3" style="stroke:#038048;stroke-width:1.0;"/><text fill="#000000" font-family="sans-serif" font-size="14" lengthAdjust="spacing" text-decoration="underline" textLength="293" x="1191.5" y="489.292">runX(Sig, List&lt;Sig&gt;, Expr, Command): void</text><ellipse cx="1182.5" cy="502.2422" fill="#84BE84" rx="3" ry="3" style="stroke:#038048;stroke-width:1.0;"/><text fill="#000000" font-family="sans-serif" font-size="14" lengthAdjust="spacing" text-decoration="underline" textLength="239" x="1191.5" y="505.5889">runX(Sig, int, List&lt;Sig&gt;, Expr): void</text></g></a><!--class MDUtils--><a href="MDUtils.html" target="_top" title="MDUtils.html" xlink:actuate="onRequest" xlink:href="MDUtils.html" xlink:show="new" xlink:title="MDUtils.html" xlink:type="simple"><g id="elem_MDUtils"><rect codeLine="91" fill="#F1F1F1" height="64.2969" id="MDUtils" rx="2.5" ry="2.5" style="stroke:#181818;stroke-width:0.5;" width="302" x="89" y="1135.5"/><ellipse cx="209.75" cy="1151.5" fill="#ADD1B2" rx="11" ry="11" style="stroke:#181818;stroke-width:1.0;"/><path d="M212.7188,1157.1406 Q212.1406,1157.4375 211.5,1157.5781 Q210.8594,1157.7344 210.1563,1157.7344 Q207.6563,1157.7344 206.3281,1156.0938 Q205.0156,1154.4375 205.0156,1151.3125 Q205.0156,1148.1875 206.3281,1146.5313 Q207.6563,1144.875 210.1563,1144.875 Q210.8594,1144.875 211.5,1145.0313 Q212.1563,1145.1875 212.7188,1145.4844 L212.7188,1148.2031 Q212.0938,1147.625 211.5,1147.3594 Q210.9063,1147.0781 210.2813,1147.0781 Q208.9375,1147.0781 208.25,1148.1563 Q207.5625,1149.2188 207.5625,1151.3125 Q207.5625,1153.4063 208.25,1154.4844 Q208.9375,1155.5469 210.2813,1155.5469 Q210.9063,1155.5469 211.5,1155.2813 Q212.0938,1155 212.7188,1154.4219 L212.7188,1157.1406 Z " fill="#000000"/><text fill="#000000" font-family="sans-serif" font-size="14" lengthAdjust="spacing" textLength="52" x="230.25" y="1156.3467">MDUtils</text><line style="stroke:#181818;stroke-width:0.5;" x1="90" x2="390" y1="1167.5" y2="1167.5"/><line style="stroke:#181818;stroke-width:0.5;" x1="90" x2="390" y1="1175.5" y2="1175.5"/><ellipse cx="100" cy="1189.1484" fill="#84BE84" rx="3" ry="3" style="stroke:#038048;stroke-width:1.0;"/><text fill="#000000" font-family="sans-serif" font-size="14" lengthAdjust="spacing" text-decoration="underline" textLength="276" x="109" y="1192.4951">getClassInHierarchy(Class): List&lt;Class&gt;</text></g></a><!--class FuncUtils--><a href="FuncUtils.html" target="_top" title="FuncUtils.html" xlink:actuate="onRequest" xlink:href="FuncUtils.html" xlink:show="new" xlink:title="FuncUtils.html" xlink:type="simple"><g id="elem_FuncUtils"><rect codeLine="95" fill="#F1F1F1" height="439.125" id="FuncUtils" rx="2.5" ry="2.5" style="stroke:#181818;stroke-width:0.5;" width="527" x="426.5" y="948"/><ellipse cx="654.25" cy="964" fill="#ADD1B2" rx="11" ry="11" style="stroke:#181818;stroke-width:1.0;"/><path d="M657.2188,969.6406 Q656.6406,969.9375 656,970.0781 Q655.3594,970.2344 654.6563,970.2344 Q652.1563,970.2344 650.8281,968.5938 Q649.5156,966.9375 649.5156,963.8125 Q649.5156,960.6875 650.8281,959.0313 Q652.1563,957.375 654.6563,957.375 Q655.3594,957.375 656,957.5313 Q656.6563,957.6875 657.2188,957.9844 L657.2188,960.7031 Q656.5938,960.125 656,959.8594 Q655.4063,959.5781 654.7813,959.5781 Q653.4375,959.5781 652.75,960.6563 Q652.0625,961.7188 652.0625,963.8125 Q652.0625,965.9063 652.75,966.9844 Q653.4375,968.0469 654.7813,968.0469 Q655.4063,968.0469 656,967.7813 Q656.5938,967.5 657.2188,966.9219 L657.2188,969.6406 Z " fill="#000000"/><text fill="#000000" font-family="sans-serif" font-size="14" lengthAdjust="spacing" textLength="63" x="674.75" y="968.8467">FuncUtils</text><line style="stroke:#181818;stroke-width:0.5;" x1="427.5" x2="952.5" y1="980" y2="980"/><line style="stroke:#181818;stroke-width:0.5;" x1="427.5" x2="952.5" y1="988" y2="988"/><ellipse cx="437.5" cy="1001.6484" fill="#84BE84" rx="3" ry="3" style="stroke:#038048;stroke-width:1.0;"/><text fill="#000000" font-family="sans-serif" font-size="14" lengthAdjust="spacing" text-decoration="underline" textLength="344" x="446.5" y="1004.9951">getDuringExampleExpr(String, Sig, Field, Sig): Expr</text><ellipse cx="437.5" cy="1017.9453" fill="#84BE84" rx="3" ry="3" style="stroke:#038048;stroke-width:1.0;"/><text fill="#000000" font-family="sans-serif" font-size="14" lengthAdjust="spacing" text-decoration="underline" textLength="249" x="446.5" y="1021.292">exprToFunToExpr(String, Expr): Expr</text><ellipse cx="437.5" cy="1034.2422" fill="#84BE84" rx="3" ry="3" style="stroke:#038048;stroke-width:1.0;"/><text fill="#000000" font-family="sans-serif" font-size="14" lengthAdjust="spacing" text-decoration="underline" textLength="207" x="446.5" y="1037.5889">addField(String, Sig, Sig): Field</text><ellipse cx="437.5" cy="1050.5391" fill="#84BE84" rx="3" ry="3" style="stroke:#038048;stroke-width:1.0;"/><text fill="#000000" font-family="sans-serif" font-size="14" lengthAdjust="spacing" text-decoration="underline" textLength="236" x="446.5" y="1053.8857">addOneField(String, Sig, Sig): Field</text><ellipse cx="437.5" cy="1066.8359" fill="#84BE84" rx="3" ry="3" style="stroke:#038048;stroke-width:1.0;"/><text fill="#000000" font-family="sans-serif" font-size="14" lengthAdjust="spacing" text-decoration="underline" textLength="267" x="446.5" y="1070.1826">addTrickyField(String[], Sig, Sig): Field[]</text><ellipse cx="437.5" cy="1083.1328" fill="#84BE84" rx="3" ry="3" style="stroke:#038048;stroke-width:1.0;"/><text fill="#000000" font-family="sans-serif" font-size="14" lengthAdjust="spacing" text-decoration="underline" textLength="289" x="446.5" y="1086.4795">createExprEqualToNumber(Expr, int): Expr</text><ellipse cx="437.5" cy="1099.4297" fill="#84BE84" rx="3" ry="3" style="stroke:#038048;stroke-width:1.0;"/><text fill="#000000" font-family="sans-serif" font-size="14" lengthAdjust="spacing" text-decoration="underline" textLength="376" x="446.5" y="1102.7764">createExprGreaterThanEqualToNumber(Expr, int): Expr</text><ellipse cx="437.5" cy="1115.7266" fill="#84BE84" rx="3" ry="3" style="stroke:#038048;stroke-width:1.0;"/><text fill="#000000" font-family="sans-serif" font-size="14" lengthAdjust="spacing" text-decoration="underline" textLength="303" x="446.5" y="1119.0732">createExprGreaterToNumber(Expr, int): Expr</text><ellipse cx="437.5" cy="1132.0234" fill="#84BE84" rx="3" ry="3" style="stroke:#038048;stroke-width:1.0;"/><text fill="#000000" font-family="sans-serif" font-size="14" lengthAdjust="spacing" text-decoration="underline" textLength="450" x="446.5" y="1135.3701">addBijectionFilteredExprHappensBefore(Module, Expr, Expr): Expr</text><ellipse cx="437.5" cy="1148.3203" fill="#84BE84" rx="3" ry="3" style="stroke:#038048;stroke-width:1.0;"/><text fill="#000000" font-family="sans-serif" font-size="14" lengthAdjust="spacing" text-decoration="underline" textLength="451" x="446.5" y="1151.667">addFunctionFilteredExprHappensBefore(Module, Expr, Expr): Expr</text><ellipse cx="437.5" cy="1164.6172" fill="#84BE84" rx="3" ry="3" style="stroke:#038048;stroke-width:1.0;"/><text fill="#000000" font-family="sans-serif" font-size="14" lengthAdjust="spacing" text-decoration="underline" textLength="501" x="446.5" y="1167.9639">addInverseFunctionFilteredExprHappensBefore(Module, Expr, Expr): Expr</text><ellipse cx="437.5" cy="1180.9141" fill="#84BE84" rx="3" ry="3" style="stroke:#038048;stroke-width:1.0;"/><text fill="#000000" font-family="sans-serif" font-size="14" lengthAdjust="spacing" text-decoration="underline" textLength="190" x="446.5" y="1184.2607">addExprs(List&lt;Expr&gt;): Expr</text><ellipse cx="437.5" cy="1197.2109" fill="#84BE84" rx="3" ry="3" style="stroke:#038048;stroke-width:1.0;"/><text fill="#000000" font-family="sans-serif" font-size="14" lengthAdjust="spacing" text-decoration="underline" textLength="191" x="446.5" y="1200.5576">addToExpr(Expr, Expr): Expr</text><ellipse cx="437.5" cy="1213.5078" fill="#84BE84" rx="3" ry="3" style="stroke:#038048;stroke-width:1.0;"/><text fill="#000000" font-family="sans-serif" font-size="14" lengthAdjust="spacing" text-decoration="underline" textLength="276" x="446.5" y="1216.8545">addNonZeroDurationOnly(Module): Expr</text><ellipse cx="437.5" cy="1229.8047" fill="#84BE84" rx="3" ry="3" style="stroke:#038048;stroke-width:1.0;"/><text fill="#000000" font-family="sans-serif" font-size="14" lengthAdjust="spacing" text-decoration="underline" textLength="287" x="446.5" y="1233.1514">addSuppressTransfersExpr(Module): Expr</text><ellipse cx="437.5" cy="1246.1016" fill="#84BE84" rx="3" ry="3" style="stroke:#038048;stroke-width:1.0;"/><text fill="#000000" font-family="sans-serif" font-size="14" lengthAdjust="spacing" text-decoration="underline" textLength="236" x="446.5" y="1249.4482">addSuppressIOExpr(Module): Expr</text><ellipse cx="437.5" cy="1262.3984" fill="#84BE84" rx="3" ry="3" style="stroke:#038048;stroke-width:1.0;"/><text fill="#000000" font-family="sans-serif" font-size="14" lengthAdjust="spacing" text-decoration="underline" textLength="226" x="446.5" y="1265.7451">onlyOneSigExpr(String, Sig): Expr</text><ellipse cx="437.5" cy="1278.6953" fill="#84BE84" rx="3" ry="3" style="stroke:#038048;stroke-width:1.0;"/><text fill="#000000" font-family="sans-serif" font-size="14" lengthAdjust="spacing" text-decoration="underline" textLength="274" x="446.5" y="1282.042">addStep(Module, List&lt;Field&gt;, Sig): Expr</text><ellipse cx="437.5" cy="1294.9922" fill="#84BE84" rx="3" ry="3" style="stroke:#038048;stroke-width:1.0;"/><text fill="#000000" font-family="sans-serif" font-size="14" lengthAdjust="spacing" text-decoration="underline" textLength="326" x="446.5" y="1298.3389">addFieldsInStep(Module, List&lt;Field&gt;, Sig): Expr</text><ellipse cx="437.5" cy="1311.2891" fill="#84BE84" rx="3" ry="3" style="stroke:#038048;stroke-width:1.0;"/><text fill="#000000" font-family="sans-serif" font-size="14" lengthAdjust="spacing" text-decoration="underline" textLength="334" x="446.5" y="1314.6357">addStepsInFields(Module, List&lt;Field&gt;, Sig): Expr</text><ellipse cx="437.5" cy="1327.5859" fill="#84BE84" rx="3" ry="3" style="stroke:#038048;stroke-width:1.0;"/><text fill="#000000" font-family="sans-serif" font-size="14" lengthAdjust="spacing" text-decoration="underline" textLength="437" x="446.5" y="1330.9326">createConstraintExpr(Module, Sig, List&lt;Field&gt;, List&lt;Sig&gt;): Expr</text><ellipse cx="437.5" cy="1343.8828" fill="#84BE84" rx="3" ry="3" style="stroke:#038048;stroke-width:1.0;"/><text fill="#000000" font-family="sans-serif" font-size="14" lengthAdjust="spacing" text-decoration="underline" textLength="383" x="446.5" y="1347.2295">forkHappensBefore(Module, Sig, Field, Field, Field): Expr</text><ellipse cx="437.5" cy="1360.1797" fill="#84BE84" rx="3" ry="3" style="stroke:#038048;stroke-width:1.0;"/><text fill="#000000" font-family="sans-serif" font-size="14" lengthAdjust="spacing" text-decoration="underline" textLength="427" x="446.5" y="1363.5264">decisionHappensBefore(Module, Sig, Field, Field, Field...): Expr</text><ellipse cx="437.5" cy="1376.4766" fill="#84BE84" rx="3" ry="3" style="stroke:#038048;stroke-width:1.0;"/><text fill="#000000" font-family="sans-serif" font-size="14" lengthAdjust="spacing" text-decoration="underline" textLength="387" x="446.5" y="1379.8232">loopHappensBefore(Module, Sig, Field, Field, Field): Expr</text></g></a><!--class VisualizerHelper--><a href="VisualizerHelper.html" target="_top" title="VisualizerHelper.html" xlink:actuate="onRequest" xlink:href="VisualizerHelper.html" xlink:show="new" xlink:title="VisualizerHelper.html" xlink:type="simple"><g id="elem_VisualizerHelper"><rect codeLine="122" fill="#F1F1F1" height="162.0781" id="VisualizerHelper" rx="2.5" ry="2.5" style="stroke:#181818;stroke-width:0.5;" width="502" x="989" y="1086.5"/><ellipse cx="1180.75" cy="1102.5" fill="#ADD1B2" rx="11" ry="11" style="stroke:#181818;stroke-width:1.0;"/><path d="M1183.7188,1108.1406 Q1183.1406,1108.4375 1182.5,1108.5781 Q1181.8594,1108.7344 1181.1563,1108.7344 Q1178.6563,1108.7344 1177.3281,1107.0938 Q1176.0156,1105.4375 1176.0156,1102.3125 Q1176.0156,1099.1875 1177.3281,1097.5313 Q1178.6563,1095.875 1181.1563,1095.875 Q1181.8594,1095.875 1182.5,1096.0313 Q1183.1563,1096.1875 1183.7188,1096.4844 L1183.7188,1099.2031 Q1183.0938,1098.625 1182.5,1098.3594 Q1181.9063,1098.0781 1181.2813,1098.0781 Q1179.9375,1098.0781 1179.25,1099.1563 Q1178.5625,1100.2188 1178.5625,1102.3125 Q1178.5625,1104.4063 1179.25,1105.4844 Q1179.9375,1106.5469 1181.2813,1106.5469 Q1181.9063,1106.5469 1182.5,1106.2813 Q1183.0938,1106 1183.7188,1105.4219 L1183.7188,1108.1406 Z " fill="#000000"/><text fill="#000000" font-family="sans-serif" font-size="14" lengthAdjust="spacing" textLength="110" x="1201.25" y="1107.3467">VisualizerHelper</text><line style="stroke:#181818;stroke-width:0.5;" x1="990" x2="1490" y1="1118.5" y2="1118.5"/><line style="stroke:#181818;stroke-width:0.5;" x1="990" x2="1490" y1="1126.5" y2="1126.5"/><ellipse cx="1000" cy="1140.1484" fill="#84BE84" rx="3" ry="3" style="stroke:#038048;stroke-width:1.0;"/><text fill="#000000" font-family="sans-serif" font-size="14" lengthAdjust="spacing" text-decoration="underline" textLength="211" x="1009" y="1143.4951">updateUpdated(boolean): void</text><ellipse cx="1000" cy="1156.4453" fill="#84BE84" rx="3" ry="3" style="stroke:#038048;stroke-width:1.0;"/><text fill="#000000" font-family="sans-serif" font-size="14" lengthAdjust="spacing" text-decoration="underline" textLength="159" x="1009" y="1159.792">hasUpdated(): boolean</text><ellipse cx="1000" cy="1172.7422" fill="#84BE84" rx="3" ry="3" style="stroke:#038048;stroke-width:1.0;"/><text fill="#000000" font-family="sans-serif" font-size="14" lengthAdjust="spacing" text-decoration="underline" textLength="476" x="1009" y="1176.0889">generateVisualizerWithNextCapability(Iterable&lt;Sig&gt;, Command): void</text><ellipse cx="1000" cy="1189.0391" fill="#84BE84" rx="3" ry="3" style="stroke:#038048;stroke-width:1.0;"/><text fill="#000000" font-family="sans-serif" font-size="14" lengthAdjust="spacing" text-decoration="underline" textLength="116" x="1009" y="1192.3857">updateVis(): void</text><ellipse cx="1000" cy="1205.3359" fill="#84BE84" rx="3" ry="3" style="stroke:#038048;stroke-width:1.0;"/><text fill="#000000" font-family="sans-serif" font-size="14" lengthAdjust="spacing" text-decoration="underline" textLength="359" x="1009" y="1208.6826">generateVisualizerX(Iterable&lt;Sig&gt;, Command): void</text><ellipse cx="1000" cy="1221.6328" fill="#84BE84" rx="3" ry="3" style="stroke:#038048;stroke-width:1.0;"/><text fill="#000000" font-family="sans-serif" font-size="14" lengthAdjust="spacing" text-decoration="underline" textLength="350" x="1009" y="1224.9795">generateVisualizer(Iterable&lt;Sig&gt;, Command): void</text><ellipse cx="1000" cy="1237.9297" fill="#84BE84" rx="3" ry="3" style="stroke:#038048;stroke-width:1.0;"/><text fill="#000000" font-family="sans-serif" font-size="14" lengthAdjust="spacing" text-decoration="underline" textLength="226" x="1009" y="1241.2764">generateVisualizer(Module): void</text></g></a><text fill="#888888" font-family="sans-serif" font-size="10" lengthAdjust="spacing" textLength="186" x="657" y="1418.2822">UMLDoclet 2.1.1, PlantUML 1.2023.12</text><!--SRC=[jLZRRkCs47tVhz1B0GTh2DW-1aM0s8aR0vju4JlRHOCyqDBOPYEHAacbSHVvznsIkbhts0aGovBcd1aEXtEnupYE18N_4H54SU6Sdt_wX0-TY7ZFP0iE-B6x9GgydRjLWhfy7RfA42O3BUwI8E1xvwV5w3yl858wb-RnuwEvkZiL1azFAEKK_dvAHHJrtfpFXcu3ufRxSG3dZhqs2Ez8506J4zXmWRApc7djabUne6pRAYbvB3oGhJAAY2seTXaPhz6P2jND5OJtk8WP5yiUvBN0LG-DL5vk52GwEYIjoonh-rAJ_LXIT1j-T8XPtbhXpsR_Hqkbj-2i_0gjM9KsVdHMk_L64C88umqw1HUUXpPeWM-2XXLpjCGB2BHgHZobnQvV8r6HmVS8bVhzLohL7tXpKHRo1A0v-FoI-PU-l-8fn2vrdAflCYJ7o-cE1lvYOoslf-lFyeq8O4e_UOTHH6EqVqZY7-qS57xXrA_uQBvbkEj-wgSbrBafbzDKcQ2-QPJKWPb9wfjQryyPsYb1lrUKinaDy1Y0VrFC3gapYqj26yTcq-rdxUfEfE7nARssQFd01NomvHFw3toKwSjulIpdmrgUjjqh9iPvAVSTHJKSV9Jg-XZiuTonIV03ekCKd9MGE35TPuHfsky4cVk46kx7b8SXPzCmJq_LUc2ouXq9GRzgJeaeDYN2fum4LEsl_ur9CELCOf6aJAtuZ4BWMm-OhsC77_SW-jDuGgnsX1t7QT0bONDf4bymgAegkxSPp_YSHR6I8rjiwWGMiMgLG1CIZhvAjT49wG38Ka4ahLjC2JELyg8bA7N84EPdDTMwF7cQ0Tvg6-87HGEPTiNcfgirfc74XJBoIU-3Pm6imgYrJwuYirwY4oiWv2-mHCDtESf-QK2yOB3wjld84MlE0o2i0OB7p-pCJ73TYjGqAUPrF_HaR-vM-mW64aKehDsaSz78UgLkzsi0Ek7q0TY6CeaGsL-7oJSJmV-JP1t0sCdysWLSi62_sb4vOutfgW5XkhcivUq170B0quP-k0VYxVI2z9vRNuoTdWpeoIBS9gMKmvxXr4STiLDhHHxgZJEFMNGHt6y_3vR-845SmOQof7yUw8Oq0ZluUf1a31OX1yJp0NIoroMowihMFACFSTA6L94j0sf-PWrM3ZgtcU7w00yyZjXpp9LCRPQrnwi-zT_7h9Jzq_kk0Y1YPgiJMb08aEQsfWJzOR47i75QhlhY- -YkBFlsAbrmygrhgReVqyWvkw7OqWbljn-P1-aORcukcZNgVKbrPjzxQBM_45s_aZ0AR9UNbf1YksHBIQK_p9a0Ns6d5BCLBv4atcf1Odf8UhcYtkxQPVkqzq9NWdhF-o9Qpts7-CUd1WRR3kbLcTOIU-GuN8FjaDEsg6NDEVomnJsUQI01-g8oQcZnqhYH9QZILD6ngGSprab86sR2at3RCSWSDlCRJISW2VK1Akuu-ni4npD7jFcwyyXpS3jq6KUH02dJdmsbqJqGF5_qHd6q3SyN7eR3fD2j3SUASbatX-cY7zh8OXuyZiMCDdDcoTv9ayuywIHOy5sIAafynGQcXHN3yxa-LYlpQJw-jV3vu569mJICqtNTTjg0y-WuCoibwZkLcE7e_o1k88X0OAKwVDHLiEB8norvC9_-A9cnsYlvZiXKliTOnh3uAiZD-ekgtHsygYc9o9hg7oL6SqmvkeLA-e5UxOIr6sb7NUtbeG4_tgMlodCgclgMCTdhD_FfuI2CkxlXN5yURhzUSIy0vVpkVd6_u6WQ4ARmgVERpkMw_Jtx1G00]--></g></svg>