<?xml version="1.0" encoding="us-ascii" standalone="no"?><svg xmlns="http://www.w3.org/2000/svg" xmlns:xlink="http://www.w3.org/1999/xlink" contentStyleType="text/css" height="1444px" preserveAspectRatio="none" style="width:1612px;height:1444px;background:#FFFFFF;" version="1.1" viewBox="0 0 1612 1444" width="1612px" zoomAndPan="magnify"><defs/><g><!--cluster edu.gatech.gtri.obm.translator.alloy--><g id="cluster_edu.gatech.gtri.obm.translator.alloy"><path d="M8.5,6 L292.5,6 A3.75,3.75 0 0 1 295,8.5 L302,28.2969 L1602.5,28.2969 A2.5,2.5 0 0 1 1605,30.7969 L1605,1416.5 A2.5,2.5 0 0 1 1602.5,1419 L8.5,1419 A2.5,2.5 0 0 1 6,1416.5 L6,8.5 A2.5,2.5 0 0 1 8.5,6 " fill="none" style="stroke:#000000;stroke-width:1.5;"/><line style="stroke:#000000;stroke-width:1.5;" x1="6" x2="302" y1="28.2969" y2="28.2969"/><text fill="#000000" font-family="sans-serif" font-size="14" font-weight="bold" lengthAdjust="spacing" textLength="283" x="10" y="20.9951">edu.gatech.gtri.obm.translator.alloy</text></g><!--class AlloyUtils--><a href="AlloyUtils.html" target="_top" title="AlloyUtils.html" xlink:actuate="onRequest" xlink:href="AlloyUtils.html" xlink:show="new" xlink:title="AlloyUtils.html" xlink:type="simple"><g id="elem_AlloyUtils"><rect codeLine="5" fill="#F1F1F1" height="455.4219" id="AlloyUtils" rx="2.5" ry="2.5" style="stroke:#181818;stroke-width:0.5;" width="429" x="132.5" y="41"/><ellipse cx="312.75" cy="57" fill="#ADD1B2" rx="11" ry="11" style="stroke:#181818;stroke-width:1.0;"/><path d="M315.7188,62.6406 Q315.1406,62.9375 314.5,63.0781 Q313.8594,63.2344 313.1563,63.2344 Q310.6563,63.2344 309.3281,61.5938 Q308.0156,59.9375 308.0156,56.8125 Q308.0156,53.6875 309.3281,52.0313 Q310.6563,50.375 313.1563,50.375 Q313.8594,50.375 314.5,50.5313 Q315.1563,50.6875 315.7188,50.9844 L315.7188,53.7031 Q315.0938,53.125 314.5,52.8594 Q313.9063,52.5781 313.2813,52.5781 Q311.9375,52.5781 311.25,53.6563 Q310.5625,54.7188 310.5625,56.8125 Q310.5625,58.9063 311.25,59.9844 Q311.9375,61.0469 313.2813,61.0469 Q313.9063,61.0469 314.5,60.7813 Q315.0938,60.5 315.7188,59.9219 L315.7188,62.6406 Z " fill="#000000"/><text fill="#000000" font-family="sans-serif" font-size="14" lengthAdjust="spacing" textLength="60" x="333.25" y="61.8467">AlloyUtils</text><line style="stroke:#181818;stroke-width:0.5;" x1="133.5" x2="560.5" y1="73" y2="73"/><line style="stroke:#181818;stroke-width:0.5;" x1="133.5" x2="560.5" y1="81" y2="81"/><ellipse cx="143.5" cy="94.6484" fill="#84BE84" rx="3" ry="3" style="stroke:#038048;stroke-width:1.0;"/><text fill="#000000" font-family="sans-serif" font-size="14" lengthAdjust="spacing" text-decoration="underline" textLength="260" x="152.5" y="97.9951">importAlloyModule(File): CompModule</text><ellipse cx="143.5" cy="110.9453" fill="#84BE84" rx="3" ry="3" style="stroke:#038048;stroke-width:1.0;"/><text fill="#000000" font-family="sans-serif" font-size="14" lengthAdjust="spacing" text-decoration="underline" textLength="277" x="152.5" y="114.292">importAlloyModule(String): CompModule</text><ellipse cx="143.5" cy="127.2422" fill="#84BE84" rx="3" ry="3" style="stroke:#038048;stroke-width:1.0;"/><text fill="#000000" font-family="sans-serif" font-size="14" lengthAdjust="spacing" text-decoration="underline" textLength="188" x="152.5" y="130.5889">removeSlash(String): String</text><ellipse cx="143.5" cy="143.5391" fill="#84BE84" rx="3" ry="3" style="stroke:#038048;stroke-width:1.0;"/><text fill="#000000" font-family="sans-serif" font-size="14" lengthAdjust="spacing" text-decoration="underline" textLength="190" x="152.5" y="146.8857">validParent(String): boolean</text><ellipse cx="143.5" cy="159.8359" fill="#84BE84" rx="3" ry="3" style="stroke:#038048;stroke-width:1.0;"/><text fill="#000000" font-family="sans-serif" font-size="14" lengthAdjust="spacing" text-decoration="underline" textLength="261" x="152.5" y="163.1826">getFieldFromSig(String, PrimSig): Field</text><ellipse cx="143.5" cy="176.1328" fill="#84BE84" rx="3" ry="3" style="stroke:#038048;stroke-width:1.0;"/><text fill="#000000" font-family="sans-serif" font-size="14" lengthAdjust="spacing" text-decoration="underline" textLength="344" x="152.5" y="179.4795">getFieldFromSigByFieldType(String, PrimSig): Field</text><ellipse cx="143.5" cy="192.4297" fill="#84BE84" rx="3" ry="3" style="stroke:#038048;stroke-width:1.0;"/><text fill="#000000" font-family="sans-serif" font-size="14" lengthAdjust="spacing" text-decoration="underline" textLength="178" x="152.5" y="195.7764">printAllFunc(Module): void</text><ellipse cx="143.5" cy="208.7266" fill="#84BE84" rx="3" ry="3" style="stroke:#038048;stroke-width:1.0;"/><text fill="#000000" font-family="sans-serif" font-size="14" lengthAdjust="spacing" text-decoration="underline" textLength="173" x="152.5" y="212.0732">printAllFact(Module): void</text><ellipse cx="143.5" cy="225.0234" fill="#84BE84" rx="3" ry="3" style="stroke:#038048;stroke-width:1.0;"/><text fill="#000000" font-family="sans-serif" font-size="14" lengthAdjust="spacing" text-decoration="underline" textLength="215" x="152.5" y="228.3701">getAllCommands(Module): void</text><ellipse cx="143.5" cy="241.3203" fill="#84BE84" rx="3" ry="3" style="stroke:#038048;stroke-width:1.0;"/><text fill="#000000" font-family="sans-serif" font-size="14" lengthAdjust="spacing" text-decoration="underline" textLength="228" x="152.5" y="244.667">printExpr(Browsable, String): void</text><ellipse cx="143.5" cy="257.6172" fill="#84BE84" rx="3" ry="3" style="stroke:#038048;stroke-width:1.0;"/><text fill="#000000" font-family="sans-serif" font-size="14" lengthAdjust="spacing" text-decoration="underline" textLength="184" x="152.5" y="260.9639">printOnlyThisFn(Expr): void</text><ellipse cx="143.5" cy="273.9141" fill="#84BE84" rx="3" ry="3" style="stroke:#038048;stroke-width:1.0;"/><text fill="#000000" font-family="sans-serif" font-size="14" lengthAdjust="spacing" text-decoration="underline" textLength="234" x="152.5" y="277.2607">printOnlyThisSigs(List&lt;Sig&gt;): void</text><ellipse cx="143.5" cy="290.2109" fill="#84BE84" rx="3" ry="3" style="stroke:#038048;stroke-width:1.0;"/><text fill="#000000" font-family="sans-serif" font-size="14" lengthAdjust="spacing" text-decoration="underline" textLength="175" x="152.5" y="293.5576">printSigs(List&lt;Sig&gt;): void</text><ellipse cx="143.5" cy="306.5078" fill="#84BE84" rx="3" ry="3" style="stroke:#038048;stroke-width:1.0;"/><text fill="#000000" font-family="sans-serif" font-size="14" lengthAdjust="spacing" text-decoration="underline" textLength="309" x="152.5" y="309.8545">addAllReachableSig(Module, List&lt;Sig&gt;): void</text><ellipse cx="143.5" cy="322.8047" fill="#84BE84" rx="3" ry="3" style="stroke:#038048;stroke-width:1.0;"/><text fill="#000000" font-family="sans-serif" font-size="14" lengthAdjust="spacing" text-decoration="underline" textLength="328" x="152.5" y="326.1514">getReachableSigField(Module, Sig, String): Field</text><ellipse cx="143.5" cy="339.1016" fill="#84BE84" rx="3" ry="3" style="stroke:#038048;stroke-width:1.0;"/><text fill="#000000" font-family="sans-serif" font-size="14" lengthAdjust="spacing" text-decoration="underline" textLength="256" x="152.5" y="342.4482">getReachableSig(Module, String): Sig</text><ellipse cx="143.5" cy="355.3984" fill="#84BE84" rx="3" ry="3" style="stroke:#038048;stroke-width:1.0;"/><text fill="#000000" font-family="sans-serif" font-size="14" lengthAdjust="spacing" text-decoration="underline" textLength="231" x="152.5" y="358.7451">printReachableSigs(Module): void</text><ellipse cx="143.5" cy="371.6953" fill="#84BE84" rx="3" ry="3" style="stroke:#038048;stroke-width:1.0;"/><text fill="#000000" font-family="sans-serif" font-size="14" lengthAdjust="spacing" text-decoration="underline" textLength="403" x="152.5" y="375.042">addAllReachableUserDefinedSigs(Module, List&lt;Sig&gt;): void</text><ellipse cx="143.5" cy="387.9922" fill="#84BE84" rx="3" ry="3" style="stroke:#038048;stroke-width:1.0;"/><text fill="#000000" font-family="sans-serif" font-size="14" lengthAdjust="spacing" text-decoration="underline" textLength="332" x="152.5" y="391.3389">printAllReachableUserDefinedSigs(Module): void</text><ellipse cx="143.5" cy="404.2891" fill="#84BE84" rx="3" ry="3" style="stroke:#038048;stroke-width:1.0;"/><text fill="#000000" font-family="sans-serif" font-size="14" lengthAdjust="spacing" text-decoration="underline" textLength="261" x="152.5" y="407.6357">printReachableModules(Module): void</text><ellipse cx="143.5" cy="420.5859" fill="#84BE84" rx="3" ry="3" style="stroke:#038048;stroke-width:1.0;"/><text fill="#000000" font-family="sans-serif" font-size="14" lengthAdjust="spacing" text-decoration="underline" textLength="388" x="152.5" y="423.9326">getAllReachableModuleByName(Module, String): Module</text><ellipse cx="143.5" cy="436.8828" fill="#84BE84" rx="3" ry="3" style="stroke:#038048;stroke-width:1.0;"/><text fill="#000000" font-family="sans-serif" font-size="14" lengthAdjust="spacing" text-decoration="underline" textLength="235" x="152.5" y="440.2295">getFunction(Module, String): Func</text><ellipse cx="143.5" cy="453.1797" fill="#84BE84" rx="3" ry="3" style="stroke:#038048;stroke-width:1.0;"/><text fill="#000000" font-family="sans-serif" font-size="14" lengthAdjust="spacing" text-decoration="underline" textLength="203" x="152.5" y="456.5264">printAllFuctions(Module): void</text><ellipse cx="143.5" cy="469.4766" fill="#84BE84" rx="3" ry="3" style="stroke:#038048;stroke-width:1.0;"/><text fill="#000000" font-family="sans-serif" font-size="14" lengthAdjust="spacing" text-decoration="underline" textLength="254" x="152.5" y="472.8232">printAllReachableFacts(Module): void</text><ellipse cx="143.5" cy="485.7734" fill="#84BE84" rx="3" ry="3" style="stroke:#038048;stroke-width:1.0;"/><text fill="#000000" font-family="sans-serif" font-size="14" lengthAdjust="spacing" text-decoration="underline" textLength="249" x="152.5" y="489.1201">printExprAndItsFunctions(Expr): void</text></g></a><!--class MDUtils--><a href="MDUtils.html" target="_top" title="MDUtils.html" xlink:actuate="onRequest" xlink:href="MDUtils.html" xlink:show="new" xlink:title="MDUtils.html" xlink:type="simple"><g id="elem_MDUtils"><rect codeLine="33" fill="#F1F1F1" height="64.2969" id="MDUtils" rx="2.5" ry="2.5" style="stroke:#181818;stroke-width:0.5;" width="302" x="597" y="236.5"/><ellipse cx="717.75" cy="252.5" fill="#ADD1B2" rx="11" ry="11" style="stroke:#181818;stroke-width:1.0;"/><path d="M720.7188,258.1406 Q720.1406,258.4375 719.5,258.5781 Q718.8594,258.7344 718.1563,258.7344 Q715.6563,258.7344 714.3281,257.0938 Q713.0156,255.4375 713.0156,252.3125 Q713.0156,249.1875 714.3281,247.5313 Q715.6563,245.875 718.1563,245.875 Q718.8594,245.875 719.5,246.0313 Q720.1563,246.1875 720.7188,246.4844 L720.7188,249.2031 Q720.0938,248.625 719.5,248.3594 Q718.9063,248.0781 718.2813,248.0781 Q716.9375,248.0781 716.25,249.1563 Q715.5625,250.2188 715.5625,252.3125 Q715.5625,254.4063 716.25,255.4844 Q716.9375,256.5469 718.2813,256.5469 Q718.9063,256.5469 719.5,256.2813 Q720.0938,256 720.7188,255.4219 L720.7188,258.1406 Z " fill="#000000"/><text fill="#000000" font-family="sans-serif" font-size="14" lengthAdjust="spacing" textLength="52" x="738.25" y="257.3467">MDUtils</text><line style="stroke:#181818;stroke-width:0.5;" x1="598" x2="898" y1="268.5" y2="268.5"/><line style="stroke:#181818;stroke-width:0.5;" x1="598" x2="898" y1="276.5" y2="276.5"/><ellipse cx="608" cy="290.1484" fill="#84BE84" rx="3" ry="3" style="stroke:#038048;stroke-width:1.0;"/><text fill="#000000" font-family="sans-serif" font-size="14" lengthAdjust="spacing" text-decoration="underline" textLength="276" x="617" y="293.4951">getClassInHierarchy(Class): List&lt;Class&gt;</text></g></a><!--class VisualizerHelper--><a href="VisualizerHelper.html" target="_top" title="VisualizerHelper.html" xlink:actuate="onRequest" xlink:href="VisualizerHelper.html" xlink:show="new" xlink:title="VisualizerHelper.html" xlink:type="simple"><g id="elem_VisualizerHelper"><rect codeLine="37" fill="#F1F1F1" height="162.0781" id="VisualizerHelper" rx="2.5" ry="2.5" style="stroke:#181818;stroke-width:0.5;" width="502" x="934" y="187.5"/><ellipse cx="1125.75" cy="203.5" fill="#ADD1B2" rx="11" ry="11" style="stroke:#181818;stroke-width:1.0;"/><path d="M1128.7188,209.1406 Q1128.1406,209.4375 1127.5,209.5781 Q1126.8594,209.7344 1126.1563,209.7344 Q1123.6563,209.7344 1122.3281,208.0938 Q1121.0156,206.4375 1121.0156,203.3125 Q1121.0156,200.1875 1122.3281,198.5313 Q1123.6563,196.875 1126.1563,196.875 Q1126.8594,196.875 1127.5,197.0313 Q1128.1563,197.1875 1128.7188,197.4844 L1128.7188,200.2031 Q1128.0938,199.625 1127.5,199.3594 Q1126.9063,199.0781 1126.2813,199.0781 Q1124.9375,199.0781 1124.25,200.1563 Q1123.5625,201.2188 1123.5625,203.3125 Q1123.5625,205.4063 1124.25,206.4844 Q1124.9375,207.5469 1126.2813,207.5469 Q1126.9063,207.5469 1127.5,207.2813 Q1128.0938,207 1128.7188,206.4219 L1128.7188,209.1406 Z " fill="#000000"/><text fill="#000000" font-family="sans-serif" font-size="14" lengthAdjust="spacing" textLength="110" x="1146.25" y="208.3467">VisualizerHelper</text><line style="stroke:#181818;stroke-width:0.5;" x1="935" x2="1435" y1="219.5" y2="219.5"/><line style="stroke:#181818;stroke-width:0.5;" x1="935" x2="1435" y1="227.5" y2="227.5"/><ellipse cx="945" cy="241.1484" fill="#84BE84" rx="3" ry="3" style="stroke:#038048;stroke-width:1.0;"/><text fill="#000000" font-family="sans-serif" font-size="14" lengthAdjust="spacing" text-decoration="underline" textLength="211" x="954" y="244.4951">updateUpdated(boolean): void</text><ellipse cx="945" cy="257.4453" fill="#84BE84" rx="3" ry="3" style="stroke:#038048;stroke-width:1.0;"/><text fill="#000000" font-family="sans-serif" font-size="14" lengthAdjust="spacing" text-decoration="underline" textLength="159" x="954" y="260.792">hasUpdated(): boolean</text><ellipse cx="945" cy="273.7422" fill="#84BE84" rx="3" ry="3" style="stroke:#038048;stroke-width:1.0;"/><text fill="#000000" font-family="sans-serif" font-size="14" lengthAdjust="spacing" text-decoration="underline" textLength="476" x="954" y="277.0889">generateVisualizerWithNextCapability(Iterable&lt;Sig&gt;, Command): void</text><ellipse cx="945" cy="290.0391" fill="#84BE84" rx="3" ry="3" style="stroke:#038048;stroke-width:1.0;"/><text fill="#000000" font-family="sans-serif" font-size="14" lengthAdjust="spacing" text-decoration="underline" textLength="116" x="954" y="293.3857">updateVis(): void</text><ellipse cx="945" cy="306.3359" fill="#84BE84" rx="3" ry="3" style="stroke:#038048;stroke-width:1.0;"/><text fill="#000000" font-family="sans-serif" font-size="14" lengthAdjust="spacing" text-decoration="underline" textLength="359" x="954" y="309.6826">generateVisualizerX(Iterable&lt;Sig&gt;, Command): void</text><ellipse cx="945" cy="322.6328" fill="#84BE84" rx="3" ry="3" style="stroke:#038048;stroke-width:1.0;"/><text fill="#000000" font-family="sans-serif" font-size="14" lengthAdjust="spacing" text-decoration="underline" textLength="350" x="954" y="325.9795">generateVisualizer(Iterable&lt;Sig&gt;, Command): void</text><ellipse cx="945" cy="338.9297" fill="#84BE84" rx="3" ry="3" style="stroke:#038048;stroke-width:1.0;"/><text fill="#000000" font-family="sans-serif" font-size="14" lengthAdjust="spacing" text-decoration="underline" textLength="226" x="954" y="342.2764">generateVisualizer(Module): void</text></g></a><!--class Alloy--><a href="Alloy.html" target="_top" title="Alloy.html" xlink:actuate="onRequest" xlink:href="Alloy.html" xlink:show="new" xlink:title="Alloy.html" xlink:type="simple"><g id="elem_Alloy"><rect codeLine="47" fill="#F1F1F1" height="846.5469" id="Alloy" rx="2.5" ry="2.5" style="stroke:#181818;stroke-width:0.5;" width="650" x="22" y="556"/><ellipse cx="327.25" cy="572" fill="#ADD1B2" rx="11" ry="11" style="stroke:#181818;stroke-width:1.0;"/><path d="M330.2188,577.6406 Q329.6406,577.9375 329,578.0781 Q328.3594,578.2344 327.6563,578.2344 Q325.1563,578.2344 323.8281,576.5938 Q322.5156,574.9375 322.5156,571.8125 Q322.5156,568.6875 323.8281,567.0313 Q325.1563,565.375 327.6563,565.375 Q328.3594,565.375 329,565.5313 Q329.6563,565.6875 330.2188,565.9844 L330.2188,568.7031 Q329.5938,568.125 329,567.8594 Q328.4063,567.5781 327.7813,567.5781 Q326.4375,567.5781 325.75,568.6563 Q325.0625,569.7188 325.0625,571.8125 Q325.0625,573.9063 325.75,574.9844 Q326.4375,576.0469 327.7813,576.0469 Q328.4063,576.0469 329,575.7813 Q329.5938,575.5 330.2188,574.9219 L330.2188,577.6406 Z " fill="#000000"/><text fill="#000000" font-family="sans-serif" font-size="14" lengthAdjust="spacing" textLength="31" x="347.75" y="576.8467">Alloy</text><line style="stroke:#181818;stroke-width:0.5;" x1="23" x2="671" y1="588" y2="588"/><ellipse cx="33" cy="601.6484" fill="none" rx="3" ry="3" style="stroke:#038048;stroke-width:1.0;"/><text fill="#000000" font-family="sans-serif" font-size="14" lengthAdjust="spacing" text-decoration="underline" textLength="164" x="42" y="604.9951">transferModule: Module</text><ellipse cx="33" cy="617.9453" fill="none" rx="3" ry="3" style="stroke:#038048;stroke-width:1.0;"/><text fill="#000000" font-family="sans-serif" font-size="14" lengthAdjust="spacing" text-decoration="underline" textLength="150" x="42" y="621.292">happensBefore: Func</text><ellipse cx="33" cy="634.2422" fill="none" rx="3" ry="3" style="stroke:#038048;stroke-width:1.0;"/><text fill="#000000" font-family="sans-serif" font-size="14" lengthAdjust="spacing" text-decoration="underline" textLength="150" x="42" y="637.5889">happensDuring: Func</text><ellipse cx="33" cy="650.5391" fill="none" rx="3" ry="3" style="stroke:#038048;stroke-width:1.0;"/><text fill="#000000" font-family="sans-serif" font-size="14" lengthAdjust="spacing" text-decoration="underline" textLength="99" x="42" y="653.8857">sources: Func</text><ellipse cx="33" cy="666.8359" fill="none" rx="3" ry="3" style="stroke:#038048;stroke-width:1.0;"/><text fill="#000000" font-family="sans-serif" font-size="14" lengthAdjust="spacing" text-decoration="underline" textLength="92" x="42" y="670.1826">targets: Func</text><ellipse cx="33" cy="683.1328" fill="none" rx="3" ry="3" style="stroke:#038048;stroke-width:1.0;"/><text fill="#000000" font-family="sans-serif" font-size="14" lengthAdjust="spacing" text-decoration="underline" textLength="257" x="42" y="686.4795">subsettingItemRuleForSources: Func</text><ellipse cx="33" cy="699.4297" fill="none" rx="3" ry="3" style="stroke:#038048;stroke-width:1.0;"/><text fill="#000000" font-family="sans-serif" font-size="14" lengthAdjust="spacing" text-decoration="underline" textLength="253" x="42" y="702.7764">subsettingItemRuleForTargets: Func</text><ellipse cx="33" cy="715.7266" fill="none" rx="3" ry="3" style="stroke:#038048;stroke-width:1.0;"/><text fill="#000000" font-family="sans-serif" font-size="14" lengthAdjust="spacing" text-decoration="underline" textLength="135" x="42" y="719.0732">isAfterSource: Func</text><ellipse cx="33" cy="732.0234" fill="none" rx="3" ry="3" style="stroke:#038048;stroke-width:1.0;"/><text fill="#000000" font-family="sans-serif" font-size="14" lengthAdjust="spacing" text-decoration="underline" textLength="145" x="42" y="735.3701">isBeforeTarget: Func</text><ellipse cx="33" cy="748.3203" fill="none" rx="3" ry="3" style="stroke:#038048;stroke-width:1.0;"/><text fill="#000000" font-family="sans-serif" font-size="14" lengthAdjust="spacing" text-decoration="underline" textLength="104" x="42" y="751.667">transferSig: Sig</text><ellipse cx="33" cy="764.6172" fill="none" rx="3" ry="3" style="stroke:#038048;stroke-width:1.0;"/><text fill="#000000" font-family="sans-serif" font-size="14" lengthAdjust="spacing" text-decoration="underline" textLength="150" x="42" y="767.9639">transferBeforeSig: Sig</text><line style="stroke:#181818;stroke-width:0.5;" x1="23" x2="671" y1="775.2656" y2="775.2656"/><ellipse cx="33" cy="788.9141" fill="#84BE84" rx="3" ry="3" style="stroke:#038048;stroke-width:1.0;"/><text fill="#000000" font-family="sans-serif" font-size="14" lengthAdjust="spacing" textLength="81" x="42" y="792.2607">Alloy(String)</text><ellipse cx="33" cy="805.2109" fill="#84BE84" rx="3" ry="3" style="stroke:#038048;stroke-width:1.0;"/><text fill="#000000" font-family="sans-serif" font-size="14" lengthAdjust="spacing" textLength="201" x="42" y="808.5576">getTransferModule(): Module</text><ellipse cx="33" cy="821.5078" fill="#84BE84" rx="3" ry="3" style="stroke:#038048;stroke-width:1.0;"/><text fill="#000000" font-family="sans-serif" font-size="14" lengthAdjust="spacing" textLength="209" x="42" y="824.8545">getTemplateModule(): Module</text><ellipse cx="33" cy="837.8047" fill="#84BE84" rx="3" ry="3" style="stroke:#038048;stroke-width:1.0;"/><text fill="#000000" font-family="sans-serif" font-size="14" lengthAdjust="spacing" textLength="141" x="42" y="841.1514">getOccSig(): PrimSig</text><ellipse cx="33" cy="854.1016" fill="#84BE84" rx="3" ry="3" style="stroke:#038048;stroke-width:1.0;"/><text fill="#000000" font-family="sans-serif" font-size="14" lengthAdjust="spacing" textLength="148" x="42" y="857.4482">getOverAllFact(): Expr</text><ellipse cx="33" cy="870.3984" fill="#84BE84" rx="3" ry="3" style="stroke:#038048;stroke-width:1.0;"/><text fill="#000000" font-family="sans-serif" font-size="14" lengthAdjust="spacing" textLength="154" x="42" y="873.7451">getAllSigs(): List&lt;Sig&gt;</text><ellipse cx="33" cy="886.6953" fill="#84BE84" rx="3" ry="3" style="stroke:#038048;stroke-width:1.0;"/><text fill="#000000" font-family="sans-serif" font-size="14" lengthAdjust="spacing" textLength="350" x="42" y="890.042">createSigAndAddToAllSigs(String, PrimSig): PrimSig</text><ellipse cx="33" cy="902.9922" fill="#84BE84" rx="3" ry="3" style="stroke:#038048;stroke-width:1.0;"/><text fill="#000000" font-family="sans-serif" font-size="14" lengthAdjust="spacing" textLength="405" x="42" y="906.3389">createSigAsChildOfOccSigAndAddToAllSigs(String): PrimSig</text><ellipse cx="33" cy="919.2891" fill="#84BE84" rx="3" ry="3" style="stroke:#038048;stroke-width:1.0;"/><text fill="#000000" font-family="sans-serif" font-size="14" lengthAdjust="spacing" textLength="455" x="42" y="922.6357">createSigAsChildOfParentSigAddToAllSigs(String, PrimSig): PrimSig</text><ellipse cx="33" cy="935.5859" fill="#84BE84" rx="3" ry="3" style="stroke:#038048;stroke-width:1.0;"/><text fill="#000000" font-family="sans-serif" font-size="14" lengthAdjust="spacing" textLength="196" x="42" y="938.9326">addToOverallFact(Expr): void</text><ellipse cx="33" cy="951.8828" fill="#84BE84" rx="3" ry="3" style="stroke:#038048;stroke-width:1.0;"/><text fill="#000000" font-family="sans-serif" font-size="14" lengthAdjust="spacing" textLength="192" x="42" y="955.2295">getIgnoredSigs(): Set&lt;Sig&gt;</text><ellipse cx="33" cy="968.1797" fill="#84BE84" rx="3" ry="3" style="stroke:#038048;stroke-width:1.0;"/><text fill="#000000" font-family="sans-serif" font-size="14" lengthAdjust="spacing" textLength="210" x="42" y="971.5264">getIgnoredExprs(): Set&lt;Expr&gt;</text><ellipse cx="33" cy="984.4766" fill="#84BE84" rx="3" ry="3" style="stroke:#038048;stroke-width:1.0;"/><text fill="#000000" font-family="sans-serif" font-size="14" lengthAdjust="spacing" textLength="218" x="42" y="987.8232">getIgnoredFuncs(): Set&lt;Func&gt;</text><ellipse cx="33" cy="1000.7734" fill="#84BE84" rx="3" ry="3" style="stroke:#038048;stroke-width:1.0;"/><text fill="#000000" font-family="sans-serif" font-size="14" lengthAdjust="spacing" textLength="604" x="42" y="1004.1201">createInverseFunctionFilteredHappensBeforeAndAddToOverallFact(Sig, Expr, Expr): void</text><ellipse cx="33" cy="1017.0703" fill="#84BE84" rx="3" ry="3" style="stroke:#038048;stroke-width:1.0;"/><text fill="#000000" font-family="sans-serif" font-size="14" lengthAdjust="spacing" textLength="624" x="42" y="1020.417">createInverseFunctionFilteredHappensBeforeAndAddToOverallFact(Sig, Expr[], Expr[]): void</text><ellipse cx="33" cy="1033.3672" fill="#84BE84" rx="3" ry="3" style="stroke:#038048;stroke-width:1.0;"/><text fill="#000000" font-family="sans-serif" font-size="14" lengthAdjust="spacing" textLength="554" x="42" y="1036.7139">createFunctionFilteredHappensBeforeAndAddToOverallFact(Sig, Expr, Expr): void</text><ellipse cx="33" cy="1049.6641" fill="#84BE84" rx="3" ry="3" style="stroke:#038048;stroke-width:1.0;"/><text fill="#000000" font-family="sans-serif" font-size="14" lengthAdjust="spacing" textLength="574" x="42" y="1053.0107">createFunctionFilteredHappensBeforeAndAddToOverallFact(Sig, Expr[], Expr[]): void</text><ellipse cx="33" cy="1065.9609" fill="#84BE84" rx="3" ry="3" style="stroke:#038048;stroke-width:1.0;"/><text fill="#000000" font-family="sans-serif" font-size="14" lengthAdjust="spacing" textLength="553" x="42" y="1069.3076">createBijectionFilteredHappensBeforeAndAddToOverallFact(Sig, Expr, Expr): void</text><ellipse cx="33" cy="1082.2578" fill="#84BE84" rx="3" ry="3" style="stroke:#038048;stroke-width:1.0;"/><text fill="#000000" font-family="sans-serif" font-size="14" lengthAdjust="spacing" textLength="362" x="42" y="1085.6045">createSubSettingItemRuleOverallFact(Sig, Expr): void</text><ellipse cx="33" cy="1098.5547" fill="#84BE84" rx="3" ry="3" style="stroke:#038048;stroke-width:1.0;"/><text fill="#000000" font-family="sans-serif" font-size="14" lengthAdjust="spacing" textLength="419" x="42" y="1101.9014">createIsAfterSourceIsBeforeTargetOverallFact(Sig, Expr): void</text><ellipse cx="33" cy="1114.8516" fill="#84BE84" rx="3" ry="3" style="stroke:#038048;stroke-width:1.0;"/><text fill="#000000" font-family="sans-serif" font-size="14" lengthAdjust="spacing" textLength="317" x="42" y="1118.1982">createIsAfterSourceOverallFact(Sig, Expr): void</text><ellipse cx="33" cy="1131.1484" fill="#84BE84" rx="3" ry="3" style="stroke:#038048;stroke-width:1.0;"/><text fill="#000000" font-family="sans-serif" font-size="14" lengthAdjust="spacing" textLength="327" x="42" y="1134.4951">createIsBeforeTargetOverallFact(Sig, Expr): void</text><ellipse cx="33" cy="1147.4453" fill="#84BE84" rx="3" ry="3" style="stroke:#038048;stroke-width:1.0;"/><text fill="#000000" font-family="sans-serif" font-size="14" lengthAdjust="spacing" textLength="538" x="42" y="1150.792">createInverseFunctionFilteredAndAddToOverallFact(Sig, Expr, Expr, Func): void</text><ellipse cx="33" cy="1163.7422" fill="#84BE84" rx="3" ry="3" style="stroke:#038048;stroke-width:1.0;"/><text fill="#000000" font-family="sans-serif" font-size="14" lengthAdjust="spacing" textLength="488" x="42" y="1167.0889">createFunctionFilteredAndAddToOverallFact(Sig, Expr, Expr, Func): void</text><ellipse cx="33" cy="1180.0391" fill="#84BE84" rx="3" ry="3" style="stroke:#038048;stroke-width:1.0;"/><text fill="#000000" font-family="sans-serif" font-size="14" lengthAdjust="spacing" textLength="433" x="42" y="1183.3857">createBijectionFilteredToOverallFact(Sig, Expr, Expr, Func): void</text><ellipse cx="33" cy="1196.3359" fill="#84BE84" rx="3" ry="3" style="stroke:#038048;stroke-width:1.0;"/><text fill="#000000" font-family="sans-serif" font-size="14" lengthAdjust="spacing" textLength="613" x="42" y="1199.6826">createBijectionFilteredHappensBeforeAndAddToOverallFact(ExprVar, Sig, Expr, Expr): void</text><ellipse cx="33" cy="1212.6328" fill="#84BE84" rx="3" ry="3" style="stroke:#038048;stroke-width:1.0;"/><text fill="#000000" font-family="sans-serif" font-size="14" lengthAdjust="spacing" textLength="205" x="42" y="1215.9795">getCommonCmdExprs(): Expr</text><ellipse cx="33" cy="1228.9297" fill="#84BE84" rx="3" ry="3" style="stroke:#038048;stroke-width:1.0;"/><text fill="#000000" font-family="sans-serif" font-size="14" lengthAdjust="spacing" textLength="191" x="42" y="1232.2764">addToNameExpr(Expr): void</text><ellipse cx="33" cy="1245.2266" fill="#84BE84" rx="3" ry="3" style="stroke:#038048;stroke-width:1.0;"/><text fill="#000000" font-family="sans-serif" font-size="14" lengthAdjust="spacing" textLength="388" x="42" y="1248.5732">addCardinalityEqualConstraintToField(Sig, Field, int): void</text><ellipse cx="33" cy="1261.5234" fill="#84BE84" rx="3" ry="3" style="stroke:#038048;stroke-width:1.0;"/><text fill="#000000" font-family="sans-serif" font-size="14" lengthAdjust="spacing" textLength="475" x="42" y="1264.8701">addCardinalityGreaterThanEqualConstraintToField(Sig, Field, int): void</text><ellipse cx="33" cy="1277.8203" fill="#84BE84" rx="3" ry="3" style="stroke:#038048;stroke-width:1.0;"/><text fill="#000000" font-family="sans-serif" font-size="14" lengthAdjust="spacing" textLength="212" x="42" y="1281.167">addEqual(Sig, Field, Field): void</text><ellipse cx="33" cy="1294.1172" fill="#84BE84" rx="3" ry="3" style="stroke:#038048;stroke-width:1.0;"/><text fill="#000000" font-family="sans-serif" font-size="14" lengthAdjust="spacing" textLength="344" x="42" y="1297.4639">addOneConstraintToField(ExprVar, Sig, Field): void</text><ellipse cx="33" cy="1310.4141" fill="#84BE84" rx="3" ry="3" style="stroke:#038048;stroke-width:1.0;"/><text fill="#000000" font-family="sans-serif" font-size="14" lengthAdjust="spacing" textLength="129" x="42" y="1313.7607">noInputs(Sig): void</text><ellipse cx="33" cy="1326.7109" fill="#84BE84" rx="3" ry="3" style="stroke:#038048;stroke-width:1.0;"/><text fill="#000000" font-family="sans-serif" font-size="14" lengthAdjust="spacing" textLength="142" x="42" y="1330.0576">noOutputs(Sig): void</text><ellipse cx="33" cy="1343.0078" fill="#84BE84" rx="3" ry="3" style="stroke:#038048;stroke-width:1.0;"/><text fill="#000000" font-family="sans-serif" font-size="14" lengthAdjust="spacing" textLength="237" x="42" y="1346.3545">addInputs(ExprVar, Sig, Field): void</text><ellipse cx="33" cy="1359.3047" fill="#84BE84" rx="3" ry="3" style="stroke:#038048;stroke-width:1.0;"/><text fill="#000000" font-family="sans-serif" font-size="14" lengthAdjust="spacing" textLength="250" x="42" y="1362.6514">addOutputs(ExprVar, Sig, Field): void</text><ellipse cx="33" cy="1375.6016" fill="#84BE84" rx="3" ry="3" style="stroke:#038048;stroke-width:1.0;"/><text fill="#000000" font-family="sans-serif" font-size="14" lengthAdjust="spacing" textLength="229" x="42" y="1378.9482">addSteps(Sig, Set&lt;String&gt;): void</text><ellipse cx="33" cy="1391.8984" fill="#84BE84" rx="3" ry="3" style="stroke:#038048;stroke-width:1.0;"/><text fill="#000000" font-family="sans-serif" font-size="14" lengthAdjust="spacing" textLength="270" x="42" y="1395.2451">createCommand(String, int): Command</text></g></a><!--class FuncUtils--><a href="FuncUtils.html" target="_top" title="FuncUtils.html" xlink:actuate="onRequest" xlink:href="FuncUtils.html" xlink:show="new" xlink:title="FuncUtils.html" xlink:type="simple"><g id="elem_FuncUtils"><rect codeLine="99" fill="#F1F1F1" height="439.125" id="FuncUtils" rx="2.5" ry="2.5" style="stroke:#181818;stroke-width:0.5;" width="527" x="707.5" y="760"/><ellipse cx="935.25" cy="776" fill="#ADD1B2" rx="11" ry="11" style="stroke:#181818;stroke-width:1.0;"/><path d="M938.2188,781.6406 Q937.6406,781.9375 937,782.0781 Q936.3594,782.2344 935.6563,782.2344 Q933.1563,782.2344 931.8281,780.5938 Q930.5156,778.9375 930.5156,775.8125 Q930.5156,772.6875 931.8281,771.0313 Q933.1563,769.375 935.6563,769.375 Q936.3594,769.375 937,769.5313 Q937.6563,769.6875 938.2188,769.9844 L938.2188,772.7031 Q937.5938,772.125 937,771.8594 Q936.4063,771.5781 935.7813,771.5781 Q934.4375,771.5781 933.75,772.6563 Q933.0625,773.7188 933.0625,775.8125 Q933.0625,777.9063 933.75,778.9844 Q934.4375,780.0469 935.7813,780.0469 Q936.4063,780.0469 937,779.7813 Q937.5938,779.5 938.2188,778.9219 L938.2188,781.6406 Z " fill="#000000"/><text fill="#000000" font-family="sans-serif" font-size="14" lengthAdjust="spacing" textLength="63" x="955.75" y="780.8467">FuncUtils</text><line style="stroke:#181818;stroke-width:0.5;" x1="708.5" x2="1233.5" y1="792" y2="792"/><line style="stroke:#181818;stroke-width:0.5;" x1="708.5" x2="1233.5" y1="800" y2="800"/><ellipse cx="718.5" cy="813.6484" fill="#84BE84" rx="3" ry="3" style="stroke:#038048;stroke-width:1.0;"/><text fill="#000000" font-family="sans-serif" font-size="14" lengthAdjust="spacing" text-decoration="underline" textLength="344" x="727.5" y="816.9951">getDuringExampleExpr(String, Sig, Field, Sig): Expr</text><ellipse cx="718.5" cy="829.9453" fill="#84BE84" rx="3" ry="3" style="stroke:#038048;stroke-width:1.0;"/><text fill="#000000" font-family="sans-serif" font-size="14" lengthAdjust="spacing" text-decoration="underline" textLength="249" x="727.5" y="833.292">exprToFunToExpr(String, Expr): Expr</text><ellipse cx="718.5" cy="846.2422" fill="#84BE84" rx="3" ry="3" style="stroke:#038048;stroke-width:1.0;"/><text fill="#000000" font-family="sans-serif" font-size="14" lengthAdjust="spacing" text-decoration="underline" textLength="207" x="727.5" y="849.5889">addField(String, Sig, Sig): Field</text><ellipse cx="718.5" cy="862.5391" fill="#84BE84" rx="3" ry="3" style="stroke:#038048;stroke-width:1.0;"/><text fill="#000000" font-family="sans-serif" font-size="14" lengthAdjust="spacing" text-decoration="underline" textLength="236" x="727.5" y="865.8857">addOneField(String, Sig, Sig): Field</text><ellipse cx="718.5" cy="878.8359" fill="#84BE84" rx="3" ry="3" style="stroke:#038048;stroke-width:1.0;"/><text fill="#000000" font-family="sans-serif" font-size="14" lengthAdjust="spacing" text-decoration="underline" textLength="267" x="727.5" y="882.1826">addTrickyField(String[], Sig, Sig): Field[]</text><ellipse cx="718.5" cy="895.1328" fill="#84BE84" rx="3" ry="3" style="stroke:#038048;stroke-width:1.0;"/><text fill="#000000" font-family="sans-serif" font-size="14" lengthAdjust="spacing" text-decoration="underline" textLength="289" x="727.5" y="898.4795">createExprEqualToNumber(Expr, int): Expr</text><ellipse cx="718.5" cy="911.4297" fill="#84BE84" rx="3" ry="3" style="stroke:#038048;stroke-width:1.0;"/><text fill="#000000" font-family="sans-serif" font-size="14" lengthAdjust="spacing" text-decoration="underline" textLength="376" x="727.5" y="914.7764">createExprGreaterThanEqualToNumber(Expr, int): Expr</text><ellipse cx="718.5" cy="927.7266" fill="#84BE84" rx="3" ry="3" style="stroke:#038048;stroke-width:1.0;"/><text fill="#000000" font-family="sans-serif" font-size="14" lengthAdjust="spacing" text-decoration="underline" textLength="303" x="727.5" y="931.0732">createExprGreaterToNumber(Expr, int): Expr</text><ellipse cx="718.5" cy="944.0234" fill="#84BE84" rx="3" ry="3" style="stroke:#038048;stroke-width:1.0;"/><text fill="#000000" font-family="sans-serif" font-size="14" lengthAdjust="spacing" text-decoration="underline" textLength="450" x="727.5" y="947.3701">addBijectionFilteredExprHappensBefore(Module, Expr, Expr): Expr</text><ellipse cx="718.5" cy="960.3203" fill="#84BE84" rx="3" ry="3" style="stroke:#038048;stroke-width:1.0;"/><text fill="#000000" font-family="sans-serif" font-size="14" lengthAdjust="spacing" text-decoration="underline" textLength="451" x="727.5" y="963.667">addFunctionFilteredExprHappensBefore(Module, Expr, Expr): Expr</text><ellipse cx="718.5" cy="976.6172" fill="#84BE84" rx="3" ry="3" style="stroke:#038048;stroke-width:1.0;"/><text fill="#000000" font-family="sans-serif" font-size="14" lengthAdjust="spacing" text-decoration="underline" textLength="501" x="727.5" y="979.9639">addInverseFunctionFilteredExprHappensBefore(Module, Expr, Expr): Expr</text><ellipse cx="718.5" cy="992.9141" fill="#84BE84" rx="3" ry="3" style="stroke:#038048;stroke-width:1.0;"/><text fill="#000000" font-family="sans-serif" font-size="14" lengthAdjust="spacing" text-decoration="underline" textLength="190" x="727.5" y="996.2607">addExprs(List&lt;Expr&gt;): Expr</text><ellipse cx="718.5" cy="1009.2109" fill="#84BE84" rx="3" ry="3" style="stroke:#038048;stroke-width:1.0;"/><text fill="#000000" font-family="sans-serif" font-size="14" lengthAdjust="spacing" text-decoration="underline" textLength="191" x="727.5" y="1012.5576">addToExpr(Expr, Expr): Expr</text><ellipse cx="718.5" cy="1025.5078" fill="#84BE84" rx="3" ry="3" style="stroke:#038048;stroke-width:1.0;"/><text fill="#000000" font-family="sans-serif" font-size="14" lengthAdjust="spacing" text-decoration="underline" textLength="276" x="727.5" y="1028.8545">addNonZeroDurationOnly(Module): Expr</text><ellipse cx="718.5" cy="1041.8047" fill="#84BE84" rx="3" ry="3" style="stroke:#038048;stroke-width:1.0;"/><text fill="#000000" font-family="sans-serif" font-size="14" lengthAdjust="spacing" text-decoration="underline" textLength="287" x="727.5" y="1045.1514">addSuppressTransfersExpr(Module): Expr</text><ellipse cx="718.5" cy="1058.1016" fill="#84BE84" rx="3" ry="3" style="stroke:#038048;stroke-width:1.0;"/><text fill="#000000" font-family="sans-serif" font-size="14" lengthAdjust="spacing" text-decoration="underline" textLength="236" x="727.5" y="1061.4482">addSuppressIOExpr(Module): Expr</text><ellipse cx="718.5" cy="1074.3984" fill="#84BE84" rx="3" ry="3" style="stroke:#038048;stroke-width:1.0;"/><text fill="#000000" font-family="sans-serif" font-size="14" lengthAdjust="spacing" text-decoration="underline" textLength="226" x="727.5" y="1077.7451">onlyOneSigExpr(String, Sig): Expr</text><ellipse cx="718.5" cy="1090.6953" fill="#84BE84" rx="3" ry="3" style="stroke:#038048;stroke-width:1.0;"/><text fill="#000000" font-family="sans-serif" font-size="14" lengthAdjust="spacing" text-decoration="underline" textLength="274" x="727.5" y="1094.042">addStep(Module, List&lt;Field&gt;, Sig): Expr</text><ellipse cx="718.5" cy="1106.9922" fill="#84BE84" rx="3" ry="3" style="stroke:#038048;stroke-width:1.0;"/><text fill="#000000" font-family="sans-serif" font-size="14" lengthAdjust="spacing" text-decoration="underline" textLength="326" x="727.5" y="1110.3389">addFieldsInStep(Module, List&lt;Field&gt;, Sig): Expr</text><ellipse cx="718.5" cy="1123.2891" fill="#84BE84" rx="3" ry="3" style="stroke:#038048;stroke-width:1.0;"/><text fill="#000000" font-family="sans-serif" font-size="14" lengthAdjust="spacing" text-decoration="underline" textLength="334" x="727.5" y="1126.6357">addStepsInFields(Module, List&lt;Field&gt;, Sig): Expr</text><ellipse cx="718.5" cy="1139.5859" fill="#84BE84" rx="3" ry="3" style="stroke:#038048;stroke-width:1.0;"/><text fill="#000000" font-family="sans-serif" font-size="14" lengthAdjust="spacing" text-decoration="underline" textLength="437" x="727.5" y="1142.9326">createConstraintExpr(Module, Sig, List&lt;Field&gt;, List&lt;Sig&gt;): Expr</text><ellipse cx="718.5" cy="1155.8828" fill="#84BE84" rx="3" ry="3" style="stroke:#038048;stroke-width:1.0;"/><text fill="#000000" font-family="sans-serif" font-size="14" lengthAdjust="spacing" text-decoration="underline" textLength="383" x="727.5" y="1159.2295">forkHappensBefore(Module, Sig, Field, Field, Field): Expr</text><ellipse cx="718.5" cy="1172.1797" fill="#84BE84" rx="3" ry="3" style="stroke:#038048;stroke-width:1.0;"/><text fill="#000000" font-family="sans-serif" font-size="14" lengthAdjust="spacing" text-decoration="underline" textLength="427" x="727.5" y="1175.5264">decisionHappensBefore(Module, Sig, Field, Field, Field...): Expr</text><ellipse cx="718.5" cy="1188.4766" fill="#84BE84" rx="3" ry="3" style="stroke:#038048;stroke-width:1.0;"/><text fill="#000000" font-family="sans-serif" font-size="14" lengthAdjust="spacing" text-decoration="underline" textLength="387" x="727.5" y="1191.8232">loopHappensBefore(Module, Sig, Field, Field, Field): Expr</text></g></a><!--class AlloyRunUtils--><a href="AlloyRunUtils.html" target="_top" title="AlloyRunUtils.html" xlink:actuate="onRequest" xlink:href="AlloyRunUtils.html" xlink:show="new" xlink:title="AlloyRunUtils.html" xlink:type="simple"><g id="elem_AlloyRunUtils"><rect codeLine="126" fill="#F1F1F1" height="96.8906" id="AlloyRunUtils" rx="2.5" ry="2.5" style="stroke:#181818;stroke-width:0.5;" width="319" x="1269.5" y="931"/><ellipse cx="1380.75" cy="947" fill="#ADD1B2" rx="11" ry="11" style="stroke:#181818;stroke-width:1.0;"/><path d="M1383.7188,952.6406 Q1383.1406,952.9375 1382.5,953.0781 Q1381.8594,953.2344 1381.1563,953.2344 Q1378.6563,953.2344 1377.3281,951.5938 Q1376.0156,949.9375 1376.0156,946.8125 Q1376.0156,943.6875 1377.3281,942.0313 Q1378.6563,940.375 1381.1563,940.375 Q1381.8594,940.375 1382.5,940.5313 Q1383.1563,940.6875 1383.7188,940.9844 L1383.7188,943.7031 Q1383.0938,943.125 1382.5,942.8594 Q1381.9063,942.5781 1381.2813,942.5781 Q1379.9375,942.5781 1379.25,943.6563 Q1378.5625,944.7188 1378.5625,946.8125 Q1378.5625,948.9063 1379.25,949.9844 Q1379.9375,951.0469 1381.2813,951.0469 Q1381.9063,951.0469 1382.5,950.7813 Q1383.0938,950.5 1383.7188,949.9219 L1383.7188,952.6406 Z " fill="#000000"/><text fill="#000000" font-family="sans-serif" font-size="14" lengthAdjust="spacing" textLength="88" x="1401.25" y="951.8467">AlloyRunUtils</text><line style="stroke:#181818;stroke-width:0.5;" x1="1270.5" x2="1587.5" y1="963" y2="963"/><line style="stroke:#181818;stroke-width:0.5;" x1="1270.5" x2="1587.5" y1="971" y2="971"/><ellipse cx="1280.5" cy="984.6484" fill="#84BE84" rx="3" ry="3" style="stroke:#038048;stroke-width:1.0;"/><text fill="#000000" font-family="sans-serif" font-size="14" lengthAdjust="spacing" text-decoration="underline" textLength="230" x="1289.5" y="987.9951">run(Sig, int, List&lt;Sig&gt;, Expr): void</text><ellipse cx="1280.5" cy="1000.9453" fill="#84BE84" rx="3" ry="3" style="stroke:#038048;stroke-width:1.0;"/><text fill="#000000" font-family="sans-serif" font-size="14" lengthAdjust="spacing" text-decoration="underline" textLength="293" x="1289.5" y="1004.292">runX(Sig, List&lt;Sig&gt;, Expr, Command): void</text><ellipse cx="1280.5" cy="1017.2422" fill="#84BE84" rx="3" ry="3" style="stroke:#038048;stroke-width:1.0;"/><text fill="#000000" font-family="sans-serif" font-size="14" lengthAdjust="spacing" text-decoration="underline" textLength="239" x="1289.5" y="1020.5889">runX(Sig, int, List&lt;Sig&gt;, Expr): void</text></g></a><text fill="#888888" font-family="sans-serif" font-size="10" lengthAdjust="spacing" textLength="186" x="706" y="1434.2822">UMLDoclet 2.1.1, PlantUML 1.2023.12</text><!--SRC=[jLdVRzis47xlNw6N0Ifg2EWUWo50uiIBWIOkOgSh5kI1biuM5udKI2ghL-H_xv6KBCdw7Ji6OalKVTyTZtV7e-8uZYD1uLz2155SE6Td7pxWe9CG_vbimO4WzRP4WHzwMoMenzUnfmHXCjBY7eaYldD-Mep- -16HqhdGmm-AHj9vV2nkl535qTCJoZkbpq-fYAB-g_E9nWaNoiZVyY2Dm9tH23wUELCU9tPaC7A9rhBj4Ao0cB_04WqF2vIzQ46ya8W6Nua0fWh4clC826k1R47DA4J1JF1uIRSPRE9y5LJV8zuy7eQ-t9cxrIw1aKG92citpLBckzOhY7ZXj1T0V3K8WAQYE3ez9YoGmtLS_qY4UoduVvAi8vWuUx_s0HSisgr2AcVCrHmZ4EWkwNwXKls1L-S3W6C090ZG3_T0_51FIA-vzSN46SY0dYp3pRBkEN2WvAEUs6cqeWXrkksQT1ayR3qFfluWGLp1XZ88IXI3tP17O0_V098zWqN84V5y0BtStP4Owgxih3CwYJ7j5EMiZjHFUdFMOEMelDqRhXDuP3fUi62kP6wpR4olryFIVtkLr_tigg_eerkc6ZbdDnG44NwuSyq0gZ8XOcxEspL-epB5Wlm_Y1k84X2e-d2epuOq2N2FUp3VWPjLyculXKJcyWEAFyEPAIZC-ekgy0v-g2b9o9f6LEtSkK8PN2YJ4XCdgw3THbYxaTRj2-930xw_IL-TvrGqpO7vsjXOv3r5twgQFcK3mdBtP6T8aWIOl8GD5z2PZvdaLQfJjrDIybJu83jb516O0TqoCbrZbwPG7NexliT9pBXO3Y1l1Au6QAJoOeCBQtNqI5gNMTRkgMRhWP7IjUlaOfQtKVYJMV-yzwe-GYjMbOLtcmkp4OGumKOMUWKNlg_tJXJ8-gown0k8l4z2CLqhQpButEnOUMNJALCLyWMWEJYEjVSY25OyXzJRl4P32hoSXZGA5XjhUJFTS1RRxEgHDnX5D4RxXsJ-QUlJj8_cMuQh7kH-MaAJcmevJRKNr3UjaZemzvBwfj7rSuPsIiWtFJn_O1f0S5Ek3haporCo_PZMRxyRPtSY3OzF-M-7bdUSm3jRVad_WVSoVPckbzLwsCZJjNhbmZYlrBwZgCQ3ZrBT78C3d3in1Nv4T9o2inOI9wRhZJ1D-us8xDZL4sgweSKkYBDfN9Id-dvWgg8-HfYJRoiRYas922WZkaky_XSRfYasuxX9OfU-ulPKQCmobnC7XmSG_May8LOXOSTn6dH5sFoqYIyOr5LLtTkEPtpEaXIFCNQpQH9OfAfJ0at8E8OgrKPdf2CWImM9j6unMvZPASyxWZ9hdFTxgdLvDjhU4EjGpmzS- -i1HoxRlLx_8DW0sGZC5PUNqdgn5hi54-0ZNCMKhNY590ld3YJwA8kpijx-DrWsXjuANGdgF-_AQBqd7U8VdreOx5BfMPcmn_nDupNOxCsNh6FE1Vmm_Ovd6ac0lgYLGIrUAONxrnILYjUpg0Vr_oIaBVlLIRXjYJRzkEaVUm5Pg8zGSSVPto0uvXpHvkltZyM1jnkwJ9D4W9JvaKOQtIF1yyLW54VRCBym6GwBGhysB7dLbticcSw7eOsidBFZM4pPdJDBzaQQl1xdkrJ9TrcfgF2LNsDsi69uFZV7QctlBBQM3hu0V2encCPnUfxNJHjndXndPlCxc_kKLVuVbD_tRLKYPNONnOKe-Rgz_Qf0lxl5UXMmWM-f2lmGtTcqNystZuTb4Cw6S_tpSFlbYliHAETtxxFt6S_B4M4AHvtVT5dJxuC__W80]--></g></svg>