<?xml version="1.0" encoding="us-ascii" standalone="no"?><svg xmlns="http://www.w3.org/2000/svg" xmlns:xlink="http://www.w3.org/1999/xlink" contentStyleType="text/css" height="1444px" preserveAspectRatio="none" style="width:1587px;height:1444px;background:#FFFFFF;" version="1.1" viewBox="0 0 1587 1444" width="1587px" zoomAndPan="magnify"><defs/><g><!--cluster edu.gatech.gtri.obm.translator.alloy--><g id="cluster_edu.gatech.gtri.obm.translator.alloy"><path d="M8.5,6 L292.5,6 A3.75,3.75 0 0 1 295,8.5 L302,28.2969 L1577.5,28.2969 A2.5,2.5 0 0 1 1580,30.7969 L1580,1416.5 A2.5,2.5 0 0 1 1577.5,1419 L8.5,1419 A2.5,2.5 0 0 1 6,1416.5 L6,8.5 A2.5,2.5 0 0 1 8.5,6 " fill="none" style="stroke:#000000;stroke-width:1.5;"/><line style="stroke:#000000;stroke-width:1.5;" x1="6" x2="302" y1="28.2969" y2="28.2969"/><text fill="#000000" font-family="sans-serif" font-size="14" font-weight="bold" lengthAdjust="spacing" textLength="283" x="10" y="20.9951">edu.gatech.gtri.obm.translator.alloy</text></g><!--class MDUtils--><a href="MDUtils.html" target="_top" title="MDUtils.html" xlink:actuate="onRequest" xlink:href="MDUtils.html" xlink:show="new" xlink:title="MDUtils.html" xlink:type="simple"><g id="elem_MDUtils"><rect codeLine="5" fill="#F1F1F1" height="64.2969" id="MDUtils" rx="2.5" ry="2.5" style="stroke:#181818;stroke-width:0.5;" width="302" x="122" y="236.5"/><ellipse cx="242.75" cy="252.5" fill="#ADD1B2" rx="11" ry="11" style="stroke:#181818;stroke-width:1.0;"/><path d="M245.7188,258.1406 Q245.1406,258.4375 244.5,258.5781 Q243.8594,258.7344 243.1563,258.7344 Q240.6563,258.7344 239.3281,257.0938 Q238.0156,255.4375 238.0156,252.3125 Q238.0156,249.1875 239.3281,247.5313 Q240.6563,245.875 243.1563,245.875 Q243.8594,245.875 244.5,246.0313 Q245.1563,246.1875 245.7188,246.4844 L245.7188,249.2031 Q245.0938,248.625 244.5,248.3594 Q243.9063,248.0781 243.2813,248.0781 Q241.9375,248.0781 241.25,249.1563 Q240.5625,250.2188 240.5625,252.3125 Q240.5625,254.4063 241.25,255.4844 Q241.9375,256.5469 243.2813,256.5469 Q243.9063,256.5469 244.5,256.2813 Q245.0938,256 245.7188,255.4219 L245.7188,258.1406 Z " fill="#000000"/><text fill="#000000" font-family="sans-serif" font-size="14" lengthAdjust="spacing" textLength="52" x="263.25" y="257.3467">MDUtils</text><line style="stroke:#181818;stroke-width:0.5;" x1="123" x2="423" y1="268.5" y2="268.5"/><line style="stroke:#181818;stroke-width:0.5;" x1="123" x2="423" y1="276.5" y2="276.5"/><ellipse cx="133" cy="290.1484" fill="#84BE84" rx="3" ry="3" style="stroke:#038048;stroke-width:1.0;"/><text fill="#000000" font-family="sans-serif" font-size="14" lengthAdjust="spacing" text-decoration="underline" textLength="276" x="142" y="293.4951">getClassInHierarchy(Class): List&lt;Class&gt;</text></g></a><!--class AlloyUtils--><a href="AlloyUtils.html" target="_top" title="AlloyUtils.html" xlink:actuate="onRequest" xlink:href="AlloyUtils.html" xlink:show="new" xlink:title="AlloyUtils.html" xlink:type="simple"><g id="elem_AlloyUtils"><rect codeLine="9" fill="#F1F1F1" height="455.4219" id="AlloyUtils" rx="2.5" ry="2.5" style="stroke:#181818;stroke-width:0.5;" width="429" x="459.5" y="41"/><ellipse cx="639.75" cy="57" fill="#ADD1B2" rx="11" ry="11" style="stroke:#181818;stroke-width:1.0;"/><path d="M642.7188,62.6406 Q642.1406,62.9375 641.5,63.0781 Q640.8594,63.2344 640.1563,63.2344 Q637.6563,63.2344 636.3281,61.5938 Q635.0156,59.9375 635.0156,56.8125 Q635.0156,53.6875 636.3281,52.0313 Q637.6563,50.375 640.1563,50.375 Q640.8594,50.375 641.5,50.5313 Q642.1563,50.6875 642.7188,50.9844 L642.7188,53.7031 Q642.0938,53.125 641.5,52.8594 Q640.9063,52.5781 640.2813,52.5781 Q638.9375,52.5781 638.25,53.6563 Q637.5625,54.7188 637.5625,56.8125 Q637.5625,58.9063 638.25,59.9844 Q638.9375,61.0469 640.2813,61.0469 Q640.9063,61.0469 641.5,60.7813 Q642.0938,60.5 642.7188,59.9219 L642.7188,62.6406 Z " fill="#000000"/><text fill="#000000" font-family="sans-serif" font-size="14" lengthAdjust="spacing" textLength="60" x="660.25" y="61.8467">AlloyUtils</text><line style="stroke:#181818;stroke-width:0.5;" x1="460.5" x2="887.5" y1="73" y2="73"/><line style="stroke:#181818;stroke-width:0.5;" x1="460.5" x2="887.5" y1="81" y2="81"/><ellipse cx="470.5" cy="94.6484" fill="#84BE84" rx="3" ry="3" style="stroke:#038048;stroke-width:1.0;"/><text fill="#000000" font-family="sans-serif" font-size="14" lengthAdjust="spacing" text-decoration="underline" textLength="260" x="479.5" y="97.9951">importAlloyModule(File): CompModule</text><ellipse cx="470.5" cy="110.9453" fill="#84BE84" rx="3" ry="3" style="stroke:#038048;stroke-width:1.0;"/><text fill="#000000" font-family="sans-serif" font-size="14" lengthAdjust="spacing" text-decoration="underline" textLength="277" x="479.5" y="114.292">importAlloyModule(String): CompModule</text><ellipse cx="470.5" cy="127.2422" fill="#84BE84" rx="3" ry="3" style="stroke:#038048;stroke-width:1.0;"/><text fill="#000000" font-family="sans-serif" font-size="14" lengthAdjust="spacing" text-decoration="underline" textLength="188" x="479.5" y="130.5889">removeSlash(String): String</text><ellipse cx="470.5" cy="143.5391" fill="#84BE84" rx="3" ry="3" style="stroke:#038048;stroke-width:1.0;"/><text fill="#000000" font-family="sans-serif" font-size="14" lengthAdjust="spacing" text-decoration="underline" textLength="190" x="479.5" y="146.8857">validParent(String): boolean</text><ellipse cx="470.5" cy="159.8359" fill="#84BE84" rx="3" ry="3" style="stroke:#038048;stroke-width:1.0;"/><text fill="#000000" font-family="sans-serif" font-size="14" lengthAdjust="spacing" text-decoration="underline" textLength="261" x="479.5" y="163.1826">getFieldFromSig(String, PrimSig): Field</text><ellipse cx="470.5" cy="176.1328" fill="#84BE84" rx="3" ry="3" style="stroke:#038048;stroke-width:1.0;"/><text fill="#000000" font-family="sans-serif" font-size="14" lengthAdjust="spacing" text-decoration="underline" textLength="344" x="479.5" y="179.4795">getFieldFromSigByFieldType(String, PrimSig): Field</text><ellipse cx="470.5" cy="192.4297" fill="#84BE84" rx="3" ry="3" style="stroke:#038048;stroke-width:1.0;"/><text fill="#000000" font-family="sans-serif" font-size="14" lengthAdjust="spacing" text-decoration="underline" textLength="178" x="479.5" y="195.7764">printAllFunc(Module): void</text><ellipse cx="470.5" cy="208.7266" fill="#84BE84" rx="3" ry="3" style="stroke:#038048;stroke-width:1.0;"/><text fill="#000000" font-family="sans-serif" font-size="14" lengthAdjust="spacing" text-decoration="underline" textLength="173" x="479.5" y="212.0732">printAllFact(Module): void</text><ellipse cx="470.5" cy="225.0234" fill="#84BE84" rx="3" ry="3" style="stroke:#038048;stroke-width:1.0;"/><text fill="#000000" font-family="sans-serif" font-size="14" lengthAdjust="spacing" text-decoration="underline" textLength="215" x="479.5" y="228.3701">getAllCommands(Module): void</text><ellipse cx="470.5" cy="241.3203" fill="#84BE84" rx="3" ry="3" style="stroke:#038048;stroke-width:1.0;"/><text fill="#000000" font-family="sans-serif" font-size="14" lengthAdjust="spacing" text-decoration="underline" textLength="228" x="479.5" y="244.667">printExpr(Browsable, String): void</text><ellipse cx="470.5" cy="257.6172" fill="#84BE84" rx="3" ry="3" style="stroke:#038048;stroke-width:1.0;"/><text fill="#000000" font-family="sans-serif" font-size="14" lengthAdjust="spacing" text-decoration="underline" textLength="184" x="479.5" y="260.9639">printOnlyThisFn(Expr): void</text><ellipse cx="470.5" cy="273.9141" fill="#84BE84" rx="3" ry="3" style="stroke:#038048;stroke-width:1.0;"/><text fill="#000000" font-family="sans-serif" font-size="14" lengthAdjust="spacing" text-decoration="underline" textLength="234" x="479.5" y="277.2607">printOnlyThisSigs(List&lt;Sig&gt;): void</text><ellipse cx="470.5" cy="290.2109" fill="#84BE84" rx="3" ry="3" style="stroke:#038048;stroke-width:1.0;"/><text fill="#000000" font-family="sans-serif" font-size="14" lengthAdjust="spacing" text-decoration="underline" textLength="175" x="479.5" y="293.5576">printSigs(List&lt;Sig&gt;): void</text><ellipse cx="470.5" cy="306.5078" fill="#84BE84" rx="3" ry="3" style="stroke:#038048;stroke-width:1.0;"/><text fill="#000000" font-family="sans-serif" font-size="14" lengthAdjust="spacing" text-decoration="underline" textLength="309" x="479.5" y="309.8545">addAllReachableSig(Module, List&lt;Sig&gt;): void</text><ellipse cx="470.5" cy="322.8047" fill="#84BE84" rx="3" ry="3" style="stroke:#038048;stroke-width:1.0;"/><text fill="#000000" font-family="sans-serif" font-size="14" lengthAdjust="spacing" text-decoration="underline" textLength="328" x="479.5" y="326.1514">getReachableSigField(Module, Sig, String): Field</text><ellipse cx="470.5" cy="339.1016" fill="#84BE84" rx="3" ry="3" style="stroke:#038048;stroke-width:1.0;"/><text fill="#000000" font-family="sans-serif" font-size="14" lengthAdjust="spacing" text-decoration="underline" textLength="256" x="479.5" y="342.4482">getReachableSig(Module, String): Sig</text><ellipse cx="470.5" cy="355.3984" fill="#84BE84" rx="3" ry="3" style="stroke:#038048;stroke-width:1.0;"/><text fill="#000000" font-family="sans-serif" font-size="14" lengthAdjust="spacing" text-decoration="underline" textLength="231" x="479.5" y="358.7451">printReachableSigs(Module): void</text><ellipse cx="470.5" cy="371.6953" fill="#84BE84" rx="3" ry="3" style="stroke:#038048;stroke-width:1.0;"/><text fill="#000000" font-family="sans-serif" font-size="14" lengthAdjust="spacing" text-decoration="underline" textLength="403" x="479.5" y="375.042">addAllReachableUserDefinedSigs(Module, List&lt;Sig&gt;): void</text><ellipse cx="470.5" cy="387.9922" fill="#84BE84" rx="3" ry="3" style="stroke:#038048;stroke-width:1.0;"/><text fill="#000000" font-family="sans-serif" font-size="14" lengthAdjust="spacing" text-decoration="underline" textLength="332" x="479.5" y="391.3389">printAllReachableUserDefinedSigs(Module): void</text><ellipse cx="470.5" cy="404.2891" fill="#84BE84" rx="3" ry="3" style="stroke:#038048;stroke-width:1.0;"/><text fill="#000000" font-family="sans-serif" font-size="14" lengthAdjust="spacing" text-decoration="underline" textLength="261" x="479.5" y="407.6357">printReachableModules(Module): void</text><ellipse cx="470.5" cy="420.5859" fill="#84BE84" rx="3" ry="3" style="stroke:#038048;stroke-width:1.0;"/><text fill="#000000" font-family="sans-serif" font-size="14" lengthAdjust="spacing" text-decoration="underline" textLength="388" x="479.5" y="423.9326">getAllReachableModuleByName(Module, String): Module</text><ellipse cx="470.5" cy="436.8828" fill="#84BE84" rx="3" ry="3" style="stroke:#038048;stroke-width:1.0;"/><text fill="#000000" font-family="sans-serif" font-size="14" lengthAdjust="spacing" text-decoration="underline" textLength="235" x="479.5" y="440.2295">getFunction(Module, String): Func</text><ellipse cx="470.5" cy="453.1797" fill="#84BE84" rx="3" ry="3" style="stroke:#038048;stroke-width:1.0;"/><text fill="#000000" font-family="sans-serif" font-size="14" lengthAdjust="spacing" text-decoration="underline" textLength="203" x="479.5" y="456.5264">printAllFuctions(Module): void</text><ellipse cx="470.5" cy="469.4766" fill="#84BE84" rx="3" ry="3" style="stroke:#038048;stroke-width:1.0;"/><text fill="#000000" font-family="sans-serif" font-size="14" lengthAdjust="spacing" text-decoration="underline" textLength="254" x="479.5" y="472.8232">printAllReachableFacts(Module): void</text><ellipse cx="470.5" cy="485.7734" fill="#84BE84" rx="3" ry="3" style="stroke:#038048;stroke-width:1.0;"/><text fill="#000000" font-family="sans-serif" font-size="14" lengthAdjust="spacing" text-decoration="underline" textLength="249" x="479.5" y="489.1201">printExprAndItsFunctions(Expr): void</text></g></a><!--class FuncUtils--><a href="FuncUtils.html" target="_top" title="FuncUtils.html" xlink:actuate="onRequest" xlink:href="FuncUtils.html" xlink:show="new" xlink:title="FuncUtils.html" xlink:type="simple"><g id="elem_FuncUtils"><rect codeLine="37" fill="#F1F1F1" height="439.125" id="FuncUtils" rx="2.5" ry="2.5" style="stroke:#181818;stroke-width:0.5;" width="527" x="923.5" y="49"/><ellipse cx="1151.25" cy="65" fill="#ADD1B2" rx="11" ry="11" style="stroke:#181818;stroke-width:1.0;"/><path d="M1154.2188,70.6406 Q1153.6406,70.9375 1153,71.0781 Q1152.3594,71.2344 1151.6563,71.2344 Q1149.1563,71.2344 1147.8281,69.5938 Q1146.5156,67.9375 1146.5156,64.8125 Q1146.5156,61.6875 1147.8281,60.0313 Q1149.1563,58.375 1151.6563,58.375 Q1152.3594,58.375 1153,58.5313 Q1153.6563,58.6875 1154.2188,58.9844 L1154.2188,61.7031 Q1153.5938,61.125 1153,60.8594 Q1152.4063,60.5781 1151.7813,60.5781 Q1150.4375,60.5781 1149.75,61.6563 Q1149.0625,62.7188 1149.0625,64.8125 Q1149.0625,66.9063 1149.75,67.9844 Q1150.4375,69.0469 1151.7813,69.0469 Q1152.4063,69.0469 1153,68.7813 Q1153.5938,68.5 1154.2188,67.9219 L1154.2188,70.6406 Z " fill="#000000"/><text fill="#000000" font-family="sans-serif" font-size="14" lengthAdjust="spacing" textLength="63" x="1171.75" y="69.8467">FuncUtils</text><line style="stroke:#181818;stroke-width:0.5;" x1="924.5" x2="1449.5" y1="81" y2="81"/><line style="stroke:#181818;stroke-width:0.5;" x1="924.5" x2="1449.5" y1="89" y2="89"/><ellipse cx="934.5" cy="102.6484" fill="#84BE84" rx="3" ry="3" style="stroke:#038048;stroke-width:1.0;"/><text fill="#000000" font-family="sans-serif" font-size="14" lengthAdjust="spacing" text-decoration="underline" textLength="344" x="943.5" y="105.9951">getDuringExampleExpr(String, Sig, Field, Sig): Expr</text><ellipse cx="934.5" cy="118.9453" fill="#84BE84" rx="3" ry="3" style="stroke:#038048;stroke-width:1.0;"/><text fill="#000000" font-family="sans-serif" font-size="14" lengthAdjust="spacing" text-decoration="underline" textLength="249" x="943.5" y="122.292">exprToFunToExpr(String, Expr): Expr</text><ellipse cx="934.5" cy="135.2422" fill="#84BE84" rx="3" ry="3" style="stroke:#038048;stroke-width:1.0;"/><text fill="#000000" font-family="sans-serif" font-size="14" lengthAdjust="spacing" text-decoration="underline" textLength="207" x="943.5" y="138.5889">addField(String, Sig, Sig): Field</text><ellipse cx="934.5" cy="151.5391" fill="#84BE84" rx="3" ry="3" style="stroke:#038048;stroke-width:1.0;"/><text fill="#000000" font-family="sans-serif" font-size="14" lengthAdjust="spacing" text-decoration="underline" textLength="236" x="943.5" y="154.8857">addOneField(String, Sig, Sig): Field</text><ellipse cx="934.5" cy="167.8359" fill="#84BE84" rx="3" ry="3" style="stroke:#038048;stroke-width:1.0;"/><text fill="#000000" font-family="sans-serif" font-size="14" lengthAdjust="spacing" text-decoration="underline" textLength="267" x="943.5" y="171.1826">addTrickyField(String[], Sig, Sig): Field[]</text><ellipse cx="934.5" cy="184.1328" fill="#84BE84" rx="3" ry="3" style="stroke:#038048;stroke-width:1.0;"/><text fill="#000000" font-family="sans-serif" font-size="14" lengthAdjust="spacing" text-decoration="underline" textLength="289" x="943.5" y="187.4795">createExprEqualToNumber(Expr, int): Expr</text><ellipse cx="934.5" cy="200.4297" fill="#84BE84" rx="3" ry="3" style="stroke:#038048;stroke-width:1.0;"/><text fill="#000000" font-family="sans-serif" font-size="14" lengthAdjust="spacing" text-decoration="underline" textLength="376" x="943.5" y="203.7764">createExprGreaterThanEqualToNumber(Expr, int): Expr</text><ellipse cx="934.5" cy="216.7266" fill="#84BE84" rx="3" ry="3" style="stroke:#038048;stroke-width:1.0;"/><text fill="#000000" font-family="sans-serif" font-size="14" lengthAdjust="spacing" text-decoration="underline" textLength="303" x="943.5" y="220.0732">createExprGreaterToNumber(Expr, int): Expr</text><ellipse cx="934.5" cy="233.0234" fill="#84BE84" rx="3" ry="3" style="stroke:#038048;stroke-width:1.0;"/><text fill="#000000" font-family="sans-serif" font-size="14" lengthAdjust="spacing" text-decoration="underline" textLength="450" x="943.5" y="236.3701">addBijectionFilteredExprHappensBefore(Module, Expr, Expr): Expr</text><ellipse cx="934.5" cy="249.3203" fill="#84BE84" rx="3" ry="3" style="stroke:#038048;stroke-width:1.0;"/><text fill="#000000" font-family="sans-serif" font-size="14" lengthAdjust="spacing" text-decoration="underline" textLength="451" x="943.5" y="252.667">addFunctionFilteredExprHappensBefore(Module, Expr, Expr): Expr</text><ellipse cx="934.5" cy="265.6172" fill="#84BE84" rx="3" ry="3" style="stroke:#038048;stroke-width:1.0;"/><text fill="#000000" font-family="sans-serif" font-size="14" lengthAdjust="spacing" text-decoration="underline" textLength="501" x="943.5" y="268.9639">addInverseFunctionFilteredExprHappensBefore(Module, Expr, Expr): Expr</text><ellipse cx="934.5" cy="281.9141" fill="#84BE84" rx="3" ry="3" style="stroke:#038048;stroke-width:1.0;"/><text fill="#000000" font-family="sans-serif" font-size="14" lengthAdjust="spacing" text-decoration="underline" textLength="190" x="943.5" y="285.2607">addExprs(List&lt;Expr&gt;): Expr</text><ellipse cx="934.5" cy="298.2109" fill="#84BE84" rx="3" ry="3" style="stroke:#038048;stroke-width:1.0;"/><text fill="#000000" font-family="sans-serif" font-size="14" lengthAdjust="spacing" text-decoration="underline" textLength="191" x="943.5" y="301.5576">addToExpr(Expr, Expr): Expr</text><ellipse cx="934.5" cy="314.5078" fill="#84BE84" rx="3" ry="3" style="stroke:#038048;stroke-width:1.0;"/><text fill="#000000" font-family="sans-serif" font-size="14" lengthAdjust="spacing" text-decoration="underline" textLength="276" x="943.5" y="317.8545">addNonZeroDurationOnly(Module): Expr</text><ellipse cx="934.5" cy="330.8047" fill="#84BE84" rx="3" ry="3" style="stroke:#038048;stroke-width:1.0;"/><text fill="#000000" font-family="sans-serif" font-size="14" lengthAdjust="spacing" text-decoration="underline" textLength="287" x="943.5" y="334.1514">addSuppressTransfersExpr(Module): Expr</text><ellipse cx="934.5" cy="347.1016" fill="#84BE84" rx="3" ry="3" style="stroke:#038048;stroke-width:1.0;"/><text fill="#000000" font-family="sans-serif" font-size="14" lengthAdjust="spacing" text-decoration="underline" textLength="236" x="943.5" y="350.4482">addSuppressIOExpr(Module): Expr</text><ellipse cx="934.5" cy="363.3984" fill="#84BE84" rx="3" ry="3" style="stroke:#038048;stroke-width:1.0;"/><text fill="#000000" font-family="sans-serif" font-size="14" lengthAdjust="spacing" text-decoration="underline" textLength="226" x="943.5" y="366.7451">onlyOneSigExpr(String, Sig): Expr</text><ellipse cx="934.5" cy="379.6953" fill="#84BE84" rx="3" ry="3" style="stroke:#038048;stroke-width:1.0;"/><text fill="#000000" font-family="sans-serif" font-size="14" lengthAdjust="spacing" text-decoration="underline" textLength="274" x="943.5" y="383.042">addStep(Module, List&lt;Field&gt;, Sig): Expr</text><ellipse cx="934.5" cy="395.9922" fill="#84BE84" rx="3" ry="3" style="stroke:#038048;stroke-width:1.0;"/><text fill="#000000" font-family="sans-serif" font-size="14" lengthAdjust="spacing" text-decoration="underline" textLength="326" x="943.5" y="399.3389">addFieldsInStep(Module, List&lt;Field&gt;, Sig): Expr</text><ellipse cx="934.5" cy="412.2891" fill="#84BE84" rx="3" ry="3" style="stroke:#038048;stroke-width:1.0;"/><text fill="#000000" font-family="sans-serif" font-size="14" lengthAdjust="spacing" text-decoration="underline" textLength="334" x="943.5" y="415.6357">addStepsInFields(Module, List&lt;Field&gt;, Sig): Expr</text><ellipse cx="934.5" cy="428.5859" fill="#84BE84" rx="3" ry="3" style="stroke:#038048;stroke-width:1.0;"/><text fill="#000000" font-family="sans-serif" font-size="14" lengthAdjust="spacing" text-decoration="underline" textLength="437" x="943.5" y="431.9326">createConstraintExpr(Module, Sig, List&lt;Field&gt;, List&lt;Sig&gt;): Expr</text><ellipse cx="934.5" cy="444.8828" fill="#84BE84" rx="3" ry="3" style="stroke:#038048;stroke-width:1.0;"/><text fill="#000000" font-family="sans-serif" font-size="14" lengthAdjust="spacing" text-decoration="underline" textLength="383" x="943.5" y="448.2295">forkHappensBefore(Module, Sig, Field, Field, Field): Expr</text><ellipse cx="934.5" cy="461.1797" fill="#84BE84" rx="3" ry="3" style="stroke:#038048;stroke-width:1.0;"/><text fill="#000000" font-family="sans-serif" font-size="14" lengthAdjust="spacing" text-decoration="underline" textLength="427" x="943.5" y="464.5264">decisionHappensBefore(Module, Sig, Field, Field, Field...): Expr</text><ellipse cx="934.5" cy="477.4766" fill="#84BE84" rx="3" ry="3" style="stroke:#038048;stroke-width:1.0;"/><text fill="#000000" font-family="sans-serif" font-size="14" lengthAdjust="spacing" text-decoration="underline" textLength="387" x="943.5" y="480.8232">loopHappensBefore(Module, Sig, Field, Field, Field): Expr</text></g></a><!--class VisualizerHelper--><a href="VisualizerHelper.html" target="_top" title="VisualizerHelper.html" xlink:actuate="onRequest" xlink:href="VisualizerHelper.html" xlink:show="new" xlink:title="VisualizerHelper.html" xlink:type="simple"><g id="elem_VisualizerHelper"><rect codeLine="64" fill="#F1F1F1" height="162.0781" id="VisualizerHelper" rx="2.5" ry="2.5" style="stroke:#181818;stroke-width:0.5;" width="502" x="22" y="898.5"/><ellipse cx="213.75" cy="914.5" fill="#ADD1B2" rx="11" ry="11" style="stroke:#181818;stroke-width:1.0;"/><path d="M216.7188,920.1406 Q216.1406,920.4375 215.5,920.5781 Q214.8594,920.7344 214.1563,920.7344 Q211.6563,920.7344 210.3281,919.0938 Q209.0156,917.4375 209.0156,914.3125 Q209.0156,911.1875 210.3281,909.5313 Q211.6563,907.875 214.1563,907.875 Q214.8594,907.875 215.5,908.0313 Q216.1563,908.1875 216.7188,908.4844 L216.7188,911.2031 Q216.0938,910.625 215.5,910.3594 Q214.9063,910.0781 214.2813,910.0781 Q212.9375,910.0781 212.25,911.1563 Q211.5625,912.2188 211.5625,914.3125 Q211.5625,916.4063 212.25,917.4844 Q212.9375,918.5469 214.2813,918.5469 Q214.9063,918.5469 215.5,918.2813 Q216.0938,918 216.7188,917.4219 L216.7188,920.1406 Z " fill="#000000"/><text fill="#000000" font-family="sans-serif" font-size="14" lengthAdjust="spacing" textLength="110" x="234.25" y="919.3467">VisualizerHelper</text><line style="stroke:#181818;stroke-width:0.5;" x1="23" x2="523" y1="930.5" y2="930.5"/><line style="stroke:#181818;stroke-width:0.5;" x1="23" x2="523" y1="938.5" y2="938.5"/><ellipse cx="33" cy="952.1484" fill="#84BE84" rx="3" ry="3" style="stroke:#038048;stroke-width:1.0;"/><text fill="#000000" font-family="sans-serif" font-size="14" lengthAdjust="spacing" text-decoration="underline" textLength="211" x="42" y="955.4951">updateUpdated(boolean): void</text><ellipse cx="33" cy="968.4453" fill="#84BE84" rx="3" ry="3" style="stroke:#038048;stroke-width:1.0;"/><text fill="#000000" font-family="sans-serif" font-size="14" lengthAdjust="spacing" text-decoration="underline" textLength="159" x="42" y="971.792">hasUpdated(): boolean</text><ellipse cx="33" cy="984.7422" fill="#84BE84" rx="3" ry="3" style="stroke:#038048;stroke-width:1.0;"/><text fill="#000000" font-family="sans-serif" font-size="14" lengthAdjust="spacing" text-decoration="underline" textLength="476" x="42" y="988.0889">generateVisualizerWithNextCapability(Iterable&lt;Sig&gt;, Command): void</text><ellipse cx="33" cy="1001.0391" fill="#84BE84" rx="3" ry="3" style="stroke:#038048;stroke-width:1.0;"/><text fill="#000000" font-family="sans-serif" font-size="14" lengthAdjust="spacing" text-decoration="underline" textLength="116" x="42" y="1004.3857">updateVis(): void</text><ellipse cx="33" cy="1017.3359" fill="#84BE84" rx="3" ry="3" style="stroke:#038048;stroke-width:1.0;"/><text fill="#000000" font-family="sans-serif" font-size="14" lengthAdjust="spacing" text-decoration="underline" textLength="359" x="42" y="1020.6826">generateVisualizerX(Iterable&lt;Sig&gt;, Command): void</text><ellipse cx="33" cy="1033.6328" fill="#84BE84" rx="3" ry="3" style="stroke:#038048;stroke-width:1.0;"/><text fill="#000000" font-family="sans-serif" font-size="14" lengthAdjust="spacing" text-decoration="underline" textLength="350" x="42" y="1036.9795">generateVisualizer(Iterable&lt;Sig&gt;, Command): void</text><ellipse cx="33" cy="1049.9297" fill="#84BE84" rx="3" ry="3" style="stroke:#038048;stroke-width:1.0;"/><text fill="#000000" font-family="sans-serif" font-size="14" lengthAdjust="spacing" text-decoration="underline" textLength="226" x="42" y="1053.2764">generateVisualizer(Module): void</text></g></a><!--class AlloyRunUtils--><a href="AlloyRunUtils.html" target="_top" title="AlloyRunUtils.html" xlink:actuate="onRequest" xlink:href="AlloyRunUtils.html" xlink:show="new" xlink:title="AlloyRunUtils.html" xlink:type="simple"><g id="elem_AlloyRunUtils"><rect codeLine="74" fill="#F1F1F1" height="96.8906" id="AlloyRunUtils" rx="2.5" ry="2.5" style="stroke:#181818;stroke-width:0.5;" width="319" x="559.5" y="931"/><ellipse cx="670.75" cy="947" fill="#ADD1B2" rx="11" ry="11" style="stroke:#181818;stroke-width:1.0;"/><path d="M673.7188,952.6406 Q673.1406,952.9375 672.5,953.0781 Q671.8594,953.2344 671.1563,953.2344 Q668.6563,953.2344 667.3281,951.5938 Q666.0156,949.9375 666.0156,946.8125 Q666.0156,943.6875 667.3281,942.0313 Q668.6563,940.375 671.1563,940.375 Q671.8594,940.375 672.5,940.5313 Q673.1563,940.6875 673.7188,940.9844 L673.7188,943.7031 Q673.0938,943.125 672.5,942.8594 Q671.9063,942.5781 671.2813,942.5781 Q669.9375,942.5781 669.25,943.6563 Q668.5625,944.7188 668.5625,946.8125 Q668.5625,948.9063 669.25,949.9844 Q669.9375,951.0469 671.2813,951.0469 Q671.9063,951.0469 672.5,950.7813 Q673.0938,950.5 673.7188,949.9219 L673.7188,952.6406 Z " fill="#000000"/><text fill="#000000" font-family="sans-serif" font-size="14" lengthAdjust="spacing" textLength="88" x="691.25" y="951.8467">AlloyRunUtils</text><line style="stroke:#181818;stroke-width:0.5;" x1="560.5" x2="877.5" y1="963" y2="963"/><line style="stroke:#181818;stroke-width:0.5;" x1="560.5" x2="877.5" y1="971" y2="971"/><ellipse cx="570.5" cy="984.6484" fill="#84BE84" rx="3" ry="3" style="stroke:#038048;stroke-width:1.0;"/><text fill="#000000" font-family="sans-serif" font-size="14" lengthAdjust="spacing" text-decoration="underline" textLength="230" x="579.5" y="987.9951">run(Sig, int, List&lt;Sig&gt;, Expr): void</text><ellipse cx="570.5" cy="1000.9453" fill="#84BE84" rx="3" ry="3" style="stroke:#038048;stroke-width:1.0;"/><text fill="#000000" font-family="sans-serif" font-size="14" lengthAdjust="spacing" text-decoration="underline" textLength="293" x="579.5" y="1004.292">runX(Sig, List&lt;Sig&gt;, Expr, Command): void</text><ellipse cx="570.5" cy="1017.2422" fill="#84BE84" rx="3" ry="3" style="stroke:#038048;stroke-width:1.0;"/><text fill="#000000" font-family="sans-serif" font-size="14" lengthAdjust="spacing" text-decoration="underline" textLength="239" x="579.5" y="1020.5889">runX(Sig, int, List&lt;Sig&gt;, Expr): void</text></g></a><!--class Alloy--><a href="Alloy.html" target="_top" title="Alloy.html" xlink:actuate="onRequest" xlink:href="Alloy.html" xlink:show="new" xlink:title="Alloy.html" xlink:type="simple"><g id="elem_Alloy"><rect codeLine="80" fill="#F1F1F1" height="846.5469" id="Alloy" rx="2.5" ry="2.5" style="stroke:#181818;stroke-width:0.5;" width="650" x="914" y="556"/><ellipse cx="1219.25" cy="572" fill="#ADD1B2" rx="11" ry="11" style="stroke:#181818;stroke-width:1.0;"/><path d="M1222.2188,577.6406 Q1221.6406,577.9375 1221,578.0781 Q1220.3594,578.2344 1219.6563,578.2344 Q1217.1563,578.2344 1215.8281,576.5938 Q1214.5156,574.9375 1214.5156,571.8125 Q1214.5156,568.6875 1215.8281,567.0313 Q1217.1563,565.375 1219.6563,565.375 Q1220.3594,565.375 1221,565.5313 Q1221.6563,565.6875 1222.2188,565.9844 L1222.2188,568.7031 Q1221.5938,568.125 1221,567.8594 Q1220.4063,567.5781 1219.7813,567.5781 Q1218.4375,567.5781 1217.75,568.6563 Q1217.0625,569.7188 1217.0625,571.8125 Q1217.0625,573.9063 1217.75,574.9844 Q1218.4375,576.0469 1219.7813,576.0469 Q1220.4063,576.0469 1221,575.7813 Q1221.5938,575.5 1222.2188,574.9219 L1222.2188,577.6406 Z " fill="#000000"/><text fill="#000000" font-family="sans-serif" font-size="14" lengthAdjust="spacing" textLength="31" x="1239.75" y="576.8467">Alloy</text><line style="stroke:#181818;stroke-width:0.5;" x1="915" x2="1563" y1="588" y2="588"/><ellipse cx="925" cy="601.6484" fill="none" rx="3" ry="3" style="stroke:#038048;stroke-width:1.0;"/><text fill="#000000" font-family="sans-serif" font-size="14" lengthAdjust="spacing" text-decoration="underline" textLength="164" x="934" y="604.9951">transferModule: Module</text><ellipse cx="925" cy="617.9453" fill="none" rx="3" ry="3" style="stroke:#038048;stroke-width:1.0;"/><text fill="#000000" font-family="sans-serif" font-size="14" lengthAdjust="spacing" text-decoration="underline" textLength="150" x="934" y="621.292">happensBefore: Func</text><ellipse cx="925" cy="634.2422" fill="none" rx="3" ry="3" style="stroke:#038048;stroke-width:1.0;"/><text fill="#000000" font-family="sans-serif" font-size="14" lengthAdjust="spacing" text-decoration="underline" textLength="150" x="934" y="637.5889">happensDuring: Func</text><ellipse cx="925" cy="650.5391" fill="none" rx="3" ry="3" style="stroke:#038048;stroke-width:1.0;"/><text fill="#000000" font-family="sans-serif" font-size="14" lengthAdjust="spacing" text-decoration="underline" textLength="99" x="934" y="653.8857">sources: Func</text><ellipse cx="925" cy="666.8359" fill="none" rx="3" ry="3" style="stroke:#038048;stroke-width:1.0;"/><text fill="#000000" font-family="sans-serif" font-size="14" lengthAdjust="spacing" text-decoration="underline" textLength="92" x="934" y="670.1826">targets: Func</text><ellipse cx="925" cy="683.1328" fill="none" rx="3" ry="3" style="stroke:#038048;stroke-width:1.0;"/><text fill="#000000" font-family="sans-serif" font-size="14" lengthAdjust="spacing" text-decoration="underline" textLength="257" x="934" y="686.4795">subsettingItemRuleForSources: Func</text><ellipse cx="925" cy="699.4297" fill="none" rx="3" ry="3" style="stroke:#038048;stroke-width:1.0;"/><text fill="#000000" font-family="sans-serif" font-size="14" lengthAdjust="spacing" text-decoration="underline" textLength="253" x="934" y="702.7764">subsettingItemRuleForTargets: Func</text><ellipse cx="925" cy="715.7266" fill="none" rx="3" ry="3" style="stroke:#038048;stroke-width:1.0;"/><text fill="#000000" font-family="sans-serif" font-size="14" lengthAdjust="spacing" text-decoration="underline" textLength="135" x="934" y="719.0732">isAfterSource: Func</text><ellipse cx="925" cy="732.0234" fill="none" rx="3" ry="3" style="stroke:#038048;stroke-width:1.0;"/><text fill="#000000" font-family="sans-serif" font-size="14" lengthAdjust="spacing" text-decoration="underline" textLength="145" x="934" y="735.3701">isBeforeTarget: Func</text><ellipse cx="925" cy="748.3203" fill="none" rx="3" ry="3" style="stroke:#038048;stroke-width:1.0;"/><text fill="#000000" font-family="sans-serif" font-size="14" lengthAdjust="spacing" text-decoration="underline" textLength="104" x="934" y="751.667">transferSig: Sig</text><ellipse cx="925" cy="764.6172" fill="none" rx="3" ry="3" style="stroke:#038048;stroke-width:1.0;"/><text fill="#000000" font-family="sans-serif" font-size="14" lengthAdjust="spacing" text-decoration="underline" textLength="150" x="934" y="767.9639">transferBeforeSig: Sig</text><line style="stroke:#181818;stroke-width:0.5;" x1="915" x2="1563" y1="775.2656" y2="775.2656"/><ellipse cx="925" cy="788.9141" fill="#84BE84" rx="3" ry="3" style="stroke:#038048;stroke-width:1.0;"/><text fill="#000000" font-family="sans-serif" font-size="14" lengthAdjust="spacing" textLength="81" x="934" y="792.2607">Alloy(String)</text><ellipse cx="925" cy="805.2109" fill="#84BE84" rx="3" ry="3" style="stroke:#038048;stroke-width:1.0;"/><text fill="#000000" font-family="sans-serif" font-size="14" lengthAdjust="spacing" textLength="201" x="934" y="808.5576">getTransferModule(): Module</text><ellipse cx="925" cy="821.5078" fill="#84BE84" rx="3" ry="3" style="stroke:#038048;stroke-width:1.0;"/><text fill="#000000" font-family="sans-serif" font-size="14" lengthAdjust="spacing" textLength="209" x="934" y="824.8545">getTemplateModule(): Module</text><ellipse cx="925" cy="837.8047" fill="#84BE84" rx="3" ry="3" style="stroke:#038048;stroke-width:1.0;"/><text fill="#000000" font-family="sans-serif" font-size="14" lengthAdjust="spacing" textLength="141" x="934" y="841.1514">getOccSig(): PrimSig</text><ellipse cx="925" cy="854.1016" fill="#84BE84" rx="3" ry="3" style="stroke:#038048;stroke-width:1.0;"/><text fill="#000000" font-family="sans-serif" font-size="14" lengthAdjust="spacing" textLength="148" x="934" y="857.4482">getOverAllFact(): Expr</text><ellipse cx="925" cy="870.3984" fill="#84BE84" rx="3" ry="3" style="stroke:#038048;stroke-width:1.0;"/><text fill="#000000" font-family="sans-serif" font-size="14" lengthAdjust="spacing" textLength="154" x="934" y="873.7451">getAllSigs(): List&lt;Sig&gt;</text><ellipse cx="925" cy="886.6953" fill="#84BE84" rx="3" ry="3" style="stroke:#038048;stroke-width:1.0;"/><text fill="#000000" font-family="sans-serif" font-size="14" lengthAdjust="spacing" textLength="350" x="934" y="890.042">createSigAndAddToAllSigs(String, PrimSig): PrimSig</text><ellipse cx="925" cy="902.9922" fill="#84BE84" rx="3" ry="3" style="stroke:#038048;stroke-width:1.0;"/><text fill="#000000" font-family="sans-serif" font-size="14" lengthAdjust="spacing" textLength="405" x="934" y="906.3389">createSigAsChildOfOccSigAndAddToAllSigs(String): PrimSig</text><ellipse cx="925" cy="919.2891" fill="#84BE84" rx="3" ry="3" style="stroke:#038048;stroke-width:1.0;"/><text fill="#000000" font-family="sans-serif" font-size="14" lengthAdjust="spacing" textLength="455" x="934" y="922.6357">createSigAsChildOfParentSigAddToAllSigs(String, PrimSig): PrimSig</text><ellipse cx="925" cy="935.5859" fill="#84BE84" rx="3" ry="3" style="stroke:#038048;stroke-width:1.0;"/><text fill="#000000" font-family="sans-serif" font-size="14" lengthAdjust="spacing" textLength="196" x="934" y="938.9326">addToOverallFact(Expr): void</text><ellipse cx="925" cy="951.8828" fill="#84BE84" rx="3" ry="3" style="stroke:#038048;stroke-width:1.0;"/><text fill="#000000" font-family="sans-serif" font-size="14" lengthAdjust="spacing" textLength="192" x="934" y="955.2295">getIgnoredSigs(): Set&lt;Sig&gt;</text><ellipse cx="925" cy="968.1797" fill="#84BE84" rx="3" ry="3" style="stroke:#038048;stroke-width:1.0;"/><text fill="#000000" font-family="sans-serif" font-size="14" lengthAdjust="spacing" textLength="210" x="934" y="971.5264">getIgnoredExprs(): Set&lt;Expr&gt;</text><ellipse cx="925" cy="984.4766" fill="#84BE84" rx="3" ry="3" style="stroke:#038048;stroke-width:1.0;"/><text fill="#000000" font-family="sans-serif" font-size="14" lengthAdjust="spacing" textLength="218" x="934" y="987.8232">getIgnoredFuncs(): Set&lt;Func&gt;</text><ellipse cx="925" cy="1000.7734" fill="#84BE84" rx="3" ry="3" style="stroke:#038048;stroke-width:1.0;"/><text fill="#000000" font-family="sans-serif" font-size="14" lengthAdjust="spacing" textLength="604" x="934" y="1004.1201">createInverseFunctionFilteredHappensBeforeAndAddToOverallFact(Sig, Expr, Expr): void</text><ellipse cx="925" cy="1017.0703" fill="#84BE84" rx="3" ry="3" style="stroke:#038048;stroke-width:1.0;"/><text fill="#000000" font-family="sans-serif" font-size="14" lengthAdjust="spacing" textLength="624" x="934" y="1020.417">createInverseFunctionFilteredHappensBeforeAndAddToOverallFact(Sig, Expr[], Expr[]): void</text><ellipse cx="925" cy="1033.3672" fill="#84BE84" rx="3" ry="3" style="stroke:#038048;stroke-width:1.0;"/><text fill="#000000" font-family="sans-serif" font-size="14" lengthAdjust="spacing" textLength="554" x="934" y="1036.7139">createFunctionFilteredHappensBeforeAndAddToOverallFact(Sig, Expr, Expr): void</text><ellipse cx="925" cy="1049.6641" fill="#84BE84" rx="3" ry="3" style="stroke:#038048;stroke-width:1.0;"/><text fill="#000000" font-family="sans-serif" font-size="14" lengthAdjust="spacing" textLength="574" x="934" y="1053.0107">createFunctionFilteredHappensBeforeAndAddToOverallFact(Sig, Expr[], Expr[]): void</text><ellipse cx="925" cy="1065.9609" fill="#84BE84" rx="3" ry="3" style="stroke:#038048;stroke-width:1.0;"/><text fill="#000000" font-family="sans-serif" font-size="14" lengthAdjust="spacing" textLength="553" x="934" y="1069.3076">createBijectionFilteredHappensBeforeAndAddToOverallFact(Sig, Expr, Expr): void</text><ellipse cx="925" cy="1082.2578" fill="#84BE84" rx="3" ry="3" style="stroke:#038048;stroke-width:1.0;"/><text fill="#000000" font-family="sans-serif" font-size="14" lengthAdjust="spacing" textLength="362" x="934" y="1085.6045">createSubSettingItemRuleOverallFact(Sig, Expr): void</text><ellipse cx="925" cy="1098.5547" fill="#84BE84" rx="3" ry="3" style="stroke:#038048;stroke-width:1.0;"/><text fill="#000000" font-family="sans-serif" font-size="14" lengthAdjust="spacing" textLength="419" x="934" y="1101.9014">createIsAfterSourceIsBeforeTargetOverallFact(Sig, Expr): void</text><ellipse cx="925" cy="1114.8516" fill="#84BE84" rx="3" ry="3" style="stroke:#038048;stroke-width:1.0;"/><text fill="#000000" font-family="sans-serif" font-size="14" lengthAdjust="spacing" textLength="317" x="934" y="1118.1982">createIsAfterSourceOverallFact(Sig, Expr): void</text><ellipse cx="925" cy="1131.1484" fill="#84BE84" rx="3" ry="3" style="stroke:#038048;stroke-width:1.0;"/><text fill="#000000" font-family="sans-serif" font-size="14" lengthAdjust="spacing" textLength="327" x="934" y="1134.4951">createIsBeforeTargetOverallFact(Sig, Expr): void</text><ellipse cx="925" cy="1147.4453" fill="#84BE84" rx="3" ry="3" style="stroke:#038048;stroke-width:1.0;"/><text fill="#000000" font-family="sans-serif" font-size="14" lengthAdjust="spacing" textLength="538" x="934" y="1150.792">createInverseFunctionFilteredAndAddToOverallFact(Sig, Expr, Expr, Func): void</text><ellipse cx="925" cy="1163.7422" fill="#84BE84" rx="3" ry="3" style="stroke:#038048;stroke-width:1.0;"/><text fill="#000000" font-family="sans-serif" font-size="14" lengthAdjust="spacing" textLength="488" x="934" y="1167.0889">createFunctionFilteredAndAddToOverallFact(Sig, Expr, Expr, Func): void</text><ellipse cx="925" cy="1180.0391" fill="#84BE84" rx="3" ry="3" style="stroke:#038048;stroke-width:1.0;"/><text fill="#000000" font-family="sans-serif" font-size="14" lengthAdjust="spacing" textLength="433" x="934" y="1183.3857">createBijectionFilteredToOverallFact(Sig, Expr, Expr, Func): void</text><ellipse cx="925" cy="1196.3359" fill="#84BE84" rx="3" ry="3" style="stroke:#038048;stroke-width:1.0;"/><text fill="#000000" font-family="sans-serif" font-size="14" lengthAdjust="spacing" textLength="613" x="934" y="1199.6826">createBijectionFilteredHappensBeforeAndAddToOverallFact(ExprVar, Sig, Expr, Expr): void</text><ellipse cx="925" cy="1212.6328" fill="#84BE84" rx="3" ry="3" style="stroke:#038048;stroke-width:1.0;"/><text fill="#000000" font-family="sans-serif" font-size="14" lengthAdjust="spacing" textLength="205" x="934" y="1215.9795">getCommonCmdExprs(): Expr</text><ellipse cx="925" cy="1228.9297" fill="#84BE84" rx="3" ry="3" style="stroke:#038048;stroke-width:1.0;"/><text fill="#000000" font-family="sans-serif" font-size="14" lengthAdjust="spacing" textLength="191" x="934" y="1232.2764">addToNameExpr(Expr): void</text><ellipse cx="925" cy="1245.2266" fill="#84BE84" rx="3" ry="3" style="stroke:#038048;stroke-width:1.0;"/><text fill="#000000" font-family="sans-serif" font-size="14" lengthAdjust="spacing" textLength="388" x="934" y="1248.5732">addCardinalityEqualConstraintToField(Sig, Field, int): void</text><ellipse cx="925" cy="1261.5234" fill="#84BE84" rx="3" ry="3" style="stroke:#038048;stroke-width:1.0;"/><text fill="#000000" font-family="sans-serif" font-size="14" lengthAdjust="spacing" textLength="475" x="934" y="1264.8701">addCardinalityGreaterThanEqualConstraintToField(Sig, Field, int): void</text><ellipse cx="925" cy="1277.8203" fill="#84BE84" rx="3" ry="3" style="stroke:#038048;stroke-width:1.0;"/><text fill="#000000" font-family="sans-serif" font-size="14" lengthAdjust="spacing" textLength="212" x="934" y="1281.167">addEqual(Sig, Field, Field): void</text><ellipse cx="925" cy="1294.1172" fill="#84BE84" rx="3" ry="3" style="stroke:#038048;stroke-width:1.0;"/><text fill="#000000" font-family="sans-serif" font-size="14" lengthAdjust="spacing" textLength="344" x="934" y="1297.4639">addOneConstraintToField(ExprVar, Sig, Field): void</text><ellipse cx="925" cy="1310.4141" fill="#84BE84" rx="3" ry="3" style="stroke:#038048;stroke-width:1.0;"/><text fill="#000000" font-family="sans-serif" font-size="14" lengthAdjust="spacing" textLength="129" x="934" y="1313.7607">noInputs(Sig): void</text><ellipse cx="925" cy="1326.7109" fill="#84BE84" rx="3" ry="3" style="stroke:#038048;stroke-width:1.0;"/><text fill="#000000" font-family="sans-serif" font-size="14" lengthAdjust="spacing" textLength="142" x="934" y="1330.0576">noOutputs(Sig): void</text><ellipse cx="925" cy="1343.0078" fill="#84BE84" rx="3" ry="3" style="stroke:#038048;stroke-width:1.0;"/><text fill="#000000" font-family="sans-serif" font-size="14" lengthAdjust="spacing" textLength="237" x="934" y="1346.3545">addInputs(ExprVar, Sig, Field): void</text><ellipse cx="925" cy="1359.3047" fill="#84BE84" rx="3" ry="3" style="stroke:#038048;stroke-width:1.0;"/><text fill="#000000" font-family="sans-serif" font-size="14" lengthAdjust="spacing" textLength="250" x="934" y="1362.6514">addOutputs(ExprVar, Sig, Field): void</text><ellipse cx="925" cy="1375.6016" fill="#84BE84" rx="3" ry="3" style="stroke:#038048;stroke-width:1.0;"/><text fill="#000000" font-family="sans-serif" font-size="14" lengthAdjust="spacing" textLength="229" x="934" y="1378.9482">addSteps(Sig, Set&lt;String&gt;): void</text><ellipse cx="925" cy="1391.8984" fill="#84BE84" rx="3" ry="3" style="stroke:#038048;stroke-width:1.0;"/><text fill="#000000" font-family="sans-serif" font-size="14" lengthAdjust="spacing" textLength="270" x="934" y="1395.2451">createCommand(String, int): Command</text></g></a><text fill="#888888" font-family="sans-serif" font-size="10" lengthAdjust="spacing" textLength="186" x="693.5" y="1434.2822">UMLDoclet 2.1.1, PlantUML 1.2023.12</text><!--SRC=[jLdRRjiu47tlL-Xb0HKr1BIFmI90uiIDWIOkOgLRR907MXfRt4YabgIoyHRvzmv9oP8iMPV4CH1RbpbdXiEPuP1n7CUHeF0l9O8eBfoJamyVyA6Jak2HRC21CFCsH44GUHibgCTNYQS4OJBMuXw9OxvrVbcC_WGnaTAvlhXJD9RE_Nr-vKKgYHyUKDAfV7v9HHGDNfnF6r1JZPopAmg2Y23QkkR1nnFd6vNgJtDpkaE_x6iyquOKIikRFhqqIRbGHlwQXraCxep6W4gdF4djay789Vg7ROPW1IJy2PPeU5IYxCK1n1E9QVYT262gHAmuZu6mmowTKOZ3cU39acvosCJvBgY-HxnvFGnzlZLt_ZQ5aKGf2citpJ8MkDOhY7ZYj1T00ZK8WAQYE3ez8IoKmtLSFgV2FHVyFqbMCKoSdL_xW0iMR_s8oXbpDSS81BfBkYQUyUfq070CW8GX-k4MI13f0UavjxwOE0CPq9DLk9dM7GS-gFYe9tPQhIX3dMww1bq53vlFlQ7VIH0NiAOCmWh5O3SK4TZ3Du1ans0HSaGyxq7FjpSaWQOhE-kCJc9CEqKvQoBrczwSDLWvAcztXki47fcEPooSArdOB5lJgr7wjNXH-NVN0nQSYqnxulAP96aCfXWKbSs4kebmSuqMwDS7c01V-HmL-xn6ajlUWSIejIbMqzjVKX6tOF1Qg2zeyBYjekyVclZxXmCCWG1i1_IeBl_DIEppconPWJ1JDN5m7hl7NCA_cYlXHuGTYMaa0VhYdFu39jHmrKS62BNu5KbJOF8SrboK6MT9Xqrg7hz79Psp9n0IteLRlysN6NrvsWl8Gts4YXlE_WR1CUU8DbylY6Lfw8OkipGL8AMlsyurEi7e7WcUBmQZEDg6-ON9i5yK-hKfIEkhZKccqs5e8uijyDjOD1f9BDahQMnkJR44OwzVj4grHg36LrrNErWnF1_ROxLQSAi_tNmX15HYC8tZz3olcpRcF7sRcOqbwWULME7e_o2k84v1u4gr_wXlmShI4AVapdo7RjxwTo-h4P65_83T0iDzbuBIhB-eYcxWMKr9IbOqfchhph7aw9NTpFN4oLlkRYEitKZhzdKz-mRyV9M-9i-nQDexcVQTw6t6QflHuhvlbaN6N1Dbc7ILlDeLsGwB4VhJBNEpX0qSSOaVehjzsCLm-uQfyb9kNThJnKRLNEpiMtD9szXrIagUYG1afumY0hl4RXcPhIGeXUemo99R7CICY-K0ybQWFq0ZbMThZ6UheqVIkiooTWyrdm-SxwxTMI5cULk5FvdvByuewg_G2hysyMxx1iO80dRbc7-zWeiWq7jC5CZF8veIs3WLvmbjbJ_VS9cTNN7Sf0E_BcINH7oEUvGptG4LaEPnIAiX9LvE8ng7YxMrl9rkE8iz5D9FNc6KQUMqVqZkdqDbHljelc4uws7XfoMqkQcKiqrbBcZQoaEIEZ1talgcrVK76k3QIbquipeaKz9gdMfpT4VIe3TIzhT3opiEu9qjR-oMZcZwCbijw_MmbQThzgg5SLwhVM-Y6Wz-a-hs61pWt8afy2EYunYSZP0uCbrlX6dQ7qJalNbFgEd_Cc0hnDaqASjJSpqmLL4Vj-qskQriA3Ob8gICwEROd66KEoQVvoSibIs3FP7e8ze_5tarfq6xZJtB8N7SyZPLrTrx6C_udAMPagvTRDe45fdgb31d74PYg59jT4uw0cBsnzOjPWapA-LfHr3ctVDkJRKkpv_kDyGlvZl09HbtUMlEzS_TzRSB7iIWd2_UP-yphienOGgVEd_ePDUdinz_0m00]--></g></svg>