<svg xmlns="http://www.w3.org/2000/svg" xmlns:xlink="http://www.w3.org/1999/xlink" contentStyleType="text/css" height="386px" preserveAspectRatio="none" style="width:334px;height:386px;background:#FFFFFF;" version="1.1" viewBox="0 0 334 386" width="334px" zoomAndPan="magnify"><defs/><g><ellipse cx="152.2666" cy="20" fill="#222222" rx="10" ry="10" style="stroke:#222222;stroke-width:1.0;"/><rect fill="#F1F1F1" height="33.9688" rx="12.5" ry="12.5" style="stroke:#181818;stroke-width:0.5;" width="205.5898" x="49.4717" y="94"/><text fill="#000000" font-family="sans-serif" font-size="12" lengthAdjust="spacing" textLength="185.5898" x="59.4717" y="115.1387">Get Field from Sig or Its Parent</text><polygon fill="#F1F1F1" points="120.0615,147.9688,184.4717,147.9688,196.4717,159.9688,184.4717,171.9688,120.0615,171.9688,108.0615,159.9688,120.0615,147.9688" style="stroke:#181818;stroke-width:0.5;"/><text fill="#000000" font-family="sans-serif" font-size="11" lengthAdjust="spacing" textLength="64.4102" x="120.0615" y="163.7769">field != null</text><text fill="#000000" font-family="sans-serif" font-size="11" lengthAdjust="spacing" textLength="19.0083" x="89.0532" y="157.3745">yes</text><text fill="#000000" font-family="sans-serif" font-size="11" lengthAdjust="spacing" textLength="13.7017" x="196.4717" y="157.3745">no</text><rect fill="#F1F1F1" height="33.9688" rx="12.5" ry="12.5" style="stroke:#181818;stroke-width:0.5;" width="90.2773" x="38" y="181.9688"/><text fill="#000000" font-family="sans-serif" font-size="12" lengthAdjust="spacing" textLength="70.2773" x="48" y="203.1074">Return field</text><ellipse cx="83.1387" cy="246.9375" fill="none" rx="11" ry="11" style="stroke:#222222;stroke-width:1.0;"/><ellipse cx="83.1387" cy="246.9375" fill="#222222" rx="6" ry="6" style="stroke:#222222;stroke-width:1.0;"/><rect fill="#F1F1F1" height="33.9688" rx="12.5" ry="12.5" style="stroke:#181818;stroke-width:0.5;" width="146.2344" x="148.2773" y="181.9688"/><text fill="#000000" font-family="sans-serif" font-size="12" lengthAdjust="spacing" textLength="45.9434" x="158.2773" y="203.1074">Change</text><text fill="#000000" font-family="sans-serif" font-size="12" font-style="italic" lengthAdjust="spacing" textLength="17.2031" x="208.0352" y="203.1074">sig</text><text fill="#000000" font-family="sans-serif" font-size="12" lengthAdjust="spacing" textLength="55.459" x="229.0527" y="203.1074">to parent</text><polygon fill="#F1F1F1" points="107.896,50,196.6372,50,208.6372,62,196.6372,74,107.896,74,95.896,62,107.896,50" style="stroke:#181818;stroke-width:0.5;"/><text fill="#000000" font-family="sans-serif" font-size="11" font-style="italic" lengthAdjust="spacing" textLength="15.7695" x="107.896" y="65.8081">sig</text><text fill="#000000" font-family="sans-serif" font-size="11" lengthAdjust="spacing" textLength="69.4751" x="127.1621" y="65.8081">has a parent</text><rect fill="#F1F1F1" height="33.9688" rx="12.5" ry="12.5" style="stroke:#181818;stroke-width:0.5;" width="86.2637" x="109.1348" y="299.9375"/><text fill="#000000" font-family="sans-serif" font-size="12" lengthAdjust="spacing" textLength="66.2637" x="119.1348" y="321.0762">Return null</text><ellipse cx="152.2666" cy="364.9063" fill="none" rx="11" ry="11" style="stroke:#222222;stroke-width:1.0;"/><ellipse cx="152.2666" cy="364.9063" fill="#222222" rx="6" ry="6" style="stroke:#222222;stroke-width:1.0;"/><line style="stroke:#181818;stroke-width:1.0;" x1="83.1387" x2="83.1387" y1="215.9375" y2="235.9375"/><polygon fill="#181818" points="79.1387,225.9375,83.1387,235.9375,87.1387,225.9375,83.1387,229.9375" style="stroke:#181818;stroke-width:1.0;"/><line style="stroke:#181818;stroke-width:1.0;" x1="108.0615" x2="83.1387" y1="159.9688" y2="159.9688"/><line style="stroke:#181818;stroke-width:1.0;" x1="83.1387" x2="83.1387" y1="159.9688" y2="181.9688"/><polygon fill="#181818" points="79.1387,171.9688,83.1387,181.9688,87.1387,171.9688,83.1387,175.9688" style="stroke:#181818;stroke-width:1.0;"/><line style="stroke:#181818;stroke-width:1.0;" x1="196.4717" x2="221.3945" y1="159.9688" y2="159.9688"/><line style="stroke:#181818;stroke-width:1.0;" x1="221.3945" x2="221.3945" y1="159.9688" y2="181.9688"/><polygon fill="#181818" points="217.3945,171.9688,221.3945,181.9688,225.3945,171.9688,221.3945,175.9688" style="stroke:#181818;stroke-width:1.0;"/><line style="stroke:#181818;stroke-width:1.0;" x1="221.3945" x2="221.3945" y1="215.9375" y2="267.9375"/><line style="stroke:#181818;stroke-width:1.0;" x1="221.3945" x2="308.5117" y1="267.9375" y2="267.9375"/><polygon fill="#181818" points="304.5117,176.9688,308.5117,166.9688,312.5117,176.9688,308.5117,172.9688" style="stroke:#181818;stroke-width:1.0;"/><line style="stroke:#181818;stroke-width:1.0;" x1="308.5117" x2="308.5117" y1="62" y2="267.9375"/><line style="stroke:#181818;stroke-width:1.0;" x1="308.5117" x2="208.6372" y1="62" y2="62"/><polygon fill="#181818" points="218.6372,58,208.6372,62,218.6372,66,214.6372,62" style="stroke:#181818;stroke-width:1.0;"/><line style="stroke:#181818;stroke-width:1.0;" x1="152.2666" x2="152.2666" y1="127.9688" y2="147.9688"/><polygon fill="#181818" points="148.2666,137.9688,152.2666,147.9688,156.2666,137.9688,152.2666,141.9688" style="stroke:#181818;stroke-width:1.0;"/><line style="stroke:#181818;stroke-width:1.0;" x1="152.2666" x2="152.2666" y1="74" y2="94"/><polygon fill="#181818" points="148.2666,84,152.2666,94,156.2666,84,152.2666,88" style="stroke:#181818;stroke-width:1.0;"/><line style="stroke:#181818;stroke-width:1.0;" x1="95.896" x2="24" y1="62" y2="62"/><polygon fill="#181818" points="20,162.9688,24,172.9688,28,162.9688,24,166.9688" style="stroke:#181818;stroke-width:1.0;"/><line style="stroke:#181818;stroke-width:1.0;" x1="24" x2="24" y1="62" y2="279.9375"/><line style="stroke:#181818;stroke-width:1.0;" x1="24" x2="152.2666" y1="279.9375" y2="279.9375"/><line style="stroke:#181818;stroke-width:1.0;" x1="152.2666" x2="152.2666" y1="279.9375" y2="299.9375"/><polygon fill="#181818" points="148.2666,289.9375,152.2666,299.9375,156.2666,289.9375,152.2666,293.9375" style="stroke:#181818;stroke-width:1.0;"/><line style="stroke:#181818;stroke-width:1.0;" x1="152.2666" x2="152.2666" y1="30" y2="50"/><polygon fill="#181818" points="148.2666,40,152.2666,50,156.2666,40,152.2666,44" style="stroke:#181818;stroke-width:1.0;"/><line style="stroke:#181818;stroke-width:1.0;" x1="152.2666" x2="152.2666" y1="333.9063" y2="353.9063"/><polygon fill="#181818" points="148.2666,343.9063,152.2666,353.9063,156.2666,343.9063,152.2666,347.9063" style="stroke:#181818;stroke-width:1.0;"/><!--SRC=[DSun2iCm38NXsJg5kZcJzuHEXPPkfJs18N9iSELWAPJUlevf5aqVJx-ehmgVc39PvoGjpc7qWXvNNubr03FUIF6QACyOQddZAorOAjvLyD7D12O56xeudP6td0VKI8psIz8MpFWatIfZDuqRqRA2eInakNHnYPuNmgD1op-WQU8v1MYtPy8njl-PO5_w0G00]--></g></svg>