<svg xmlns="http://www.w3.org/2000/svg" xmlns:xlink="http://www.w3.org/1999/xlink" contentStyleType="text/css" height="619px" preserveAspectRatio="none" style="width:331px;height:619px;background:#FFFFFF;" version="1.1" viewBox="0 0 331 619" width="331px" zoomAndPan="magnify"><defs/><g><ellipse cx="152.9697" cy="20" fill="#222222" rx="10" ry="10" style="stroke:#222222;stroke-width:1.0;"/><rect fill="#F1F1F1" height="33.9688" rx="12.5" ry="12.5" style="stroke:#181818;stroke-width:0.5;" width="92.9551" x="106.4922" y="142.4023"/><text fill="#000000" font-family="sans-serif" font-size="12" lengthAdjust="spacing" textLength="72.9551" x="116.4922" y="163.541">Return Field</text><ellipse cx="152.9697" cy="207.3711" fill="none" rx="11" ry="11" style="stroke:#222222;stroke-width:1.0;"/><ellipse cx="152.9697" cy="207.3711" fill="#222222" rx="6" ry="6" style="stroke:#222222;stroke-width:1.0;"/><polygon fill="#F1F1F1" points="75.5696,94,230.3699,94,242.3699,106,230.3699,118,75.5696,118,63.5696,106,75.5696,94" style="stroke:#181818;stroke-width:0.5;"/><text fill="#000000" font-family="sans-serif" font-size="11" lengthAdjust="spacing" textLength="19.0083" x="156.9697" y="128.2104">yes</text><text fill="#000000" font-family="sans-serif" font-size="11" lengthAdjust="spacing" textLength="154.8003" x="75.5696" y="109.8081">current field == fieldName?</text><polygon fill="#F1F1F1" points="89.5022,50,216.4373,50,228.4373,62,216.4373,74,89.5022,74,77.5022,62,89.5022,50" style="stroke:#181818;stroke-width:0.5;"/><text fill="#000000" font-family="sans-serif" font-size="11" lengthAdjust="spacing" textLength="126.9351" x="89.5022" y="65.8081">For All Signature Fields</text><rect fill="#F1F1F1" height="33.9688" rx="12.5" ry="12.5" style="stroke:#181818;stroke-width:0.5;" width="170.2051" x="67.8672" y="326.3711"/><text fill="#000000" font-family="sans-serif" font-size="12" lengthAdjust="spacing" textLength="150.2051" x="77.8672" y="347.5098">Get Field from sig.parent</text><polygon fill="#F1F1F1" points="120.7646,380.3398,185.1748,380.3398,197.1748,392.3398,185.1748,404.3398,120.7646,404.3398,108.7646,392.3398,120.7646,380.3398" style="stroke:#181818;stroke-width:0.5;"/><text fill="#000000" font-family="sans-serif" font-size="11" lengthAdjust="spacing" textLength="64.4102" x="120.7646" y="396.1479">field != null</text><text fill="#000000" font-family="sans-serif" font-size="11" lengthAdjust="spacing" textLength="19.0083" x="89.7563" y="389.7456">yes</text><text fill="#000000" font-family="sans-serif" font-size="11" lengthAdjust="spacing" textLength="13.7017" x="197.1748" y="389.7456">no</text><rect fill="#F1F1F1" height="33.9688" rx="12.5" ry="12.5" style="stroke:#181818;stroke-width:0.5;" width="92.9551" x="38" y="414.3398"/><text fill="#000000" font-family="sans-serif" font-size="12" lengthAdjust="spacing" textLength="72.9551" x="48" y="435.4785">Return Field</text><ellipse cx="84.4775" cy="479.3086" fill="none" rx="11" ry="11" style="stroke:#222222;stroke-width:1.0;"/><ellipse cx="84.4775" cy="479.3086" fill="#222222" rx="6" ry="6" style="stroke:#222222;stroke-width:1.0;"/><rect fill="#F1F1F1" height="33.9688" rx="12.5" ry="12.5" style="stroke:#181818;stroke-width:0.5;" width="141.0137" x="150.9551" y="414.3398"/><text fill="#000000" font-family="sans-serif" font-size="12" lengthAdjust="spacing" textLength="121.0137" x="160.9551" y="435.4785">Set sig to sig.parent</text><polygon fill="#F1F1F1" points="104.8501,282.3711,201.0894,282.3711,213.0894,294.3711,201.0894,306.3711,104.8501,306.3711,92.8501,294.3711,104.8501,282.3711" style="stroke:#181818;stroke-width:0.5;"/><text fill="#000000" font-family="sans-serif" font-size="11" lengthAdjust="spacing" textLength="96.2393" x="104.8501" y="298.1792">sig.parent != null</text><rect fill="#F1F1F1" height="33.9688" rx="12.5" ry="12.5" style="stroke:#181818;stroke-width:0.5;" width="86.2637" x="109.8379" y="532.3086"/><text fill="#000000" font-family="sans-serif" font-size="12" lengthAdjust="spacing" textLength="66.2637" x="119.8379" y="553.4473">Return null</text><ellipse cx="152.9697" cy="597.2773" fill="none" rx="11" ry="11" style="stroke:#222222;stroke-width:1.0;"/><ellipse cx="152.9697" cy="597.2773" fill="#222222" rx="6" ry="6" style="stroke:#222222;stroke-width:1.0;"/><line style="stroke:#181818;stroke-width:1.0;" x1="152.9697" x2="152.9697" y1="176.3711" y2="196.3711"/><polygon fill="#181818" points="148.9697,186.3711,152.9697,196.3711,156.9697,186.3711,152.9697,190.3711" style="stroke:#181818;stroke-width:1.0;"/><line style="stroke:#181818;stroke-width:1.0;" x1="152.9697" x2="152.9697" y1="118" y2="142.4023"/><polygon fill="#181818" points="148.9697,132.4023,152.9697,142.4023,156.9697,132.4023,152.9697,136.4023" style="stroke:#181818;stroke-width:1.0;"/><line style="stroke:#181818;stroke-width:1.0;" x1="242.3699" x2="266.3699" y1="106" y2="106"/><line style="stroke:#181818;stroke-width:1.0;" x1="266.3699" x2="266.3699" y1="62" y2="106"/><line style="stroke:#181818;stroke-width:1.0;" x1="266.3699" x2="228.4373" y1="62" y2="62"/><polygon fill="#181818" points="238.4373,58,228.4373,62,238.4373,66,234.4373,62" style="stroke:#181818;stroke-width:1.0;"/><line style="stroke:#181818;stroke-width:1.0;" x1="152.9697" x2="152.9697" y1="74" y2="94"/><polygon fill="#181818" points="148.9697,84,152.9697,94,156.9697,84,152.9697,88" style="stroke:#181818;stroke-width:1.0;"/><line style="stroke:#181818;stroke-width:1.0;" x1="77.5022" x2="51.5696" y1="62" y2="62"/><polygon fill="#181818" points="47.5696,162.8867,51.5696,172.8867,55.5696,162.8867,51.5696,166.8867" style="stroke:#181818;stroke-width:1.0;"/><line style="stroke:#181818;stroke-width:1.0;" x1="51.5696" x2="51.5696" y1="62" y2="262.3711"/><line style="stroke:#181818;stroke-width:1.0;" x1="51.5696" x2="152.9697" y1="262.3711" y2="262.3711"/><line style="stroke:#181818;stroke-width:1.0;" x1="152.9697" x2="152.9697" y1="262.3711" y2="282.3711"/><polygon fill="#181818" points="148.9697,272.3711,152.9697,282.3711,156.9697,272.3711,152.9697,276.3711" style="stroke:#181818;stroke-width:1.0;"/><line style="stroke:#181818;stroke-width:1.0;" x1="152.9697" x2="152.9697" y1="30" y2="50"/><polygon fill="#181818" points="148.9697,40,152.9697,50,156.9697,40,152.9697,44" style="stroke:#181818;stroke-width:1.0;"/><line style="stroke:#181818;stroke-width:1.0;" x1="84.4775" x2="84.4775" y1="448.3086" y2="468.3086"/><polygon fill="#181818" points="80.4775,458.3086,84.4775,468.3086,88.4775,458.3086,84.4775,462.3086" style="stroke:#181818;stroke-width:1.0;"/><line style="stroke:#181818;stroke-width:1.0;" x1="108.7646" x2="84.4775" y1="392.3398" y2="392.3398"/><line style="stroke:#181818;stroke-width:1.0;" x1="84.4775" x2="84.4775" y1="392.3398" y2="414.3398"/><polygon fill="#181818" points="80.4775,404.3398,84.4775,414.3398,88.4775,404.3398,84.4775,408.3398" style="stroke:#181818;stroke-width:1.0;"/><line style="stroke:#181818;stroke-width:1.0;" x1="197.1748" x2="221.4619" y1="392.3398" y2="392.3398"/><line style="stroke:#181818;stroke-width:1.0;" x1="221.4619" x2="221.4619" y1="392.3398" y2="414.3398"/><polygon fill="#181818" points="217.4619,404.3398,221.4619,414.3398,225.4619,404.3398,221.4619,408.3398" style="stroke:#181818;stroke-width:1.0;"/><line style="stroke:#181818;stroke-width:1.0;" x1="221.4619" x2="221.4619" y1="448.3086" y2="500.3086"/><line style="stroke:#181818;stroke-width:1.0;" x1="221.4619" x2="305.9688" y1="500.3086" y2="500.3086"/><polygon fill="#181818" points="301.9688,409.3398,305.9688,399.3398,309.9688,409.3398,305.9688,405.3398" style="stroke:#181818;stroke-width:1.0;"/><line style="stroke:#181818;stroke-width:1.0;" x1="305.9688" x2="305.9688" y1="294.3711" y2="500.3086"/><line style="stroke:#181818;stroke-width:1.0;" x1="305.9688" x2="213.0894" y1="294.3711" y2="294.3711"/><polygon fill="#181818" points="223.0894,290.3711,213.0894,294.3711,223.0894,298.3711,219.0894,294.3711" style="stroke:#181818;stroke-width:1.0;"/><line style="stroke:#181818;stroke-width:1.0;" x1="152.9697" x2="152.9697" y1="360.3398" y2="380.3398"/><polygon fill="#181818" points="148.9697,370.3398,152.9697,380.3398,156.9697,370.3398,152.9697,374.3398" style="stroke:#181818;stroke-width:1.0;"/><line style="stroke:#181818;stroke-width:1.0;" x1="152.9697" x2="152.9697" y1="306.3711" y2="326.3711"/><polygon fill="#181818" points="148.9697,316.3711,152.9697,326.3711,156.9697,316.3711,152.9697,320.3711" style="stroke:#181818;stroke-width:1.0;"/><line style="stroke:#181818;stroke-width:1.0;" x1="92.8501" x2="24" y1="294.3711" y2="294.3711"/><polygon fill="#181818" points="20,395.3398,24,405.3398,28,395.3398,24,399.3398" style="stroke:#181818;stroke-width:1.0;"/><line style="stroke:#181818;stroke-width:1.0;" x1="24" x2="24" y1="294.3711" y2="512.3086"/><line style="stroke:#181818;stroke-width:1.0;" x1="24" x2="152.9697" y1="512.3086" y2="512.3086"/><line style="stroke:#181818;stroke-width:1.0;" x1="152.9697" x2="152.9697" y1="512.3086" y2="532.3086"/><polygon fill="#181818" points="148.9697,522.3086,152.9697,532.3086,156.9697,522.3086,152.9697,526.3086" style="stroke:#181818;stroke-width:1.0;"/><line style="stroke:#181818;stroke-width:1.0;" x1="152.9697" x2="152.9697" y1="566.2773" y2="586.2773"/><polygon fill="#181818" points="148.9697,576.2773,152.9697,586.2773,156.9697,576.2773,152.9697,580.2773" style="stroke:#181818;stroke-width:1.0;"/><!--SRC=[POyn3i8m34NdvXHcInSEG5KXbh8nq1D4r6ajkGbAN25kJzAeGeN5Ygp_ttEYc23gDH4ZwCu7k313JwCpiWI4Zf27M2ko-h64W4x0vXMqRNdSp8pd6cH21_gDALgTxfYwhdGRLKNnJuLk89ldgYf27MayFirAFRJW5kPSlwAKBjZWP_Y64eiiw7B0LjYf_zn5NY77z3tdrqYV-0aAulVidnCtLBOqAdC-]--></g></svg>