<?xml version="1.0" encoding="us-ascii" standalone="no"?><svg xmlns="http://www.w3.org/2000/svg" xmlns:xlink="http://www.w3.org/1999/xlink" contentStyleType="text/css" height="481px" preserveAspectRatio="none" style="width:706px;height:481px;background:#FFFFFF;" version="1.1" viewBox="0 0 706 481" width="706px" zoomAndPan="magnify"><defs/><g><!--cluster edu.gatech.gtri.obm.translator.alloy.tofile--><g id="cluster_edu.gatech.gtri.obm.translator.alloy.tofile"><path d="M8.5,129 L337.5,129 A3.75,3.75 0 0 1 340,131.5 L347,151.2969 L696.5,151.2969 A2.5,2.5 0 0 1 699,153.7969 L699,453.5 A2.5,2.5 0 0 1 696.5,456 L8.5,456 A2.5,2.5 0 0 1 6,453.5 L6,131.5 A2.5,2.5 0 0 1 8.5,129 " fill="none" style="stroke:#000000;stroke-width:1.5;"/><line style="stroke:#000000;stroke-width:1.5;" x1="6" x2="347" y1="151.2969" y2="151.2969"/><text fill="#000000" font-family="sans-serif" font-size="14" font-weight="bold" lengthAdjust="spacing" textLength="328" x="10" y="143.9951">edu.gatech.gtri.obm.translator.alloy.tofile</text></g><!--cluster edu.mit.csail.sdg.ast--><g id="cluster_edu.mit.csail.sdg.ast"><path d="M463.5,6 L626.5,6 A3.75,3.75 0 0 1 629,8.5 L636,28.2969 L636.5,28.2969 A2.5,2.5 0 0 1 639,30.7969 L639,102.5 A2.5,2.5 0 0 1 636.5,105 L463.5,105 A2.5,2.5 0 0 1 461,102.5 L461,8.5 A2.5,2.5 0 0 1 463.5,6 " fill="none" style="stroke:#000000;stroke-width:1.5;"/><line style="stroke:#000000;stroke-width:1.5;" x1="461" x2="636" y1="28.2969" y2="28.2969"/><text fill="#000000" font-family="sans-serif" font-size="14" font-weight="bold" lengthAdjust="spacing" textLength="162" x="465" y="20.9951">edu.mit.csail.sdg.ast</text></g><!--class ASTVisitor--><a href="ASTVisitor.html" target="_top" title="ASTVisitor.html" xlink:actuate="onRequest" xlink:href="ASTVisitor.html" xlink:show="new" xlink:title="ASTVisitor.html" xlink:type="simple"><g id="elem_ASTVisitor"><rect codeLine="5" fill="#F1F1F1" height="276.1563" id="ASTVisitor" rx="2.5" ry="2.5" style="stroke:#181818;stroke-width:0.5;" width="265" x="417.5" y="164"/><ellipse cx="511.25" cy="180" fill="#ADD1B2" rx="11" ry="11" style="stroke:#181818;stroke-width:1.0;"/><path d="M514.2188,185.6406 Q513.6406,185.9375 513,186.0781 Q512.3594,186.2344 511.6563,186.2344 Q509.1563,186.2344 507.8281,184.5938 Q506.5156,182.9375 506.5156,179.8125 Q506.5156,176.6875 507.8281,175.0313 Q509.1563,173.375 511.6563,173.375 Q512.3594,173.375 513,173.5313 Q513.6563,173.6875 514.2188,173.9844 L514.2188,176.7031 Q513.5938,176.125 513,175.8594 Q512.4063,175.5781 511.7813,175.5781 Q510.4375,175.5781 509.75,176.6563 Q509.0625,177.7188 509.0625,179.8125 Q509.0625,181.9063 509.75,182.9844 Q510.4375,184.0469 511.7813,184.0469 Q512.4063,184.0469 513,183.7813 Q513.5938,183.5 514.2188,182.9219 L514.2188,185.6406 Z " fill="#000000"/><text fill="#000000" font-family="sans-serif" font-size="14" lengthAdjust="spacing" textLength="69" x="531.75" y="184.8467">ASTVisitor</text><line style="stroke:#181818;stroke-width:0.5;" x1="418.5" x2="681.5" y1="196" y2="196"/><line style="stroke:#181818;stroke-width:0.5;" x1="418.5" x2="681.5" y1="204" y2="204"/><ellipse cx="428.5" cy="217.6484" fill="#84BE84" rx="3" ry="3" style="stroke:#038048;stroke-width:1.0;"/><text fill="#000000" font-family="sans-serif" font-size="14" lengthAdjust="spacing" textLength="239" x="437.5" y="220.9951">getMap(): Map&lt;Expr, List&lt;Expr&gt;&gt;</text><ellipse cx="428.5" cy="233.9453" fill="#84BE84" rx="3" ry="3" style="stroke:#038048;stroke-width:1.0;"/><text fill="#000000" font-family="sans-serif" font-size="14" lengthAdjust="spacing" textLength="131" x="437.5" y="237.292">printVisitInfo(): void</text><ellipse cx="428.5" cy="250.2422" fill="#84BE84" rx="3" ry="3" style="stroke:#038048;stroke-width:1.0;"/><text fill="#000000" font-family="sans-serif" font-size="14" lengthAdjust="spacing" textLength="107" x="437.5" y="253.5889">printMap(): void</text><ellipse cx="428.5" cy="266.5391" fill="#84BE84" rx="3" ry="3" style="stroke:#038048;stroke-width:1.0;"/><text fill="#000000" font-family="sans-serif" font-size="14" lengthAdjust="spacing" textLength="147" x="437.5" y="269.8857">visit(ExprBinary): Expr</text><ellipse cx="428.5" cy="282.8359" fill="#84BE84" rx="3" ry="3" style="stroke:#038048;stroke-width:1.0;"/><text fill="#000000" font-family="sans-serif" font-size="14" lengthAdjust="spacing" textLength="128" x="437.5" y="286.1826">visit(ExprList): Expr</text><ellipse cx="428.5" cy="299.1328" fill="#84BE84" rx="3" ry="3" style="stroke:#038048;stroke-width:1.0;"/><text fill="#000000" font-family="sans-serif" font-size="14" lengthAdjust="spacing" textLength="129" x="437.5" y="302.4795">visit(ExprCall): Expr</text><ellipse cx="428.5" cy="315.4297" fill="#84BE84" rx="3" ry="3" style="stroke:#038048;stroke-width:1.0;"/><text fill="#000000" font-family="sans-serif" font-size="14" lengthAdjust="spacing" textLength="168" x="437.5" y="318.7764">visit(ExprConstant): Expr</text><ellipse cx="428.5" cy="331.7266" fill="#84BE84" rx="3" ry="3" style="stroke:#038048;stroke-width:1.0;"/><text fill="#000000" font-family="sans-serif" font-size="14" lengthAdjust="spacing" textLength="126" x="437.5" y="335.0732">visit(ExprITE): Expr</text><ellipse cx="428.5" cy="348.0234" fill="#84BE84" rx="3" ry="3" style="stroke:#038048;stroke-width:1.0;"/><text fill="#000000" font-family="sans-serif" font-size="14" lengthAdjust="spacing" textLength="126" x="437.5" y="351.3701">visit(ExprLet): Expr</text><ellipse cx="428.5" cy="364.3203" fill="#84BE84" rx="3" ry="3" style="stroke:#038048;stroke-width:1.0;"/><text fill="#000000" font-family="sans-serif" font-size="14" lengthAdjust="spacing" textLength="121" x="437.5" y="367.667">visit(ExprQt): Expr</text><ellipse cx="428.5" cy="380.6172" fill="#84BE84" rx="3" ry="3" style="stroke:#038048;stroke-width:1.0;"/><text fill="#000000" font-family="sans-serif" font-size="14" lengthAdjust="spacing" textLength="144" x="437.5" y="383.9639">visit(ExprUnary): Expr</text><ellipse cx="428.5" cy="396.9141" fill="#84BE84" rx="3" ry="3" style="stroke:#038048;stroke-width:1.0;"/><text fill="#000000" font-family="sans-serif" font-size="14" lengthAdjust="spacing" textLength="127" x="437.5" y="400.2607">visit(ExprVar): Expr</text><ellipse cx="428.5" cy="413.2109" fill="#84BE84" rx="3" ry="3" style="stroke:#038048;stroke-width:1.0;"/><text fill="#000000" font-family="sans-serif" font-size="14" lengthAdjust="spacing" textLength="96" x="437.5" y="416.5576">visit(Sig): Expr</text><ellipse cx="428.5" cy="429.5078" fill="#84BE84" rx="3" ry="3" style="stroke:#038048;stroke-width:1.0;"/><text fill="#000000" font-family="sans-serif" font-size="14" lengthAdjust="spacing" textLength="107" x="437.5" y="432.8545">visit(Field): Expr</text></g></a><!--class AlloyModule--><a href="AlloyModule.html" target="_top" title="AlloyModule.html" xlink:actuate="onRequest" xlink:href="AlloyModule.html" xlink:show="new" xlink:title="AlloyModule.html" xlink:type="simple"><g id="elem_AlloyModule"><rect codeLine="22" fill="#F1F1F1" height="129.4844" id="AlloyModule" rx="2.5" ry="2.5" style="stroke:#181818;stroke-width:0.5;" width="361" x="21.5" y="237.5"/><ellipse cx="156.75" cy="253.5" fill="#ADD1B2" rx="11" ry="11" style="stroke:#181818;stroke-width:1.0;"/><path d="M159.7188,259.1406 Q159.1406,259.4375 158.5,259.5781 Q157.8594,259.7344 157.1563,259.7344 Q154.6563,259.7344 153.3281,258.0938 Q152.0156,256.4375 152.0156,253.3125 Q152.0156,250.1875 153.3281,248.5313 Q154.6563,246.875 157.1563,246.875 Q157.8594,246.875 158.5,247.0313 Q159.1563,247.1875 159.7188,247.4844 L159.7188,250.2031 Q159.0938,249.625 158.5,249.3594 Q157.9063,249.0781 157.2813,249.0781 Q155.9375,249.0781 155.25,250.1563 Q154.5625,251.2188 154.5625,253.3125 Q154.5625,255.4063 155.25,256.4844 Q155.9375,257.5469 157.2813,257.5469 Q157.9063,257.5469 158.5,257.2813 Q159.0938,257 159.7188,256.4219 L159.7188,259.1406 Z " fill="#000000"/><text fill="#000000" font-family="sans-serif" font-size="14" lengthAdjust="spacing" textLength="82" x="177.25" y="258.3467">AlloyModule</text><line style="stroke:#181818;stroke-width:0.5;" x1="22.5" x2="381.5" y1="269.5" y2="269.5"/><line style="stroke:#181818;stroke-width:0.5;" x1="22.5" x2="381.5" y1="277.5" y2="277.5"/><ellipse cx="32.5" cy="291.1484" fill="#84BE84" rx="3" ry="3" style="stroke:#038048;stroke-width:1.0;"/><text fill="#000000" font-family="sans-serif" font-size="14" lengthAdjust="spacing" textLength="335" x="41.5" y="294.4951">AlloyModule(String, List&lt;Sig&gt;, Expr, Command[])</text><ellipse cx="32.5" cy="307.4453" fill="#84BE84" rx="3" ry="3" style="stroke:#038048;stroke-width:1.0;"/><text fill="#000000" font-family="sans-serif" font-size="14" lengthAdjust="spacing" textLength="173" x="41.5" y="310.792">getModuleName(): String</text><ellipse cx="32.5" cy="323.7422" fill="#84BE84" rx="3" ry="3" style="stroke:#038048;stroke-width:1.0;"/><text fill="#000000" font-family="sans-serif" font-size="14" lengthAdjust="spacing" textLength="109" x="41.5" y="327.0889">getFacts(): Expr</text><ellipse cx="32.5" cy="340.0391" fill="#84BE84" rx="3" ry="3" style="stroke:#038048;stroke-width:1.0;"/><text fill="#000000" font-family="sans-serif" font-size="14" lengthAdjust="spacing" textLength="184" x="41.5" y="343.3857">getSignatures(): List&lt;Sig&gt;</text><ellipse cx="32.5" cy="356.3359" fill="#84BE84" rx="3" ry="3" style="stroke:#038048;stroke-width:1.0;"/><text fill="#000000" font-family="sans-serif" font-size="14" lengthAdjust="spacing" textLength="202" x="41.5" y="359.6826">getCommands(): Command[]</text></g></a><!--class VisitQuery--><g id="elem_VisitQuery"><rect codeLine="33" fill="#F1F1F1" height="48" id="VisitQuery" rx="2.5" ry="2.5" style="stroke:#181818;stroke-width:0.5;" width="113" x="493.5" y="41"/><ellipse cx="508.5" cy="57" fill="#A9DCDF" rx="11" ry="11" style="stroke:#181818;stroke-width:1.0;"/><path d="M508.6094,52.3438 L507.4531,57.4219 L509.7813,57.4219 L508.6094,52.3438 Z M507.125,50.1094 L510.1094,50.1094 L513.4688,62.5 L511.0156,62.5 L510.25,59.4375 L506.9688,59.4375 L506.2188,62.5 L503.7813,62.5 L507.125,50.1094 Z " fill="#000000"/><text fill="#000000" font-family="sans-serif" font-size="14" font-style="italic" lengthAdjust="spacing" textLength="70" x="522.5" y="61.8467">VisitQuery</text><rect fill="#FFFFFF" height="15.9688" style="stroke:#181818;stroke-width:1.0;stroke-dasharray:2.0,2.0;" width="9" x="600.5" y="38"/><text fill="#000000" font-family="sans-serif" font-size="12" font-style="italic" lengthAdjust="spacing" textLength="7" x="601.5" y="50.1387">T</text><line style="stroke:#181818;stroke-width:0.5;" x1="494.5" x2="605.5" y1="73" y2="73"/><line style="stroke:#181818;stroke-width:0.5;" x1="494.5" x2="605.5" y1="81" y2="81"/></g><!--reverse link VisitQuery to ASTVisitor--><g id="link_VisitQuery_ASTVisitor"><path codeLine="36" d="M550,107.39 C550,125.79 550,135.08 550,163.99 " fill="none" id="VisitQuery-backto-ASTVisitor" style="stroke:#181818;stroke-width:1.0;"/><polygon fill="none" points="550,89.39,544,107.39,556,107.39,550,89.39" style="stroke:#181818;stroke-width:1.0;"/></g><text fill="#888888" font-family="sans-serif" font-size="10" lengthAdjust="spacing" textLength="186" x="253" y="471.2822">UMLDoclet 2.1.1, PlantUML 1.2023.12</text><!--SRC=[bPJVQy8m4CVV_IlkPL2P1jnZ4M5p2eAEYJzUn8UpZJKiJKfoocJpVrzIHPrLkmLAc-HptroExnK0m79oJuO6IHi8mqh5BKA6qGSc77YyPWaIZrOi8IEONgIC32ehFSvGIhrbf9T2SlZQX_eHIRGMdaVZgR32wyvcfmbRKIhdSyV3sNXCE0qm2weXk5UpyvcP6lI5fVoprVeDPqOeolLwQgbzq4QB-0fpa2pkRdnmuBLVX4ApTP2Vt89y9YL8srMZ3D7A4geofTwuKvOEBzCObW6JFznwYkOECHB9dTsku3A-tDyLFE8TDD3nsXd8cUGqk-6ICo8OEKUgvE0Ibqoh1dlRj7MQeefdyshHOdde6wRSssAlK82w694DhjxDxRgJ5DBQy1mv7bxW3bdar36ZoqhiYlsM2cAHHI6PZHE6bivgW0lhsY-YG_No3XYkkTasnwrplQiwONZYeVbTh_-dlSFmrC7v4H5Nn0qijVQloQ3_gYFfVYPFhC4QDNYNpkTk5Hust5YXLL3z0G00]--></g></svg>