<?xml version="1.0" encoding="us-ascii" standalone="no"?><svg xmlns="http://www.w3.org/2000/svg" xmlns:xlink="http://www.w3.org/1999/xlink" contentStyleType="text/css" height="481px" preserveAspectRatio="none" style="width:706px;height:481px;background:#FFFFFF;" version="1.1" viewBox="0 0 706 481" width="706px" zoomAndPan="magnify"><defs/><g><!--cluster edu.gatech.gtri.obm.translator.alloy.tofile--><g id="cluster_edu.gatech.gtri.obm.translator.alloy.tofile"><path d="M8.5,129 L337.5,129 A3.75,3.75 0 0 1 340,131.5 L347,151.2969 L696.5,151.2969 A2.5,2.5 0 0 1 699,153.7969 L699,453.5 A2.5,2.5 0 0 1 696.5,456 L8.5,456 A2.5,2.5 0 0 1 6,453.5 L6,131.5 A2.5,2.5 0 0 1 8.5,129 " fill="none" style="stroke:#000000;stroke-width:1.5;"/><line style="stroke:#000000;stroke-width:1.5;" x1="6" x2="347" y1="151.2969" y2="151.2969"/><text fill="#000000" font-family="sans-serif" font-size="14" font-weight="bold" lengthAdjust="spacing" textLength="328" x="10" y="143.9951">edu.gatech.gtri.obm.translator.alloy.tofile</text></g><!--cluster edu.mit.csail.sdg.ast--><g id="cluster_edu.mit.csail.sdg.ast"><path d="M68.5,6 L231.5,6 A3.75,3.75 0 0 1 234,8.5 L241,28.2969 L241.5,28.2969 A2.5,2.5 0 0 1 244,30.7969 L244,102.5 A2.5,2.5 0 0 1 241.5,105 L68.5,105 A2.5,2.5 0 0 1 66,102.5 L66,8.5 A2.5,2.5 0 0 1 68.5,6 " fill="none" style="stroke:#000000;stroke-width:1.5;"/><line style="stroke:#000000;stroke-width:1.5;" x1="66" x2="241" y1="28.2969" y2="28.2969"/><text fill="#000000" font-family="sans-serif" font-size="14" font-weight="bold" lengthAdjust="spacing" textLength="162" x="70" y="20.9951">edu.mit.csail.sdg.ast</text></g><!--class AlloyModule--><a href="AlloyModule.html" target="_top" title="AlloyModule.html" xlink:actuate="onRequest" xlink:href="AlloyModule.html" xlink:show="new" xlink:title="AlloyModule.html" xlink:type="simple"><g id="elem_AlloyModule"><rect codeLine="5" fill="#F1F1F1" height="129.4844" id="AlloyModule" rx="2.5" ry="2.5" style="stroke:#181818;stroke-width:0.5;" width="361" x="322.5" y="237.5"/><ellipse cx="457.75" cy="253.5" fill="#ADD1B2" rx="11" ry="11" style="stroke:#181818;stroke-width:1.0;"/><path d="M460.7188,259.1406 Q460.1406,259.4375 459.5,259.5781 Q458.8594,259.7344 458.1563,259.7344 Q455.6563,259.7344 454.3281,258.0938 Q453.0156,256.4375 453.0156,253.3125 Q453.0156,250.1875 454.3281,248.5313 Q455.6563,246.875 458.1563,246.875 Q458.8594,246.875 459.5,247.0313 Q460.1563,247.1875 460.7188,247.4844 L460.7188,250.2031 Q460.0938,249.625 459.5,249.3594 Q458.9063,249.0781 458.2813,249.0781 Q456.9375,249.0781 456.25,250.1563 Q455.5625,251.2188 455.5625,253.3125 Q455.5625,255.4063 456.25,256.4844 Q456.9375,257.5469 458.2813,257.5469 Q458.9063,257.5469 459.5,257.2813 Q460.0938,257 460.7188,256.4219 L460.7188,259.1406 Z " fill="#000000"/><text fill="#000000" font-family="sans-serif" font-size="14" lengthAdjust="spacing" textLength="82" x="478.25" y="258.3467">AlloyModule</text><line style="stroke:#181818;stroke-width:0.5;" x1="323.5" x2="682.5" y1="269.5" y2="269.5"/><line style="stroke:#181818;stroke-width:0.5;" x1="323.5" x2="682.5" y1="277.5" y2="277.5"/><ellipse cx="333.5" cy="291.1484" fill="#84BE84" rx="3" ry="3" style="stroke:#038048;stroke-width:1.0;"/><text fill="#000000" font-family="sans-serif" font-size="14" lengthAdjust="spacing" textLength="335" x="342.5" y="294.4951">AlloyModule(String, List&lt;Sig&gt;, Expr, Command[])</text><ellipse cx="333.5" cy="307.4453" fill="#84BE84" rx="3" ry="3" style="stroke:#038048;stroke-width:1.0;"/><text fill="#000000" font-family="sans-serif" font-size="14" lengthAdjust="spacing" textLength="173" x="342.5" y="310.792">getModuleName(): String</text><ellipse cx="333.5" cy="323.7422" fill="#84BE84" rx="3" ry="3" style="stroke:#038048;stroke-width:1.0;"/><text fill="#000000" font-family="sans-serif" font-size="14" lengthAdjust="spacing" textLength="109" x="342.5" y="327.0889">getFacts(): Expr</text><ellipse cx="333.5" cy="340.0391" fill="#84BE84" rx="3" ry="3" style="stroke:#038048;stroke-width:1.0;"/><text fill="#000000" font-family="sans-serif" font-size="14" lengthAdjust="spacing" textLength="184" x="342.5" y="343.3857">getSignatures(): List&lt;Sig&gt;</text><ellipse cx="333.5" cy="356.3359" fill="#84BE84" rx="3" ry="3" style="stroke:#038048;stroke-width:1.0;"/><text fill="#000000" font-family="sans-serif" font-size="14" lengthAdjust="spacing" textLength="202" x="342.5" y="359.6826">getCommands(): Command[]</text></g></a><!--class ASTVisitor--><a href="ASTVisitor.html" target="_top" title="ASTVisitor.html" xlink:actuate="onRequest" xlink:href="ASTVisitor.html" xlink:show="new" xlink:title="ASTVisitor.html" xlink:type="simple"><g id="elem_ASTVisitor"><rect codeLine="13" fill="#F1F1F1" height="276.1563" id="ASTVisitor" rx="2.5" ry="2.5" style="stroke:#181818;stroke-width:0.5;" width="265" x="22.5" y="164"/><ellipse cx="116.25" cy="180" fill="#ADD1B2" rx="11" ry="11" style="stroke:#181818;stroke-width:1.0;"/><path d="M119.2188,185.6406 Q118.6406,185.9375 118,186.0781 Q117.3594,186.2344 116.6563,186.2344 Q114.1563,186.2344 112.8281,184.5938 Q111.5156,182.9375 111.5156,179.8125 Q111.5156,176.6875 112.8281,175.0313 Q114.1563,173.375 116.6563,173.375 Q117.3594,173.375 118,173.5313 Q118.6563,173.6875 119.2188,173.9844 L119.2188,176.7031 Q118.5938,176.125 118,175.8594 Q117.4063,175.5781 116.7813,175.5781 Q115.4375,175.5781 114.75,176.6563 Q114.0625,177.7188 114.0625,179.8125 Q114.0625,181.9063 114.75,182.9844 Q115.4375,184.0469 116.7813,184.0469 Q117.4063,184.0469 118,183.7813 Q118.5938,183.5 119.2188,182.9219 L119.2188,185.6406 Z " fill="#000000"/><text fill="#000000" font-family="sans-serif" font-size="14" lengthAdjust="spacing" textLength="69" x="136.75" y="184.8467">ASTVisitor</text><line style="stroke:#181818;stroke-width:0.5;" x1="23.5" x2="286.5" y1="196" y2="196"/><line style="stroke:#181818;stroke-width:0.5;" x1="23.5" x2="286.5" y1="204" y2="204"/><ellipse cx="33.5" cy="217.6484" fill="#84BE84" rx="3" ry="3" style="stroke:#038048;stroke-width:1.0;"/><text fill="#000000" font-family="sans-serif" font-size="14" lengthAdjust="spacing" textLength="239" x="42.5" y="220.9951">getMap(): Map&lt;Expr, List&lt;Expr&gt;&gt;</text><ellipse cx="33.5" cy="233.9453" fill="#84BE84" rx="3" ry="3" style="stroke:#038048;stroke-width:1.0;"/><text fill="#000000" font-family="sans-serif" font-size="14" lengthAdjust="spacing" textLength="131" x="42.5" y="237.292">printVisitInfo(): void</text><ellipse cx="33.5" cy="250.2422" fill="#84BE84" rx="3" ry="3" style="stroke:#038048;stroke-width:1.0;"/><text fill="#000000" font-family="sans-serif" font-size="14" lengthAdjust="spacing" textLength="107" x="42.5" y="253.5889">printMap(): void</text><ellipse cx="33.5" cy="266.5391" fill="#84BE84" rx="3" ry="3" style="stroke:#038048;stroke-width:1.0;"/><text fill="#000000" font-family="sans-serif" font-size="14" lengthAdjust="spacing" textLength="147" x="42.5" y="269.8857">visit(ExprBinary): Expr</text><ellipse cx="33.5" cy="282.8359" fill="#84BE84" rx="3" ry="3" style="stroke:#038048;stroke-width:1.0;"/><text fill="#000000" font-family="sans-serif" font-size="14" lengthAdjust="spacing" textLength="128" x="42.5" y="286.1826">visit(ExprList): Expr</text><ellipse cx="33.5" cy="299.1328" fill="#84BE84" rx="3" ry="3" style="stroke:#038048;stroke-width:1.0;"/><text fill="#000000" font-family="sans-serif" font-size="14" lengthAdjust="spacing" textLength="129" x="42.5" y="302.4795">visit(ExprCall): Expr</text><ellipse cx="33.5" cy="315.4297" fill="#84BE84" rx="3" ry="3" style="stroke:#038048;stroke-width:1.0;"/><text fill="#000000" font-family="sans-serif" font-size="14" lengthAdjust="spacing" textLength="168" x="42.5" y="318.7764">visit(ExprConstant): Expr</text><ellipse cx="33.5" cy="331.7266" fill="#84BE84" rx="3" ry="3" style="stroke:#038048;stroke-width:1.0;"/><text fill="#000000" font-family="sans-serif" font-size="14" lengthAdjust="spacing" textLength="126" x="42.5" y="335.0732">visit(ExprITE): Expr</text><ellipse cx="33.5" cy="348.0234" fill="#84BE84" rx="3" ry="3" style="stroke:#038048;stroke-width:1.0;"/><text fill="#000000" font-family="sans-serif" font-size="14" lengthAdjust="spacing" textLength="126" x="42.5" y="351.3701">visit(ExprLet): Expr</text><ellipse cx="33.5" cy="364.3203" fill="#84BE84" rx="3" ry="3" style="stroke:#038048;stroke-width:1.0;"/><text fill="#000000" font-family="sans-serif" font-size="14" lengthAdjust="spacing" textLength="121" x="42.5" y="367.667">visit(ExprQt): Expr</text><ellipse cx="33.5" cy="380.6172" fill="#84BE84" rx="3" ry="3" style="stroke:#038048;stroke-width:1.0;"/><text fill="#000000" font-family="sans-serif" font-size="14" lengthAdjust="spacing" textLength="144" x="42.5" y="383.9639">visit(ExprUnary): Expr</text><ellipse cx="33.5" cy="396.9141" fill="#84BE84" rx="3" ry="3" style="stroke:#038048;stroke-width:1.0;"/><text fill="#000000" font-family="sans-serif" font-size="14" lengthAdjust="spacing" textLength="127" x="42.5" y="400.2607">visit(ExprVar): Expr</text><ellipse cx="33.5" cy="413.2109" fill="#84BE84" rx="3" ry="3" style="stroke:#038048;stroke-width:1.0;"/><text fill="#000000" font-family="sans-serif" font-size="14" lengthAdjust="spacing" textLength="96" x="42.5" y="416.5576">visit(Sig): Expr</text><ellipse cx="33.5" cy="429.5078" fill="#84BE84" rx="3" ry="3" style="stroke:#038048;stroke-width:1.0;"/><text fill="#000000" font-family="sans-serif" font-size="14" lengthAdjust="spacing" textLength="107" x="42.5" y="432.8545">visit(Field): Expr</text></g></a><!--class VisitQuery--><g id="elem_VisitQuery"><rect codeLine="33" fill="#F1F1F1" height="48" id="VisitQuery" rx="2.5" ry="2.5" style="stroke:#181818;stroke-width:0.5;" width="113" x="98.5" y="41"/><ellipse cx="113.5" cy="57" fill="#A9DCDF" rx="11" ry="11" style="stroke:#181818;stroke-width:1.0;"/><path d="M113.6094,52.3438 L112.4531,57.4219 L114.7813,57.4219 L113.6094,52.3438 Z M112.125,50.1094 L115.1094,50.1094 L118.4688,62.5 L116.0156,62.5 L115.25,59.4375 L111.9688,59.4375 L111.2188,62.5 L108.7813,62.5 L112.125,50.1094 Z " fill="#000000"/><text fill="#000000" font-family="sans-serif" font-size="14" font-style="italic" lengthAdjust="spacing" textLength="70" x="127.5" y="61.8467">VisitQuery</text><rect fill="#FFFFFF" height="15.9688" style="stroke:#181818;stroke-width:1.0;stroke-dasharray:2.0,2.0;" width="9" x="205.5" y="38"/><text fill="#000000" font-family="sans-serif" font-size="12" font-style="italic" lengthAdjust="spacing" textLength="7" x="206.5" y="50.1387">T</text><line style="stroke:#181818;stroke-width:0.5;" x1="99.5" x2="210.5" y1="73" y2="73"/><line style="stroke:#181818;stroke-width:0.5;" x1="99.5" x2="210.5" y1="81" y2="81"/></g><!--reverse link VisitQuery to ASTVisitor--><g id="link_VisitQuery_ASTVisitor"><path codeLine="36" d="M155,107.39 C155,125.79 155,135.08 155,163.99 " fill="none" id="VisitQuery-backto-ASTVisitor" style="stroke:#181818;stroke-width:1.0;"/><polygon fill="none" points="155,89.39,149,107.39,161,107.39,155,89.39" style="stroke:#181818;stroke-width:1.0;"/></g><text fill="#888888" font-family="sans-serif" font-size="10" lengthAdjust="spacing" textLength="186" x="253" y="471.2822">UMLDoclet 2.1.1, PlantUML 1.2023.12</text><!--SRC=[bLHTQy8m57ttLzoNWJ8DkCSYmkOK11qJTI_YmxMDDInDIdALoUP_NzAATjRPBL3Iv9nxxaTk0W1WERalHOEa3GH1hUOs8SNm7MCEFDgo68c76nQJ4Kol4aO6bPMUpb1AlMUarq9o-CnD_GWbMWkF7XthQEl0nQAmOXjAv7BfBA0mxWkC-jHvKt4JHi9IPohYRXFw7wbfGayd2QfeiMpyD8uvvQOlcF1w8u1SeKGQO4ZMurwkX3fF2cbhU4OvEI_nZb5ah5D49zQXL8dfx4rOuIli2d5Q_587dmgcNjfDdJpjB1J_sxq89dLPKgOtL6ljZNPQH5SuHyaoklF6TQ_z91IQ_TNQd4a-aWfAp_L55KKhIwYgb8QpVbKul4fZKaMO_o7hDpGt6Av7Rg03mMLqYHzxv52-RuaW5beKajaePcYfq1-uikxwXNJig-pS9rjkzfrPjwXtLIS8pdpeVBLQ_xdUGN3ksyn5o1Ln0skj_JGVZvvrADrZyi3QhDs4L-bEr-t2tOuRAxIgDxu1]--></g></svg>