<?xml version="1.0" encoding="us-ascii" standalone="no"?><svg xmlns="http://www.w3.org/2000/svg" xmlns:xlink="http://www.w3.org/1999/xlink" contentStyleType="text/css" height="495px" preserveAspectRatio="none" style="width:277px;height:495px;background:#FFFFFF;" version="1.1" viewBox="0 0 277 495" width="277px" zoomAndPan="magnify"><defs/><g><ellipse cx="137.5" cy="20" fill="#222222" rx="10" ry="10" style="stroke:#222222;stroke-width:1.0;"/><rect fill="#F1F1F1" height="33.9688" rx="12.5" ry="12.5" style="stroke:#181818;stroke-width:0.5;" width="193" x="41" y="50"/><text fill="#000000" font-family="sans-serif" font-size="12" lengthAdjust="spacing" textLength="130" x="51" y="71.1387">Create Node HashSet</text><text fill="#000000" font-family="sans-serif" font-size="12" font-style="italic" lengthAdjust="spacing" textLength="39" x="185" y="71.1387">visited</text><rect fill="#F1F1F1" height="33.9688" rx="12.5" ry="12.5" style="stroke:#181818;stroke-width:0.5;" width="182" x="46.5" y="103.9688"/><text fill="#000000" font-family="sans-serif" font-size="12" lengthAdjust="spacing" textLength="146" x="56.5" y="125.1074">Create IObject HashMap</text><text fill="#000000" font-family="sans-serif" font-size="12" font-style="italic" lengthAdjust="spacing" textLength="12" x="206.5" y="125.1074">fn</text><rect fill="#F1F1F1" height="33.9688" rx="12.5" ry="12.5" style="stroke:#181818;stroke-width:0.5;" width="169" x="53" y="157.9375"/><text fill="#000000" font-family="sans-serif" font-size="12" lengthAdjust="spacing" textLength="130" x="63" y="179.0762">Create Optional Node</text><text fill="#000000" font-family="sans-serif" font-size="12" font-style="italic" lengthAdjust="spacing" textLength="15" x="197" y="179.0762">op</text><rect fill="#F1F1F1" height="47.9375" rx="12.5" ry="12.5" style="stroke:#181818;stroke-width:0.5;" width="181" x="47" y="255.9063"/><text fill="#000000" font-family="sans-serif" font-size="12" lengthAdjust="spacing" textLength="42" x="57" y="277.0449">Search</text><text fill="#000000" font-family="sans-serif" font-size="12" font-style="italic" lengthAdjust="spacing" textLength="36" x="103" y="277.0449">graph</text><text fill="#000000" font-family="sans-serif" font-size="12" lengthAdjust="spacing" textLength="75" x="143" y="277.0449">for Happens</text><text fill="#000000" font-family="sans-serif" font-size="12" lengthAdjust="spacing" textLength="144" x="57" y="291.0137">Before Inverse Function</text><rect fill="#F1F1F1" height="33.9688" rx="12.5" ry="12.5" style="stroke:#181818;stroke-width:0.5;" width="203" x="36" y="332.3594"/><text fill="#000000" font-family="sans-serif" font-size="12" lengthAdjust="spacing" textLength="20" x="46" y="353.498">Set</text><text fill="#000000" font-family="sans-serif" font-size="12" font-style="italic" lengthAdjust="spacing" textLength="15" x="70" y="353.498">op</text><text fill="#000000" font-family="sans-serif" font-size="12" lengthAdjust="spacing" textLength="57" x="89" y="353.498">to Visited</text><text fill="#000000" font-family="sans-serif" font-size="12" font-style="italic" lengthAdjust="spacing" textLength="36" x="150" y="353.498">graph</text><text fill="#000000" font-family="sans-serif" font-size="12" lengthAdjust="spacing" textLength="39" x="190" y="353.498">Nodes</text><polygon fill="#F1F1F1" points="94,211.9063,181,211.9063,193,223.9063,181,235.9063,94,235.9063,82,223.9063,94,211.9063" style="stroke:#181818;stroke-width:0.5;"/><text fill="#000000" font-family="sans-serif" font-size="11" font-style="italic" lengthAdjust="spacing" textLength="14" x="94" y="227.7144">op</text><text fill="#000000" font-family="sans-serif" font-size="11" lengthAdjust="spacing" textLength="69" x="112" y="227.7144">Has a Value</text><rect fill="#F1F1F1" height="33.9688" rx="12.5" ry="12.5" style="stroke:#181818;stroke-width:0.5;" width="74" x="100.5" y="408.3281"/><text fill="#000000" font-family="sans-serif" font-size="12" lengthAdjust="spacing" textLength="38" x="110.5" y="429.4668">Return</text><text fill="#000000" font-family="sans-serif" font-size="12" font-style="italic" lengthAdjust="spacing" textLength="12" x="152.5" y="429.4668">fn</text><ellipse cx="137.5" cy="473.2969" fill="none" rx="11" ry="11" style="stroke:#222222;stroke-width:1.0;"/><ellipse cx="137.5" cy="473.2969" fill="#222222" rx="6" ry="6" style="stroke:#222222;stroke-width:1.0;"/><line style="stroke:#181818;stroke-width:1.0;" x1="137.5" x2="137.5" y1="30" y2="50"/><polygon fill="#181818" points="133.5,40,137.5,50,141.5,40,137.5,44" style="stroke:#181818;stroke-width:1.0;"/><line style="stroke:#181818;stroke-width:1.0;" x1="137.5" x2="137.5" y1="83.9688" y2="103.9688"/><polygon fill="#181818" points="133.5,93.9688,137.5,103.9688,141.5,93.9688,137.5,97.9688" style="stroke:#181818;stroke-width:1.0;"/><line style="stroke:#181818;stroke-width:1.0;" x1="137.5" x2="137.5" y1="137.9375" y2="157.9375"/><polygon fill="#181818" points="133.5,147.9375,137.5,157.9375,141.5,147.9375,137.5,151.9375" style="stroke:#181818;stroke-width:1.0;"/><line style="stroke:#181818;stroke-width:1.0;" x1="137.5" x2="137.5" y1="303.8438" y2="332.3594"/><polygon fill="#181818" points="133.5,322.3594,137.5,332.3594,141.5,322.3594,137.5,326.3594" style="stroke:#181818;stroke-width:1.0;"/><line style="stroke:#181818;stroke-width:1.0;" x1="137.5" x2="137.5" y1="235.9063" y2="255.9063"/><polygon fill="#181818" points="133.5,245.9063,137.5,255.9063,141.5,245.9063,137.5,249.9063" style="stroke:#181818;stroke-width:1.0;"/><line style="stroke:#181818;stroke-width:1.0;" x1="137.5" x2="137.5" y1="366.3281" y2="376.3281"/><line style="stroke:#181818;stroke-width:1.0;" x1="137.5" x2="251" y1="376.3281" y2="376.3281"/><polygon fill="#181818" points="247,312.3594,251,302.3594,255,312.3594,251,308.3594" style="stroke:#181818;stroke-width:1.0;"/><line style="stroke:#181818;stroke-width:1.0;" x1="251" x2="251" y1="223.9063" y2="376.3281"/><line style="stroke:#181818;stroke-width:1.0;" x1="251" x2="193" y1="223.9063" y2="223.9063"/><polygon fill="#181818" points="203,219.9063,193,223.9063,203,227.9063,199,223.9063" style="stroke:#181818;stroke-width:1.0;"/><line style="stroke:#181818;stroke-width:1.0;" x1="82" x2="24" y1="223.9063" y2="223.9063"/><polygon fill="#181818" points="20,298.3594,24,308.3594,28,298.3594,24,302.3594" style="stroke:#181818;stroke-width:1.0;"/><line style="stroke:#181818;stroke-width:1.0;" x1="24" x2="24" y1="223.9063" y2="388.3281"/><line style="stroke:#181818;stroke-width:1.0;" x1="24" x2="137.5" y1="388.3281" y2="388.3281"/><line style="stroke:#181818;stroke-width:1.0;" x1="137.5" x2="137.5" y1="388.3281" y2="408.3281"/><polygon fill="#181818" points="133.5,398.3281,137.5,408.3281,141.5,398.3281,137.5,402.3281" style="stroke:#181818;stroke-width:1.0;"/><line style="stroke:#181818;stroke-width:1.0;" x1="137.5" x2="137.5" y1="191.9063" y2="211.9063"/><polygon fill="#181818" points="133.5,201.9063,137.5,211.9063,141.5,201.9063,137.5,205.9063" style="stroke:#181818;stroke-width:1.0;"/><line style="stroke:#181818;stroke-width:1.0;" x1="137.5" x2="137.5" y1="442.2969" y2="462.2969"/><polygon fill="#181818" points="133.5,452.2969,137.5,462.2969,141.5,452.2969,137.5,456.2969" style="stroke:#181818;stroke-width:1.0;"/><!--SRC=[JOwz3e8m58NtFiKTTUeEcoP61oMHXFqA1uiXRTDUyFLjmH36a_ETdoWSH1Nd01RGmtMWAqTJGqZhUOY3eDEwt8XRzVgWbGMwiqzGR_T-vMLmbiUrIcldi_irmuZ3gdAKc1eU9nnLKOD3QnBv3knDidiN4k8zR2HrGf9frSu84NIPR9lxovoJVps9esPzkgl9-x5KiDqoheedP0fsEnp5-Hy0]--></g></svg>