<?xml version="1.0" encoding="us-ascii" standalone="no"?><svg xmlns="http://www.w3.org/2000/svg" xmlns:xlink="http://www.w3.org/1999/xlink" contentStyleType="text/css" height="421px" preserveAspectRatio="none" style="width:255px;height:421px;background:#FFFFFF;" version="1.1" viewBox="0 0 255 421" width="255px" zoomAndPan="magnify"><defs/><g><!--class edu.gatech.gtri.obm.translator.alloy.graph.ONode--><a href="ONode.html" target="_top" title="ONode.html" xlink:actuate="onRequest" xlink:href="ONode.html" xlink:show="new" xlink:title="ONode.html" xlink:type="simple"><g id="elem_edu.gatech.gtri.obm.translator.alloy.graph.ONode"><rect codeLine="5" fill="#F1F1F1" height="249.5" id="edu.gatech.gtri.obm.translator.alloy.graph.ONode" rx="2.5" ry="2.5" style="stroke:#181818;stroke-width:0.5;" width="236" x="9.5" y="146"/><ellipse cx="24.5" cy="164.9688" fill="#ADD1B2" rx="11" ry="11" style="stroke:#181818;stroke-width:1.0;"/><path d="M27.4688,170.6094 Q26.8906,170.9063 26.25,171.0469 Q25.6094,171.2031 24.9063,171.2031 Q22.4063,171.2031 21.0781,169.5625 Q19.7656,167.9063 19.7656,164.7813 Q19.7656,161.6563 21.0781,160 Q22.4063,158.3438 24.9063,158.3438 Q25.6094,158.3438 26.25,158.5 Q26.9063,158.6563 27.4688,158.9531 L27.4688,161.6719 Q26.8438,161.0938 26.25,160.8281 Q25.6563,160.5469 25.0313,160.5469 Q23.6875,160.5469 23,161.625 Q22.3125,162.6875 22.3125,164.7813 Q22.3125,166.875 23,167.9531 Q23.6875,169.0156 25.0313,169.0156 Q25.6563,169.0156 26.25,168.75 Q26.8438,168.4688 27.4688,167.8906 L27.4688,170.6094 Z " fill="#000000"/><text fill="#000000" font-family="sans-serif" font-size="14" lengthAdjust="spacing" textLength="48" x="116.5" y="163.9951">ONode</text><text fill="#000000" font-family="sans-serif" font-size="10" lengthAdjust="spacing" textLength="204" x="38.5" y="176.5791">edu.gatech.gtri.obm.translator.alloy.graph</text><line style="stroke:#181818;stroke-width:0.5;" x1="10.5" x2="244.5" y1="183.9375" y2="183.9375"/><ellipse cx="20.5" cy="197.5859" fill="none" rx="3" ry="3" style="stroke:#038048;stroke-width:1.0;"/><text fill="#000000" font-family="sans-serif" font-size="14" lengthAdjust="spacing" text-decoration="underline" textLength="196" x="29.5" y="200.9326">node_attribute_name: String</text><ellipse cx="20.5" cy="213.8828" fill="none" rx="3" ry="3" style="stroke:#038048;stroke-width:1.0;"/><text fill="#000000" font-family="sans-serif" font-size="14" lengthAdjust="spacing" text-decoration="underline" textLength="79" x="29.5" y="217.2295">type: String</text><line style="stroke:#181818;stroke-width:0.5;" x1="10.5" x2="244.5" y1="224.5313" y2="224.5313"/><ellipse cx="20.5" cy="238.1797" fill="#84BE84" rx="3" ry="3" style="stroke:#038048;stroke-width:1.0;"/><text fill="#000000" font-family="sans-serif" font-size="14" lengthAdjust="spacing" textLength="159" x="29.5" y="241.5264">ONode(Node, boolean)</text><ellipse cx="20.5" cy="254.4766" fill="#84BE84" rx="3" ry="3" style="stroke:#038048;stroke-width:1.0;"/><text fill="#000000" font-family="sans-serif" font-size="14" lengthAdjust="spacing" textLength="95" x="29.5" y="257.8232">ONode(Node)</text><ellipse cx="20.5" cy="270.7734" fill="#84BE84" rx="3" ry="3" style="stroke:#038048;stroke-width:1.0;"/><text fill="#000000" font-family="sans-serif" font-size="14" lengthAdjust="spacing" textLength="135" x="29.5" y="274.1201">getNumOneOf(): int</text><ellipse cx="20.5" cy="287.0703" fill="#84BE84" rx="3" ry="3" style="stroke:#038048;stroke-width:1.0;"/><text fill="#000000" font-family="sans-serif" font-size="14" lengthAdjust="spacing" textLength="122" x="29.5" y="290.417">minusOneOf(): int</text><ellipse cx="20.5" cy="303.3672" fill="#84BE84" rx="3" ry="3" style="stroke:#038048;stroke-width:1.0;"/><text fill="#000000" font-family="sans-serif" font-size="14" lengthAdjust="spacing" textLength="109" x="29.5" y="306.7139">plusOneOf(): int</text><ellipse cx="20.5" cy="319.6641" fill="#84BE84" rx="3" ry="3" style="stroke:#038048;stroke-width:1.0;"/><text fill="#000000" font-family="sans-serif" font-size="14" lengthAdjust="spacing" textLength="122" x="29.5" y="323.0107">getName(): String</text><ellipse cx="20.5" cy="335.9609" fill="#84BE84" rx="3" ry="3" style="stroke:#038048;stroke-width:1.0;"/><text fill="#000000" font-family="sans-serif" font-size="14" lengthAdjust="spacing" textLength="116" x="29.5" y="339.3076">getType(): String</text><ellipse cx="20.5" cy="352.2578" fill="#84BE84" rx="3" ry="3" style="stroke:#038048;stroke-width:1.0;"/><text fill="#000000" font-family="sans-serif" font-size="14" lengthAdjust="spacing" textLength="116" x="29.5" y="355.6045">getNode(): Node</text><ellipse cx="20.5" cy="368.5547" fill="#84BE84" rx="3" ry="3" style="stroke:#038048;stroke-width:1.0;"/><text fill="#000000" font-family="sans-serif" font-size="14" lengthAdjust="spacing" textLength="191" x="29.5" y="371.9014">toStringAlloy(): List&lt;String&gt;</text><ellipse cx="20.5" cy="384.8516" fill="#84BE84" rx="3" ry="3" style="stroke:#038048;stroke-width:1.0;"/><text fill="#000000" font-family="sans-serif" font-size="14" lengthAdjust="spacing" textLength="74" x="29.5" y="388.1982">sort(): void</text></g></a><!--class edu.gatech.gtri.obm.translator.alloy.graph.IObject--><a href="IObject.html" target="_top" title="IObject.html" xlink:actuate="onRequest" xlink:href="IObject.html" xlink:show="new" xlink:title="IObject.html" xlink:type="simple"><g id="elem_edu.gatech.gtri.obm.translator.alloy.graph.IObject"><rect codeLine="20" fill="#F1F1F1" height="78.5313" id="edu.gatech.gtri.obm.translator.alloy.graph.IObject" rx="2.5" ry="2.5" style="stroke:#181818;stroke-width:0.5;" width="241" x="7" y="7"/><ellipse cx="22" cy="25.9688" fill="#B4A7E5" rx="11" ry="11" style="stroke:#181818;stroke-width:1.0;"/><path d="M17.9219,21.7344 L17.9219,19.5781 L25.3125,19.5781 L25.3125,21.7344 L22.8438,21.7344 L22.8438,29.8125 L25.3125,29.8125 L25.3125,31.9688 L17.9219,31.9688 L17.9219,29.8125 L20.3906,29.8125 L20.3906,21.7344 L17.9219,21.7344 Z " fill="#000000"/><text fill="#000000" font-family="sans-serif" font-size="14" font-style="italic" lengthAdjust="spacing" textLength="49" x="116" y="24.9951">IObject</text><text fill="#000000" font-family="sans-serif" font-size="10" font-style="italic" lengthAdjust="spacing" textLength="209" x="36" y="37.5791">edu.gatech.gtri.obm.translator.alloy.graph</text><line style="stroke:#181818;stroke-width:0.5;" x1="8" x2="247" y1="44.9375" y2="44.9375"/><ellipse cx="18" cy="58.5859" fill="#84BE84" rx="3" ry="3" style="stroke:#038048;stroke-width:1.0;"/><text fill="#000000" font-family="sans-serif" font-size="14" font-style="italic" lengthAdjust="spacing" textLength="193" x="27" y="61.9326">toStringAlloy(): List&lt;String&gt;</text><ellipse cx="18" cy="74.8828" fill="#84BE84" rx="3" ry="3" style="stroke:#038048;stroke-width:1.0;"/><text fill="#000000" font-family="sans-serif" font-size="14" font-style="italic" lengthAdjust="spacing" textLength="74" x="27" y="78.2295">sort(): void</text></g></a><!--reverse link edu.gatech.gtri.obm.translator.alloy.graph.IObject to edu.gatech.gtri.obm.translator.alloy.graph.ONode--><g id="link_edu.gatech.gtri.obm.translator.alloy.graph.IObject_edu.gatech.gtri.obm.translator.alloy.graph.ONode"><path codeLine="25" d="M127.5,104 C127.5,121.04 127.5,124.14 127.5,145.9 " fill="none" id="edu.gatech.gtri.obm.translator.alloy.graph.IObject-backto-edu.gatech.gtri.obm.translator.alloy.graph.ONode" style="stroke:#181818;stroke-width:1.0;stroke-dasharray:7.0,7.0;"/><polygon fill="none" points="127.5,86,121.5,104,133.5,104,127.5,86" style="stroke:#181818;stroke-width:1.0;"/></g><text fill="#888888" font-family="sans-serif" font-size="10" lengthAdjust="spacing" textLength="186" x="27.5" y="410.7822">UMLDoclet 2.1.1, PlantUML 1.2023.12</text><!--SRC=[lPDHQy8m4CVVzoaEOQ0eOOuzYGY3lGoS7RWzEHbfUsqpqbn9he9pVlSbLL1S1RU7zQ59_hzBxf_a0W3WaC784bqb4vnZ9Qraic38u9N7KAWK0SkArv0frAaxLKlaWhpSw8cMpa5dxDGdZePtasX6ARwP_VXcWcajSicO529dgmJ5fM0hZTCXgv1QqrhaLbP51wI3oyD5amaMYwOL1PTwkOHDOofy6yUILRA5ll7yNR9VBguPtyFUHp3tGvEtHFEw-edxJP9k-0qW9j8eJQ-D7eavygmk8uDHrksDG1a-i5APshMZIfyZOK7lFUYdzZnwyRxFeCQTHw4z0APTw7ququ2dol5ufqqEOOui1xeYbJRgTdVntXhQp9VGqUK_Hl479lmlrx_FvGjWtsif0HaxFplXxQMxFPvnRkD_y3Z-4kBNfRrxNXYE6JAYqBm-JHyeqVu1tugX60xWMKl3NeNh5Lgdo7Hxtm00]--></g></svg>