<?xml version="1.0" encoding="us-ascii" standalone="no"?><svg xmlns="http://www.w3.org/2000/svg" xmlns:xlink="http://www.w3.org/1999/xlink" contentStyleType="text/css" height="917px" preserveAspectRatio="none" style="width:1126px;height:917px;background:#FFFFFF;" version="1.1" viewBox="0 0 1126 917" width="1126px" zoomAndPan="magnify"><defs/><g><!--cluster edu.gatech.gtri.obm.translator.alloy.graph--><g id="cluster_edu.gatech.gtri.obm.translator.alloy.graph"><path d="M8.5,6 L343.5,6 A3.75,3.75 0 0 1 346,8.5 L353,28.2969 L1116.5,28.2969 A2.5,2.5 0 0 1 1119,30.7969 L1119,889.5 A2.5,2.5 0 0 1 1116.5,892 L8.5,892 A2.5,2.5 0 0 1 6,889.5 L6,8.5 A2.5,2.5 0 0 1 8.5,6 " fill="none" style="stroke:#000000;stroke-width:1.5;"/><line style="stroke:#000000;stroke-width:1.5;" x1="6" x2="353" y1="28.2969" y2="28.2969"/><text fill="#000000" font-family="sans-serif" font-size="14" font-weight="bold" lengthAdjust="spacing" textLength="334" x="10" y="20.9951">edu.gatech.gtri.obm.translator.alloy.graph</text></g><!--class OListOR--><a href="OListOR.html" target="_top" title="OListOR.html" xlink:actuate="onRequest" xlink:href="OListOR.html" xlink:show="new" xlink:title="OListOR.html" xlink:type="simple"><g id="elem_OListOR"><rect codeLine="5" fill="#F1F1F1" height="64.2969" id="OListOR" rx="2.5" ry="2.5" style="stroke:#181818;stroke-width:0.5;" width="217" x="62.5" y="812"/><ellipse cx="139.25" cy="828" fill="#ADD1B2" rx="11" ry="11" style="stroke:#181818;stroke-width:1.0;"/><path d="M142.2188,833.6406 Q141.6406,833.9375 141,834.0781 Q140.3594,834.2344 139.6563,834.2344 Q137.1563,834.2344 135.8281,832.5938 Q134.5156,830.9375 134.5156,827.8125 Q134.5156,824.6875 135.8281,823.0313 Q137.1563,821.375 139.6563,821.375 Q140.3594,821.375 141,821.5313 Q141.6563,821.6875 142.2188,821.9844 L142.2188,824.7031 Q141.5938,824.125 141,823.8594 Q140.4063,823.5781 139.7813,823.5781 Q138.4375,823.5781 137.75,824.6563 Q137.0625,825.7188 137.0625,827.8125 Q137.0625,829.9063 137.75,830.9844 Q138.4375,832.0469 139.7813,832.0469 Q140.4063,832.0469 141,831.7813 Q141.5938,831.5 142.2188,830.9219 L142.2188,833.6406 Z " fill="#000000"/><text fill="#000000" font-family="sans-serif" font-size="14" lengthAdjust="spacing" textLength="55" x="159.75" y="832.8467">OListOR</text><line style="stroke:#181818;stroke-width:0.5;" x1="63.5" x2="278.5" y1="844" y2="844"/><line style="stroke:#181818;stroke-width:0.5;" x1="63.5" x2="278.5" y1="852" y2="852"/><ellipse cx="73.5" cy="865.6484" fill="#84BE84" rx="3" ry="3" style="stroke:#038048;stroke-width:1.0;"/><text fill="#000000" font-family="sans-serif" font-size="14" lengthAdjust="spacing" textLength="191" x="82.5" y="868.9951">toStringAlloy(): List&lt;String&gt;</text></g></a><!--class OListANDOR--><a href="OListANDOR.html" target="_top" title="OListANDOR.html" xlink:actuate="onRequest" xlink:href="OListANDOR.html" xlink:show="new" xlink:title="OListANDOR.html" xlink:type="simple"><g id="elem_OListANDOR"><rect codeLine="9" fill="#F1F1F1" height="162.0781" id="OListANDOR" rx="2.5" ry="2.5" style="stroke:#181818;stroke-width:0.5;" width="219" x="207.5" y="549"/><ellipse cx="269.25" cy="565" fill="#A9DCDF" rx="11" ry="11" style="stroke:#181818;stroke-width:1.0;"/><path d="M269.3594,560.3438 L268.2031,565.4219 L270.5313,565.4219 L269.3594,560.3438 Z M267.875,558.1094 L270.8594,558.1094 L274.2188,570.5 L271.7656,570.5 L271,567.4375 L267.7188,567.4375 L266.9688,570.5 L264.5313,570.5 L267.875,558.1094 Z " fill="#000000"/><text fill="#000000" font-family="sans-serif" font-size="14" font-style="italic" lengthAdjust="spacing" textLength="87" x="289.75" y="569.8467">OListANDOR</text><line style="stroke:#181818;stroke-width:0.5;" x1="208.5" x2="425.5" y1="581" y2="581"/><line style="stroke:#181818;stroke-width:0.5;" x1="208.5" x2="425.5" y1="589" y2="589"/><ellipse cx="218.5" cy="602.6484" fill="#84BE84" rx="3" ry="3" style="stroke:#038048;stroke-width:1.0;"/><text fill="#000000" font-family="sans-serif" font-size="14" lengthAdjust="spacing" textLength="95" x="227.5" y="605.9951">OListANDOR()</text><ellipse cx="218.5" cy="618.9453" fill="#84BE84" rx="3" ry="3" style="stroke:#038048;stroke-width:1.0;"/><text fill="#000000" font-family="sans-serif" font-size="14" lengthAdjust="spacing" textLength="143" x="227.5" y="622.292">OListANDOR(IObject)</text><ellipse cx="218.5" cy="635.2422" fill="#84BE84" rx="3" ry="3" style="stroke:#038048;stroke-width:1.0;"/><text fill="#000000" font-family="sans-serif" font-size="14" lengthAdjust="spacing" textLength="64" x="227.5" y="638.5889">size(): int</text><ellipse cx="218.5" cy="651.5391" fill="#84BE84" rx="3" ry="3" style="stroke:#038048;stroke-width:1.0;"/><text fill="#000000" font-family="sans-serif" font-size="14" lengthAdjust="spacing" textLength="121" x="227.5" y="654.8857">add(IObject): void</text><ellipse cx="218.5" cy="667.8359" fill="#84BE84" rx="3" ry="3" style="stroke:#038048;stroke-width:1.0;"/><text fill="#000000" font-family="sans-serif" font-size="14" lengthAdjust="spacing" textLength="107" x="227.5" y="671.1826">get(int): IObject</text><ellipse cx="218.5" cy="684.1328" fill="#84BE84" rx="3" ry="3" style="stroke:#038048;stroke-width:1.0;"/><text fill="#000000" font-family="sans-serif" font-size="14" font-style="italic" lengthAdjust="spacing" textLength="193" x="227.5" y="687.4795">toStringAlloy(): List&lt;String&gt;</text><ellipse cx="218.5" cy="700.4297" fill="#84BE84" rx="3" ry="3" style="stroke:#038048;stroke-width:1.0;"/><text fill="#000000" font-family="sans-serif" font-size="14" lengthAdjust="spacing" textLength="74" x="227.5" y="703.7764">sort(): void</text></g></a><!--class ONode--><a href="ONode.html" target="_top" title="ONode.html" xlink:actuate="onRequest" xlink:href="ONode.html" xlink:show="new" xlink:title="ONode.html" xlink:type="simple"><g id="elem_ONode"><rect codeLine="19" fill="#F1F1F1" height="243.5625" id="ONode" rx="2.5" ry="2.5" style="stroke:#181818;stroke-width:0.5;" width="222" x="462" y="508"/><ellipse cx="544.75" cy="524" fill="#ADD1B2" rx="11" ry="11" style="stroke:#181818;stroke-width:1.0;"/><path d="M547.7188,529.6406 Q547.1406,529.9375 546.5,530.0781 Q545.8594,530.2344 545.1563,530.2344 Q542.6563,530.2344 541.3281,528.5938 Q540.0156,526.9375 540.0156,523.8125 Q540.0156,520.6875 541.3281,519.0313 Q542.6563,517.375 545.1563,517.375 Q545.8594,517.375 546.5,517.5313 Q547.1563,517.6875 547.7188,517.9844 L547.7188,520.7031 Q547.0938,520.125 546.5,519.8594 Q545.9063,519.5781 545.2813,519.5781 Q543.9375,519.5781 543.25,520.6563 Q542.5625,521.7188 542.5625,523.8125 Q542.5625,525.9063 543.25,526.9844 Q543.9375,528.0469 545.2813,528.0469 Q545.9063,528.0469 546.5,527.7813 Q547.0938,527.5 547.7188,526.9219 L547.7188,529.6406 Z " fill="#000000"/><text fill="#000000" font-family="sans-serif" font-size="14" lengthAdjust="spacing" textLength="48" x="565.25" y="528.8467">ONode</text><line style="stroke:#181818;stroke-width:0.5;" x1="463" x2="683" y1="540" y2="540"/><ellipse cx="473" cy="553.6484" fill="none" rx="3" ry="3" style="stroke:#038048;stroke-width:1.0;"/><text fill="#000000" font-family="sans-serif" font-size="14" lengthAdjust="spacing" text-decoration="underline" textLength="196" x="482" y="556.9951">node_attribute_name: String</text><ellipse cx="473" cy="569.9453" fill="none" rx="3" ry="3" style="stroke:#038048;stroke-width:1.0;"/><text fill="#000000" font-family="sans-serif" font-size="14" lengthAdjust="spacing" text-decoration="underline" textLength="79" x="482" y="573.292">type: String</text><line style="stroke:#181818;stroke-width:0.5;" x1="463" x2="683" y1="580.5938" y2="580.5938"/><ellipse cx="473" cy="594.2422" fill="#84BE84" rx="3" ry="3" style="stroke:#038048;stroke-width:1.0;"/><text fill="#000000" font-family="sans-serif" font-size="14" lengthAdjust="spacing" textLength="159" x="482" y="597.5889">ONode(Node, boolean)</text><ellipse cx="473" cy="610.5391" fill="#84BE84" rx="3" ry="3" style="stroke:#038048;stroke-width:1.0;"/><text fill="#000000" font-family="sans-serif" font-size="14" lengthAdjust="spacing" textLength="95" x="482" y="613.8857">ONode(Node)</text><ellipse cx="473" cy="626.8359" fill="#84BE84" rx="3" ry="3" style="stroke:#038048;stroke-width:1.0;"/><text fill="#000000" font-family="sans-serif" font-size="14" lengthAdjust="spacing" textLength="135" x="482" y="630.1826">getNumOneOf(): int</text><ellipse cx="473" cy="643.1328" fill="#84BE84" rx="3" ry="3" style="stroke:#038048;stroke-width:1.0;"/><text fill="#000000" font-family="sans-serif" font-size="14" lengthAdjust="spacing" textLength="122" x="482" y="646.4795">minusOneOf(): int</text><ellipse cx="473" cy="659.4297" fill="#84BE84" rx="3" ry="3" style="stroke:#038048;stroke-width:1.0;"/><text fill="#000000" font-family="sans-serif" font-size="14" lengthAdjust="spacing" textLength="109" x="482" y="662.7764">plusOneOf(): int</text><ellipse cx="473" cy="675.7266" fill="#84BE84" rx="3" ry="3" style="stroke:#038048;stroke-width:1.0;"/><text fill="#000000" font-family="sans-serif" font-size="14" lengthAdjust="spacing" textLength="122" x="482" y="679.0732">getName(): String</text><ellipse cx="473" cy="692.0234" fill="#84BE84" rx="3" ry="3" style="stroke:#038048;stroke-width:1.0;"/><text fill="#000000" font-family="sans-serif" font-size="14" lengthAdjust="spacing" textLength="116" x="482" y="695.3701">getType(): String</text><ellipse cx="473" cy="708.3203" fill="#84BE84" rx="3" ry="3" style="stroke:#038048;stroke-width:1.0;"/><text fill="#000000" font-family="sans-serif" font-size="14" lengthAdjust="spacing" textLength="116" x="482" y="711.667">getNode(): Node</text><ellipse cx="473" cy="724.6172" fill="#84BE84" rx="3" ry="3" style="stroke:#038048;stroke-width:1.0;"/><text fill="#000000" font-family="sans-serif" font-size="14" lengthAdjust="spacing" textLength="191" x="482" y="727.9639">toStringAlloy(): List&lt;String&gt;</text><ellipse cx="473" cy="740.9141" fill="#84BE84" rx="3" ry="3" style="stroke:#038048;stroke-width:1.0;"/><text fill="#000000" font-family="sans-serif" font-size="14" lengthAdjust="spacing" textLength="74" x="482" y="744.2607">sort(): void</text></g></a><!--class Graph2AlloyExpr--><a href="Graph2AlloyExpr.html" target="_top" title="Graph2AlloyExpr.html" xlink:actuate="onRequest" xlink:href="Graph2AlloyExpr.html" xlink:show="new" xlink:title="Graph2AlloyExpr.html" xlink:type="simple"><g id="elem_Graph2AlloyExpr"><rect codeLine="34" fill="#F1F1F1" height="406.5313" id="Graph2AlloyExpr" rx="2.5" ry="2.5" style="stroke:#181818;stroke-width:0.5;" width="490" x="613" y="41"/><ellipse cx="797.75" cy="57" fill="#ADD1B2" rx="11" ry="11" style="stroke:#181818;stroke-width:1.0;"/><path d="M800.7188,62.6406 Q800.1406,62.9375 799.5,63.0781 Q798.8594,63.2344 798.1563,63.2344 Q795.6563,63.2344 794.3281,61.5938 Q793.0156,59.9375 793.0156,56.8125 Q793.0156,53.6875 794.3281,52.0313 Q795.6563,50.375 798.1563,50.375 Q798.8594,50.375 799.5,50.5313 Q800.1563,50.6875 800.7188,50.9844 L800.7188,53.7031 Q800.0938,53.125 799.5,52.8594 Q798.9063,52.5781 798.2813,52.5781 Q796.9375,52.5781 796.25,53.6563 Q795.5625,54.7188 795.5625,56.8125 Q795.5625,58.9063 796.25,59.9844 Q796.9375,61.0469 798.2813,61.0469 Q798.9063,61.0469 799.5,60.7813 Q800.0938,60.5 800.7188,59.9219 L800.7188,62.6406 Z " fill="#000000"/><text fill="#000000" font-family="sans-serif" font-size="14" lengthAdjust="spacing" textLength="112" x="818.25" y="61.8467">Graph2AlloyExpr</text><line style="stroke:#181818;stroke-width:0.5;" x1="614" x2="1102" y1="73" y2="73"/><line style="stroke:#181818;stroke-width:0.5;" x1="614" x2="1102" y1="81" y2="81"/><ellipse cx="624" cy="94.6484" fill="#84BE84" rx="3" ry="3" style="stroke:#038048;stroke-width:1.0;"/><text fill="#000000" font-family="sans-serif" font-size="14" lengthAdjust="spacing" text-decoration="underline" textLength="147" x="633" y="97.9951">createGraph(): Graph</text><ellipse cx="624" cy="110.9453" fill="#84BE84" rx="3" ry="3" style="stroke:#038048;stroke-width:1.0;"/><text fill="#000000" font-family="sans-serif" font-size="14" lengthAdjust="spacing" text-decoration="underline" textLength="130" x="633" y="114.292">main(String[]): void</text><ellipse cx="624" cy="127.2422" fill="#84BE84" rx="3" ry="3" style="stroke:#038048;stroke-width:1.0;"/><text fill="#000000" font-family="sans-serif" font-size="14" lengthAdjust="spacing" textLength="126" x="633" y="130.5889">getGraph(): Graph</text><ellipse cx="624" cy="143.5391" fill="#84BE84" rx="3" ry="3" style="stroke:#038048;stroke-width:1.0;"/><text fill="#000000" font-family="sans-serif" font-size="14" lengthAdjust="spacing" textLength="150" x="633" y="146.8857">addNode(String): void</text><ellipse cx="624" cy="159.8359" fill="#84BE84" rx="3" ry="3" style="stroke:#038048;stroke-width:1.0;"/><text fill="#000000" font-family="sans-serif" font-size="14" lengthAdjust="spacing" textLength="253" x="633" y="163.1826">addEdge(String, String, String): Edge</text><ellipse cx="624" cy="176.1328" fill="#84BE84" rx="3" ry="3" style="stroke:#038048;stroke-width:1.0;"/><text fill="#000000" font-family="sans-serif" font-size="14" lengthAdjust="spacing" textLength="94" x="633" y="179.4795">display(): void</text><ellipse cx="624" cy="192.4297" fill="#84BE84" rx="3" ry="3" style="stroke:#038048;stroke-width:1.0;"/><text fill="#000000" font-family="sans-serif" font-size="14" lengthAdjust="spacing" textLength="367" x="633" y="195.7764">getHappensBeforeFunction(): Map&lt;IObject, IObject&gt;</text><ellipse cx="624" cy="208.7266" fill="#84BE84" rx="3" ry="3" style="stroke:#038048;stroke-width:1.0;"/><text fill="#000000" font-family="sans-serif" font-size="14" lengthAdjust="spacing" textLength="386" x="633" y="212.0732">getHappensBeforeInvFunction(): Map&lt;IObject, IObject&gt;</text><ellipse cx="624" cy="225.0234" fill="#84BE84" rx="3" ry="3" style="stroke:#038048;stroke-width:1.0;"/><text fill="#000000" font-family="sans-serif" font-size="14" lengthAdjust="spacing" textLength="445" x="633" y="228.3701">functionHBFn(Map&lt;IObject, IObject&gt;, IObject, Set&lt;Node&gt;): void</text><ellipse cx="624" cy="241.3203" fill="#84BE84" rx="3" ry="3" style="stroke:#038048;stroke-width:1.0;"/><text fill="#000000" font-family="sans-serif" font-size="14" lengthAdjust="spacing" text-decoration="underline" textLength="464" x="633" y="244.667">functionHBInvFn(Map&lt;IObject, IObject&gt;, IObject, Set&lt;Node&gt;): void</text><ellipse cx="624" cy="257.6172" fill="#84BE84" rx="3" ry="3" style="stroke:#038048;stroke-width:1.0;"/><text fill="#000000" font-family="sans-serif" font-size="14" lengthAdjust="spacing" text-decoration="underline" textLength="273" x="633" y="260.9639">getOutDegreeMinusSelfLoop(Node): int</text><ellipse cx="624" cy="273.9141" fill="#84BE84" rx="3" ry="3" style="stroke:#038048;stroke-width:1.0;"/><text fill="#000000" font-family="sans-serif" font-size="14" lengthAdjust="spacing" text-decoration="underline" textLength="343" x="633" y="277.2607">getFnString(Map&lt;IObject, IObject&gt;): List&lt;String&gt;</text><ellipse cx="624" cy="290.2109" fill="#84BE84" rx="3" ry="3" style="stroke:#038048;stroke-width:1.0;"/><text fill="#000000" font-family="sans-serif" font-size="14" lengthAdjust="spacing" text-decoration="underline" textLength="235" x="633" y="293.5576">print(Map&lt;IObject, IObject&gt;): void</text><ellipse cx="624" cy="306.5078" fill="#84BE84" rx="3" ry="3" style="stroke:#038048;stroke-width:1.0;"/><text fill="#000000" font-family="sans-serif" font-size="14" lengthAdjust="spacing" text-decoration="underline" textLength="395" x="633" y="309.8545">happensBefore(ONode, boolean): Map&lt;IObject, IObject&gt;</text><ellipse cx="624" cy="322.8047" fill="#84BE84" rx="3" ry="3" style="stroke:#038048;stroke-width:1.0;"/><text fill="#000000" font-family="sans-serif" font-size="14" lengthAdjust="spacing" text-decoration="underline" textLength="191" x="633" y="326.1514">get(Node, boolean): IObject</text><ellipse cx="624" cy="339.1016" fill="#84BE84" rx="3" ry="3" style="stroke:#038048;stroke-width:1.0;"/><text fill="#000000" font-family="sans-serif" font-size="14" lengthAdjust="spacing" text-decoration="underline" textLength="166" x="633" y="342.4482">isOneOf(Edge): boolean</text><ellipse cx="624" cy="355.3984" fill="#84BE84" rx="3" ry="3" style="stroke:#038048;stroke-width:1.0;"/><text fill="#000000" font-family="sans-serif" font-size="14" lengthAdjust="spacing" text-decoration="underline" textLength="263" x="633" y="358.7451">getNodeByName(Graph, String): Node</text><ellipse cx="624" cy="371.6953" fill="#84BE84" rx="3" ry="3" style="stroke:#038048;stroke-width:1.0;"/><text fill="#000000" font-family="sans-serif" font-size="14" lengthAdjust="spacing" text-decoration="underline" textLength="136" x="633" y="375.042">display(Graph): void</text><ellipse cx="624" cy="387.9922" fill="#84BE84" rx="3" ry="3" style="stroke:#038048;stroke-width:1.0;"/><text fill="#000000" font-family="sans-serif" font-size="14" lengthAdjust="spacing" text-decoration="underline" textLength="135" x="633" y="391.3389">explore(Node): void</text><ellipse cx="624" cy="404.2891" fill="#84BE84" rx="3" ry="3" style="stroke:#038048;stroke-width:1.0;"/><text fill="#000000" font-family="sans-serif" font-size="14" lengthAdjust="spacing" text-decoration="underline" textLength="207" x="633" y="407.6357">exoloreDepthFirst(Node): void</text><ellipse cx="624" cy="420.5859" fill="#84BE84" rx="3" ry="3" style="stroke:#038048;stroke-width:1.0;"/><text fill="#000000" font-family="sans-serif" font-size="14" lengthAdjust="spacing" text-decoration="underline" textLength="210" x="633" y="423.9326">exploreBreathFirst(Node): void</text><ellipse cx="624" cy="436.8828" fill="#84BE84" rx="3" ry="3" style="stroke:#038048;stroke-width:1.0;"/><text fill="#000000" font-family="sans-serif" font-size="14" lengthAdjust="spacing" text-decoration="underline" textLength="85" x="633" y="440.2295">sleep(): void</text></g></a><!--class IObject--><a href="IObject.html" target="_top" title="IObject.html" xlink:actuate="onRequest" xlink:href="IObject.html" xlink:show="new" xlink:title="IObject.html" xlink:type="simple"><g id="elem_IObject"><rect codeLine="59" fill="#F1F1F1" height="96.8906" id="IObject" rx="2.5" ry="2.5" style="stroke:#181818;stroke-width:0.5;" width="219" x="358.5" y="196"/><ellipse cx="439.25" cy="212" fill="#B4A7E5" rx="11" ry="11" style="stroke:#181818;stroke-width:1.0;"/><path d="M435.1719,207.7656 L435.1719,205.6094 L442.5625,205.6094 L442.5625,207.7656 L440.0938,207.7656 L440.0938,215.8438 L442.5625,215.8438 L442.5625,218 L435.1719,218 L435.1719,215.8438 L437.6406,215.8438 L437.6406,207.7656 L435.1719,207.7656 Z " fill="#000000"/><text fill="#000000" font-family="sans-serif" font-size="14" font-style="italic" lengthAdjust="spacing" textLength="49" x="459.75" y="216.8467">IObject</text><line style="stroke:#181818;stroke-width:0.5;" x1="359.5" x2="576.5" y1="228" y2="228"/><ellipse cx="369.5" cy="241.6484" fill="none" rx="3" ry="3" style="stroke:#038048;stroke-width:1.0;"/><text fill="#000000" font-family="sans-serif" font-size="14" lengthAdjust="spacing" text-decoration="underline" textLength="101" x="378.5" y="244.9951">numOneOf: int</text><line style="stroke:#181818;stroke-width:0.5;" x1="359.5" x2="576.5" y1="252.2969" y2="252.2969"/><ellipse cx="369.5" cy="265.9453" fill="#84BE84" rx="3" ry="3" style="stroke:#038048;stroke-width:1.0;"/><text fill="#000000" font-family="sans-serif" font-size="14" font-style="italic" lengthAdjust="spacing" textLength="193" x="378.5" y="269.292">toStringAlloy(): List&lt;String&gt;</text><ellipse cx="369.5" cy="282.2422" fill="#84BE84" rx="3" ry="3" style="stroke:#038048;stroke-width:1.0;"/><text fill="#000000" font-family="sans-serif" font-size="14" font-style="italic" lengthAdjust="spacing" textLength="74" x="378.5" y="285.5889">sort(): void</text></g></a><!--class GraphUtil--><a href="GraphUtil.html" target="_top" title="GraphUtil.html" xlink:actuate="onRequest" xlink:href="GraphUtil.html" xlink:show="new" xlink:title="GraphUtil.html" xlink:type="simple"><g id="elem_GraphUtil"><rect codeLine="65" fill="#F1F1F1" height="243.5625" id="GraphUtil" rx="2.5" ry="2.5" style="stroke:#181818;stroke-width:0.5;" width="301" x="22.5" y="122.5"/><ellipse cx="137.25" cy="138.5" fill="#ADD1B2" rx="11" ry="11" style="stroke:#181818;stroke-width:1.0;"/><path d="M140.2188,144.1406 Q139.6406,144.4375 139,144.5781 Q138.3594,144.7344 137.6563,144.7344 Q135.1563,144.7344 133.8281,143.0938 Q132.5156,141.4375 132.5156,138.3125 Q132.5156,135.1875 133.8281,133.5313 Q135.1563,131.875 137.6563,131.875 Q138.3594,131.875 139,132.0313 Q139.6563,132.1875 140.2188,132.4844 L140.2188,135.2031 Q139.5938,134.625 139,134.3594 Q138.4063,134.0781 137.7813,134.0781 Q136.4375,134.0781 135.75,135.1563 Q135.0625,136.2188 135.0625,138.3125 Q135.0625,140.4063 135.75,141.4844 Q136.4375,142.5469 137.7813,142.5469 Q138.4063,142.5469 139,142.2813 Q139.5938,142 140.2188,141.4219 L140.2188,144.1406 Z " fill="#000000"/><text fill="#000000" font-family="sans-serif" font-size="14" lengthAdjust="spacing" textLength="63" x="157.75" y="143.3467">GraphUtil</text><line style="stroke:#181818;stroke-width:0.5;" x1="23.5" x2="322.5" y1="154.5" y2="154.5"/><ellipse cx="33.5" cy="168.1484" fill="none" rx="3" ry="3" style="stroke:#038048;stroke-width:1.0;"/><text fill="#000000" font-family="sans-serif" font-size="14" lengthAdjust="spacing" text-decoration="underline" textLength="107" x="42.5" y="171.4951">idCounter: long</text><line style="stroke:#181818;stroke-width:0.5;" x1="23.5" x2="322.5" y1="178.7969" y2="178.7969"/><ellipse cx="33.5" cy="192.4453" fill="#84BE84" rx="3" ry="3" style="stroke:#038048;stroke-width:1.0;"/><text fill="#000000" font-family="sans-serif" font-size="14" lengthAdjust="spacing" text-decoration="underline" textLength="213" x="42.5" y="195.792">simplesequence(Graph): Node</text><ellipse cx="33.5" cy="208.7422" fill="#84BE84" rx="3" ry="3" style="stroke:#038048;stroke-width:1.0;"/><text fill="#000000" font-family="sans-serif" font-size="14" lengthAdjust="spacing" text-decoration="underline" textLength="124" x="42.5" y="212.0889">fork(Graph): Node</text><ellipse cx="33.5" cy="225.0391" fill="#84BE84" rx="3" ry="3" style="stroke:#038048;stroke-width:1.0;"/><text fill="#000000" font-family="sans-serif" font-size="14" lengthAdjust="spacing" text-decoration="underline" textLength="156" x="42.5" y="228.3857">decision(Graph): Node</text><ellipse cx="33.5" cy="241.3359" fill="#84BE84" rx="3" ry="3" style="stroke:#038048;stroke-width:1.0;"/><text fill="#000000" font-family="sans-serif" font-size="14" lengthAdjust="spacing" text-decoration="underline" textLength="148" x="42.5" y="244.6826">forkjoin(Graph): Node</text><ellipse cx="33.5" cy="257.6328" fill="#84BE84" rx="3" ry="3" style="stroke:#038048;stroke-width:1.0;"/><text fill="#000000" font-family="sans-serif" font-size="14" lengthAdjust="spacing" text-decoration="underline" textLength="201" x="42.5" y="260.9795">decisionmerge(Graph): Node</text><ellipse cx="33.5" cy="273.9297" fill="#84BE84" rx="3" ry="3" style="stroke:#038048;stroke-width:1.0;"/><text fill="#000000" font-family="sans-serif" font-size="14" lengthAdjust="spacing" text-decoration="underline" textLength="160" x="42.5" y="277.2764">allcontrol(Graph): Node</text><ellipse cx="33.5" cy="290.2266" fill="#84BE84" rx="3" ry="3" style="stroke:#038048;stroke-width:1.0;"/><text fill="#000000" font-family="sans-serif" font-size="14" lengthAdjust="spacing" text-decoration="underline" textLength="128" x="42.5" y="293.5732">loop(Graph): Node</text><ellipse cx="33.5" cy="306.5234" fill="#84BE84" rx="3" ry="3" style="stroke:#038048;stroke-width:1.0;"/><text fill="#000000" font-family="sans-serif" font-size="14" lengthAdjust="spacing" text-decoration="underline" textLength="123" x="42.5" y="309.8701">ex1(Graph): Node</text><ellipse cx="33.5" cy="322.8203" fill="#84BE84" rx="3" ry="3" style="stroke:#038048;stroke-width:1.0;"/><text fill="#000000" font-family="sans-serif" font-size="14" lengthAdjust="spacing" text-decoration="underline" textLength="227" x="42.5" y="326.167">createNode(Graph, String): Node</text><ellipse cx="33.5" cy="339.1172" fill="#84BE84" rx="3" ry="3" style="stroke:#038048;stroke-width:1.0;"/><text fill="#000000" font-family="sans-serif" font-size="14" lengthAdjust="spacing" text-decoration="underline" textLength="275" x="42.5" y="342.4639">createNode(Graph, String, String): Node</text><ellipse cx="33.5" cy="355.4141" fill="#84BE84" rx="3" ry="3" style="stroke:#038048;stroke-width:1.0;"/><text fill="#000000" font-family="sans-serif" font-size="14" lengthAdjust="spacing" text-decoration="underline" textLength="117" x="42.5" y="358.7607">createID(): String</text></g></a><!--class OListAND--><a href="OListAND.html" target="_top" title="OListAND.html" xlink:actuate="onRequest" xlink:href="OListAND.html" xlink:show="new" xlink:title="OListAND.html" xlink:type="simple"><g id="elem_OListAND"><rect codeLine="80" fill="#F1F1F1" height="64.2969" id="OListAND" rx="2.5" ry="2.5" style="stroke:#181818;stroke-width:0.5;" width="217" x="314.5" y="812"/><ellipse cx="386.75" cy="828" fill="#ADD1B2" rx="11" ry="11" style="stroke:#181818;stroke-width:1.0;"/><path d="M389.7188,833.6406 Q389.1406,833.9375 388.5,834.0781 Q387.8594,834.2344 387.1563,834.2344 Q384.6563,834.2344 383.3281,832.5938 Q382.0156,830.9375 382.0156,827.8125 Q382.0156,824.6875 383.3281,823.0313 Q384.6563,821.375 387.1563,821.375 Q387.8594,821.375 388.5,821.5313 Q389.1563,821.6875 389.7188,821.9844 L389.7188,824.7031 Q389.0938,824.125 388.5,823.8594 Q387.9063,823.5781 387.2813,823.5781 Q385.9375,823.5781 385.25,824.6563 Q384.5625,825.7188 384.5625,827.8125 Q384.5625,829.9063 385.25,830.9844 Q385.9375,832.0469 387.2813,832.0469 Q387.9063,832.0469 388.5,831.7813 Q389.0938,831.5 389.7188,830.9219 L389.7188,833.6406 Z " fill="#000000"/><text fill="#000000" font-family="sans-serif" font-size="14" lengthAdjust="spacing" textLength="64" x="407.25" y="832.8467">OListAND</text><line style="stroke:#181818;stroke-width:0.5;" x1="315.5" x2="530.5" y1="844" y2="844"/><line style="stroke:#181818;stroke-width:0.5;" x1="315.5" x2="530.5" y1="852" y2="852"/><ellipse cx="325.5" cy="865.6484" fill="#84BE84" rx="3" ry="3" style="stroke:#038048;stroke-width:1.0;"/><text fill="#000000" font-family="sans-serif" font-size="14" lengthAdjust="spacing" textLength="191" x="334.5" y="868.9951">toStringAlloy(): List&lt;String&gt;</text></g></a><!--reverse link OListANDOR to OListOR--><g id="link_OListANDOR_OListOR"><path codeLine="86" d="M251.5909,725.9748 C227.3709,761.1448 210.57,785.55 192.35,812 " fill="none" id="OListANDOR-backto-OListOR" style="stroke:#181818;stroke-width:1.0;"/><polygon fill="none" points="261.8,711.15,246.6493,722.5717,256.5324,729.3778,261.8,711.15" style="stroke:#181818;stroke-width:1.0;"/></g><!--reverse link IObject to OListANDOR--><g id="link_IObject_OListANDOR"><path codeLine="87" d="M442.5854,310.0485 C417.4054,373.9985 379,471.54 348.58,548.8 " fill="none" id="IObject-backto-OListANDOR" style="stroke:#181818;stroke-width:1.0;stroke-dasharray:7.0,7.0;"/><polygon fill="none" points="449.18,293.3,437.0026,307.8503,448.1682,312.2467,449.18,293.3" style="stroke:#181818;stroke-width:1.0;"/></g><!--reverse link IObject to ONode--><g id="link_IObject_ONode"><path codeLine="88" d="M485.8432,310.6611 C500.4632,364.0611 519.95,435.23 539.86,507.97 " fill="none" id="IObject-backto-ONode" style="stroke:#181818;stroke-width:1.0;stroke-dasharray:7.0,7.0;"/><polygon fill="none" points="481.09,293.3,480.0561,312.2455,491.6302,309.0767,481.09,293.3" style="stroke:#181818;stroke-width:1.0;"/></g><!--reverse link OListANDOR to OListAND--><g id="link_OListANDOR_OListAND"><path codeLine="89" d="M365.1217,727.2488 C382.7117,762.4188 394.27,785.55 407.5,812 " fill="none" id="OListANDOR-backto-OListAND" style="stroke:#181818;stroke-width:1.0;"/><polygon fill="none" points="357.07,711.15,359.7554,729.9327,370.4879,724.5649,357.07,711.15" style="stroke:#181818;stroke-width:1.0;"/></g><text fill="#888888" font-family="sans-serif" font-size="10" lengthAdjust="spacing" textLength="186" x="463" y="907.2822">UMLDoclet 2.1.1, PlantUML 1.2023.12</text><!--SRC=[lLVVJ-Cm37xdhyZBIPqObU2ncf3OZHr8G4zmF4q8PQtN1T8arwI87Un_FwVjVdHhIuiGbRPazVVPZXqx6I64Q33uKJIXHYR4ymuEy2LHD7Yc4H08KpUY1eAv6vc4kN8QkoQXGdCBToddSk562LLpyfOpxHDmgZNnhvWs_YsPJ8gPEpSnVtX09Dbw3esyGzKYEhFAd9v7B7gGlpjTGvSRzNIgqOV0RDivknbjJ6K_Qgnj04wlLdBfJvyWC3i0pVw1zOy9KnRGC5nJFF8YMLYMHs0S9A6iG9N4RwlrBDl68lT69iRPDRVSIyAD3C76nOxL8NdJXXeMe7M1c4TgqDeqDV0eQ0mUoOtNCCn2LKCECuEE_UgJgPGSgEZL8NfxuRf9Or-0FwiCTyn4gkl5YZT9hN9SbvLLkOtYFxYc1d7cDOhj-9cDt25vlsnXdMJgpbzLWcdSUVDHGeC4i7WpahMMJMgWCMN2oNsTFDJjuWPDjWYoqEGwAZKWv3oCLf0-AOz8iT8o9MHQSRfmwZowe4g1q4EOoGJ6gGWCayAYhwaQ5DNMNvNTQJFzKhnqr30hu1V3iN0gyUiPhXBCm4Rej6ejcqHiT5f_lamjBjPFpGYY1E3Q5j0TyDcLb2glmFrAAL778izHjJTDMtsZHg7Gr2feS7s-dIJ7B_UKDdagBSNPvLVsv3M35Rt4Raq45xHwzLRxS96rcAn8jdRtNiVO45VRFACqHmDU5RTnADBMY9GMEG9bvcEMQDEAasaVsiRHcgGvW6fgPvXuI6OqW5MmiPKLim_FfE8agDYWdpetjraTkl2zONpLV-ty8xTP-5EcTjKUuRBs-DGiLXmq_4r11B3EViD6mH9uReCB8M3QDhAMEfya4rtqnf14hHp6As8WXKaaRuFcjY6rmC7hSHjOVlvbnrA7OgnZTM5VZYgk4ClAAp9UERSkhbznIIw6zfTtpzkwH0_UZuwwS_tRpZPNlM3mxhgVTFORRQvJ_grXHMvcD03RJCXCIZlSNr-DPC3nhzk9U-mUzyblJeN1j-J72oHPtVV-0m00]--></g></svg>