<?xml version="1.0" encoding="us-ascii" standalone="no"?><svg xmlns="http://www.w3.org/2000/svg" xmlns:xlink="http://www.w3.org/1999/xlink" contentStyleType="text/css" height="917px" preserveAspectRatio="none" style="width:1126px;height:917px;background:#FFFFFF;" version="1.1" viewBox="0 0 1126 917" width="1126px" zoomAndPan="magnify"><defs/><g><!--cluster edu.gatech.gtri.obm.translator.alloy.graph--><g id="cluster_edu.gatech.gtri.obm.translator.alloy.graph"><path d="M8.5,6 L343.5,6 A3.75,3.75 0 0 1 346,8.5 L353,28.2969 L1116.5,28.2969 A2.5,2.5 0 0 1 1119,30.7969 L1119,889.5 A2.5,2.5 0 0 1 1116.5,892 L8.5,892 A2.5,2.5 0 0 1 6,889.5 L6,8.5 A2.5,2.5 0 0 1 8.5,6 " fill="none" style="stroke:#000000;stroke-width:1.5;"/><line style="stroke:#000000;stroke-width:1.5;" x1="6" x2="353" y1="28.2969" y2="28.2969"/><text fill="#000000" font-family="sans-serif" font-size="14" font-weight="bold" lengthAdjust="spacing" textLength="334" x="10" y="20.9951">edu.gatech.gtri.obm.translator.alloy.graph</text></g><!--class OListANDOR--><a href="OListANDOR.html" target="_top" title="OListANDOR.html" xlink:actuate="onRequest" xlink:href="OListANDOR.html" xlink:show="new" xlink:title="OListANDOR.html" xlink:type="simple"><g id="elem_OListANDOR"><rect codeLine="5" fill="#F1F1F1" height="162.0781" id="OListANDOR" rx="2.5" ry="2.5" style="stroke:#181818;stroke-width:0.5;" width="219" x="626.5" y="549"/><ellipse cx="688.25" cy="565" fill="#A9DCDF" rx="11" ry="11" style="stroke:#181818;stroke-width:1.0;"/><path d="M688.3594,560.3438 L687.2031,565.4219 L689.5313,565.4219 L688.3594,560.3438 Z M686.875,558.1094 L689.8594,558.1094 L693.2188,570.5 L690.7656,570.5 L690,567.4375 L686.7188,567.4375 L685.9688,570.5 L683.5313,570.5 L686.875,558.1094 Z " fill="#000000"/><text fill="#000000" font-family="sans-serif" font-size="14" font-style="italic" lengthAdjust="spacing" textLength="87" x="708.75" y="569.8467">OListANDOR</text><line style="stroke:#181818;stroke-width:0.5;" x1="627.5" x2="844.5" y1="581" y2="581"/><line style="stroke:#181818;stroke-width:0.5;" x1="627.5" x2="844.5" y1="589" y2="589"/><ellipse cx="637.5" cy="602.6484" fill="#84BE84" rx="3" ry="3" style="stroke:#038048;stroke-width:1.0;"/><text fill="#000000" font-family="sans-serif" font-size="14" lengthAdjust="spacing" textLength="95" x="646.5" y="605.9951">OListANDOR()</text><ellipse cx="637.5" cy="618.9453" fill="#84BE84" rx="3" ry="3" style="stroke:#038048;stroke-width:1.0;"/><text fill="#000000" font-family="sans-serif" font-size="14" lengthAdjust="spacing" textLength="143" x="646.5" y="622.292">OListANDOR(IObject)</text><ellipse cx="637.5" cy="635.2422" fill="#84BE84" rx="3" ry="3" style="stroke:#038048;stroke-width:1.0;"/><text fill="#000000" font-family="sans-serif" font-size="14" lengthAdjust="spacing" textLength="64" x="646.5" y="638.5889">size(): int</text><ellipse cx="637.5" cy="651.5391" fill="#84BE84" rx="3" ry="3" style="stroke:#038048;stroke-width:1.0;"/><text fill="#000000" font-family="sans-serif" font-size="14" lengthAdjust="spacing" textLength="121" x="646.5" y="654.8857">add(IObject): void</text><ellipse cx="637.5" cy="667.8359" fill="#84BE84" rx="3" ry="3" style="stroke:#038048;stroke-width:1.0;"/><text fill="#000000" font-family="sans-serif" font-size="14" lengthAdjust="spacing" textLength="107" x="646.5" y="671.1826">get(int): IObject</text><ellipse cx="637.5" cy="684.1328" fill="#84BE84" rx="3" ry="3" style="stroke:#038048;stroke-width:1.0;"/><text fill="#000000" font-family="sans-serif" font-size="14" font-style="italic" lengthAdjust="spacing" textLength="193" x="646.5" y="687.4795">toStringAlloy(): List&lt;String&gt;</text><ellipse cx="637.5" cy="700.4297" fill="#84BE84" rx="3" ry="3" style="stroke:#038048;stroke-width:1.0;"/><text fill="#000000" font-family="sans-serif" font-size="14" lengthAdjust="spacing" textLength="74" x="646.5" y="703.7764">sort(): void</text></g></a><!--class IObject--><a href="IObject.html" target="_top" title="IObject.html" xlink:actuate="onRequest" xlink:href="IObject.html" xlink:show="new" xlink:title="IObject.html" xlink:type="simple"><g id="elem_IObject"><rect codeLine="15" fill="#F1F1F1" height="96.8906" id="IObject" rx="2.5" ry="2.5" style="stroke:#181818;stroke-width:0.5;" width="219" x="883.5" y="196"/><ellipse cx="964.25" cy="212" fill="#B4A7E5" rx="11" ry="11" style="stroke:#181818;stroke-width:1.0;"/><path d="M960.1719,207.7656 L960.1719,205.6094 L967.5625,205.6094 L967.5625,207.7656 L965.0938,207.7656 L965.0938,215.8438 L967.5625,215.8438 L967.5625,218 L960.1719,218 L960.1719,215.8438 L962.6406,215.8438 L962.6406,207.7656 L960.1719,207.7656 Z " fill="#000000"/><text fill="#000000" font-family="sans-serif" font-size="14" font-style="italic" lengthAdjust="spacing" textLength="49" x="984.75" y="216.8467">IObject</text><line style="stroke:#181818;stroke-width:0.5;" x1="884.5" x2="1101.5" y1="228" y2="228"/><ellipse cx="894.5" cy="241.6484" fill="none" rx="3" ry="3" style="stroke:#038048;stroke-width:1.0;"/><text fill="#000000" font-family="sans-serif" font-size="14" lengthAdjust="spacing" text-decoration="underline" textLength="101" x="903.5" y="244.9951">numOneOf: int</text><line style="stroke:#181818;stroke-width:0.5;" x1="884.5" x2="1101.5" y1="252.2969" y2="252.2969"/><ellipse cx="894.5" cy="265.9453" fill="#84BE84" rx="3" ry="3" style="stroke:#038048;stroke-width:1.0;"/><text fill="#000000" font-family="sans-serif" font-size="14" font-style="italic" lengthAdjust="spacing" textLength="193" x="903.5" y="269.292">toStringAlloy(): List&lt;String&gt;</text><ellipse cx="894.5" cy="282.2422" fill="#84BE84" rx="3" ry="3" style="stroke:#038048;stroke-width:1.0;"/><text fill="#000000" font-family="sans-serif" font-size="14" font-style="italic" lengthAdjust="spacing" textLength="74" x="903.5" y="285.5889">sort(): void</text></g></a><!--class GraphUtil--><a href="GraphUtil.html" target="_top" title="GraphUtil.html" xlink:actuate="onRequest" xlink:href="GraphUtil.html" xlink:show="new" xlink:title="GraphUtil.html" xlink:type="simple"><g id="elem_GraphUtil"><rect codeLine="21" fill="#F1F1F1" height="243.5625" id="GraphUtil" rx="2.5" ry="2.5" style="stroke:#181818;stroke-width:0.5;" width="301" x="547.5" y="122.5"/><ellipse cx="662.25" cy="138.5" fill="#ADD1B2" rx="11" ry="11" style="stroke:#181818;stroke-width:1.0;"/><path d="M665.2188,144.1406 Q664.6406,144.4375 664,144.5781 Q663.3594,144.7344 662.6563,144.7344 Q660.1563,144.7344 658.8281,143.0938 Q657.5156,141.4375 657.5156,138.3125 Q657.5156,135.1875 658.8281,133.5313 Q660.1563,131.875 662.6563,131.875 Q663.3594,131.875 664,132.0313 Q664.6563,132.1875 665.2188,132.4844 L665.2188,135.2031 Q664.5938,134.625 664,134.3594 Q663.4063,134.0781 662.7813,134.0781 Q661.4375,134.0781 660.75,135.1563 Q660.0625,136.2188 660.0625,138.3125 Q660.0625,140.4063 660.75,141.4844 Q661.4375,142.5469 662.7813,142.5469 Q663.4063,142.5469 664,142.2813 Q664.5938,142 665.2188,141.4219 L665.2188,144.1406 Z " fill="#000000"/><text fill="#000000" font-family="sans-serif" font-size="14" lengthAdjust="spacing" textLength="63" x="682.75" y="143.3467">GraphUtil</text><line style="stroke:#181818;stroke-width:0.5;" x1="548.5" x2="847.5" y1="154.5" y2="154.5"/><ellipse cx="558.5" cy="168.1484" fill="none" rx="3" ry="3" style="stroke:#038048;stroke-width:1.0;"/><text fill="#000000" font-family="sans-serif" font-size="14" lengthAdjust="spacing" text-decoration="underline" textLength="107" x="567.5" y="171.4951">idCounter: long</text><line style="stroke:#181818;stroke-width:0.5;" x1="548.5" x2="847.5" y1="178.7969" y2="178.7969"/><ellipse cx="558.5" cy="192.4453" fill="#84BE84" rx="3" ry="3" style="stroke:#038048;stroke-width:1.0;"/><text fill="#000000" font-family="sans-serif" font-size="14" lengthAdjust="spacing" text-decoration="underline" textLength="213" x="567.5" y="195.792">simplesequence(Graph): Node</text><ellipse cx="558.5" cy="208.7422" fill="#84BE84" rx="3" ry="3" style="stroke:#038048;stroke-width:1.0;"/><text fill="#000000" font-family="sans-serif" font-size="14" lengthAdjust="spacing" text-decoration="underline" textLength="124" x="567.5" y="212.0889">fork(Graph): Node</text><ellipse cx="558.5" cy="225.0391" fill="#84BE84" rx="3" ry="3" style="stroke:#038048;stroke-width:1.0;"/><text fill="#000000" font-family="sans-serif" font-size="14" lengthAdjust="spacing" text-decoration="underline" textLength="156" x="567.5" y="228.3857">decision(Graph): Node</text><ellipse cx="558.5" cy="241.3359" fill="#84BE84" rx="3" ry="3" style="stroke:#038048;stroke-width:1.0;"/><text fill="#000000" font-family="sans-serif" font-size="14" lengthAdjust="spacing" text-decoration="underline" textLength="148" x="567.5" y="244.6826">forkjoin(Graph): Node</text><ellipse cx="558.5" cy="257.6328" fill="#84BE84" rx="3" ry="3" style="stroke:#038048;stroke-width:1.0;"/><text fill="#000000" font-family="sans-serif" font-size="14" lengthAdjust="spacing" text-decoration="underline" textLength="201" x="567.5" y="260.9795">decisionmerge(Graph): Node</text><ellipse cx="558.5" cy="273.9297" fill="#84BE84" rx="3" ry="3" style="stroke:#038048;stroke-width:1.0;"/><text fill="#000000" font-family="sans-serif" font-size="14" lengthAdjust="spacing" text-decoration="underline" textLength="160" x="567.5" y="277.2764">allcontrol(Graph): Node</text><ellipse cx="558.5" cy="290.2266" fill="#84BE84" rx="3" ry="3" style="stroke:#038048;stroke-width:1.0;"/><text fill="#000000" font-family="sans-serif" font-size="14" lengthAdjust="spacing" text-decoration="underline" textLength="128" x="567.5" y="293.5732">loop(Graph): Node</text><ellipse cx="558.5" cy="306.5234" fill="#84BE84" rx="3" ry="3" style="stroke:#038048;stroke-width:1.0;"/><text fill="#000000" font-family="sans-serif" font-size="14" lengthAdjust="spacing" text-decoration="underline" textLength="123" x="567.5" y="309.8701">ex1(Graph): Node</text><ellipse cx="558.5" cy="322.8203" fill="#84BE84" rx="3" ry="3" style="stroke:#038048;stroke-width:1.0;"/><text fill="#000000" font-family="sans-serif" font-size="14" lengthAdjust="spacing" text-decoration="underline" textLength="227" x="567.5" y="326.167">createNode(Graph, String): Node</text><ellipse cx="558.5" cy="339.1172" fill="#84BE84" rx="3" ry="3" style="stroke:#038048;stroke-width:1.0;"/><text fill="#000000" font-family="sans-serif" font-size="14" lengthAdjust="spacing" text-decoration="underline" textLength="275" x="567.5" y="342.4639">createNode(Graph, String, String): Node</text><ellipse cx="558.5" cy="355.4141" fill="#84BE84" rx="3" ry="3" style="stroke:#038048;stroke-width:1.0;"/><text fill="#000000" font-family="sans-serif" font-size="14" lengthAdjust="spacing" text-decoration="underline" textLength="117" x="567.5" y="358.7607">createID(): String</text></g></a><!--class OListOR--><a href="OListOR.html" target="_top" title="OListOR.html" xlink:actuate="onRequest" xlink:href="OListOR.html" xlink:show="new" xlink:title="OListOR.html" xlink:type="simple"><g id="elem_OListOR"><rect codeLine="36" fill="#F1F1F1" height="64.2969" id="OListOR" rx="2.5" ry="2.5" style="stroke:#181818;stroke-width:0.5;" width="217" x="501.5" y="812"/><ellipse cx="578.25" cy="828" fill="#ADD1B2" rx="11" ry="11" style="stroke:#181818;stroke-width:1.0;"/><path d="M581.2188,833.6406 Q580.6406,833.9375 580,834.0781 Q579.3594,834.2344 578.6563,834.2344 Q576.1563,834.2344 574.8281,832.5938 Q573.5156,830.9375 573.5156,827.8125 Q573.5156,824.6875 574.8281,823.0313 Q576.1563,821.375 578.6563,821.375 Q579.3594,821.375 580,821.5313 Q580.6563,821.6875 581.2188,821.9844 L581.2188,824.7031 Q580.5938,824.125 580,823.8594 Q579.4063,823.5781 578.7813,823.5781 Q577.4375,823.5781 576.75,824.6563 Q576.0625,825.7188 576.0625,827.8125 Q576.0625,829.9063 576.75,830.9844 Q577.4375,832.0469 578.7813,832.0469 Q579.4063,832.0469 580,831.7813 Q580.5938,831.5 581.2188,830.9219 L581.2188,833.6406 Z " fill="#000000"/><text fill="#000000" font-family="sans-serif" font-size="14" lengthAdjust="spacing" textLength="55" x="598.75" y="832.8467">OListOR</text><line style="stroke:#181818;stroke-width:0.5;" x1="502.5" x2="717.5" y1="844" y2="844"/><line style="stroke:#181818;stroke-width:0.5;" x1="502.5" x2="717.5" y1="852" y2="852"/><ellipse cx="512.5" cy="865.6484" fill="#84BE84" rx="3" ry="3" style="stroke:#038048;stroke-width:1.0;"/><text fill="#000000" font-family="sans-serif" font-size="14" lengthAdjust="spacing" textLength="191" x="521.5" y="868.9951">toStringAlloy(): List&lt;String&gt;</text></g></a><!--class OListAND--><a href="OListAND.html" target="_top" title="OListAND.html" xlink:actuate="onRequest" xlink:href="OListAND.html" xlink:show="new" xlink:title="OListAND.html" xlink:type="simple"><g id="elem_OListAND"><rect codeLine="40" fill="#F1F1F1" height="64.2969" id="OListAND" rx="2.5" ry="2.5" style="stroke:#181818;stroke-width:0.5;" width="217" x="753.5" y="812"/><ellipse cx="825.75" cy="828" fill="#ADD1B2" rx="11" ry="11" style="stroke:#181818;stroke-width:1.0;"/><path d="M828.7188,833.6406 Q828.1406,833.9375 827.5,834.0781 Q826.8594,834.2344 826.1563,834.2344 Q823.6563,834.2344 822.3281,832.5938 Q821.0156,830.9375 821.0156,827.8125 Q821.0156,824.6875 822.3281,823.0313 Q823.6563,821.375 826.1563,821.375 Q826.8594,821.375 827.5,821.5313 Q828.1563,821.6875 828.7188,821.9844 L828.7188,824.7031 Q828.0938,824.125 827.5,823.8594 Q826.9063,823.5781 826.2813,823.5781 Q824.9375,823.5781 824.25,824.6563 Q823.5625,825.7188 823.5625,827.8125 Q823.5625,829.9063 824.25,830.9844 Q824.9375,832.0469 826.2813,832.0469 Q826.9063,832.0469 827.5,831.7813 Q828.0938,831.5 828.7188,830.9219 L828.7188,833.6406 Z " fill="#000000"/><text fill="#000000" font-family="sans-serif" font-size="14" lengthAdjust="spacing" textLength="64" x="846.25" y="832.8467">OListAND</text><line style="stroke:#181818;stroke-width:0.5;" x1="754.5" x2="969.5" y1="844" y2="844"/><line style="stroke:#181818;stroke-width:0.5;" x1="754.5" x2="969.5" y1="852" y2="852"/><ellipse cx="764.5" cy="865.6484" fill="#84BE84" rx="3" ry="3" style="stroke:#038048;stroke-width:1.0;"/><text fill="#000000" font-family="sans-serif" font-size="14" lengthAdjust="spacing" textLength="191" x="773.5" y="868.9951">toStringAlloy(): List&lt;String&gt;</text></g></a><!--class Graph2AlloyExpr--><a href="Graph2AlloyExpr.html" target="_top" title="Graph2AlloyExpr.html" xlink:actuate="onRequest" xlink:href="Graph2AlloyExpr.html" xlink:show="new" xlink:title="Graph2AlloyExpr.html" xlink:type="simple"><g id="elem_Graph2AlloyExpr"><rect codeLine="44" fill="#F1F1F1" height="406.5313" id="Graph2AlloyExpr" rx="2.5" ry="2.5" style="stroke:#181818;stroke-width:0.5;" width="490" x="22" y="41"/><ellipse cx="206.75" cy="57" fill="#ADD1B2" rx="11" ry="11" style="stroke:#181818;stroke-width:1.0;"/><path d="M209.7188,62.6406 Q209.1406,62.9375 208.5,63.0781 Q207.8594,63.2344 207.1563,63.2344 Q204.6563,63.2344 203.3281,61.5938 Q202.0156,59.9375 202.0156,56.8125 Q202.0156,53.6875 203.3281,52.0313 Q204.6563,50.375 207.1563,50.375 Q207.8594,50.375 208.5,50.5313 Q209.1563,50.6875 209.7188,50.9844 L209.7188,53.7031 Q209.0938,53.125 208.5,52.8594 Q207.9063,52.5781 207.2813,52.5781 Q205.9375,52.5781 205.25,53.6563 Q204.5625,54.7188 204.5625,56.8125 Q204.5625,58.9063 205.25,59.9844 Q205.9375,61.0469 207.2813,61.0469 Q207.9063,61.0469 208.5,60.7813 Q209.0938,60.5 209.7188,59.9219 L209.7188,62.6406 Z " fill="#000000"/><text fill="#000000" font-family="sans-serif" font-size="14" lengthAdjust="spacing" textLength="112" x="227.25" y="61.8467">Graph2AlloyExpr</text><line style="stroke:#181818;stroke-width:0.5;" x1="23" x2="511" y1="73" y2="73"/><line style="stroke:#181818;stroke-width:0.5;" x1="23" x2="511" y1="81" y2="81"/><ellipse cx="33" cy="94.6484" fill="#84BE84" rx="3" ry="3" style="stroke:#038048;stroke-width:1.0;"/><text fill="#000000" font-family="sans-serif" font-size="14" lengthAdjust="spacing" text-decoration="underline" textLength="147" x="42" y="97.9951">createGraph(): Graph</text><ellipse cx="33" cy="110.9453" fill="#84BE84" rx="3" ry="3" style="stroke:#038048;stroke-width:1.0;"/><text fill="#000000" font-family="sans-serif" font-size="14" lengthAdjust="spacing" text-decoration="underline" textLength="130" x="42" y="114.292">main(String[]): void</text><ellipse cx="33" cy="127.2422" fill="#84BE84" rx="3" ry="3" style="stroke:#038048;stroke-width:1.0;"/><text fill="#000000" font-family="sans-serif" font-size="14" lengthAdjust="spacing" textLength="126" x="42" y="130.5889">getGraph(): Graph</text><ellipse cx="33" cy="143.5391" fill="#84BE84" rx="3" ry="3" style="stroke:#038048;stroke-width:1.0;"/><text fill="#000000" font-family="sans-serif" font-size="14" lengthAdjust="spacing" textLength="150" x="42" y="146.8857">addNode(String): void</text><ellipse cx="33" cy="159.8359" fill="#84BE84" rx="3" ry="3" style="stroke:#038048;stroke-width:1.0;"/><text fill="#000000" font-family="sans-serif" font-size="14" lengthAdjust="spacing" textLength="253" x="42" y="163.1826">addEdge(String, String, String): Edge</text><ellipse cx="33" cy="176.1328" fill="#84BE84" rx="3" ry="3" style="stroke:#038048;stroke-width:1.0;"/><text fill="#000000" font-family="sans-serif" font-size="14" lengthAdjust="spacing" textLength="94" x="42" y="179.4795">display(): void</text><ellipse cx="33" cy="192.4297" fill="#84BE84" rx="3" ry="3" style="stroke:#038048;stroke-width:1.0;"/><text fill="#000000" font-family="sans-serif" font-size="14" lengthAdjust="spacing" textLength="367" x="42" y="195.7764">getHappensBeforeFunction(): Map&lt;IObject, IObject&gt;</text><ellipse cx="33" cy="208.7266" fill="#84BE84" rx="3" ry="3" style="stroke:#038048;stroke-width:1.0;"/><text fill="#000000" font-family="sans-serif" font-size="14" lengthAdjust="spacing" textLength="386" x="42" y="212.0732">getHappensBeforeInvFunction(): Map&lt;IObject, IObject&gt;</text><ellipse cx="33" cy="225.0234" fill="#84BE84" rx="3" ry="3" style="stroke:#038048;stroke-width:1.0;"/><text fill="#000000" font-family="sans-serif" font-size="14" lengthAdjust="spacing" textLength="445" x="42" y="228.3701">functionHBFn(Map&lt;IObject, IObject&gt;, IObject, Set&lt;Node&gt;): void</text><ellipse cx="33" cy="241.3203" fill="#84BE84" rx="3" ry="3" style="stroke:#038048;stroke-width:1.0;"/><text fill="#000000" font-family="sans-serif" font-size="14" lengthAdjust="spacing" text-decoration="underline" textLength="464" x="42" y="244.667">functionHBInvFn(Map&lt;IObject, IObject&gt;, IObject, Set&lt;Node&gt;): void</text><ellipse cx="33" cy="257.6172" fill="#84BE84" rx="3" ry="3" style="stroke:#038048;stroke-width:1.0;"/><text fill="#000000" font-family="sans-serif" font-size="14" lengthAdjust="spacing" text-decoration="underline" textLength="273" x="42" y="260.9639">getOutDegreeMinusSelfLoop(Node): int</text><ellipse cx="33" cy="273.9141" fill="#84BE84" rx="3" ry="3" style="stroke:#038048;stroke-width:1.0;"/><text fill="#000000" font-family="sans-serif" font-size="14" lengthAdjust="spacing" text-decoration="underline" textLength="343" x="42" y="277.2607">getFnString(Map&lt;IObject, IObject&gt;): List&lt;String&gt;</text><ellipse cx="33" cy="290.2109" fill="#84BE84" rx="3" ry="3" style="stroke:#038048;stroke-width:1.0;"/><text fill="#000000" font-family="sans-serif" font-size="14" lengthAdjust="spacing" text-decoration="underline" textLength="235" x="42" y="293.5576">print(Map&lt;IObject, IObject&gt;): void</text><ellipse cx="33" cy="306.5078" fill="#84BE84" rx="3" ry="3" style="stroke:#038048;stroke-width:1.0;"/><text fill="#000000" font-family="sans-serif" font-size="14" lengthAdjust="spacing" text-decoration="underline" textLength="395" x="42" y="309.8545">happensBefore(ONode, boolean): Map&lt;IObject, IObject&gt;</text><ellipse cx="33" cy="322.8047" fill="#84BE84" rx="3" ry="3" style="stroke:#038048;stroke-width:1.0;"/><text fill="#000000" font-family="sans-serif" font-size="14" lengthAdjust="spacing" text-decoration="underline" textLength="191" x="42" y="326.1514">get(Node, boolean): IObject</text><ellipse cx="33" cy="339.1016" fill="#84BE84" rx="3" ry="3" style="stroke:#038048;stroke-width:1.0;"/><text fill="#000000" font-family="sans-serif" font-size="14" lengthAdjust="spacing" text-decoration="underline" textLength="166" x="42" y="342.4482">isOneOf(Edge): boolean</text><ellipse cx="33" cy="355.3984" fill="#84BE84" rx="3" ry="3" style="stroke:#038048;stroke-width:1.0;"/><text fill="#000000" font-family="sans-serif" font-size="14" lengthAdjust="spacing" text-decoration="underline" textLength="263" x="42" y="358.7451">getNodeByName(Graph, String): Node</text><ellipse cx="33" cy="371.6953" fill="#84BE84" rx="3" ry="3" style="stroke:#038048;stroke-width:1.0;"/><text fill="#000000" font-family="sans-serif" font-size="14" lengthAdjust="spacing" text-decoration="underline" textLength="136" x="42" y="375.042">display(Graph): void</text><ellipse cx="33" cy="387.9922" fill="#84BE84" rx="3" ry="3" style="stroke:#038048;stroke-width:1.0;"/><text fill="#000000" font-family="sans-serif" font-size="14" lengthAdjust="spacing" text-decoration="underline" textLength="135" x="42" y="391.3389">explore(Node): void</text><ellipse cx="33" cy="404.2891" fill="#84BE84" rx="3" ry="3" style="stroke:#038048;stroke-width:1.0;"/><text fill="#000000" font-family="sans-serif" font-size="14" lengthAdjust="spacing" text-decoration="underline" textLength="207" x="42" y="407.6357">exoloreDepthFirst(Node): void</text><ellipse cx="33" cy="420.5859" fill="#84BE84" rx="3" ry="3" style="stroke:#038048;stroke-width:1.0;"/><text fill="#000000" font-family="sans-serif" font-size="14" lengthAdjust="spacing" text-decoration="underline" textLength="210" x="42" y="423.9326">exploreBreathFirst(Node): void</text><ellipse cx="33" cy="436.8828" fill="#84BE84" rx="3" ry="3" style="stroke:#038048;stroke-width:1.0;"/><text fill="#000000" font-family="sans-serif" font-size="14" lengthAdjust="spacing" text-decoration="underline" textLength="85" x="42" y="440.2295">sleep(): void</text></g></a><!--class ONode--><a href="ONode.html" target="_top" title="ONode.html" xlink:actuate="onRequest" xlink:href="ONode.html" xlink:show="new" xlink:title="ONode.html" xlink:type="simple"><g id="elem_ONode"><rect codeLine="69" fill="#F1F1F1" height="243.5625" id="ONode" rx="2.5" ry="2.5" style="stroke:#181818;stroke-width:0.5;" width="222" x="881" y="508"/><ellipse cx="963.75" cy="524" fill="#ADD1B2" rx="11" ry="11" style="stroke:#181818;stroke-width:1.0;"/><path d="M966.7188,529.6406 Q966.1406,529.9375 965.5,530.0781 Q964.8594,530.2344 964.1563,530.2344 Q961.6563,530.2344 960.3281,528.5938 Q959.0156,526.9375 959.0156,523.8125 Q959.0156,520.6875 960.3281,519.0313 Q961.6563,517.375 964.1563,517.375 Q964.8594,517.375 965.5,517.5313 Q966.1563,517.6875 966.7188,517.9844 L966.7188,520.7031 Q966.0938,520.125 965.5,519.8594 Q964.9063,519.5781 964.2813,519.5781 Q962.9375,519.5781 962.25,520.6563 Q961.5625,521.7188 961.5625,523.8125 Q961.5625,525.9063 962.25,526.9844 Q962.9375,528.0469 964.2813,528.0469 Q964.9063,528.0469 965.5,527.7813 Q966.0938,527.5 966.7188,526.9219 L966.7188,529.6406 Z " fill="#000000"/><text fill="#000000" font-family="sans-serif" font-size="14" lengthAdjust="spacing" textLength="48" x="984.25" y="528.8467">ONode</text><line style="stroke:#181818;stroke-width:0.5;" x1="882" x2="1102" y1="540" y2="540"/><ellipse cx="892" cy="553.6484" fill="none" rx="3" ry="3" style="stroke:#038048;stroke-width:1.0;"/><text fill="#000000" font-family="sans-serif" font-size="14" lengthAdjust="spacing" text-decoration="underline" textLength="196" x="901" y="556.9951">node_attribute_name: String</text><ellipse cx="892" cy="569.9453" fill="none" rx="3" ry="3" style="stroke:#038048;stroke-width:1.0;"/><text fill="#000000" font-family="sans-serif" font-size="14" lengthAdjust="spacing" text-decoration="underline" textLength="79" x="901" y="573.292">type: String</text><line style="stroke:#181818;stroke-width:0.5;" x1="882" x2="1102" y1="580.5938" y2="580.5938"/><ellipse cx="892" cy="594.2422" fill="#84BE84" rx="3" ry="3" style="stroke:#038048;stroke-width:1.0;"/><text fill="#000000" font-family="sans-serif" font-size="14" lengthAdjust="spacing" textLength="159" x="901" y="597.5889">ONode(Node, boolean)</text><ellipse cx="892" cy="610.5391" fill="#84BE84" rx="3" ry="3" style="stroke:#038048;stroke-width:1.0;"/><text fill="#000000" font-family="sans-serif" font-size="14" lengthAdjust="spacing" textLength="95" x="901" y="613.8857">ONode(Node)</text><ellipse cx="892" cy="626.8359" fill="#84BE84" rx="3" ry="3" style="stroke:#038048;stroke-width:1.0;"/><text fill="#000000" font-family="sans-serif" font-size="14" lengthAdjust="spacing" textLength="135" x="901" y="630.1826">getNumOneOf(): int</text><ellipse cx="892" cy="643.1328" fill="#84BE84" rx="3" ry="3" style="stroke:#038048;stroke-width:1.0;"/><text fill="#000000" font-family="sans-serif" font-size="14" lengthAdjust="spacing" textLength="122" x="901" y="646.4795">minusOneOf(): int</text><ellipse cx="892" cy="659.4297" fill="#84BE84" rx="3" ry="3" style="stroke:#038048;stroke-width:1.0;"/><text fill="#000000" font-family="sans-serif" font-size="14" lengthAdjust="spacing" textLength="109" x="901" y="662.7764">plusOneOf(): int</text><ellipse cx="892" cy="675.7266" fill="#84BE84" rx="3" ry="3" style="stroke:#038048;stroke-width:1.0;"/><text fill="#000000" font-family="sans-serif" font-size="14" lengthAdjust="spacing" textLength="122" x="901" y="679.0732">getName(): String</text><ellipse cx="892" cy="692.0234" fill="#84BE84" rx="3" ry="3" style="stroke:#038048;stroke-width:1.0;"/><text fill="#000000" font-family="sans-serif" font-size="14" lengthAdjust="spacing" textLength="116" x="901" y="695.3701">getType(): String</text><ellipse cx="892" cy="708.3203" fill="#84BE84" rx="3" ry="3" style="stroke:#038048;stroke-width:1.0;"/><text fill="#000000" font-family="sans-serif" font-size="14" lengthAdjust="spacing" textLength="116" x="901" y="711.667">getNode(): Node</text><ellipse cx="892" cy="724.6172" fill="#84BE84" rx="3" ry="3" style="stroke:#038048;stroke-width:1.0;"/><text fill="#000000" font-family="sans-serif" font-size="14" lengthAdjust="spacing" textLength="191" x="901" y="727.9639">toStringAlloy(): List&lt;String&gt;</text><ellipse cx="892" cy="740.9141" fill="#84BE84" rx="3" ry="3" style="stroke:#038048;stroke-width:1.0;"/><text fill="#000000" font-family="sans-serif" font-size="14" lengthAdjust="spacing" textLength="74" x="901" y="744.2607">sort(): void</text></g></a><!--reverse link IObject to OListANDOR--><g id="link_IObject_OListANDOR"><path codeLine="86" d="M954.9522,308.4603 C929.7322,349.8403 901.06,395.81 866,448 C843.56,481.4 817.9,517.53 795.34,548.67 " fill="none" id="IObject-backto-OListANDOR" style="stroke:#181818;stroke-width:1.0;stroke-dasharray:7.0,7.0;"/><polygon fill="none" points="964.32,293.09,949.8288,305.3377,960.0757,311.5829,964.32,293.09" style="stroke:#181818;stroke-width:1.0;"/></g><!--reverse link OListANDOR to OListOR--><g id="link_OListANDOR_OListOR"><path codeLine="87" d="M679.1645,726.6239 C658.2645,761.7939 644.15,785.55 628.43,812 " fill="none" id="OListANDOR-backto-OListOR" style="stroke:#181818;stroke-width:1.0;"/><polygon fill="none" points="688.36,711.15,674.0065,723.5588,684.3225,729.6891,688.36,711.15" style="stroke:#181818;stroke-width:1.0;"/></g><!--reverse link OListANDOR to OListAND--><g id="link_OListANDOR_OListAND"><path codeLine="88" d="M792.8355,726.6239 C813.7355,761.7939 827.85,785.55 843.57,812 " fill="none" id="OListANDOR-backto-OListAND" style="stroke:#181818;stroke-width:1.0;"/><polygon fill="none" points="783.64,711.15,787.6775,729.6891,797.9935,723.5588,783.64,711.15" style="stroke:#181818;stroke-width:1.0;"/></g><!--reverse link IObject to ONode--><g id="link_IObject_ONode"><path codeLine="89" d="M992.8328,311.2999 C992.6928,364.6999 992.51,435.23 992.32,507.97 " fill="none" id="IObject-backto-ONode" style="stroke:#181818;stroke-width:1.0;stroke-dasharray:7.0,7.0;"/><polygon fill="none" points="992.88,293.3,986.8328,311.2842,998.8328,311.3157,992.88,293.3" style="stroke:#181818;stroke-width:1.0;"/></g><text fill="#888888" font-family="sans-serif" font-size="10" lengthAdjust="spacing" textLength="186" x="463" y="907.2822">UMLDoclet 2.1.1, PlantUML 1.2023.12</text><!--SRC=[nLTjJzim4Fw-N-4lar81aU1ZLI7HbGuaQASnFY64tEIQ6XpRYnr41_pttUMbhqcQ8hH5gfBcdkVkV7S-NnXZp8B3d-49TpfXtUwNB_YI6HuyyGWOXAaVSGV1p8zS8dmzYNsNS6KbmNqkfPxxKSBDZBtcJBhun28eS2oGt5eslXBMdOq6uv_ixcxvnv-vMDxV8v6jN0TBWDUfbLoE9uyGk0s05N_0wtIPK6vTmCDmGUcoPot2TNa4paCIoWhKclYrNCyxEt3w1kEWeZDQETaYdthvkzCDRtJYl4rpxyieeK58fZo0qYX6ftYg3ishTTo90BrGQJnMC9vkB_LZlgwoThcTv_GxvVpM2ObEBvvtkIt2RpgbLNUPr2ggGLaH6maMVgUW0l0oxUZFI8TGmvZgvAaDBeH0MA5LMvsFMgXzzCQGHAqSndqJQEKIBTkWfTQc3GvUZjl0WWHmHnCWHn-ol2G-njg7VJcWmihnzQMLRVDbhwXj5EtAkrezTf6LNlIv1hBmd6IaynUJb1ja-MRNDic3bP78QlPG0uqvLcZkqTrzNMjhq4ITCSlf8edR6X1o7aObf2Bl95sdXC8QoUTUdKSNt1XGjW-uos2Ogi3HhaJqDJUzeWSUbctnj9b-gPxtr30ju1VzeV8gyOidN2Mu7aNej6ejA-rYePFy-JIrkDXnwWOG9G3NGgNs1kJqYle1aIkEkZNgKEKvglQcyK1Og34eTBKA6boVhIR96vE_XsoYjGIkMkLfRIdU9h_oe5wUD3Ox7pqgJGGNj7hrfBq_7_5uhvvObddPT1kY0Iz6KXoAj3KYDI47ODniA1BhMd4oxNrg7Ar9LWAOtITzbZbgbdJVEPWWve4xZDqaTV2WCA1R3N-TuUQc6dAG6Tp8UnsYizKZHiM8L3aFnhILwiL6Dab9EHLAfzfj5F_2DJM8Cw-hAkkpfilYrdvuxtRB4RJtvljx4PT3-TusLxuBUcz7H_jp_uTDvFx3u2vA902QczbKQxhTNbyDT23nq-t4F_QF3zaFoPN3j-phCoJPYDlv2m00]--></g></svg>