<?xml version="1.0" encoding="us-ascii" standalone="no"?><svg xmlns="http://www.w3.org/2000/svg" xmlns:xlink="http://www.w3.org/1999/xlink" contentStyleType="text/css" height="948px" preserveAspectRatio="none" style="width:1363px;height:948px;background:#FFFFFF;" version="1.1" viewBox="0 0 1363 948" width="1363px" zoomAndPan="magnify"><defs/><g><!--cluster edu.gatech.gtri.obm.translator.alloy.fromxmi--><g id="cluster_edu.gatech.gtri.obm.translator.alloy.fromxmi"><path d="M8.5,129 L361.5,129 A3.75,3.75 0 0 1 364,131.5 L371,151.2969 L1353.5,151.2969 A2.5,2.5 0 0 1 1356,153.7969 L1356,920.5 A2.5,2.5 0 0 1 1353.5,923 L8.5,923 A2.5,2.5 0 0 1 6,920.5 L6,131.5 A2.5,2.5 0 0 1 8.5,129 " fill="none" style="stroke:#000000;stroke-width:1.5;"/><line style="stroke:#000000;stroke-width:1.5;" x1="6" x2="371" y1="151.2969" y2="151.2969"/><text fill="#000000" font-family="sans-serif" font-size="14" font-weight="bold" lengthAdjust="spacing" textLength="352" x="10" y="143.9951">edu.gatech.gtri.obm.translator.alloy.fromxmi</text></g><!--cluster edu.mit.csail.sdg.ast--><g id="cluster_edu.mit.csail.sdg.ast"><path d="M191.5,6 L354.5,6 A3.75,3.75 0 0 1 357,8.5 L364,28.2969 L364.5,28.2969 A2.5,2.5 0 0 1 367,30.7969 L367,102.5 A2.5,2.5 0 0 1 364.5,105 L191.5,105 A2.5,2.5 0 0 1 189,102.5 L189,8.5 A2.5,2.5 0 0 1 191.5,6 " fill="none" style="stroke:#000000;stroke-width:1.5;"/><line style="stroke:#000000;stroke-width:1.5;" x1="189" x2="364" y1="28.2969" y2="28.2969"/><text fill="#000000" font-family="sans-serif" font-size="14" font-weight="bold" lengthAdjust="spacing" textLength="162" x="193" y="20.9951">edu.mit.csail.sdg.ast</text></g><!--class Translator--><a href="Translator.html" target="_top" title="Translator.html" xlink:actuate="onRequest" xlink:href="Translator.html" xlink:show="new" xlink:title="Translator.html" xlink:type="simple"><g id="elem_Translator"><rect codeLine="5" fill="#F1F1F1" height="96.8906" id="Translator" rx="2.5" ry="2.5" style="stroke:#181818;stroke-width:0.5;" width="434" x="569" y="237.5"/><ellipse cx="747.25" cy="253.5" fill="#ADD1B2" rx="11" ry="11" style="stroke:#181818;stroke-width:1.0;"/><path d="M750.2188,259.1406 Q749.6406,259.4375 749,259.5781 Q748.3594,259.7344 747.6563,259.7344 Q745.1563,259.7344 743.8281,258.0938 Q742.5156,256.4375 742.5156,253.3125 Q742.5156,250.1875 743.8281,248.5313 Q745.1563,246.875 747.6563,246.875 Q748.3594,246.875 749,247.0313 Q749.6563,247.1875 750.2188,247.4844 L750.2188,250.2031 Q749.5938,249.625 749,249.3594 Q748.4063,249.0781 747.7813,249.0781 Q746.4375,249.0781 745.75,250.1563 Q745.0625,251.2188 745.0625,253.3125 Q745.0625,255.4063 745.75,256.4844 Q746.4375,257.5469 747.7813,257.5469 Q748.4063,257.5469 749,257.2813 Q749.5938,257 750.2188,256.4219 L750.2188,259.1406 Z " fill="#000000"/><text fill="#000000" font-family="sans-serif" font-size="14" lengthAdjust="spacing" textLength="69" x="767.75" y="258.3467">Translator</text><line style="stroke:#181818;stroke-width:0.5;" x1="570" x2="1002" y1="269.5" y2="269.5"/><line style="stroke:#181818;stroke-width:0.5;" x1="570" x2="1002" y1="277.5" y2="277.5"/><ellipse cx="580" cy="291.1484" fill="#84BE84" rx="3" ry="3" style="stroke:#038048;stroke-width:1.0;"/><text fill="#000000" font-family="sans-serif" font-size="14" lengthAdjust="spacing" textLength="321" x="589" y="294.4951">Translator(Set&lt;Expr&gt;, Set&lt;Func&gt;, Set&lt;Sig&gt;)</text><ellipse cx="580" cy="307.4453" fill="#84BE84" rx="3" ry="3" style="stroke:#038048;stroke-width:1.0;"/><text fill="#000000" font-family="sans-serif" font-size="14" lengthAdjust="spacing" textLength="408" x="589" y="310.792">Translator(Set&lt;Expr&gt;, Set&lt;Func&gt;, Set&lt;Sig&gt;, Set&lt;Field&gt;)</text><ellipse cx="580" cy="323.7422" fill="#84BE84" rx="3" ry="3" style="stroke:#038048;stroke-width:1.0;"/><text fill="#000000" font-family="sans-serif" font-size="14" lengthAdjust="spacing" textLength="347" x="589" y="327.0889">generateAlsFileContents(AlloyModule, String): void</text></g></a><!--class OBMXMI2Alloy--><a href="OBMXMI2Alloy.html" target="_top" title="OBMXMI2Alloy.html" xlink:actuate="onRequest" xlink:href="OBMXMI2Alloy.html" xlink:show="new" xlink:title="OBMXMI2Alloy.html" xlink:type="simple"><g id="elem_OBMXMI2Alloy"><rect codeLine="11" fill="#F1F1F1" height="96.8906" id="OBMXMI2Alloy" rx="2.5" ry="2.5" style="stroke:#181818;stroke-width:0.5;" width="301" x="1038.5" y="237.5"/><ellipse cx="1136.25" cy="253.5" fill="#ADD1B2" rx="11" ry="11" style="stroke:#181818;stroke-width:1.0;"/><path d="M1139.2188,259.1406 Q1138.6406,259.4375 1138,259.5781 Q1137.3594,259.7344 1136.6563,259.7344 Q1134.1563,259.7344 1132.8281,258.0938 Q1131.5156,256.4375 1131.5156,253.3125 Q1131.5156,250.1875 1132.8281,248.5313 Q1134.1563,246.875 1136.6563,246.875 Q1137.3594,246.875 1138,247.0313 Q1138.6563,247.1875 1139.2188,247.4844 L1139.2188,250.2031 Q1138.5938,249.625 1138,249.3594 Q1137.4063,249.0781 1136.7813,249.0781 Q1135.4375,249.0781 1134.75,250.1563 Q1134.0625,251.2188 1134.0625,253.3125 Q1134.0625,255.4063 1134.75,256.4844 Q1135.4375,257.5469 1136.7813,257.5469 Q1137.4063,257.5469 1138,257.2813 Q1138.5938,257 1139.2188,256.4219 L1139.2188,259.1406 Z " fill="#000000"/><text fill="#000000" font-family="sans-serif" font-size="14" lengthAdjust="spacing" textLength="97" x="1156.75" y="258.3467">OBMXMI2Alloy</text><line style="stroke:#181818;stroke-width:0.5;" x1="1039.5" x2="1338.5" y1="269.5" y2="269.5"/><ellipse cx="1049.5" cy="283.1484" fill="none" rx="3" ry="3" style="stroke:#038048;stroke-width:1.0;"/><text fill="#000000" font-family="sans-serif" font-size="14" lengthAdjust="spacing" text-decoration="underline" textLength="235" x="1058.5" y="286.4951">STEREOTYPE_PAREMETER: String</text><line style="stroke:#181818;stroke-width:0.5;" x1="1039.5" x2="1338.5" y1="293.7969" y2="293.7969"/><ellipse cx="1049.5" cy="307.4453" fill="#84BE84" rx="3" ry="3" style="stroke:#038048;stroke-width:1.0;"/><text fill="#000000" font-family="sans-serif" font-size="14" lengthAdjust="spacing" textLength="147" x="1058.5" y="310.792">OBMXMI2Alloy(String)</text><ellipse cx="1049.5" cy="323.7422" fill="#84BE84" rx="3" ry="3" style="stroke:#038048;stroke-width:1.0;"/><text fill="#000000" font-family="sans-serif" font-size="14" lengthAdjust="spacing" textLength="275" x="1058.5" y="327.0889">createAlloyFile(File, String, File): boolean</text></g></a><!--class ToAlloy--><a href="ToAlloy.html" target="_top" title="ToAlloy.html" xlink:actuate="onRequest" xlink:href="ToAlloy.html" xlink:show="new" xlink:title="ToAlloy.html" xlink:type="simple"><g id="elem_ToAlloy"><rect codeLine="17" fill="#F1F1F1" height="439.125" id="ToAlloy" rx="2.5" ry="2.5" style="stroke:#181818;stroke-width:0.5;" width="630" x="471" y="468"/><ellipse cx="757.25" cy="484" fill="#ADD1B2" rx="11" ry="11" style="stroke:#181818;stroke-width:1.0;"/><path d="M760.2188,489.6406 Q759.6406,489.9375 759,490.0781 Q758.3594,490.2344 757.6563,490.2344 Q755.1563,490.2344 753.8281,488.5938 Q752.5156,486.9375 752.5156,483.8125 Q752.5156,480.6875 753.8281,479.0313 Q755.1563,477.375 757.6563,477.375 Q758.3594,477.375 759,477.5313 Q759.6563,477.6875 760.2188,477.9844 L760.2188,480.7031 Q759.5938,480.125 759,479.8594 Q758.4063,479.5781 757.7813,479.5781 Q756.4375,479.5781 755.75,480.6563 Q755.0625,481.7188 755.0625,483.8125 Q755.0625,485.9063 755.75,486.9844 Q756.4375,488.0469 757.7813,488.0469 Q758.4063,488.0469 759,487.7813 Q759.5938,487.5 760.2188,486.9219 L760.2188,489.6406 Z " fill="#000000"/><text fill="#000000" font-family="sans-serif" font-size="14" lengthAdjust="spacing" textLength="49" x="777.75" y="488.8467">ToAlloy</text><line style="stroke:#181818;stroke-width:0.5;" x1="472" x2="1100" y1="500" y2="500"/><line style="stroke:#181818;stroke-width:0.5;" x1="472" x2="1100" y1="508" y2="508"/><ellipse cx="482" cy="521.6484" fill="#84BE84" rx="3" ry="3" style="stroke:#038048;stroke-width:1.0;"/><text fill="#000000" font-family="sans-serif" font-size="14" lengthAdjust="spacing" textLength="99" x="491" y="524.9951">ToAlloy(String)</text><ellipse cx="482" cy="537.9453" fill="#84BE84" rx="3" ry="3" style="stroke:#038048;stroke-width:1.0;"/><text fill="#000000" font-family="sans-serif" font-size="14" lengthAdjust="spacing" textLength="154" x="491" y="541.292">getSig(String): PrimSig</text><ellipse cx="482" cy="554.2422" fill="#84BE84" rx="3" ry="3" style="stroke:#038048;stroke-width:1.0;"/><text fill="#000000" font-family="sans-serif" font-size="14" lengthAdjust="spacing" textLength="329" x="491" y="557.5889">createAlloySig(String, PrimSig, boolean): PrimSig</text><ellipse cx="482" cy="570.5391" fill="#84BE84" rx="3" ry="3" style="stroke:#038048;stroke-width:1.0;"/><text fill="#000000" font-family="sans-serif" font-size="14" lengthAdjust="spacing" textLength="254" x="491" y="573.8857">createAlloySig(String, String): PrimSig</text><ellipse cx="482" cy="586.8359" fill="#84BE84" rx="3" ry="3" style="stroke:#038048;stroke-width:1.0;"/><text fill="#000000" font-family="sans-serif" font-size="14" lengthAdjust="spacing" textLength="266" x="491" y="590.1826">addAlloyTransferField(String, Sig): Field</text><ellipse cx="482" cy="603.1328" fill="#84BE84" rx="3" ry="3" style="stroke:#038048;stroke-width:1.0;"/><text fill="#000000" font-family="sans-serif" font-size="14" lengthAdjust="spacing" textLength="377" x="491" y="606.4795">addDisjAlloyFields(List&lt;String&gt;, String, PrimSig): Field[]</text><ellipse cx="482" cy="619.4297" fill="#84BE84" rx="3" ry="3" style="stroke:#038048;stroke-width:1.0;"/><text fill="#000000" font-family="sans-serif" font-size="14" lengthAdjust="spacing" textLength="553" x="491" y="622.7764">createBijectionFilteredHappensBeforeAndAddToOverallFact(Sig, Expr, Expr): void</text><ellipse cx="482" cy="635.7266" fill="#84BE84" rx="3" ry="3" style="stroke:#038048;stroke-width:1.0;"/><text fill="#000000" font-family="sans-serif" font-size="14" lengthAdjust="spacing" textLength="553" x="491" y="639.0732">createBijectionFilteredHappensDuringAndAddToOverallFact(Sig, Expr, Expr): void</text><ellipse cx="482" cy="652.0234" fill="#84BE84" rx="3" ry="3" style="stroke:#038048;stroke-width:1.0;"/><text fill="#000000" font-family="sans-serif" font-size="14" lengthAdjust="spacing" textLength="554" x="491" y="655.3701">createFunctionFilteredHappensBeforeAndAddToOverallFact(Sig, Expr, Expr): void</text><ellipse cx="482" cy="668.3203" fill="#84BE84" rx="3" ry="3" style="stroke:#038048;stroke-width:1.0;"/><text fill="#000000" font-family="sans-serif" font-size="14" lengthAdjust="spacing" textLength="604" x="491" y="671.667">createInverseFunctionFilteredHappensBeforeAndAddToOverallFact(Sig, Expr, Expr): void</text><ellipse cx="482" cy="684.6172" fill="#84BE84" rx="3" ry="3" style="stroke:#038048;stroke-width:1.0;"/><text fill="#000000" font-family="sans-serif" font-size="14" lengthAdjust="spacing" textLength="418" x="491" y="687.9639">addCardinalityEqualConstraintToField(Field, PrimSig, int): void</text><ellipse cx="482" cy="700.9141" fill="#84BE84" rx="3" ry="3" style="stroke:#038048;stroke-width:1.0;"/><text fill="#000000" font-family="sans-serif" font-size="14" lengthAdjust="spacing" textLength="426" x="491" y="704.2607">addCardinalityEqualConstraintToField(String, PrimSig, int): void</text><ellipse cx="482" cy="717.2109" fill="#84BE84" rx="3" ry="3" style="stroke:#038048;stroke-width:1.0;"/><text fill="#000000" font-family="sans-serif" font-size="14" lengthAdjust="spacing" textLength="505" x="491" y="720.5576">addCardinalityGreaterThanEqualConstraintToField(Field, PrimSig, int): void</text><ellipse cx="482" cy="733.5078" fill="#84BE84" rx="3" ry="3" style="stroke:#038048;stroke-width:1.0;"/><text fill="#000000" font-family="sans-serif" font-size="14" lengthAdjust="spacing" textLength="513" x="491" y="736.8545">addCardinalityGreaterThanEqualConstraintToField(String, PrimSig, int): void</text><ellipse cx="482" cy="749.8047" fill="#84BE84" rx="3" ry="3" style="stroke:#038048;stroke-width:1.0;"/><text fill="#000000" font-family="sans-serif" font-size="14" lengthAdjust="spacing" textLength="519" x="491" y="753.1514">createFnForTransferAndAddToOverallFact(PrimSig, Expr, String, String): void</text><ellipse cx="482" cy="766.1016" fill="#84BE84" rx="3" ry="3" style="stroke:#038048;stroke-width:1.0;"/><text fill="#000000" font-family="sans-serif" font-size="14" lengthAdjust="spacing" textLength="565" x="491" y="769.4482">createFnForTransferBeforeAndAddToOverallFact(PrimSig, Expr, String, String): void</text><ellipse cx="482" cy="782.3984" fill="#84BE84" rx="3" ry="3" style="stroke:#038048;stroke-width:1.0;"/><text fill="#000000" font-family="sans-serif" font-size="14" lengthAdjust="spacing" textLength="185" x="491" y="785.7451">noInputsOutputs(Sig): void</text><ellipse cx="482" cy="798.6953" fill="#84BE84" rx="3" ry="3" style="stroke:#038048;stroke-width:1.0;"/><text fill="#000000" font-family="sans-serif" font-size="14" lengthAdjust="spacing" textLength="148" x="491" y="802.042">noInputs(String): void</text><ellipse cx="482" cy="814.9922" fill="#84BE84" rx="3" ry="3" style="stroke:#038048;stroke-width:1.0;"/><text fill="#000000" font-family="sans-serif" font-size="14" lengthAdjust="spacing" textLength="161" x="491" y="818.3389">noOutputs(String): void</text><ellipse cx="482" cy="831.2891" fill="#84BE84" rx="3" ry="3" style="stroke:#038048;stroke-width:1.0;"/><text fill="#000000" font-family="sans-serif" font-size="14" lengthAdjust="spacing" textLength="204" x="491" y="834.6357">addInputs(String, String): void</text><ellipse cx="482" cy="847.5859" fill="#84BE84" rx="3" ry="3" style="stroke:#038048;stroke-width:1.0;"/><text fill="#000000" font-family="sans-serif" font-size="14" lengthAdjust="spacing" textLength="217" x="491" y="850.9326">addOutputs(String, String): void</text><ellipse cx="482" cy="863.8828" fill="#84BE84" rx="3" ry="3" style="stroke:#038048;stroke-width:1.0;"/><text fill="#000000" font-family="sans-serif" font-size="14" lengthAdjust="spacing" textLength="301" x="491" y="867.2295">addSteps(Map&lt;String, Set&lt;String&gt;&gt;): void</text><ellipse cx="482" cy="880.1797" fill="#84BE84" rx="3" ry="3" style="stroke:#038048;stroke-width:1.0;"/><text fill="#000000" font-family="sans-serif" font-size="14" lengthAdjust="spacing" textLength="258" x="491" y="883.5264">addEqual(PrimSig, String, String): void</text><ellipse cx="482" cy="896.4766" fill="#84BE84" rx="3" ry="3" style="stroke:#038048;stroke-width:1.0;"/><text fill="#000000" font-family="sans-serif" font-size="14" lengthAdjust="spacing" textLength="267" x="491" y="899.8232">createAlloyFile(File, Set&lt;Field&gt;): String</text></g></a><!--class ExprVisitor--><a href="ExprVisitor.html" target="_top" title="ExprVisitor.html" xlink:actuate="onRequest" xlink:href="ExprVisitor.html" xlink:show="new" xlink:title="ExprVisitor.html" xlink:type="simple"><g id="elem_ExprVisitor"><rect codeLine="44" fill="#F1F1F1" height="243.5625" id="ExprVisitor" rx="2.5" ry="2.5" style="stroke:#181818;stroke-width:0.5;" width="512" x="22" y="164"/><ellipse cx="237.75" cy="180" fill="#ADD1B2" rx="11" ry="11" style="stroke:#181818;stroke-width:1.0;"/><path d="M240.7188,185.6406 Q240.1406,185.9375 239.5,186.0781 Q238.8594,186.2344 238.1563,186.2344 Q235.6563,186.2344 234.3281,184.5938 Q233.0156,182.9375 233.0156,179.8125 Q233.0156,176.6875 234.3281,175.0313 Q235.6563,173.375 238.1563,173.375 Q238.8594,173.375 239.5,173.5313 Q240.1563,173.6875 240.7188,173.9844 L240.7188,176.7031 Q240.0938,176.125 239.5,175.8594 Q238.9063,175.5781 238.2813,175.5781 Q236.9375,175.5781 236.25,176.6563 Q235.5625,177.7188 235.5625,179.8125 Q235.5625,181.9063 236.25,182.9844 Q236.9375,184.0469 238.2813,184.0469 Q238.9063,184.0469 239.5,183.7813 Q240.0938,183.5 240.7188,182.9219 L240.7188,185.6406 Z " fill="#000000"/><text fill="#000000" font-family="sans-serif" font-size="14" lengthAdjust="spacing" textLength="72" x="258.25" y="184.8467">ExprVisitor</text><line style="stroke:#181818;stroke-width:0.5;" x1="23" x2="533" y1="196" y2="196"/><ellipse cx="33" cy="209.6484" fill="none" rx="3" ry="3" style="stroke:#038048;stroke-width:1.0;"/><text fill="#000000" font-family="sans-serif" font-size="14" lengthAdjust="spacing" textLength="130" x="42" y="212.9951">isRootSig: boolean</text><line style="stroke:#181818;stroke-width:0.5;" x1="23" x2="533" y1="220.2969" y2="220.2969"/><ellipse cx="33" cy="233.9453" fill="#84BE84" rx="3" ry="3" style="stroke:#038048;stroke-width:1.0;"/><text fill="#000000" font-family="sans-serif" font-size="14" lengthAdjust="spacing" textLength="246" x="42" y="237.292">ExprVisitor(Set&lt;Expr&gt;, Set&lt;Field&gt;)</text><ellipse cx="33" cy="250.2422" fill="#84BE84" rx="3" ry="3" style="stroke:#038048;stroke-width:1.0;"/><text fill="#000000" font-family="sans-serif" font-size="14" lengthAdjust="spacing" textLength="157" x="42" y="253.5889">visit(ExprBinary): String</text><ellipse cx="33" cy="266.5391" fill="#84BE84" rx="3" ry="3" style="stroke:#038048;stroke-width:1.0;"/><text fill="#000000" font-family="sans-serif" font-size="14" lengthAdjust="spacing" textLength="139" x="42" y="269.8857">visit(ExprCall): String</text><ellipse cx="33" cy="282.8359" fill="#84BE84" rx="3" ry="3" style="stroke:#038048;stroke-width:1.0;"/><text fill="#000000" font-family="sans-serif" font-size="14" lengthAdjust="spacing" textLength="178" x="42" y="286.1826">visit(ExprConstant): String</text><ellipse cx="33" cy="299.1328" fill="#84BE84" rx="3" ry="3" style="stroke:#038048;stroke-width:1.0;"/><text fill="#000000" font-family="sans-serif" font-size="14" lengthAdjust="spacing" textLength="138" x="42" y="302.4795">visit(ExprList): String</text><ellipse cx="33" cy="315.4297" fill="#84BE84" rx="3" ry="3" style="stroke:#038048;stroke-width:1.0;"/><text fill="#000000" font-family="sans-serif" font-size="14" lengthAdjust="spacing" textLength="131" x="42" y="318.7764">visit(ExprQt): String</text><ellipse cx="33" cy="331.7266" fill="#84BE84" rx="3" ry="3" style="stroke:#038048;stroke-width:1.0;"/><text fill="#000000" font-family="sans-serif" font-size="14" lengthAdjust="spacing" textLength="154" x="42" y="335.0732">visit(ExprUnary): String</text><ellipse cx="33" cy="348.0234" fill="#84BE84" rx="3" ry="3" style="stroke:#038048;stroke-width:1.0;"/><text fill="#000000" font-family="sans-serif" font-size="14" lengthAdjust="spacing" textLength="137" x="42" y="351.3701">visit(ExprVar): String</text><ellipse cx="33" cy="364.3203" fill="#84BE84" rx="3" ry="3" style="stroke:#038048;stroke-width:1.0;"/><text fill="#000000" font-family="sans-serif" font-size="14" lengthAdjust="spacing" textLength="106" x="42" y="367.667">visit(Sig): String</text><ellipse cx="33" cy="380.6172" fill="#84BE84" rx="3" ry="3" style="stroke:#038048;stroke-width:1.0;"/><text fill="#000000" font-family="sans-serif" font-size="14" lengthAdjust="spacing" textLength="486" x="42" y="383.9639">sortFields(Field, Map&lt;String, List&lt;Field&gt;&gt;): Map&lt;String, List&lt;Field&gt;&gt;</text><ellipse cx="33" cy="396.9141" fill="#84BE84" rx="3" ry="3" style="stroke:#038048;stroke-width:1.0;"/><text fill="#000000" font-family="sans-serif" font-size="14" lengthAdjust="spacing" textLength="117" x="42" y="400.2607">visit(Field): String</text></g></a><!--class VisitQuery--><g id="elem_VisitQuery"><rect codeLine="62" fill="#F1F1F1" height="48" id="VisitQuery" rx="2.5" ry="2.5" style="stroke:#181818;stroke-width:0.5;" width="113" x="221.5" y="41"/><ellipse cx="236.5" cy="57" fill="#A9DCDF" rx="11" ry="11" style="stroke:#181818;stroke-width:1.0;"/><path d="M236.6094,52.3438 L235.4531,57.4219 L237.7813,57.4219 L236.6094,52.3438 Z M235.125,50.1094 L238.1094,50.1094 L241.4688,62.5 L239.0156,62.5 L238.25,59.4375 L234.9688,59.4375 L234.2188,62.5 L231.7813,62.5 L235.125,50.1094 Z " fill="#000000"/><text fill="#000000" font-family="sans-serif" font-size="14" font-style="italic" lengthAdjust="spacing" textLength="70" x="250.5" y="61.8467">VisitQuery</text><rect fill="#FFFFFF" height="15.9688" style="stroke:#181818;stroke-width:1.0;stroke-dasharray:2.0,2.0;" width="9" x="328.5" y="38"/><text fill="#000000" font-family="sans-serif" font-size="12" font-style="italic" lengthAdjust="spacing" textLength="7" x="329.5" y="50.1387">T</text><line style="stroke:#181818;stroke-width:0.5;" x1="222.5" x2="333.5" y1="73" y2="73"/><line style="stroke:#181818;stroke-width:0.5;" x1="222.5" x2="333.5" y1="81" y2="81"/></g><!--reverse link VisitQuery to ExprVisitor--><g id="link_VisitQuery_ExprVisitor"><path codeLine="65" d="M278,107.02 C278,125.58 278,135.24 278,163.97 " fill="none" id="VisitQuery-backto-ExprVisitor" style="stroke:#181818;stroke-width:1.0;"/><polygon fill="none" points="278,89.02,272,107.02,284,107.02,278,89.02" style="stroke:#181818;stroke-width:1.0;"/></g><text fill="#888888" font-family="sans-serif" font-size="10" lengthAdjust="spacing" textLength="186" x="581.5" y="938.2822">UMLDoclet 2.1.1, PlantUML 1.2023.12</text><!--SRC=[jLPjJzim4FxEh_2NIQaeaU1ZL5Lg8TsGg0eqe4rLDPd43MQkdTaEecBzxpixQPAIf2riL6eIsy-Tx-Kvdn52I14D_mHBh8L4ddTq19CemU4l71D4ejIDiIRXenjhILtni7Irn5mn0tSnOsBbBgHOlYmfUirapIzaM2aK54WqcvK3zr4lsNmEU5Jv7PS0Pqfqptz9PB-BpESevM7-EQLnl_D1kNoI4XQzrH4JJY02PC3KY39oBhWcN2jdO1mSYoXb1AGX0ZpkUEXPqAYGNx_rUZ8SVnzVdbbHyBiwRFRyLMciQRX6nzF0l_KdmOzh_-VruDOV-p3sydst3QvgTNB3jX6X9DOX01YN7FFO-D15PWIUF0Z12ERjpWHYuqV-rPOyiSEKc6Y8lrF4xrhI9Koqsbk2knjiTsFgEyLtxucZo4fO2Ys8jDmePQaHj7CriGkgdlBOmh9ohgW2abd1VXdbVDEDbjcyoUOXVIAXfe93JZIH9Fg6auHmDIGB8Sc0HuCe2iJa6GZAs0Y7sh7nC3pFdcyPUO3kYzGO-6-wJNLzajcN7CJKv-m0oJl7Cg8SCwfN_kyKCoXt1QSQvJeG6GNiiq8-MFguiXgL3zFsrOP21e-O_rShz-izsE2S27mavAQ4cj9IwCbIKwlDWnItP_tzwhcuv4cgrIJLvkLaDTgEStRgAhIqWo03MvfsMWVWRPNxq5DD4kMCST8hyAGuZVfjKZRvPV0EpagjfPHDjTQhQlt4fEYUAfhT2IgZbhv2rQqGfdlKUvLThsYeTV-cHlzii8v13Q4SvAhJt5vBs3cmR3_8b12sHR8RQDh4Nj3DViZTGRRVOxaJaz6-QLq9gVFEbXyoLNRPPfU5r-IyRQbfIxlKofDr_VQvfDeD5QRCLL7iOgKh3C4Fvk0ATSujouERbCXLB-XNzJNgyRmIZtf_JaxUTTdrl0hpx2OXN1Y9H0kWAxpknbSN8cHmkJvpJzrJE4iPy0DcqHVJsg2fEPs_]--></g></svg>