<?xml version="1.0" encoding="us-ascii" standalone="no"?><svg xmlns="http://www.w3.org/2000/svg" xmlns:xlink="http://www.w3.org/1999/xlink" contentStyleType="text/css" height="801px" preserveAspectRatio="none" style="width:1559px;height:801px;background:#FFFFFF;" version="1.1" viewBox="0 0 1559 801" width="1559px" zoomAndPan="magnify"><defs/><g><!--cluster edu.gatech.gtri.obm.translator.alloy.fromxmi--><g id="cluster_edu.gatech.gtri.obm.translator.alloy.fromxmi"><path d="M8.5,129 L361.5,129 A3.75,3.75 0 0 1 364,131.5 L371,151.2969 L1549.5,151.2969 A2.5,2.5 0 0 1 1552,153.7969 L1552,773.5 A2.5,2.5 0 0 1 1549.5,776 L8.5,776 A2.5,2.5 0 0 1 6,773.5 L6,131.5 A2.5,2.5 0 0 1 8.5,129 " fill="none" style="stroke:#000000;stroke-width:1.5;"/><line style="stroke:#000000;stroke-width:1.5;" x1="6" x2="371" y1="151.2969" y2="151.2969"/><text fill="#000000" font-family="sans-serif" font-size="14" font-weight="bold" lengthAdjust="spacing" textLength="352" x="10" y="143.9951">edu.gatech.gtri.obm.translator.alloy.fromxmi</text></g><!--cluster edu.mit.csail.sdg.ast--><g id="cluster_edu.mit.csail.sdg.ast"><path d="M191.5,6 L354.5,6 A3.75,3.75 0 0 1 357,8.5 L364,28.2969 L364.5,28.2969 A2.5,2.5 0 0 1 367,30.7969 L367,102.5 A2.5,2.5 0 0 1 364.5,105 L191.5,105 A2.5,2.5 0 0 1 189,102.5 L189,8.5 A2.5,2.5 0 0 1 191.5,6 " fill="none" style="stroke:#000000;stroke-width:1.5;"/><line style="stroke:#000000;stroke-width:1.5;" x1="189" x2="364" y1="28.2969" y2="28.2969"/><text fill="#000000" font-family="sans-serif" font-size="14" font-weight="bold" lengthAdjust="spacing" textLength="162" x="193" y="20.9951">edu.mit.csail.sdg.ast</text></g><!--class OBMXMI2Alloy--><a href="OBMXMI2Alloy.html" target="_top" title="OBMXMI2Alloy.html" xlink:actuate="onRequest" xlink:href="OBMXMI2Alloy.html" xlink:show="new" xlink:title="OBMXMI2Alloy.html" xlink:type="simple"><g id="elem_OBMXMI2Alloy"><rect codeLine="5" fill="#F1F1F1" height="96.8906" id="OBMXMI2Alloy" rx="2.5" ry="2.5" style="stroke:#181818;stroke-width:0.5;" width="301" x="569.5" y="335"/><ellipse cx="667.25" cy="351" fill="#ADD1B2" rx="11" ry="11" style="stroke:#181818;stroke-width:1.0;"/><path d="M670.2188,356.6406 Q669.6406,356.9375 669,357.0781 Q668.3594,357.2344 667.6563,357.2344 Q665.1563,357.2344 663.8281,355.5938 Q662.5156,353.9375 662.5156,350.8125 Q662.5156,347.6875 663.8281,346.0313 Q665.1563,344.375 667.6563,344.375 Q668.3594,344.375 669,344.5313 Q669.6563,344.6875 670.2188,344.9844 L670.2188,347.7031 Q669.5938,347.125 669,346.8594 Q668.4063,346.5781 667.7813,346.5781 Q666.4375,346.5781 665.75,347.6563 Q665.0625,348.7188 665.0625,350.8125 Q665.0625,352.9063 665.75,353.9844 Q666.4375,355.0469 667.7813,355.0469 Q668.4063,355.0469 669,354.7813 Q669.5938,354.5 670.2188,353.9219 L670.2188,356.6406 Z " fill="#000000"/><text fill="#000000" font-family="sans-serif" font-size="14" lengthAdjust="spacing" textLength="97" x="687.75" y="355.8467">OBMXMI2Alloy</text><line style="stroke:#181818;stroke-width:0.5;" x1="570.5" x2="869.5" y1="367" y2="367"/><ellipse cx="580.5" cy="380.6484" fill="none" rx="3" ry="3" style="stroke:#038048;stroke-width:1.0;"/><text fill="#000000" font-family="sans-serif" font-size="14" lengthAdjust="spacing" text-decoration="underline" textLength="235" x="589.5" y="383.9951">STEREOTYPE_PAREMETER: String</text><line style="stroke:#181818;stroke-width:0.5;" x1="570.5" x2="869.5" y1="391.2969" y2="391.2969"/><ellipse cx="580.5" cy="404.9453" fill="#84BE84" rx="3" ry="3" style="stroke:#038048;stroke-width:1.0;"/><text fill="#000000" font-family="sans-serif" font-size="14" lengthAdjust="spacing" textLength="147" x="589.5" y="408.292">OBMXMI2Alloy(String)</text><ellipse cx="580.5" cy="421.2422" fill="#84BE84" rx="3" ry="3" style="stroke:#038048;stroke-width:1.0;"/><text fill="#000000" font-family="sans-serif" font-size="14" lengthAdjust="spacing" textLength="275" x="589.5" y="424.5889">createAlloyFile(File, String, File): boolean</text></g></a><!--class ToAlloy--><a href="ToAlloy.html" target="_top" title="ToAlloy.html" xlink:actuate="onRequest" xlink:href="ToAlloy.html" xlink:show="new" xlink:title="ToAlloy.html" xlink:type="simple"><g id="elem_ToAlloy"><rect codeLine="11" fill="#F1F1F1" height="439.125" id="ToAlloy" rx="2.5" ry="2.5" style="stroke:#181818;stroke-width:0.5;" width="630" x="906" y="164"/><ellipse cx="1192.25" cy="180" fill="#ADD1B2" rx="11" ry="11" style="stroke:#181818;stroke-width:1.0;"/><path d="M1195.2188,185.6406 Q1194.6406,185.9375 1194,186.0781 Q1193.3594,186.2344 1192.6563,186.2344 Q1190.1563,186.2344 1188.8281,184.5938 Q1187.5156,182.9375 1187.5156,179.8125 Q1187.5156,176.6875 1188.8281,175.0313 Q1190.1563,173.375 1192.6563,173.375 Q1193.3594,173.375 1194,173.5313 Q1194.6563,173.6875 1195.2188,173.9844 L1195.2188,176.7031 Q1194.5938,176.125 1194,175.8594 Q1193.4063,175.5781 1192.7813,175.5781 Q1191.4375,175.5781 1190.75,176.6563 Q1190.0625,177.7188 1190.0625,179.8125 Q1190.0625,181.9063 1190.75,182.9844 Q1191.4375,184.0469 1192.7813,184.0469 Q1193.4063,184.0469 1194,183.7813 Q1194.5938,183.5 1195.2188,182.9219 L1195.2188,185.6406 Z " fill="#000000"/><text fill="#000000" font-family="sans-serif" font-size="14" lengthAdjust="spacing" textLength="49" x="1212.75" y="184.8467">ToAlloy</text><line style="stroke:#181818;stroke-width:0.5;" x1="907" x2="1535" y1="196" y2="196"/><line style="stroke:#181818;stroke-width:0.5;" x1="907" x2="1535" y1="204" y2="204"/><ellipse cx="917" cy="217.6484" fill="#84BE84" rx="3" ry="3" style="stroke:#038048;stroke-width:1.0;"/><text fill="#000000" font-family="sans-serif" font-size="14" lengthAdjust="spacing" textLength="99" x="926" y="220.9951">ToAlloy(String)</text><ellipse cx="917" cy="233.9453" fill="#84BE84" rx="3" ry="3" style="stroke:#038048;stroke-width:1.0;"/><text fill="#000000" font-family="sans-serif" font-size="14" lengthAdjust="spacing" textLength="154" x="926" y="237.292">getSig(String): PrimSig</text><ellipse cx="917" cy="250.2422" fill="#84BE84" rx="3" ry="3" style="stroke:#038048;stroke-width:1.0;"/><text fill="#000000" font-family="sans-serif" font-size="14" lengthAdjust="spacing" textLength="329" x="926" y="253.5889">createAlloySig(String, PrimSig, boolean): PrimSig</text><ellipse cx="917" cy="266.5391" fill="#84BE84" rx="3" ry="3" style="stroke:#038048;stroke-width:1.0;"/><text fill="#000000" font-family="sans-serif" font-size="14" lengthAdjust="spacing" textLength="254" x="926" y="269.8857">createAlloySig(String, String): PrimSig</text><ellipse cx="917" cy="282.8359" fill="#84BE84" rx="3" ry="3" style="stroke:#038048;stroke-width:1.0;"/><text fill="#000000" font-family="sans-serif" font-size="14" lengthAdjust="spacing" textLength="266" x="926" y="286.1826">addAlloyTransferField(String, Sig): Field</text><ellipse cx="917" cy="299.1328" fill="#84BE84" rx="3" ry="3" style="stroke:#038048;stroke-width:1.0;"/><text fill="#000000" font-family="sans-serif" font-size="14" lengthAdjust="spacing" textLength="377" x="926" y="302.4795">addDisjAlloyFields(List&lt;String&gt;, String, PrimSig): Field[]</text><ellipse cx="917" cy="315.4297" fill="#84BE84" rx="3" ry="3" style="stroke:#038048;stroke-width:1.0;"/><text fill="#000000" font-family="sans-serif" font-size="14" lengthAdjust="spacing" textLength="553" x="926" y="318.7764">createBijectionFilteredHappensBeforeAndAddToOverallFact(Sig, Expr, Expr): void</text><ellipse cx="917" cy="331.7266" fill="#84BE84" rx="3" ry="3" style="stroke:#038048;stroke-width:1.0;"/><text fill="#000000" font-family="sans-serif" font-size="14" lengthAdjust="spacing" textLength="553" x="926" y="335.0732">createBijectionFilteredHappensDuringAndAddToOverallFact(Sig, Expr, Expr): void</text><ellipse cx="917" cy="348.0234" fill="#84BE84" rx="3" ry="3" style="stroke:#038048;stroke-width:1.0;"/><text fill="#000000" font-family="sans-serif" font-size="14" lengthAdjust="spacing" textLength="554" x="926" y="351.3701">createFunctionFilteredHappensBeforeAndAddToOverallFact(Sig, Expr, Expr): void</text><ellipse cx="917" cy="364.3203" fill="#84BE84" rx="3" ry="3" style="stroke:#038048;stroke-width:1.0;"/><text fill="#000000" font-family="sans-serif" font-size="14" lengthAdjust="spacing" textLength="604" x="926" y="367.667">createInverseFunctionFilteredHappensBeforeAndAddToOverallFact(Sig, Expr, Expr): void</text><ellipse cx="917" cy="380.6172" fill="#84BE84" rx="3" ry="3" style="stroke:#038048;stroke-width:1.0;"/><text fill="#000000" font-family="sans-serif" font-size="14" lengthAdjust="spacing" textLength="418" x="926" y="383.9639">addCardinalityEqualConstraintToField(Field, PrimSig, int): void</text><ellipse cx="917" cy="396.9141" fill="#84BE84" rx="3" ry="3" style="stroke:#038048;stroke-width:1.0;"/><text fill="#000000" font-family="sans-serif" font-size="14" lengthAdjust="spacing" textLength="426" x="926" y="400.2607">addCardinalityEqualConstraintToField(String, PrimSig, int): void</text><ellipse cx="917" cy="413.2109" fill="#84BE84" rx="3" ry="3" style="stroke:#038048;stroke-width:1.0;"/><text fill="#000000" font-family="sans-serif" font-size="14" lengthAdjust="spacing" textLength="505" x="926" y="416.5576">addCardinalityGreaterThanEqualConstraintToField(Field, PrimSig, int): void</text><ellipse cx="917" cy="429.5078" fill="#84BE84" rx="3" ry="3" style="stroke:#038048;stroke-width:1.0;"/><text fill="#000000" font-family="sans-serif" font-size="14" lengthAdjust="spacing" textLength="513" x="926" y="432.8545">addCardinalityGreaterThanEqualConstraintToField(String, PrimSig, int): void</text><ellipse cx="917" cy="445.8047" fill="#84BE84" rx="3" ry="3" style="stroke:#038048;stroke-width:1.0;"/><text fill="#000000" font-family="sans-serif" font-size="14" lengthAdjust="spacing" textLength="519" x="926" y="449.1514">createFnForTransferAndAddToOverallFact(PrimSig, Expr, String, String): void</text><ellipse cx="917" cy="462.1016" fill="#84BE84" rx="3" ry="3" style="stroke:#038048;stroke-width:1.0;"/><text fill="#000000" font-family="sans-serif" font-size="14" lengthAdjust="spacing" textLength="565" x="926" y="465.4482">createFnForTransferBeforeAndAddToOverallFact(PrimSig, Expr, String, String): void</text><ellipse cx="917" cy="478.3984" fill="#84BE84" rx="3" ry="3" style="stroke:#038048;stroke-width:1.0;"/><text fill="#000000" font-family="sans-serif" font-size="14" lengthAdjust="spacing" textLength="185" x="926" y="481.7451">noInputsOutputs(Sig): void</text><ellipse cx="917" cy="494.6953" fill="#84BE84" rx="3" ry="3" style="stroke:#038048;stroke-width:1.0;"/><text fill="#000000" font-family="sans-serif" font-size="14" lengthAdjust="spacing" textLength="148" x="926" y="498.042">noInputs(String): void</text><ellipse cx="917" cy="510.9922" fill="#84BE84" rx="3" ry="3" style="stroke:#038048;stroke-width:1.0;"/><text fill="#000000" font-family="sans-serif" font-size="14" lengthAdjust="spacing" textLength="161" x="926" y="514.3389">noOutputs(String): void</text><ellipse cx="917" cy="527.2891" fill="#84BE84" rx="3" ry="3" style="stroke:#038048;stroke-width:1.0;"/><text fill="#000000" font-family="sans-serif" font-size="14" lengthAdjust="spacing" textLength="204" x="926" y="530.6357">addInputs(String, String): void</text><ellipse cx="917" cy="543.5859" fill="#84BE84" rx="3" ry="3" style="stroke:#038048;stroke-width:1.0;"/><text fill="#000000" font-family="sans-serif" font-size="14" lengthAdjust="spacing" textLength="217" x="926" y="546.9326">addOutputs(String, String): void</text><ellipse cx="917" cy="559.8828" fill="#84BE84" rx="3" ry="3" style="stroke:#038048;stroke-width:1.0;"/><text fill="#000000" font-family="sans-serif" font-size="14" lengthAdjust="spacing" textLength="301" x="926" y="563.2295">addSteps(Map&lt;String, Set&lt;String&gt;&gt;): void</text><ellipse cx="917" cy="576.1797" fill="#84BE84" rx="3" ry="3" style="stroke:#038048;stroke-width:1.0;"/><text fill="#000000" font-family="sans-serif" font-size="14" lengthAdjust="spacing" textLength="258" x="926" y="579.5264">addEqual(PrimSig, String, String): void</text><ellipse cx="917" cy="592.4766" fill="#84BE84" rx="3" ry="3" style="stroke:#038048;stroke-width:1.0;"/><text fill="#000000" font-family="sans-serif" font-size="14" lengthAdjust="spacing" textLength="267" x="926" y="595.8232">createAlloyFile(File, Set&lt;Field&gt;): String</text></g></a><!--class ExprVisitor--><a href="ExprVisitor.html" target="_top" title="ExprVisitor.html" xlink:actuate="onRequest" xlink:href="ExprVisitor.html" xlink:show="new" xlink:title="ExprVisitor.html" xlink:type="simple"><g id="elem_ExprVisitor"><rect codeLine="38" fill="#F1F1F1" height="243.5625" id="ExprVisitor" rx="2.5" ry="2.5" style="stroke:#181818;stroke-width:0.5;" width="512" x="22" y="261.5"/><ellipse cx="237.75" cy="277.5" fill="#ADD1B2" rx="11" ry="11" style="stroke:#181818;stroke-width:1.0;"/><path d="M240.7188,283.1406 Q240.1406,283.4375 239.5,283.5781 Q238.8594,283.7344 238.1563,283.7344 Q235.6563,283.7344 234.3281,282.0938 Q233.0156,280.4375 233.0156,277.3125 Q233.0156,274.1875 234.3281,272.5313 Q235.6563,270.875 238.1563,270.875 Q238.8594,270.875 239.5,271.0313 Q240.1563,271.1875 240.7188,271.4844 L240.7188,274.2031 Q240.0938,273.625 239.5,273.3594 Q238.9063,273.0781 238.2813,273.0781 Q236.9375,273.0781 236.25,274.1563 Q235.5625,275.2188 235.5625,277.3125 Q235.5625,279.4063 236.25,280.4844 Q236.9375,281.5469 238.2813,281.5469 Q238.9063,281.5469 239.5,281.2813 Q240.0938,281 240.7188,280.4219 L240.7188,283.1406 Z " fill="#000000"/><text fill="#000000" font-family="sans-serif" font-size="14" lengthAdjust="spacing" textLength="72" x="258.25" y="282.3467">ExprVisitor</text><line style="stroke:#181818;stroke-width:0.5;" x1="23" x2="533" y1="293.5" y2="293.5"/><ellipse cx="33" cy="307.1484" fill="none" rx="3" ry="3" style="stroke:#038048;stroke-width:1.0;"/><text fill="#000000" font-family="sans-serif" font-size="14" lengthAdjust="spacing" textLength="130" x="42" y="310.4951">isRootSig: boolean</text><line style="stroke:#181818;stroke-width:0.5;" x1="23" x2="533" y1="317.7969" y2="317.7969"/><ellipse cx="33" cy="331.4453" fill="#84BE84" rx="3" ry="3" style="stroke:#038048;stroke-width:1.0;"/><text fill="#000000" font-family="sans-serif" font-size="14" lengthAdjust="spacing" textLength="246" x="42" y="334.792">ExprVisitor(Set&lt;Expr&gt;, Set&lt;Field&gt;)</text><ellipse cx="33" cy="347.7422" fill="#84BE84" rx="3" ry="3" style="stroke:#038048;stroke-width:1.0;"/><text fill="#000000" font-family="sans-serif" font-size="14" lengthAdjust="spacing" textLength="157" x="42" y="351.0889">visit(ExprBinary): String</text><ellipse cx="33" cy="364.0391" fill="#84BE84" rx="3" ry="3" style="stroke:#038048;stroke-width:1.0;"/><text fill="#000000" font-family="sans-serif" font-size="14" lengthAdjust="spacing" textLength="139" x="42" y="367.3857">visit(ExprCall): String</text><ellipse cx="33" cy="380.3359" fill="#84BE84" rx="3" ry="3" style="stroke:#038048;stroke-width:1.0;"/><text fill="#000000" font-family="sans-serif" font-size="14" lengthAdjust="spacing" textLength="178" x="42" y="383.6826">visit(ExprConstant): String</text><ellipse cx="33" cy="396.6328" fill="#84BE84" rx="3" ry="3" style="stroke:#038048;stroke-width:1.0;"/><text fill="#000000" font-family="sans-serif" font-size="14" lengthAdjust="spacing" textLength="138" x="42" y="399.9795">visit(ExprList): String</text><ellipse cx="33" cy="412.9297" fill="#84BE84" rx="3" ry="3" style="stroke:#038048;stroke-width:1.0;"/><text fill="#000000" font-family="sans-serif" font-size="14" lengthAdjust="spacing" textLength="131" x="42" y="416.2764">visit(ExprQt): String</text><ellipse cx="33" cy="429.2266" fill="#84BE84" rx="3" ry="3" style="stroke:#038048;stroke-width:1.0;"/><text fill="#000000" font-family="sans-serif" font-size="14" lengthAdjust="spacing" textLength="154" x="42" y="432.5732">visit(ExprUnary): String</text><ellipse cx="33" cy="445.5234" fill="#84BE84" rx="3" ry="3" style="stroke:#038048;stroke-width:1.0;"/><text fill="#000000" font-family="sans-serif" font-size="14" lengthAdjust="spacing" textLength="137" x="42" y="448.8701">visit(ExprVar): String</text><ellipse cx="33" cy="461.8203" fill="#84BE84" rx="3" ry="3" style="stroke:#038048;stroke-width:1.0;"/><text fill="#000000" font-family="sans-serif" font-size="14" lengthAdjust="spacing" textLength="106" x="42" y="465.167">visit(Sig): String</text><ellipse cx="33" cy="478.1172" fill="#84BE84" rx="3" ry="3" style="stroke:#038048;stroke-width:1.0;"/><text fill="#000000" font-family="sans-serif" font-size="14" lengthAdjust="spacing" textLength="486" x="42" y="481.4639">sortFields(Field, Map&lt;String, List&lt;Field&gt;&gt;): Map&lt;String, List&lt;Field&gt;&gt;</text><ellipse cx="33" cy="494.4141" fill="#84BE84" rx="3" ry="3" style="stroke:#038048;stroke-width:1.0;"/><text fill="#000000" font-family="sans-serif" font-size="14" lengthAdjust="spacing" textLength="117" x="42" y="497.7607">visit(Field): String</text></g></a><!--class Translator--><a href="Translator.html" target="_top" title="Translator.html" xlink:actuate="onRequest" xlink:href="Translator.html" xlink:show="new" xlink:title="Translator.html" xlink:type="simple"><g id="elem_Translator"><rect codeLine="53" fill="#F1F1F1" height="96.8906" id="Translator" rx="2.5" ry="2.5" style="stroke:#181818;stroke-width:0.5;" width="434" x="503" y="663"/><ellipse cx="681.25" cy="679" fill="#ADD1B2" rx="11" ry="11" style="stroke:#181818;stroke-width:1.0;"/><path d="M684.2188,684.6406 Q683.6406,684.9375 683,685.0781 Q682.3594,685.2344 681.6563,685.2344 Q679.1563,685.2344 677.8281,683.5938 Q676.5156,681.9375 676.5156,678.8125 Q676.5156,675.6875 677.8281,674.0313 Q679.1563,672.375 681.6563,672.375 Q682.3594,672.375 683,672.5313 Q683.6563,672.6875 684.2188,672.9844 L684.2188,675.7031 Q683.5938,675.125 683,674.8594 Q682.4063,674.5781 681.7813,674.5781 Q680.4375,674.5781 679.75,675.6563 Q679.0625,676.7188 679.0625,678.8125 Q679.0625,680.9063 679.75,681.9844 Q680.4375,683.0469 681.7813,683.0469 Q682.4063,683.0469 683,682.7813 Q683.5938,682.5 684.2188,681.9219 L684.2188,684.6406 Z " fill="#000000"/><text fill="#000000" font-family="sans-serif" font-size="14" lengthAdjust="spacing" textLength="69" x="701.75" y="683.8467">Translator</text><line style="stroke:#181818;stroke-width:0.5;" x1="504" x2="936" y1="695" y2="695"/><line style="stroke:#181818;stroke-width:0.5;" x1="504" x2="936" y1="703" y2="703"/><ellipse cx="514" cy="716.6484" fill="#84BE84" rx="3" ry="3" style="stroke:#038048;stroke-width:1.0;"/><text fill="#000000" font-family="sans-serif" font-size="14" lengthAdjust="spacing" textLength="321" x="523" y="719.9951">Translator(Set&lt;Expr&gt;, Set&lt;Func&gt;, Set&lt;Sig&gt;)</text><ellipse cx="514" cy="732.9453" fill="#84BE84" rx="3" ry="3" style="stroke:#038048;stroke-width:1.0;"/><text fill="#000000" font-family="sans-serif" font-size="14" lengthAdjust="spacing" textLength="408" x="523" y="736.292">Translator(Set&lt;Expr&gt;, Set&lt;Func&gt;, Set&lt;Sig&gt;, Set&lt;Field&gt;)</text><ellipse cx="514" cy="749.2422" fill="#84BE84" rx="3" ry="3" style="stroke:#038048;stroke-width:1.0;"/><text fill="#000000" font-family="sans-serif" font-size="14" lengthAdjust="spacing" textLength="347" x="523" y="752.5889">generateAlsFileContents(AlloyModule, String): void</text></g></a><!--class VisitQuery--><g id="elem_VisitQuery"><rect codeLine="62" fill="#F1F1F1" height="48" id="VisitQuery" rx="2.5" ry="2.5" style="stroke:#181818;stroke-width:0.5;" width="113" x="221.5" y="41"/><ellipse cx="236.5" cy="57" fill="#A9DCDF" rx="11" ry="11" style="stroke:#181818;stroke-width:1.0;"/><path d="M236.6094,52.3438 L235.4531,57.4219 L237.7813,57.4219 L236.6094,52.3438 Z M235.125,50.1094 L238.1094,50.1094 L241.4688,62.5 L239.0156,62.5 L238.25,59.4375 L234.9688,59.4375 L234.2188,62.5 L231.7813,62.5 L235.125,50.1094 Z " fill="#000000"/><text fill="#000000" font-family="sans-serif" font-size="14" font-style="italic" lengthAdjust="spacing" textLength="70" x="250.5" y="61.8467">VisitQuery</text><rect fill="#FFFFFF" height="15.9688" style="stroke:#181818;stroke-width:1.0;stroke-dasharray:2.0,2.0;" width="9" x="328.5" y="38"/><text fill="#000000" font-family="sans-serif" font-size="12" font-style="italic" lengthAdjust="spacing" textLength="7" x="329.5" y="50.1387">T</text><line style="stroke:#181818;stroke-width:0.5;" x1="222.5" x2="333.5" y1="73" y2="73"/><line style="stroke:#181818;stroke-width:0.5;" x1="222.5" x2="333.5" y1="81" y2="81"/></g><!--reverse link VisitQuery to ExprVisitor--><g id="link_VisitQuery_ExprVisitor"><path codeLine="65" d="M278,107.02 C278,143.08 278,197.37 278,261.19 " fill="none" id="VisitQuery-backto-ExprVisitor" style="stroke:#181818;stroke-width:1.0;"/><polygon fill="none" points="278,89.02,272,107.02,284,107.02,278,89.02" style="stroke:#181818;stroke-width:1.0;"/></g><text fill="#888888" font-family="sans-serif" font-size="10" lengthAdjust="spacing" textLength="186" x="679.5" y="791.2822">UMLDoclet 2.1.1, PlantUML 1.2023.12</text><!--SRC=[jLPHRzem47xlh_3BfA3IIErZX92W3Lkb8jgILfjGDPd417V1pcodAchxttTsGX980c5RaKXYttUVpxuxto64a2GA_Z4MM7617EVa12PHZFrVE2I818aTOaNyfHqgGMq-NzbAO2OZ3RTn5F6rlH1yzRgYw2tLrJy_mbAYoN3yVNnzCT0eD9kLX_PIhQAd9z11fT-RL5XH_mETJZtttfruFsxTdxU3UtVimjX1Kx21XLigfsLMAmLqjX6-8B050nZHY5ZwqSsukaYFEWwQSnuHp7BDZztDU7opZ-ohVWkdcRJUb92eAGqtCWVT2hg2YKPx2t1tW-rkJ3rIVV-QE0YCXgUTko1YH4aK5BfKAvgvYjeLbS_PsO9OMZTKgbwgs2zEELjqmp9xghDvI9-9hoXdu1D510c-uJWcJ0x9WWioOC4W23m-UI420c-4VMMPyt1VOv4-WVw5q-0Oxgj46_XltAE4VPRPrmpKvEUi0Cwxn2AW34TKhTtV2OukEPEGtvGfZwSXO9wbu0FHtvDLGhaTsrTp5C9ROlPVhJpCszhWB13OY8jD2jMv9UT9NLF9pLR4pLu_dfxnQnOdIauIfLzMcgFDE6ilLyxI308FR37jjGx0svI7q5D5OccDSTpByII_ZVfDMiRvnU6rzagbfC1Q9cxqIZkrgb9Fj8iUgQIwxCvcfL53NQ7oddDTFQgroiXB39OsH8_xMpPjuryqrjAe8QI3M7Vgosi1kuGeEmpIAOHDakm7wZ9n47Ht6FBGolP7BFPYqh2laqikL5RPiakc75scsAN7gttU9AfRqeXQn8cNjrkwzIXwhuRk8mTKWW1AIFO9kzsDXjPwUo8g90ok8fqMKkS3X88Y35BNfCcO1qdHTkqcLRRhZshtkQBAzYMcaIs3qCPIbNQCv_gwzbLsKYRwxn8YrZslN-QhvN6S0ezwxsTdHpMxZbFADxE83tib0YqWIU7rCBwvudu4pVM5VMwVGmM982jW5dtH1HrAkTNv0m00]--></g></svg>