<?xml version="1.0" encoding="us-ascii" standalone="no"?><svg xmlns="http://www.w3.org/2000/svg" xmlns:xlink="http://www.w3.org/1999/xlink" contentStyleType="text/css" height="540px" preserveAspectRatio="none" style="width:540px;height:540px;background:#FFFFFF;" version="1.1" viewBox="0 0 540 540" width="540px" zoomAndPan="magnify"><defs/><g><text fill="#000000" font-family="sans-serif" font-size="14" font-weight="bold" lengthAdjust="spacing" textLength="182" x="177.75" y="32.9951">Create Alloy Signature</text><ellipse cx="308.5" cy="57.2969" fill="#222222" rx="10" ry="10" style="stroke:#222222;stroke-width:1.0;"/><polygon fill="#F1F1F1" points="255.5,87.2969,361.5,87.2969,373.5,99.2969,361.5,111.2969,255.5,111.2969,243.5,99.2969,255.5,87.2969" style="stroke:#181818;stroke-width:0.5;"/><text fill="#000000" font-family="sans-serif" font-size="11" lengthAdjust="spacing" textLength="106" x="255.5" y="103.105">Sig Does Not Exist</text><text fill="#000000" font-family="sans-serif" font-size="11" lengthAdjust="spacing" textLength="21" x="222.5" y="96.7026">yes</text><text fill="#000000" font-family="sans-serif" font-size="11" lengthAdjust="spacing" textLength="14" x="373.5" y="96.7026">no</text><rect fill="#F1F1F1" height="33.9688" rx="12.5" ry="12.5" style="stroke:#181818;stroke-width:0.5;" width="108" x="121" y="121.2969"/><text fill="#000000" font-family="sans-serif" font-size="12" lengthAdjust="spacing" textLength="88" x="131" y="142.4355">Create PrimSig</text><polygon fill="#F1F1F1" points="100.5,175.2656,249.5,175.2656,261.5,187.2656,249.5,199.2656,100.5,199.2656,88.5,187.2656,100.5,175.2656" style="stroke:#181818;stroke-width:0.5;"/><text fill="#000000" font-family="sans-serif" font-size="11" lengthAdjust="spacing" textLength="149" x="100.5" y="191.0737">Sig Does Not Have Parent</text><text fill="#000000" font-family="sans-serif" font-size="11" lengthAdjust="spacing" textLength="21" x="67.5" y="184.6714">yes</text><text fill="#000000" font-family="sans-serif" font-size="11" lengthAdjust="spacing" textLength="14" x="261.5" y="184.6714">no</text><rect fill="#F1F1F1" height="47.9375" rx="12.5" ry="12.5" style="stroke:#181818;stroke-width:0.5;" width="135" x="11" y="209.2656"/><text fill="#000000" font-family="sans-serif" font-size="12" lengthAdjust="spacing" textLength="81" x="21" y="230.4043">Create Sig as</text><text fill="#000000" font-family="sans-serif" font-size="12" lengthAdjust="spacing" textLength="115" x="21" y="244.373">Child of Occurence</text><rect fill="#F1F1F1" height="47.9375" rx="12.5" ry="12.5" style="stroke:#181818;stroke-width:0.5;" width="106" x="218.5" y="209.2656"/><text fill="#000000" font-family="sans-serif" font-size="12" lengthAdjust="spacing" textLength="81" x="228.5" y="230.4043">Create Sig as</text><text fill="#000000" font-family="sans-serif" font-size="12" lengthAdjust="spacing" textLength="86" x="228.5" y="244.373">Child of Parent</text><polygon fill="#F1F1F1" points="175,263.2031,187,275.2031,175,287.2031,163,275.2031,175,263.2031" style="stroke:#181818;stroke-width:0.5;"/><rect fill="#F1F1F1" height="33.9688" rx="12.5" ry="12.5" style="stroke:#181818;stroke-width:0.5;" width="188" x="81" y="355.6055"/><text fill="#000000" font-family="sans-serif" font-size="12" lengthAdjust="spacing" textLength="168" x="91" y="376.7441">Set moduleName Parameter</text><polygon fill="#F1F1F1" points="133.5,307.2031,216.5,307.2031,228.5,319.2031,216.5,331.2031,133.5,331.2031,121.5,319.2031,133.5,307.2031" style="stroke:#181818;stroke-width:0.5;"/><text fill="#000000" font-family="sans-serif" font-size="11" lengthAdjust="spacing" textLength="21" x="179" y="341.4136">yes</text><text fill="#000000" font-family="sans-serif" font-size="11" lengthAdjust="spacing" textLength="83" x="133.5" y="323.0112">Sig is Main Sig</text><polygon fill="#F1F1F1" points="175,409.5742,187,421.5742,175,433.5742,163,421.5742,175,409.5742" style="stroke:#181818;stroke-width:0.5;"/><rect fill="#F1F1F1" height="33.9688" rx="12.5" ry="12.5" style="stroke:#181818;stroke-width:0.5;" width="119" x="115.5" y="453.5742"/><text fill="#000000" font-family="sans-serif" font-size="12" lengthAdjust="spacing" textLength="99" x="125.5" y="474.7129">Return Signature</text><ellipse cx="175" cy="518.543" fill="none" rx="11" ry="11" style="stroke:#222222;stroke-width:1.0;"/><ellipse cx="175" cy="518.543" fill="#222222" rx="6" ry="6" style="stroke:#222222;stroke-width:1.0;"/><rect fill="#F1F1F1" height="33.9688" rx="12.5" ry="12.5" style="stroke:#181818;stroke-width:0.5;" width="175" x="354.5" y="121.2969"/><text fill="#000000" font-family="sans-serif" font-size="12" lengthAdjust="spacing" textLength="155" x="364.5" y="142.4355">Return Signature from List</text><ellipse cx="442" cy="186.2656" fill="none" rx="11" ry="11" style="stroke:#222222;stroke-width:1.0;"/><ellipse cx="442" cy="186.2656" fill="#222222" rx="6" ry="6" style="stroke:#222222;stroke-width:1.0;"/><line style="stroke:#181818;stroke-width:1.0;" x1="88.5" x2="78.5" y1="187.2656" y2="187.2656"/><line style="stroke:#181818;stroke-width:1.0;" x1="78.5" x2="78.5" y1="187.2656" y2="209.2656"/><polygon fill="#181818" points="74.5,199.2656,78.5,209.2656,82.5,199.2656,78.5,203.2656" style="stroke:#181818;stroke-width:1.0;"/><line style="stroke:#181818;stroke-width:1.0;" x1="261.5" x2="271.5" y1="187.2656" y2="187.2656"/><line style="stroke:#181818;stroke-width:1.0;" x1="271.5" x2="271.5" y1="187.2656" y2="209.2656"/><polygon fill="#181818" points="267.5,199.2656,271.5,209.2656,275.5,199.2656,271.5,203.2656" style="stroke:#181818;stroke-width:1.0;"/><line style="stroke:#181818;stroke-width:1.0;" x1="78.5" x2="78.5" y1="257.2031" y2="275.2031"/><line style="stroke:#181818;stroke-width:1.0;" x1="78.5" x2="163" y1="275.2031" y2="275.2031"/><polygon fill="#181818" points="153,271.2031,163,275.2031,153,279.2031,157,275.2031" style="stroke:#181818;stroke-width:1.0;"/><line style="stroke:#181818;stroke-width:1.0;" x1="271.5" x2="271.5" y1="257.2031" y2="275.2031"/><line style="stroke:#181818;stroke-width:1.0;" x1="271.5" x2="187" y1="275.2031" y2="275.2031"/><polygon fill="#181818" points="197,271.2031,187,275.2031,197,279.2031,193,275.2031" style="stroke:#181818;stroke-width:1.0;"/><line style="stroke:#181818;stroke-width:1.0;" x1="175" x2="175" y1="155.2656" y2="175.2656"/><polygon fill="#181818" points="171,165.2656,175,175.2656,179,165.2656,175,169.2656" style="stroke:#181818;stroke-width:1.0;"/><line style="stroke:#181818;stroke-width:1.0;" x1="175" x2="175" y1="331.2031" y2="355.6055"/><polygon fill="#181818" points="171,345.6055,175,355.6055,179,345.6055,175,349.6055" style="stroke:#181818;stroke-width:1.0;"/><line style="stroke:#181818;stroke-width:1.0;" x1="228.5" x2="279" y1="319.2031" y2="319.2031"/><polygon fill="#181818" points="275,362.5898,279,372.5898,283,362.5898,279,366.5898" style="stroke:#181818;stroke-width:1.0;"/><line style="stroke:#181818;stroke-width:1.0;" x1="279" x2="279" y1="319.2031" y2="421.5742"/><line style="stroke:#181818;stroke-width:1.0;" x1="279" x2="187" y1="421.5742" y2="421.5742"/><polygon fill="#181818" points="197,417.5742,187,421.5742,197,425.5742,193,421.5742" style="stroke:#181818;stroke-width:1.0;"/><line style="stroke:#181818;stroke-width:1.0;" x1="175" x2="175" y1="389.5742" y2="409.5742"/><polygon fill="#181818" points="171,399.5742,175,409.5742,179,399.5742,175,403.5742" style="stroke:#181818;stroke-width:1.0;"/><line style="stroke:#181818;stroke-width:1.0;" x1="175" x2="175" y1="287.2031" y2="307.2031"/><polygon fill="#181818" points="171,297.2031,175,307.2031,179,297.2031,175,301.2031" style="stroke:#181818;stroke-width:1.0;"/><line style="stroke:#181818;stroke-width:1.0;" x1="175" x2="175" y1="433.5742" y2="453.5742"/><polygon fill="#181818" points="171,443.5742,175,453.5742,179,443.5742,175,447.5742" style="stroke:#181818;stroke-width:1.0;"/><line style="stroke:#181818;stroke-width:1.0;" x1="175" x2="175" y1="487.543" y2="507.543"/><polygon fill="#181818" points="171,497.543,175,507.543,179,497.543,175,501.543" style="stroke:#181818;stroke-width:1.0;"/><line style="stroke:#181818;stroke-width:1.0;" x1="442" x2="442" y1="155.2656" y2="175.2656"/><polygon fill="#181818" points="438,165.2656,442,175.2656,446,165.2656,442,169.2656" style="stroke:#181818;stroke-width:1.0;"/><line style="stroke:#181818;stroke-width:1.0;" x1="243.5" x2="175" y1="99.2969" y2="99.2969"/><line style="stroke:#181818;stroke-width:1.0;" x1="175" x2="175" y1="99.2969" y2="121.2969"/><polygon fill="#181818" points="171,111.2969,175,121.2969,179,111.2969,175,115.2969" style="stroke:#181818;stroke-width:1.0;"/><line style="stroke:#181818;stroke-width:1.0;" x1="373.5" x2="442" y1="99.2969" y2="99.2969"/><line style="stroke:#181818;stroke-width:1.0;" x1="442" x2="442" y1="99.2969" y2="121.2969"/><polygon fill="#181818" points="438,111.2969,442,121.2969,446,111.2969,442,115.2969" style="stroke:#181818;stroke-width:1.0;"/><line style="stroke:#181818;stroke-width:1.0;" x1="308.5" x2="308.5" y1="67.2969" y2="87.2969"/><polygon fill="#181818" points="304.5,77.2969,308.5,87.2969,312.5,77.2969,308.5,81.2969" style="stroke:#181818;stroke-width:1.0;"/><!--SRC=[VP312i9034Jl-nLpR7_1daG53rf5ls1fKnlOxifk5FrxirKGYteA96ycmmYB8omYMI7CdGjt7FdahLmYcIGsYW5tA7I9PQ24EWXMDqvIGdhoAEwKIeFPos8VUL2s-g9QswlURIJ_Gvjfcs2mwDcr21rsJQCvV4FgHovHuSDV_kcUOTzobpEC4JXXQzbdmUJpaGH3Q2-EQZkCwNG8nRV5x43QXN-tegSauVmHQCgWYs70HbkgZCdq0m00]--></g></svg>