<?xml version="1.0" encoding="us-ascii" standalone="no"?><svg xmlns="http://www.w3.org/2000/svg" xmlns:xlink="http://www.w3.org/1999/xlink" contentStyleType="text/css" height="394px" preserveAspectRatio="none" style="width:485px;height:394px;background:#FFFFFF;" version="1.1" viewBox="0 0 485 394" width="485px" zoomAndPan="magnify"><defs/><g><text fill="#000000" font-family="sans-serif" font-size="14" font-weight="bold" lengthAdjust="spacing" textLength="120" x="181.25" y="32.9951">createAlloyFile</text><ellipse cx="195.75" cy="57.2969" fill="#222222" rx="10" ry="10" style="stroke:#222222;stroke-width:1.0;"/><polygon fill="#F1F1F1" points="119.75,87.2969,271.75,87.2969,283.75,99.2969,271.75,111.2969,119.75,111.2969,107.75,99.2969,119.75,87.2969" style="stroke:#181818;stroke-width:0.5;"/><text fill="#000000" font-family="sans-serif" font-size="11" lengthAdjust="spacing" textLength="152" x="119.75" y="103.105">file !exists and !readable?</text><text fill="#000000" font-family="sans-serif" font-size="11" lengthAdjust="spacing" textLength="21" x="86.75" y="96.7026">yes</text><text fill="#000000" font-family="sans-serif" font-size="11" lengthAdjust="spacing" textLength="14" x="283.75" y="96.7026">no</text><rect fill="#F1F1F1" height="33.9688" rx="12.5" ry="12.5" style="stroke:#181818;stroke-width:0.5;" width="50" x="30.5" y="121.2969"/><text fill="#000000" font-family="sans-serif" font-size="12" lengthAdjust="spacing" textLength="30" x="40.5" y="142.4355">Error</text><rect fill="#F1F1F1" height="33.9688" rx="12.5" ry="12.5" style="stroke:#181818;stroke-width:0.5;" width="89" x="11" y="190.2656"/><text fill="#000000" font-family="sans-serif" font-size="12" lengthAdjust="spacing" textLength="69" x="21" y="211.4043">return false</text><ellipse cx="55.5" cy="270.2344" fill="none" rx="11" ry="11" style="stroke:#222222;stroke-width:1.0;"/><ellipse cx="55.5" cy="270.2344" fill="#222222" rx="6" ry="6" style="stroke:#222222;stroke-width:1.0;"/><polygon fill="#F1F1F1" points="264,121.2969,408,121.2969,420,133.2969,408,145.2969,264,145.2969,252,133.2969,264,121.2969" style="stroke:#181818;stroke-width:0.5;"/><text fill="#000000" font-family="sans-serif" font-size="11" lengthAdjust="spacing" textLength="144" x="264" y="137.105">loadOBMandCreateAlloy?</text><text fill="#000000" font-family="sans-serif" font-size="11" lengthAdjust="spacing" textLength="21" x="231" y="130.7026">yes</text><text fill="#000000" font-family="sans-serif" font-size="11" lengthAdjust="spacing" textLength="14" x="420" y="130.7026">no</text><rect fill="#F1F1F1" height="47.9375" rx="12.5" ry="12.5" style="stroke:#181818;stroke-width:0.5;" width="224" x="130" y="155.2969"/><text fill="#000000" font-family="sans-serif" font-size="12" lengthAdjust="spacing" textLength="204" x="140" y="176.4355">ToAlloy.createAlloyFile(outputFile,</text><text fill="#000000" font-family="sans-serif" font-size="12" lengthAdjust="spacing" textLength="104" x="140" y="190.4043">parameterFields)</text><rect fill="#F1F1F1" height="33.9688" rx="12.5" ry="12.5" style="stroke:#181818;stroke-width:0.5;" width="45" x="219.5" y="238.2344"/><text fill="#000000" font-family="sans-serif" font-size="12" lengthAdjust="spacing" textLength="25" x="229.5" y="259.373">Print</text><rect fill="#F1F1F1" height="33.9688" rx="12.5" ry="12.5" style="stroke:#181818;stroke-width:0.5;" width="84" x="200" y="307.2031"/><text fill="#000000" font-family="sans-serif" font-size="12" lengthAdjust="spacing" textLength="64" x="210" y="328.3418">return true</text><ellipse cx="242" cy="372.1719" fill="none" rx="11" ry="11" style="stroke:#222222;stroke-width:1.0;"/><ellipse cx="242" cy="372.1719" fill="#222222" rx="6" ry="6" style="stroke:#222222;stroke-width:1.0;"/><rect fill="#F1F1F1" height="33.9688" rx="12.5" ry="12.5" style="stroke:#181818;stroke-width:0.5;" width="54" x="403" y="155.2969"/><text fill="#000000" font-family="sans-serif" font-size="12" lengthAdjust="spacing" textLength="30" x="417" y="176.4355">Error</text><rect fill="#F1F1F1" height="33.9688" rx="12.5" ry="12.5" style="stroke:#181818;stroke-width:0.5;" width="89" x="385.5" y="224.2656"/><text fill="#000000" font-family="sans-serif" font-size="12" lengthAdjust="spacing" textLength="69" x="395.5" y="245.4043">return false</text><ellipse cx="430" cy="304.2344" fill="none" rx="11" ry="11" style="stroke:#222222;stroke-width:1.0;"/><ellipse cx="430" cy="304.2344" fill="#222222" rx="6" ry="6" style="stroke:#222222;stroke-width:1.0;"/><line style="stroke:#181818;stroke-width:1.0;" x1="55.5" x2="55.5" y1="155.2656" y2="190.2656"/><polygon fill="#181818" points="51.5,180.2656,55.5,190.2656,59.5,180.2656,55.5,184.2656" style="stroke:#181818;stroke-width:1.0;"/><line style="stroke:#181818;stroke-width:1.0;" x1="55.5" x2="55.5" y1="224.2344" y2="259.2344"/><polygon fill="#181818" points="51.5,249.2344,55.5,259.2344,59.5,249.2344,55.5,253.2344" style="stroke:#181818;stroke-width:1.0;"/><line style="stroke:#181818;stroke-width:1.0;" x1="242" x2="242" y1="203.2344" y2="238.2344"/><polygon fill="#181818" points="238,228.2344,242,238.2344,246,228.2344,242,232.2344" style="stroke:#181818;stroke-width:1.0;"/><line style="stroke:#181818;stroke-width:1.0;" x1="242" x2="242" y1="272.2031" y2="307.2031"/><polygon fill="#181818" points="238,297.2031,242,307.2031,246,297.2031,242,301.2031" style="stroke:#181818;stroke-width:1.0;"/><line style="stroke:#181818;stroke-width:1.0;" x1="242" x2="242" y1="341.1719" y2="361.1719"/><polygon fill="#181818" points="238,351.1719,242,361.1719,246,351.1719,242,355.1719" style="stroke:#181818;stroke-width:1.0;"/><line style="stroke:#181818;stroke-width:1.0;" x1="430" x2="430" y1="189.2656" y2="224.2656"/><polygon fill="#181818" points="426,214.2656,430,224.2656,434,214.2656,430,218.2656" style="stroke:#181818;stroke-width:1.0;"/><line style="stroke:#181818;stroke-width:1.0;" x1="430" x2="430" y1="258.2344" y2="293.2344"/><polygon fill="#181818" points="426,283.2344,430,293.2344,434,283.2344,430,287.2344" style="stroke:#181818;stroke-width:1.0;"/><line style="stroke:#181818;stroke-width:1.0;" x1="252" x2="242" y1="133.2969" y2="133.2969"/><line style="stroke:#181818;stroke-width:1.0;" x1="242" x2="242" y1="133.2969" y2="155.2969"/><polygon fill="#181818" points="238,145.2969,242,155.2969,246,145.2969,242,149.2969" style="stroke:#181818;stroke-width:1.0;"/><line style="stroke:#181818;stroke-width:1.0;" x1="420" x2="430" y1="133.2969" y2="133.2969"/><line style="stroke:#181818;stroke-width:1.0;" x1="430" x2="430" y1="133.2969" y2="155.2969"/><polygon fill="#181818" points="426,145.2969,430,155.2969,434,145.2969,430,149.2969" style="stroke:#181818;stroke-width:1.0;"/><line style="stroke:#181818;stroke-width:1.0;" x1="107.75" x2="55.5" y1="99.2969" y2="99.2969"/><line style="stroke:#181818;stroke-width:1.0;" x1="55.5" x2="55.5" y1="99.2969" y2="121.2969"/><polygon fill="#181818" points="51.5,111.2969,55.5,121.2969,59.5,111.2969,55.5,115.2969" style="stroke:#181818;stroke-width:1.0;"/><line style="stroke:#181818;stroke-width:1.0;" x1="283.75" x2="336" y1="99.2969" y2="99.2969"/><line style="stroke:#181818;stroke-width:1.0;" x1="336" x2="336" y1="99.2969" y2="121.2969"/><polygon fill="#181818" points="332,111.2969,336,121.2969,340,111.2969,336,115.2969" style="stroke:#181818;stroke-width:1.0;"/><line style="stroke:#181818;stroke-width:1.0;" x1="195.75" x2="195.75" y1="67.2969" y2="87.2969"/><polygon fill="#181818" points="191.75,77.2969,195.75,87.2969,199.75,77.2969,195.75,81.2969" style="stroke:#181818;stroke-width:1.0;"/><!--SRC=[POx12i8m38RlVOfusq1yWEqWAkucUl3efTeK2x4TQGhkxMqtXp0lvMluy-UBebcKE2641wCMt165eNE4obceR0POuTj5YQ2zWLKE6NqdtDOWJ_HG3HXh1SsHEN2RWL4IUx2Q8kP_bD0hp0oL3pbOMYbeSzwVSj_XTtDH2CqrZFFDmgiAIVea1TSttslMBnJapY6PMBTbyyBEoqXV6U5KN2OPA3QJ33GmU_-9ps5ld5NZ-m40]--></g></svg>