<?xml version="1.0" encoding="us-ascii" standalone="no"?><svg xmlns="http://www.w3.org/2000/svg" xmlns:xlink="http://www.w3.org/1999/xlink" contentStyleType="text/css" height="389px" preserveAspectRatio="none" style="width:236px;height:389px;background:#FFFFFF;" version="1.1" viewBox="0 0 236 389" width="236px" zoomAndPan="magnify"><defs/><g><text fill="#000000" font-family="sans-serif" font-size="14" font-weight="bold" lengthAdjust="spacing" textLength="112" x="60.5" y="32.9951">Remove Slash</text><ellipse cx="109" cy="57.2969" fill="#222222" rx="10" ry="10" style="stroke:#222222;stroke-width:1.0;"/><rect fill="#F1F1F1" height="33.9688" rx="12.5" ry="12.5" style="stroke:#181818;stroke-width:0.5;" width="134" x="42" y="135.6992"/><text fill="#000000" font-family="sans-serif" font-size="12" lengthAdjust="spacing" textLength="114" x="52" y="156.8379">Find Index of Slash</text><rect fill="#F1F1F1" height="33.9688" rx="12.5" ry="12.5" style="stroke:#181818;stroke-width:0.5;" width="106" x="56" y="204.668"/><text fill="#000000" font-family="sans-serif" font-size="12" lengthAdjust="spacing" textLength="86" x="66" y="225.8066">Remove Index</text><polygon fill="#F1F1F1" points="32,87.2969,186,87.2969,198,99.2969,186,111.2969,32,111.2969,20,99.2969,32,87.2969" style="stroke:#181818;stroke-width:0.5;"/><text fill="#000000" font-family="sans-serif" font-size="11" lengthAdjust="spacing" textLength="21" x="113" y="121.5073">yes</text><text fill="#000000" font-family="sans-serif" font-size="11" lengthAdjust="spacing" textLength="154" x="32" y="103.105">Signature Contains a Slash</text><polygon fill="#F1F1F1" points="109,258.6367,121,270.6367,109,282.6367,97,270.6367,109,258.6367" style="stroke:#181818;stroke-width:0.5;"/><rect fill="#F1F1F1" height="33.9688" rx="12.5" ry="12.5" style="stroke:#181818;stroke-width:0.5;" width="119" x="49.5" y="302.6367"/><text fill="#000000" font-family="sans-serif" font-size="12" lengthAdjust="spacing" textLength="99" x="59.5" y="323.7754">Return Signature</text><ellipse cx="109" cy="367.6055" fill="none" rx="11" ry="11" style="stroke:#222222;stroke-width:1.0;"/><ellipse cx="109" cy="367.6055" fill="#222222" rx="6" ry="6" style="stroke:#222222;stroke-width:1.0;"/><line style="stroke:#181818;stroke-width:1.0;" x1="109" x2="109" y1="169.668" y2="204.668"/><polygon fill="#181818" points="105,194.668,109,204.668,113,194.668,109,198.668" style="stroke:#181818;stroke-width:1.0;"/><line style="stroke:#181818;stroke-width:1.0;" x1="109" x2="109" y1="111.2969" y2="135.6992"/><polygon fill="#181818" points="105,125.6992,109,135.6992,113,125.6992,109,129.6992" style="stroke:#181818;stroke-width:1.0;"/><line style="stroke:#181818;stroke-width:1.0;" x1="198" x2="210" y1="99.2969" y2="99.2969"/><polygon fill="#181818" points="206,177.168,210,187.168,214,177.168,210,181.168" style="stroke:#181818;stroke-width:1.0;"/><line style="stroke:#181818;stroke-width:1.0;" x1="210" x2="210" y1="99.2969" y2="270.6367"/><line style="stroke:#181818;stroke-width:1.0;" x1="210" x2="121" y1="270.6367" y2="270.6367"/><polygon fill="#181818" points="131,266.6367,121,270.6367,131,274.6367,127,270.6367" style="stroke:#181818;stroke-width:1.0;"/><line style="stroke:#181818;stroke-width:1.0;" x1="109" x2="109" y1="238.6367" y2="258.6367"/><polygon fill="#181818" points="105,248.6367,109,258.6367,113,248.6367,109,252.6367" style="stroke:#181818;stroke-width:1.0;"/><line style="stroke:#181818;stroke-width:1.0;" x1="109" x2="109" y1="67.2969" y2="87.2969"/><polygon fill="#181818" points="105,77.2969,109,87.2969,113,77.2969,109,81.2969" style="stroke:#181818;stroke-width:1.0;"/><line style="stroke:#181818;stroke-width:1.0;" x1="109" x2="109" y1="282.6367" y2="302.6367"/><polygon fill="#181818" points="105,292.6367,109,302.6367,113,292.6367,109,296.6367" style="stroke:#181818;stroke-width:1.0;"/><line style="stroke:#181818;stroke-width:1.0;" x1="109" x2="109" y1="336.6055" y2="356.6055"/><polygon fill="#181818" points="105,346.6055,109,356.6055,113,346.6055,109,350.6055" style="stroke:#181818;stroke-width:1.0;"/><!--SRC=[FOr13eCm30JlViKUuGlD4QaIr_82It704dKgubRmUm9KN6T7iwu-2rxopZ_1C7EPg3WlJfhG33eQ-tSHTDcSrGhuabhu98Pcaz8Iy7YgHVGMPKLEbn8E_W-VIo2ng8aEMgE6En_gP_xi]--></g></svg>