<?xml version="1.0" encoding="us-ascii" standalone="no"?><svg xmlns="http://www.w3.org/2000/svg" xmlns:xlink="http://www.w3.org/1999/xlink" contentStyleType="text/css" height="655px" preserveAspectRatio="none" style="width:388px;height:655px;background:#FFFFFF;" version="1.1" viewBox="0 0 388 655" width="388px" zoomAndPan="magnify"><defs/><g><text fill="#000000" font-family="sans-serif" font-size="14" font-weight="bold" lengthAdjust="spacing" textLength="163" x="111" y="32.9951">Add Disj Alloy Fields</text><ellipse cx="238.75" cy="57.2969" fill="#222222" rx="10" ry="10" style="stroke:#222222;stroke-width:1.0;"/><rect fill="#F1F1F1" height="33.9688" rx="12.5" ry="12.5" style="stroke:#181818;stroke-width:0.5;" width="206" x="135.75" y="87.2969"/><text fill="#000000" font-family="sans-serif" font-size="12" lengthAdjust="spacing" textLength="186" x="145.75" y="108.4355">Create fieldNames String Array</text><rect fill="#F1F1F1" height="33.9688" rx="12.5" ry="12.5" style="stroke:#181818;stroke-width:0.5;" width="210" x="133.75" y="141.2656"/><text fill="#000000" font-family="sans-serif" font-size="12" lengthAdjust="spacing" textLength="190" x="143.75" y="162.4043">Convert fieldNamesList to Array</text><rect fill="#F1F1F1" height="33.9688" rx="12.5" ry="12.5" style="stroke:#181818;stroke-width:0.5;" width="136" x="170.75" y="195.2344"/><text fill="#000000" font-family="sans-serif" font-size="12" lengthAdjust="spacing" textLength="116" x="180.75" y="216.373">Instantiate Sig.Field</text><rect fill="#F1F1F1" height="33.9688" rx="12.5" ry="12.5" style="stroke:#181818;stroke-width:0.5;" width="121" x="178.25" y="249.2031"/><text fill="#000000" font-family="sans-serif" font-size="12" lengthAdjust="spacing" textLength="101" x="188.25" y="270.3418">Create Signature</text><polygon fill="#F1F1F1" points="181.75,303.1719,295.75,303.1719,307.75,315.1719,295.75,327.1719,181.75,327.1719,169.75,315.1719,181.75,303.1719" style="stroke:#181818;stroke-width:0.5;"/><text fill="#000000" font-family="sans-serif" font-size="11" lengthAdjust="spacing" textLength="114" x="181.75" y="318.98">Signature is not null</text><text fill="#000000" font-family="sans-serif" font-size="11" lengthAdjust="spacing" textLength="21" x="148.75" y="312.5776">yes</text><text fill="#000000" font-family="sans-serif" font-size="11" lengthAdjust="spacing" textLength="14" x="307.75" y="312.5776">no</text><rect fill="#F1F1F1" height="33.9688" rx="12.5" ry="12.5" style="stroke:#181818;stroke-width:0.5;" width="115" x="84" y="337.1719"/><text fill="#000000" font-family="sans-serif" font-size="12" lengthAdjust="spacing" textLength="95" x="94" y="358.3105">Create Sig.Field</text><rect fill="#F1F1F1" height="33.9688" rx="12.5" ry="12.5" style="stroke:#181818;stroke-width:0.5;" width="82" x="100.5" y="439.543"/><text fill="#000000" font-family="sans-serif" font-size="12" lengthAdjust="spacing" textLength="62" x="110.5" y="460.6816">Return null</text><ellipse cx="141.5" cy="516.0273" fill="none" rx="11" ry="11" style="stroke:#222222;stroke-width:1.0;"/><ellipse cx="141.5" cy="516.0273" fill="#222222" rx="6" ry="6" style="stroke:#222222;stroke-width:1.0;"/><polygon fill="#F1F1F1" points="32,391.1406,251,391.1406,263,403.1406,251,415.1406,32,415.1406,20,403.1406,32,391.1406" style="stroke:#181818;stroke-width:0.5;"/><text fill="#000000" font-family="sans-serif" font-size="11" lengthAdjust="spacing" textLength="21" x="145.5" y="425.3511">yes</text><text fill="#000000" font-family="sans-serif" font-size="11" lengthAdjust="spacing" textLength="219" x="32" y="406.9487">Sig.Field length ! = fieldNames length</text><rect fill="#F1F1F1" height="33.9688" rx="12.5" ry="12.5" style="stroke:#181818;stroke-width:0.5;" width="82" x="295" y="337.1719"/><text fill="#000000" font-family="sans-serif" font-size="12" lengthAdjust="spacing" textLength="62" x="305" y="358.3105">Return null</text><ellipse cx="336" cy="402.1406" fill="none" rx="11" ry="11" style="stroke:#222222;stroke-width:1.0;"/><ellipse cx="336" cy="402.1406" fill="#222222" rx="6" ry="6" style="stroke:#222222;stroke-width:1.0;"/><rect fill="#F1F1F1" height="33.9688" rx="12.5" ry="12.5" style="stroke:#181818;stroke-width:0.5;" width="113" x="182.25" y="569.0273"/><text fill="#000000" font-family="sans-serif" font-size="12" lengthAdjust="spacing" textLength="93" x="192.25" y="590.166">Return Sig.Field</text><ellipse cx="238.75" cy="633.9961" fill="none" rx="11" ry="11" style="stroke:#222222;stroke-width:1.0;"/><ellipse cx="238.75" cy="633.9961" fill="#222222" rx="6" ry="6" style="stroke:#222222;stroke-width:1.0;"/><line style="stroke:#181818;stroke-width:1.0;" x1="238.75" x2="238.75" y1="67.2969" y2="87.2969"/><polygon fill="#181818" points="234.75,77.2969,238.75,87.2969,242.75,77.2969,238.75,81.2969" style="stroke:#181818;stroke-width:1.0;"/><line style="stroke:#181818;stroke-width:1.0;" x1="238.75" x2="238.75" y1="121.2656" y2="141.2656"/><polygon fill="#181818" points="234.75,131.2656,238.75,141.2656,242.75,131.2656,238.75,135.2656" style="stroke:#181818;stroke-width:1.0;"/><line style="stroke:#181818;stroke-width:1.0;" x1="238.75" x2="238.75" y1="175.2344" y2="195.2344"/><polygon fill="#181818" points="234.75,185.2344,238.75,195.2344,242.75,185.2344,238.75,189.2344" style="stroke:#181818;stroke-width:1.0;"/><line style="stroke:#181818;stroke-width:1.0;" x1="238.75" x2="238.75" y1="229.2031" y2="249.2031"/><polygon fill="#181818" points="234.75,239.2031,238.75,249.2031,242.75,239.2031,238.75,243.2031" style="stroke:#181818;stroke-width:1.0;"/><line style="stroke:#181818;stroke-width:1.0;" x1="141.5" x2="141.5" y1="473.5117" y2="505.0273"/><polygon fill="#181818" points="137.5,495.0273,141.5,505.0273,145.5,495.0273,141.5,499.0273" style="stroke:#181818;stroke-width:1.0;"/><line style="stroke:#181818;stroke-width:1.0;" x1="141.5" x2="141.5" y1="415.1406" y2="439.543"/><polygon fill="#181818" points="137.5,429.543,141.5,439.543,145.5,429.543,141.5,433.543" style="stroke:#181818;stroke-width:1.0;"/><line style="stroke:#181818;stroke-width:1.0;" x1="263" x2="275" y1="403.1406" y2="403.1406"/><polygon fill="#181818" points="271,475.0273,275,485.0273,279,475.0273,275,479.0273" style="stroke:#181818;stroke-width:1.0;"/><line style="stroke:#181818;stroke-width:1.0;" x1="275" x2="275" y1="403.1406" y2="554.0273"/><line style="stroke:#181818;stroke-width:1.0;" x1="275" x2="238.75" y1="554.0273" y2="554.0273"/><line style="stroke:#181818;stroke-width:1.0;" x1="238.75" x2="238.75" y1="554.0273" y2="569.0273"/><polygon fill="#181818" points="234.75,559.0273,238.75,569.0273,242.75,559.0273,238.75,563.0273" style="stroke:#181818;stroke-width:1.0;"/><line style="stroke:#181818;stroke-width:1.0;" x1="141.5" x2="141.5" y1="371.1406" y2="391.1406"/><polygon fill="#181818" points="137.5,381.1406,141.5,391.1406,145.5,381.1406,141.5,385.1406" style="stroke:#181818;stroke-width:1.0;"/><line style="stroke:#181818;stroke-width:1.0;" x1="336" x2="336" y1="371.1406" y2="391.1406"/><polygon fill="#181818" points="332,381.1406,336,391.1406,340,381.1406,336,385.1406" style="stroke:#181818;stroke-width:1.0;"/><line style="stroke:#181818;stroke-width:1.0;" x1="169.75" x2="141.5" y1="315.1719" y2="315.1719"/><line style="stroke:#181818;stroke-width:1.0;" x1="141.5" x2="141.5" y1="315.1719" y2="337.1719"/><polygon fill="#181818" points="137.5,327.1719,141.5,337.1719,145.5,327.1719,141.5,331.1719" style="stroke:#181818;stroke-width:1.0;"/><line style="stroke:#181818;stroke-width:1.0;" x1="307.75" x2="336" y1="315.1719" y2="315.1719"/><line style="stroke:#181818;stroke-width:1.0;" x1="336" x2="336" y1="315.1719" y2="337.1719"/><polygon fill="#181818" points="332,327.1719,336,337.1719,340,327.1719,336,331.1719" style="stroke:#181818;stroke-width:1.0;"/><line style="stroke:#181818;stroke-width:1.0;" x1="238.75" x2="238.75" y1="283.1719" y2="303.1719"/><polygon fill="#181818" points="234.75,293.1719,238.75,303.1719,242.75,293.1719,238.75,297.1719" style="stroke:#181818;stroke-width:1.0;"/><line style="stroke:#181818;stroke-width:1.0;" x1="238.75" x2="238.75" y1="602.9961" y2="622.9961"/><polygon fill="#181818" points="234.75,612.9961,238.75,622.9961,242.75,612.9961,238.75,616.9961" style="stroke:#181818;stroke-width:1.0;"/><!--SRC=[VO_13e9034Jl-nNZ3Iv-WCG3qPYO60_o1PjGi6RjcjrYmj-xW12yUEnq-cQgh8vGrZME71yedVCzJaokZYQg3MfsXq1M2SqWNksJ8YeDB2tA46nV98ENDmLTEIuS5UeNnraIIvG7JiNjTWme5dIIn6eNg33S85j6S8HuXNJEvT0x2RAUOhu-d5dVmsc48sdrZWtswzwJ-akwKKgICQ987_kN8QcvCUGYPUB_EER5giIm_G00]--></g></svg>