<?xml version="1.0" encoding="us-ascii" standalone="no"?><svg xmlns="http://www.w3.org/2000/svg" xmlns:xlink="http://www.w3.org/1999/xlink" contentStyleType="text/css" height="316px" preserveAspectRatio="none" style="width:621px;height:316px;background:#FFFFFF;" version="1.1" viewBox="0 0 621 316" width="621px" zoomAndPan="magnify"><defs/><g><text fill="#000000" font-family="sans-serif" font-size="14" font-weight="bold" lengthAdjust="spacing" textLength="578" x="20" y="32.9951">Construct Translator(Set&lt;Expr&gt;, Set&lt;Func&gt;, Set&lt;Sig&gt;, Set&lt;Sig.Field&gt;)</text><ellipse cx="261.25" cy="57.2969" fill="#222222" rx="10" ry="10" style="stroke:#222222;stroke-width:1.0;"/><rect fill="#F1F1F1" height="33.9688" rx="12.5" ry="12.5" style="stroke:#181818;stroke-width:0.5;" width="146" x="188.25" y="121.5005"/><text fill="#000000" font-family="sans-serif" font-size="12" lengthAdjust="spacing" textLength="126" x="198.25" y="142.6392">Construct ExprVisitor</text><rect fill="#F1F1F1" height="33.9688" rx="12.5" ry="12.5" style="stroke:#181818;stroke-width:0.5;" width="191" x="165.75" y="175.4692"/><text fill="#000000" font-family="sans-serif" font-size="12" lengthAdjust="spacing" textLength="171" x="175.75" y="196.6079">Set ignoredFuncs Parameter</text><rect fill="#F1F1F1" height="33.9688" rx="12.5" ry="12.5" style="stroke:#181818;stroke-width:0.5;" width="182" x="170.25" y="229.438"/><text fill="#000000" font-family="sans-serif" font-size="12" lengthAdjust="spacing" textLength="162" x="180.25" y="250.5767">Set ignoredSigs Parameter</text><ellipse cx="261.25" cy="294.4067" fill="none" rx="11" ry="11" style="stroke:#222222;stroke-width:1.0;"/><ellipse cx="261.25" cy="294.4067" fill="#222222" rx="6" ry="6" style="stroke:#222222;stroke-width:1.0;"/><line style="stroke:#181818;stroke-width:1.0;" x1="261.25" x2="261.25" y1="67.2969" y2="121.5005"/><polygon fill="#181818" points="257.25,111.5005,261.25,121.5005,265.25,111.5005,261.25,115.5005" style="stroke:#181818;stroke-width:1.0;"/><text fill="#000000" font-family="sans-serif" font-size="11" lengthAdjust="spacing" textLength="185" x="265.25" y="88.6016">Ignored Expressions: Set&lt;Expr&gt;</text><text fill="#000000" font-family="sans-serif" font-size="11" lengthAdjust="spacing" textLength="189" x="265.25" y="101.4063">Parameter Fields: Set&lt;Sig.Field&gt;</text><line style="stroke:#181818;stroke-width:1.0;" x1="261.25" x2="261.25" y1="155.4692" y2="175.4692"/><polygon fill="#181818" points="257.25,165.4692,261.25,175.4692,265.25,165.4692,261.25,169.4692" style="stroke:#181818;stroke-width:1.0;"/><line style="stroke:#181818;stroke-width:1.0;" x1="261.25" x2="261.25" y1="209.438" y2="229.438"/><polygon fill="#181818" points="257.25,219.438,261.25,229.438,265.25,219.438,261.25,223.438" style="stroke:#181818;stroke-width:1.0;"/><line style="stroke:#181818;stroke-width:1.0;" x1="261.25" x2="261.25" y1="263.4067" y2="283.4067"/><polygon fill="#181818" points="257.25,273.4067,261.25,283.4067,265.25,273.4067,261.25,277.4067" style="stroke:#181818;stroke-width:1.0;"/><!--SRC=[NOv12i9034NtSuei5TG3L9cDM71NgBWVsb02uqn9Kl3uJhGuwEx3ot_vIXeHpZc9yZ8et3WaYK4pRthKq-Kviz-1nNP9mnfxccewj8Hnz5id6bWTx3rSfvGPHx0sYb2nD_3LEUW2XmSgChoxAwokeuEcJhBIdOJA9WFb5EZpm2P9jVtHulk1edb-0G00]--></g></svg>